<svg xmlns="http://www.w3.org/2000/svg" xmlns:xlink="http://www.w3.org/1999/xlink" id="Enhanced_diamond_module" x="0" y="0" enable-background="new 0 0 800 800" version="1.1" viewBox="0 0 800 800" xml:space="preserve">
  <defs/>
  <style>
    .st0 {clip-path:url(#Bounding_box_1_);}
    .st1 {fill:#a5f7dc;}
    .st2 {fill:#89e7e8;}
    .st3 {fill:#78d9da;}
    .st4 {fill:#65c9c1;}
    .st5 {fill:#bdf7d1;}
    .st6 {fill:#c8ffee;}
    .st7 {fill:#78f1e2;}
    .st8 {clip-path:url(#Bounding_box_1_);filter:url(#filter-10);}
  </style>
  <filter id="filter-10" width="120%" height="120%" x="-10%" y="-10%" filterUnits="objectBoundingBox">
    <feGaussianBlur in="SourceGraphic" stdDeviation="5"/>
  </filter>
  <filter id="AI_GaussianBlur_6">
    <feGaussianBlur stdDeviation="6"/>
  </filter>
  <g id="Diamonds" transform="scale(1, -1) translate(0, -800)">
    <defs>
      <path id="Bounding_box" d="M0 0h800v800H0z"/>
    </defs>
    <clipPath id="Bounding_box_1_">
      <use overflow="visible" xlink:href="#Bounding_box"/>
    </clipPath>
    <g class="st0">
      <!-- Original Shapes -->
      <path d="M350 500l-180 2-72 92 45 136 130 55 115-95z" class="st1"/>
      <path d="M170 501l180-2 40 200-115 95 100-90-10-80-45-100z" class="st2"/>
      <path d="M265 550l100 60-45-100z" class="st1"/>
      <path d="M380 670l-100-30-10-105 100 60z" class="st3"/>
      <path d="M220 690l55 75 105-90-100-30z" class="st4"/>
      <path d="M170 670l50 20 55 75-130-55z" class="st2"/>
      <!-- Additional Shapes -->
      <path d="M480 400l-100-30-10-105 100 60z" class="st4"/>
      <path d="M420 580l55 75 105-90-100-30z" class="st6"/>
      <path d="M120 350l-80 10 45 50z" class="st3"/>
      <path d="M220 270l60 30-20-40z" class="st7"/>
    </g>
    <g class="st8">
      <!-- Original Shapes -->
      <path d="M580 320l80 60-50 100-85 2 75-8 25-40 15-60z" class="st2"/>
      <path d="M605 380l25 60 15-60z" class="st1"/>
      <path d="M605 480l-35-50 35-50 25 60z" class="st3"/>
      <!-- Additional Shapes -->
      <path d="M180 150l60 40-30 70-50 10z" class="st3"/>
      <path d="M700 600l-45 70-50-20 30-80z" class="st2"/>
      <path d="M100 200l70 20-30 60-40-10z" class="st5"/>
    </g>
  </g>
</svg>
