<?xml version="1.0" encoding="utf-8"?>
<!-- Generator: Adobe Illustrator 27.5.0, SVG Export Plug-In . SVG Version: 6.00 Build 0)  -->
<svg version="1.1" id="Layer_1" xmlns="http://www.w3.org/2000/svg" xmlns:xlink="http://www.w3.org/1999/xlink" x="0px"
	y="0px" viewBox="0 0 2630 1712" style="enable-background:new 0 0 2630 1712;" xml:space="preserve">
	<g>
		<g>
			<defs>
				<rect id="SVGID_1_" width="2629.749" height="1711.189" />
			</defs>
			<use xlink:href="#SVGID_1_" style="overflow:visible;" />
			<clipPath id="SVGID_00000135663730122456806570000004180621058657199493_">
				<use xlink:href="#SVGID_1_" style="overflow:visible;" />
			</clipPath>

			<g style="clip-path:url(#SVGID_00000135663730122456806570000004180621058657199493_);">
				<g style="opacity:0.6;">
					<path style="fill:#FFFFFF;" d="M679.822,556.646c-1.281-0.074-2.26-1.172-2.186-2.453c0.074-1.281,1.172-2.26,2.453-2.186
					c1.281,0.074,2.26,1.172,2.185,2.453C682.201,555.742,681.103,556.72,679.822,556.646z" />
					<path style="fill:#FFFFFF;" d="M651.32,472.366c-1.281-0.074-2.26-1.172-2.186-2.453c0.074-1.281,1.172-2.26,2.453-2.186
					c1.281,0.074,2.26,1.172,2.186,2.453C653.699,471.461,652.601,472.439,651.32,472.366z" />
					<path style="fill:#FFFFFF;" d="M1550.098,644.08c-1.182-0.068-2.084-1.081-2.016-2.262c0.068-1.182,1.081-2.084,2.263-2.016
					c1.181,0.068,2.084,1.081,2.016,2.263C1552.292,643.245,1551.279,644.148,1550.098,644.08z" />
					<path style="fill:#FFFFFF;" d="M409.531-402.65c-1.196-0.069-2.109-1.094-2.04-2.289c0.069-1.195,1.094-2.109,2.289-2.04
					c1.196,0.069,2.109,1.094,2.04,2.289C411.752-403.495,410.727-402.581,409.531-402.65z" />
					<path style="fill:#FFFFFF;" d="M749.449,92.075c-1.224-0.071-2.159-1.12-2.089-2.344c0.071-1.224,1.12-2.159,2.344-2.089
					c1.224,0.071,2.159,1.12,2.089,2.344C751.722,91.211,750.673,92.146,749.449,92.075z" />
					<path style="fill:#FFFFFF;" d="M113.696-306.951c-1.224-0.071-2.159-1.12-2.089-2.344c0.071-1.224,1.12-2.159,2.344-2.089
					c1.224,0.071,2.159,1.12,2.089,2.344C115.97-307.816,114.921-306.881,113.696-306.951z" />
					<path style="fill:#FFFFFF;" d="M397.997-212.257c-1.238-0.072-2.184-1.133-2.113-2.372c0.071-1.238,1.133-2.184,2.371-2.113
					c1.238,0.071,2.184,1.133,2.113,2.371C400.296-213.131,399.235-212.185,397.997-212.257z" />
					<path style="fill:#FFFFFF;" d="M2204.578,222.269c-1.11-0.064-1.958-1.016-1.895-2.126c0.064-1.11,1.015-1.959,2.126-1.894
					c1.11,0.064,1.958,1.015,1.895,2.126C2206.64,221.484,2205.689,222.333,2204.578,222.269z" />
					<path style="fill:#FFFFFF;" d="M420.811-128.898c-1.252-0.072-2.209-1.146-2.137-2.398c0.072-1.253,1.146-2.21,2.398-2.137
					c1.253,0.072,2.21,1.146,2.137,2.398C423.138-129.784,422.064-128.827,420.811-128.898z" />
					<path style="fill:#FFFFFF;" d="M1445.042,566.379c-1.224-0.07-2.159-1.12-2.089-2.344c0.071-1.224,1.12-2.159,2.344-2.089
					c1.224,0.071,2.16,1.12,2.089,2.344C1447.316,565.515,1446.266,566.45,1445.042,566.379z" />
					<path style="fill:#FFFFFF;" d="M1946.036,290.922c-1.153-0.066-2.034-1.054-1.967-2.207c0.066-1.153,1.055-2.034,2.208-1.967
					c1.153,0.066,2.034,1.055,1.967,2.208C1948.177,290.108,1947.189,290.988,1946.036,290.922z" />
					<path style="fill:#FFFFFF;" d="M1113.609,707.32c-1.21-0.07-2.134-1.107-2.065-2.317c0.07-1.21,1.107-2.134,2.317-2.064
					c1.21,0.069,2.134,1.107,2.064,2.317C1115.856,706.466,1114.819,707.39,1113.609,707.32z" />
					<path style="fill:#FFFFFF;" d="M393.659-348.851c-1.223-0.071-2.159-1.12-2.089-2.344c0.071-1.224,1.12-2.159,2.344-2.089
					c1.224,0.071,2.159,1.12,2.089,2.344C395.932-349.715,394.883-348.78,393.659-348.851z" />
					<path style="fill:#FFFFFF;" d="M2649.876-101.672c-1.139-0.066-2.009-1.042-1.943-2.181c0.066-1.139,1.042-2.009,2.181-1.943
					c1.139,0.066,2.009,1.042,1.943,2.181C2651.99-102.476,2651.014-101.606,2649.876-101.672z" />
					<path style="fill:#FFFFFF;" d="M2420.545-7.755c-1.096-0.063-1.933-1.003-1.871-2.098c0.063-1.096,1.003-1.933,2.099-1.87
					c1.096,0.063,1.933,1.003,1.87,2.098C2422.581-8.528,2421.641-7.691,2420.545-7.755z" />
					<path style="fill:#FFFFFF;" d="M2563.198-165.334c-1.067-0.062-1.883-0.976-1.821-2.044c0.062-1.067,0.977-1.883,2.044-1.821
					c1.068,0.062,1.883,0.976,1.821,2.044C2565.18-166.087,2564.265-165.272,2563.198-165.334z" />
					<path style="fill:#FFFFFF;" d="M563.058,826.798c-1.338-0.077-2.36-1.224-2.283-2.562c0.077-1.338,1.224-2.36,2.562-2.283
					c1.338,0.077,2.36,1.224,2.283,2.562C565.543,825.853,564.396,826.875,563.058,826.798z" />
					<path style="fill:#FFFFFF;" d="M1575.884,234.051c-1.224-0.071-2.159-1.12-2.089-2.344c0.071-1.224,1.12-2.159,2.344-2.089
					c1.224,0.071,2.159,1.12,2.089,2.344C1578.158,233.186,1577.109,234.121,1575.884,234.051z" />
					<path style="fill:#FFFFFF;" d="M2935.923-306.689c-1.167-0.067-2.059-1.068-1.991-2.235c0.067-1.167,1.068-2.059,2.235-1.992
					c1.167,0.068,2.059,1.068,1.992,2.235C2938.09-307.513,2937.09-306.621,2935.923-306.689z" />
					<path style="fill:#FFFFFF;" d="M1177.174,401.887c-1.267-0.073-2.235-1.159-2.162-2.426c0.073-1.267,1.159-2.235,2.426-2.162
					c1.267,0.073,2.235,1.159,2.162,2.426C1179.526,400.992,1178.441,401.96,1177.174,401.887z" />
					<path style="fill:#FFFFFF;" d="M1953.777,142.147c-1.196-0.069-2.109-1.094-2.04-2.289c0.069-1.196,1.094-2.109,2.289-2.04
					c1.196,0.069,2.109,1.094,2.04,2.289C1955.998,141.303,1954.973,142.216,1953.777,142.147z" />
					<path style="fill:#FFFFFF;" d="M1159.072-59.618c-1.182-0.068-2.084-1.081-2.016-2.262c0.068-1.181,1.081-2.084,2.262-2.015
					c1.182,0.068,2.084,1.08,2.016,2.262C1161.267-60.452,1160.254-59.55,1159.072-59.618z" />
					<path style="fill:#FFFFFF;" d="M545.472-109.67c-1.196-0.069-2.109-1.094-2.04-2.289c0.069-1.196,1.094-2.109,2.289-2.04
					c1.196,0.069,2.109,1.094,2.04,2.289C547.693-110.514,546.668-109.601,545.472-109.67z" />
					<path style="fill:#FFFFFF;" d="M949.806,636.812c-1.295-0.074-2.285-1.185-2.21-2.48c0.074-1.295,1.185-2.285,2.48-2.21
					c1.295,0.074,2.285,1.185,2.21,2.48C952.212,635.897,951.101,636.887,949.806,636.812z" />
					<path style="fill:#FFFFFF;" d="M1567.439,0.877c-1.21-0.07-2.134-1.107-2.064-2.317c0.069-1.21,1.107-2.134,2.316-2.065
					c1.21,0.07,2.134,1.107,2.065,2.317C1569.686,0.023,1568.648,0.947,1567.439,0.877z" />
					<path style="fill:#FFFFFF;" d="M2672.689-328.081c-1.182-0.068-2.084-1.081-2.016-2.263c0.068-1.181,1.081-2.084,2.262-2.015
					c1.182,0.068,2.084,1.08,2.016,2.262C2674.883-328.915,2673.87-328.013,2672.689-328.081z" />
					<path style="fill:#FFFFFF;" d="M1271.086,84.031c-1.182-0.068-2.084-1.081-2.016-2.262c0.068-1.182,1.081-2.084,2.262-2.016
					c1.182,0.068,2.084,1.081,2.016,2.262C1273.28,83.196,1272.267,84.099,1271.086,84.031z" />
					<path style="fill:#FFFFFF;" d="M341.599,313.529c-1.267-0.073-2.235-1.159-2.162-2.426c0.073-1.267,1.159-2.235,2.426-2.162
					c1.267,0.073,2.234,1.159,2.161,2.426C343.952,312.635,342.866,313.602,341.599,313.529z" />
					<path style="fill:#FFFFFF;" d="M2115.935,525.87c-1.153-0.066-2.034-1.055-1.968-2.208s1.055-2.033,2.208-1.967
					c1.153,0.066,2.033,1.054,1.967,2.207C2118.075,525.056,2117.087,525.936,2115.935,525.87z" />
					<path style="fill:#FFFFFF;" d="M2281.447,350.292c-1.196-0.069-2.109-1.094-2.04-2.289c0.069-1.196,1.094-2.109,2.289-2.04
					c1.196,0.069,2.109,1.094,2.041,2.289C2283.667,349.447,2282.643,350.361,2281.447,350.292z" />
					<path style="fill:#FFFFFF;" d="M2676.803-83.443c-1.239-0.071-2.185-1.133-2.113-2.371c0.071-1.239,1.133-2.185,2.371-2.114
					c1.238,0.072,2.184,1.133,2.113,2.372C2679.103-84.318,2678.042-83.372,2676.803-83.443z" />
					<path style="fill:#FFFFFF;" d="M1649.722-33.35c-1.196-0.069-2.109-1.094-2.04-2.29c0.069-1.196,1.093-2.109,2.289-2.041
					c1.196,0.069,2.109,1.094,2.04,2.29C1651.943-34.195,1650.917-33.282,1649.722-33.35z" />
					<path style="fill:#FFFFFF;" d="M2489.552-289.164c-1.11-0.064-1.958-1.015-1.895-2.126c0.064-1.11,1.015-1.958,2.126-1.894
					c1.11,0.064,1.958,1.015,1.894,2.126C2491.614-289.948,2490.663-289.1,2489.552-289.164z" />
					<path style="fill:#FFFFFF;" d="M2076.476,409.154c-1.067-0.061-1.883-0.977-1.822-2.044c0.062-1.067,0.977-1.883,2.044-1.821
					c1.068,0.062,1.884,0.976,1.822,2.044C2078.459,408.401,2077.543,409.216,2076.476,409.154z" />
					<path style="fill:#FFFFFF;" d="M1897.131,453.151c-1.224-0.071-2.159-1.12-2.089-2.344c0.071-1.224,1.12-2.159,2.344-2.089
					c1.224,0.071,2.159,1.12,2.089,2.344C1899.405,452.286,1898.356,453.221,1897.131,453.151z" />
					<path style="fill:#FFFFFF;" d="M1994.19,338.376c-1.239-0.071-2.185-1.133-2.114-2.371c0.072-1.238,1.134-2.184,2.372-2.113
					s2.184,1.133,2.113,2.371C1996.49,337.501,1995.428,338.448,1994.19,338.376z" />
					<path style="fill:#FFFFFF;" d="M3012.771-378.541c-1.281-0.074-2.26-1.172-2.186-2.453c0.073-1.281,1.172-2.26,2.453-2.186
					c1.281,0.074,2.26,1.172,2.186,2.453C3015.15-379.446,3014.052-378.467,3012.771-378.541z" />
					<path style="fill:#FFFFFF;" d="M2289.119-177.99c-1.11-0.064-1.958-1.016-1.894-2.126c0.064-1.11,1.015-1.958,2.126-1.894
					c1.11,0.064,1.958,1.015,1.894,2.126C2291.18-178.774,2290.229-177.926,2289.119-177.99z" />
					<path style="fill:#FFFFFF;" d="M1586.203,342.236c-1.267-0.073-2.235-1.159-2.162-2.426c0.073-1.267,1.159-2.234,2.426-2.161
					c1.267,0.073,2.234,1.159,2.161,2.425C1588.555,341.341,1587.469,342.309,1586.203,342.236z" />
					<path style="fill:#FFFFFF;" d="M2331.872,248.76c-1.238-0.071-2.184-1.133-2.113-2.371c0.071-1.238,1.133-2.184,2.371-2.113
					c1.238,0.071,2.184,1.133,2.113,2.371C2334.172,247.885,2333.11,248.831,2331.872,248.76z" />
					<path style="fill:#FFFFFF;" d="M2021.752-180.589c-1.182-0.068-2.084-1.081-2.016-2.262c0.068-1.182,1.081-2.084,2.262-2.016
					c1.182,0.068,2.084,1.081,2.016,2.263C2023.946-181.424,2022.933-180.521,2021.752-180.589z" />
					<path style="fill:#FFFFFF;" d="M385.951,24.727c-1.21-0.069-2.134-1.107-2.064-2.317c0.069-1.21,1.107-2.134,2.317-2.064
					c1.21,0.069,2.134,1.107,2.064,2.317C388.198,23.872,387.161,24.797,385.951,24.727z" />
					<path style="fill:#FFFFFF;" d="M1222.287-274.572c-2.975-0.172-5.247-2.722-5.076-5.697c0.172-2.975,2.722-5.247,5.697-5.076
					c2.975,0.172,5.247,2.722,5.076,5.697C1227.812-276.673,1225.262-274.401,1222.287-274.572z" />
					<path style="fill:#FFFFFF;" d="M-280.181-108.998c-1.381-0.08-2.436-1.263-2.356-2.644c0.08-1.381,1.263-2.436,2.644-2.356
					c1.381,0.079,2.436,1.263,2.356,2.644C-277.617-109.973-278.8-108.919-280.181-108.998z" />
					<path style="fill:#FFFFFF;" d="M729.126-161.149c-1.281-0.074-2.26-1.172-2.186-2.453c0.074-1.281,1.172-2.26,2.453-2.186
					c1.281,0.074,2.26,1.172,2.186,2.453C731.505-162.054,730.407-161.076,729.126-161.149z" />
					<path style="fill:#FFFFFF;" d="M2773.046-215.485c-1.281-0.074-2.26-1.172-2.186-2.453c0.073-1.281,1.172-2.26,2.453-2.186
					c1.281,0.074,2.26,1.172,2.186,2.453C2775.425-216.391,2774.327-215.412,2773.046-215.485z" />
					<path style="fill:#FFFFFF;" d="M2160.104-284.168c-1.209-0.07-2.134-1.107-2.064-2.317c0.07-1.21,1.107-2.134,2.317-2.065
					c1.209,0.07,2.134,1.107,2.064,2.317C2162.352-285.023,2161.315-284.099,2160.104-284.168z" />
					<path style="fill:#FFFFFF;" d="M1547.022-214.809c-2.775-0.16-4.896-2.54-4.736-5.315c0.16-2.776,2.54-4.896,5.315-4.736
					c2.775,0.16,4.896,2.539,4.736,5.315C1552.177-216.769,1549.798-214.649,1547.022-214.809z" />
					<path style="fill:#FFFFFF;" d="M2014.17,617.309c-1.224-0.071-2.159-1.12-2.089-2.344c0.071-1.224,1.12-2.159,2.344-2.089
					s2.159,1.12,2.089,2.344C2016.443,616.444,2015.393,617.379,2014.17,617.309z" />
					<path style="fill:#FFFFFF;" d="M2723.115-40.827c-1.31-0.075-2.31-1.198-2.235-2.507c0.076-1.309,1.199-2.31,2.508-2.234
					s2.31,1.198,2.234,2.507C2725.547-41.752,2724.424-40.752,2723.115-40.827z" />
					<path style="fill:#FFFFFF;" d="M1478.452-134.929c-2.52-0.145-4.444-2.305-4.299-4.824c0.145-2.52,2.305-4.444,4.824-4.299
					c2.519,0.145,4.444,2.305,4.299,4.824C1483.131-136.709,1480.971-134.784,1478.452-134.929z" />
					<path style="fill:#FFFFFF;" d="M1214.463-42.646c-2.59-0.149-4.569-2.37-4.42-4.961c0.149-2.59,2.37-4.57,4.961-4.42
					c2.59,0.149,4.569,2.37,4.42,4.961C1219.275-44.476,1217.053-42.497,1214.463-42.646z" />
					<path style="fill:#FFFFFF;" d="M1014.225,80.381c-1.309-0.075-2.31-1.198-2.234-2.507c0.076-1.309,1.198-2.31,2.507-2.234
					c1.309,0.076,2.31,1.198,2.235,2.507C1016.658,79.457,1015.535,80.457,1014.225,80.381z" />
					<path style="fill:#FFFFFF;" d="M1612.099,87.433c-1.295-0.074-2.285-1.185-2.21-2.48c0.074-1.295,1.185-2.285,2.48-2.21
					c1.295,0.075,2.285,1.185,2.21,2.481C1614.505,86.518,1613.394,87.507,1612.099,87.433z" />
					<path style="fill:#FFFFFF;" d="M2354.708-377.604c-1.11-0.064-1.958-1.016-1.894-2.126c0.064-1.11,1.015-1.958,2.126-1.894
					c1.11,0.064,1.958,1.015,1.894,2.126C2356.77-378.388,2355.818-377.54,2354.708-377.604z" />
					<path style="fill:#FFFFFF;" d="M1285.664,120.036c-1.153-0.066-2.034-1.055-1.967-2.208c0.066-1.153,1.055-2.033,2.208-1.967
					c1.153,0.066,2.034,1.054,1.967,2.207C1287.806,119.221,1286.817,120.102,1285.664,120.036z" />
					<path style="fill:#FFFFFF;" d="M3001.325,473.874c-2.249-0.129-3.966-2.058-3.837-4.306c0.13-2.249,2.058-3.967,4.307-3.837
					c2.249,0.13,3.967,2.057,3.837,4.306C3005.502,472.286,3003.574,474.004,3001.325,473.874z" />
					<path style="fill:#FFFFFF;" d="M2314.341,809.959c-2.676-0.154-4.72-2.448-4.566-5.124c0.154-2.676,2.448-4.72,5.125-4.566
					c2.675,0.154,4.72,2.448,4.565,5.124C2319.311,808.069,2317.017,810.113,2314.341,809.959z" />
					<path style="fill:#FFFFFF;" d="M780.797-106.537c-2.719-0.156-4.796-2.487-4.639-5.205c0.157-2.719,2.487-4.796,5.206-4.639
					c2.719,0.156,4.796,2.487,4.639,5.206C785.847-108.457,783.516-106.38,780.797-106.537z" />
					<path style="fill:#FFFFFF;" d="M1113.74-60.884c-1.295-0.074-2.285-1.185-2.21-2.48c0.074-1.295,1.185-2.285,2.48-2.21
					c1.295,0.075,2.285,1.185,2.21,2.481C1116.146-61.799,1115.036-60.809,1113.74-60.884z" />
					<path style="fill:#FFFFFF;" d="M2339.853,445.112c-1.323-0.077-2.334-1.211-2.259-2.535c0.076-1.324,1.211-2.335,2.535-2.259
					c1.323,0.076,2.334,1.211,2.258,2.535C2342.311,444.177,2341.177,445.189,2339.853,445.112z" />
					<path style="fill:#FFFFFF;" d="M2291.165-350.907c-1.281-0.074-2.26-1.172-2.186-2.453c0.074-1.281,1.172-2.26,2.453-2.186
					c1.281,0.074,2.26,1.172,2.185,2.453C2293.544-351.812,2292.446-350.833,2291.165-350.907z" />
					<path style="fill:#FFFFFF;" d="M1158.787,54.886c-1.138-0.065-2.009-1.042-1.943-2.181c0.066-1.138,1.042-2.008,2.18-1.942
					c1.139,0.065,2.009,1.041,1.943,2.181C1160.901,54.082,1159.926,54.952,1158.787,54.886z" />
					<path style="fill:#FFFFFF;" d="M2931.44,202.152c-2.69-0.155-4.745-2.461-4.59-5.151c0.155-2.69,2.462-4.745,5.152-4.59
					c2.69,0.155,4.745,2.461,4.59,5.151C2936.436,200.252,2934.13,202.307,2931.44,202.152z" />
					<path style="fill:#FFFFFF;" d="M1629.218,151.148c-2.376-0.137-4.192-2.175-4.056-4.552c0.137-2.377,2.175-4.193,4.552-4.056
					c2.376,0.137,4.193,2.174,4.056,4.552C1633.634,149.469,1631.596,151.285,1629.218,151.148z" />
					<path style="fill:#FFFFFF;" d="M515.564-427.236c-1.267-0.073-2.234-1.159-2.162-2.426c0.073-1.267,1.159-2.235,2.426-2.162
					c1.267,0.073,2.235,1.159,2.162,2.426C517.917-428.13,516.831-427.163,515.564-427.236z" />
					<path style="fill:#FFFFFF;" d="M638.709,732.64c-1.367-0.079-2.41-1.25-2.331-2.617c0.078-1.366,1.25-2.41,2.616-2.331
					c1.367,0.078,2.411,1.25,2.331,2.616C641.247,731.675,640.076,732.719,638.709,732.64z" />
					<path style="fill:#FFFFFF;" d="M1624.759,165.733c-1.324-0.076-2.335-1.211-2.259-2.535c0.077-1.323,1.211-2.335,2.535-2.258
					c1.324,0.076,2.335,1.211,2.259,2.535C1627.218,164.798,1626.082,165.809,1624.759,165.733z" />
					<path style="fill:#FFFFFF;" d="M1170.061-460.518c-1.082-0.062-1.908-0.99-1.846-2.072c0.062-1.082,0.989-1.908,2.071-1.846
					c1.082,0.062,1.908,0.99,1.846,2.072C1172.069-461.282,1171.142-460.456,1170.061-460.518z" />
					<path style="fill:#FFFFFF;" d="M1688.928,180.237c-2.235-0.129-3.942-2.045-3.813-4.279c0.129-2.235,2.045-3.942,4.279-3.813
					c2.235,0.128,3.942,2.045,3.813,4.279C1693.078,178.658,1691.162,180.365,1688.928,180.237z" />
					<path style="fill:#FFFFFF;" d="M1487.994,643.089c-1.323-0.076-2.334-1.211-2.258-2.535c0.076-1.323,1.211-2.335,2.535-2.258
					c1.323,0.076,2.335,1.211,2.258,2.535C1490.453,642.154,1489.318,643.165,1487.994,643.089z" />
					<path style="fill:#FFFFFF;" d="M2128.174-406.786c-1.11-0.064-1.958-1.015-1.894-2.126c0.064-1.11,1.016-1.958,2.126-1.894
					c1.11,0.064,1.958,1.015,1.894,2.126C2130.236-407.57,2129.285-406.722,2128.174-406.786z" />
					<path style="fill:#FFFFFF;" d="M2582.933,820.025c-1.978-0.115-3.49-1.81-3.376-3.789s1.81-3.49,3.789-3.376
					c1.978,0.114,3.49,1.81,3.376,3.789C2586.607,818.627,2584.911,820.138,2582.933,820.025z" />
					<path style="fill:#FFFFFF;" d="M998.289-171.789c-2.235-0.128-3.942-2.044-3.813-4.279c0.129-2.235,2.045-3.942,4.279-3.813
					c2.235,0.128,3.942,2.045,3.813,4.279C1002.44-173.367,1000.524-171.66,998.289-171.789z" />
					<path style="fill:#FFFFFF;" d="M745.424-167.58c-1.324-0.076-2.335-1.211-2.259-2.535c0.076-1.323,1.211-2.335,2.535-2.258
					c1.324,0.076,2.335,1.211,2.259,2.535C747.882-168.515,746.748-167.503,745.424-167.58z" />
					<path style="fill:#FFFFFF;" d="M1540.181,205.672c-1.338-0.077-2.36-1.224-2.283-2.562c0.077-1.338,1.224-2.36,2.562-2.283
					c1.337,0.077,2.36,1.224,2.283,2.562C1542.666,204.727,1541.519,205.749,1540.181,205.672z" />
					<path style="fill:#FFFFFF;" d="M1971.156,625.175c-1.366-0.079-2.41-1.25-2.331-2.616c0.079-1.367,1.25-2.411,2.616-2.332
					c1.367,0.079,2.411,1.25,2.332,2.617C1973.694,624.209,1972.522,625.253,1971.156,625.175z" />
					<path style="fill:#FFFFFF;" d="M2236.494-345.368c-1.082-0.062-1.908-0.99-1.846-2.072c0.062-1.082,0.99-1.908,2.072-1.846
					c1.082,0.062,1.908,0.99,1.846,2.072C2238.504-346.132,2237.576-345.306,2236.494-345.368z" />
					<path style="fill:#FFFFFF;" d="M597.308-200.675c-1.125-0.064-1.984-1.029-1.919-2.153c0.065-1.124,1.029-1.983,2.153-1.919
					c1.124,0.065,1.983,1.029,1.919,2.154C599.396-201.469,598.432-200.61,597.308-200.675z" />
					<path style="fill:#FFFFFF;" d="M2134.622-327.473c-2.462-0.142-4.343-2.253-4.202-4.715c0.142-2.462,2.253-4.344,4.715-4.202
					c2.462,0.142,4.343,2.253,4.202,4.715C2139.195-329.212,2137.084-327.331,2134.622-327.473z" />
					<path style="fill:#FFFFFF;" d="M520.566-307.566c-1.309-0.076-2.31-1.198-2.234-2.507s1.198-2.31,2.507-2.235
					c1.309,0.076,2.31,1.198,2.235,2.507C522.999-308.491,521.875-307.49,520.566-307.566z" />
					<path style="fill:#FFFFFF;" d="M1526.29,795.265c-1.352-0.078-2.385-1.237-2.307-2.589s1.237-2.385,2.589-2.308
					c1.352,0.078,2.385,1.238,2.307,2.59C1528.802,794.31,1527.642,795.343,1526.29,795.265z" />
					<path style="fill:#FFFFFF;" d="M1874.344-162.24c-1.323-0.076-2.335-1.211-2.258-2.535c0.076-1.323,1.211-2.335,2.535-2.258
					c1.323,0.076,2.335,1.211,2.258,2.535C1876.803-163.175,1875.668-162.164,1874.344-162.24z" />
					<path style="fill:#FFFFFF;" d="M1586.226-240.916c-1.11-0.064-1.958-1.016-1.894-2.126c0.064-1.11,1.015-1.958,2.126-1.894
					s1.958,1.015,1.894,2.126C1588.287-241.7,1587.335-240.852,1586.226-240.916z" />
					<path style="fill:#FFFFFF;" d="M1173.836-19.646c-1.11-0.064-1.958-1.016-1.894-2.126c0.064-1.11,1.015-1.958,2.126-1.894
					c1.11,0.064,1.958,1.015,1.894,2.126C1175.898-20.43,1174.946-19.582,1173.836-19.646z" />
					<path style="fill:#FFFFFF;" d="M1711.723-253.262c-2.121-0.122-3.741-1.941-3.619-4.061c0.122-2.121,1.941-3.741,4.061-3.619
					c2.12,0.122,3.741,1.94,3.618,4.061C1715.662-254.76,1713.843-253.139,1711.723-253.262z" />
					<path style="fill:#FFFFFF;" d="M990.319,206.351c-2.206-0.127-3.892-2.019-3.765-4.225c0.127-2.206,2.019-3.892,4.225-3.764
					c2.206,0.127,3.891,2.019,3.764,4.225C994.417,204.792,992.525,206.478,990.319,206.351z" />
					<path style="fill:#FFFFFF;" d="M219.611,185.932c-2.818-0.163-4.971-2.579-4.809-5.396c0.162-2.818,2.579-4.971,5.396-4.809
					c2.818,0.163,4.971,2.579,4.809,5.396C224.845,183.942,222.429,186.095,219.611,185.932z" />
					<path style="fill:#FFFFFF;" d="M1002.233,274.239c-1.366-0.079-2.41-1.25-2.331-2.616c0.079-1.367,1.25-2.41,2.616-2.331
					c1.367,0.078,2.411,1.25,2.331,2.616C1004.771,273.274,1003.6,274.318,1002.233,274.239z" />
					<path style="fill:#FFFFFF;" d="M1625.833,950.71c-1.437-0.083-2.536-1.315-2.453-2.753c0.083-1.438,1.316-2.536,2.753-2.453
					c1.437,0.083,2.535,1.316,2.453,2.753C1628.503,949.695,1627.271,950.793,1625.833,950.71z" />
					<path style="fill:#FFFFFF;" d="M1880.636-378.352c-1.124-0.064-1.983-1.029-1.919-2.153c0.065-1.124,1.029-1.983,2.154-1.919
					c1.124,0.065,1.983,1.029,1.918,2.153C1882.725-379.147,1881.761-378.288,1880.636-378.352z" />
					<path style="fill:#FFFFFF;" d="M743.806-266.99c-1.082-0.063-1.908-0.99-1.846-2.072c0.063-1.082,0.99-1.908,2.071-1.846
					c1.082,0.063,1.908,0.99,1.846,2.072C745.815-267.754,744.888-266.927,743.806-266.99z" />
					<path style="fill:#FFFFFF;" d="M212.482,778.423c-2.363-0.136-4.168-2.162-4.032-4.525c0.136-2.362,2.162-4.167,4.524-4.032
					c2.363,0.136,4.168,2.162,4.032,4.525C216.871,776.754,214.845,778.559,212.482,778.423z" />
					<path style="fill:#FFFFFF;" d="M665.863-147.391c-2.206-0.127-3.892-2.019-3.764-4.225c0.127-2.207,2.019-3.892,4.225-3.765
					c2.206,0.127,3.892,2.019,3.764,4.225C669.96-148.949,668.069-147.264,665.863-147.391z" />
					<path style="fill:#FFFFFF;" d="M202.446-145.457c-1.367-0.079-2.411-1.25-2.331-2.617c0.078-1.366,1.25-2.41,2.616-2.331
					c1.367,0.078,2.411,1.25,2.331,2.616C204.983-146.422,203.812-145.378,202.446-145.457z" />
					<path style="fill:#FFFFFF;" d="M1149.173,166.139c-1.366-0.079-2.41-1.25-2.331-2.617c0.078-1.366,1.25-2.41,2.616-2.331
					c1.367,0.079,2.411,1.25,2.332,2.617C1151.711,165.173,1150.54,166.217,1149.173,166.139z" />
					<path style="fill:#FFFFFF;" d="M1650.235-264.043c-1.096-0.063-1.933-1.003-1.871-2.099c0.063-1.096,1.003-1.933,2.099-1.87
					c1.096,0.063,1.933,1.003,1.87,2.099C1652.271-264.818,1651.331-263.98,1650.235-264.043z" />
					<path style="fill:#FFFFFF;" d="M1155.848-202.974c-1.082-0.062-1.908-0.989-1.846-2.071c0.063-1.082,0.99-1.908,2.072-1.846
					c1.082,0.063,1.908,0.99,1.846,2.072C1157.857-203.738,1156.93-202.911,1155.848-202.974z" />
					<path style="fill:#FFFFFF;" d="M1010.586,895.133c-2.135-0.123-3.766-1.953-3.643-4.088c0.123-2.135,1.953-3.766,4.088-3.643
					c2.135,0.123,3.766,1.953,3.643,4.088C1014.552,893.625,1012.721,895.256,1010.586,895.133z" />
					<path style="fill:#FFFFFF;" d="M1177.283,769.941c-1.409-0.081-2.486-1.289-2.405-2.698c0.081-1.409,1.289-2.486,2.698-2.405
					c1.409,0.081,2.486,1.289,2.405,2.698C1179.9,768.946,1178.691,770.022,1177.283,769.941z" />
					<path style="fill:#FFFFFF;" d="M1805.61,661.252c-1.423-0.082-2.51-1.303-2.429-2.726c0.082-1.423,1.303-2.51,2.726-2.429
					c1.423,0.082,2.51,1.303,2.429,2.726C1808.254,660.247,1807.033,661.334,1805.61,661.252z" />
					<path style="fill:#FFFFFF;" d="M2746.42,97.764c-1.395-0.08-2.461-1.276-2.38-2.671c0.08-1.395,1.276-2.46,2.671-2.38
					c1.396,0.08,2.461,1.276,2.38,2.671C2749.01,96.779,2747.815,97.844,2746.42,97.764z" />
					<path style="fill:#FFFFFF;" d="M2287.804-463.165c-1.053-0.061-1.858-0.964-1.797-2.017c0.061-1.054,0.964-1.859,2.017-1.798
					c1.054,0.061,1.858,0.964,1.798,2.017C2289.761-463.909,2288.858-463.104,2287.804-463.165z" />
					<path style="fill:#FFFFFF;" d="M1199.705-441.875c-1.039-0.06-1.833-0.951-1.773-1.99c0.06-1.039,0.951-1.833,1.99-1.773
					c1.039,0.06,1.833,0.95,1.773,1.989C1201.635-442.609,1200.744-441.815,1199.705-441.875z" />
					<path style="fill:#FFFFFF;" d="M-84.626-232.425c-2.306-0.133-4.068-2.11-3.935-4.416c0.133-2.306,2.11-4.067,4.416-3.934
					c2.305,0.133,4.067,2.109,3.934,4.415C-80.344-234.054-82.321-232.292-84.626-232.425z" />
					<path style="fill:#FFFFFF;" d="M669.965-201.558c-1.352-0.078-2.385-1.237-2.307-2.589c0.078-1.352,1.237-2.385,2.589-2.307
					c1.353,0.077,2.385,1.237,2.308,2.589C672.477-202.513,671.317-201.48,669.965-201.558z" />
					<path style="fill:#FFFFFF;" d="M1419.699,643.654c-1.437-0.083-2.536-1.315-2.453-2.753c0.083-1.437,1.315-2.535,2.753-2.453
					c1.437,0.083,2.535,1.315,2.453,2.753C1422.369,642.639,1421.137,643.737,1419.699,643.654z" />
					<path style="fill:#FFFFFF;" d="M2230.561-425.504c-1.367-0.079-2.411-1.25-2.332-2.617c0.079-1.366,1.25-2.41,2.617-2.331
					c1.366,0.078,2.41,1.25,2.331,2.616C2233.098-426.47,2231.927-425.426,2230.561-425.504z" />
					<path style="fill:#FFFFFF;" d="M2110.807-482.358c-1.082-0.062-1.908-0.99-1.846-2.071c0.063-1.082,0.99-1.908,2.072-1.846
					c1.082,0.062,1.908,0.99,1.846,2.072C2112.816-483.121,2111.889-482.295,2110.807-482.358z" />
					<path style="fill:#FFFFFF;" d="M927.901,6.993c-1.11-0.064-1.959-1.016-1.894-2.126c0.064-1.11,1.015-1.958,2.126-1.894
					c1.11,0.064,1.958,1.016,1.894,2.126C929.963,6.208,929.011,7.056,927.901,6.993z" />
					<path style="fill:#FFFFFF;" d="M-78.333,484.384c-2.277-0.132-4.017-2.084-3.886-4.361c0.132-2.277,2.084-4.018,4.361-3.886
					c2.277,0.131,4.017,2.084,3.886,4.361C-74.103,482.775-76.056,484.515-78.333,484.384z" />
					<path style="fill:#FFFFFF;" d="M619.991-320.663c-1.993-0.115-3.516-1.823-3.401-3.816c0.115-1.992,1.823-3.515,3.816-3.4
					c1.993,0.115,3.515,1.823,3.4,3.816C623.692-322.071,621.984-320.549,619.991-320.663z" />
					<path style="fill:#FFFFFF;" d="M-393.806-479.687c-1.366-0.079-2.41-1.25-2.331-2.616c0.078-1.367,1.25-2.41,2.616-2.331
					c1.367,0.079,2.411,1.25,2.332,2.616C-391.268-480.652-392.439-479.608-393.806-479.687z" />
					<path style="fill:#FFFFFF;" d="M430.429,38.123c-1.395-0.08-2.46-1.277-2.38-2.671c0.08-1.395,1.276-2.46,2.671-2.38
					c1.395,0.08,2.46,1.276,2.38,2.671C433.02,37.137,431.824,38.203,430.429,38.123z" />
					<path style="fill:#FFFFFF;" d="M1397.876,284.485c-1.409-0.081-2.485-1.289-2.404-2.698c0.082-1.409,1.289-2.485,2.698-2.405
					c1.409,0.081,2.485,1.289,2.404,2.699C1400.494,283.489,1399.285,284.566,1397.876,284.485z" />
					<path style="fill:#FFFFFF;" d="M2203.243-301.387c-0.925-0.054-1.632-0.847-1.579-1.771c0.053-0.925,0.846-1.632,1.771-1.579
					c0.925,0.054,1.632,0.847,1.579,1.772C2204.962-302.041,2204.169-301.334,2203.243-301.387z" />
					<path style="fill:#FFFFFF;" d="M1362.878-274.232c-1.067-0.061-1.883-0.976-1.821-2.044c0.062-1.068,0.976-1.883,2.044-1.821
					c1.068,0.062,1.883,0.976,1.821,2.044C1364.86-274.987,1363.946-274.171,1362.878-274.232z" />
					<path style="fill:#FFFFFF;" d="M1141.704,2.215c-1.096-0.063-1.933-1.003-1.87-2.099c0.063-1.096,1.003-1.933,2.098-1.87
					c1.096,0.063,1.933,1.003,1.87,2.099C1143.739,1.44,1142.8,2.277,1141.704,2.215z" />
					<path style="fill:#FFFFFF;" d="M926.515-429.58c-0.897-0.052-1.581-0.82-1.53-1.717c0.052-0.897,0.82-1.582,1.717-1.53
					c0.897,0.052,1.582,0.821,1.53,1.717C928.181-430.213,927.412-429.528,926.515-429.58z" />
					<path style="fill:#FFFFFF;" d="M1884.425-68.806c-1.992-0.115-3.515-1.823-3.4-3.816c0.115-1.992,1.823-3.515,3.816-3.4
					c1.992,0.115,3.515,1.823,3.401,3.816C1888.126-70.214,1886.418-68.692,1884.425-68.806z" />
					<path style="fill:#FFFFFF;" d="M857.581,40.926c-2.006-0.115-3.54-1.836-3.424-3.843c0.116-2.007,1.836-3.54,3.843-3.424
					c2.007,0.115,3.54,1.836,3.425,3.843C861.309,39.509,859.588,41.042,857.581,40.926z" />
					<path style="fill:#FFFFFF;" d="M803.712-230.546c-1.367-0.078-2.41-1.25-2.331-2.616c0.079-1.367,1.25-2.411,2.616-2.331
					c1.367,0.079,2.411,1.25,2.331,2.616C806.25-231.511,805.079-230.468,803.712-230.546z" />
					<path style="fill:#FFFFFF;" d="M1989.733,114.948c-1.395-0.08-2.46-1.276-2.38-2.671s1.277-2.461,2.671-2.38
					c1.395,0.08,2.46,1.276,2.38,2.671C1992.324,113.963,1991.129,115.028,1989.733,114.948z" />
					<path style="fill:#FFFFFF;" d="M2602.705-208.386c-1.423-0.082-2.511-1.302-2.429-2.725c0.082-1.424,1.302-2.511,2.726-2.429
					c1.423,0.082,2.51,1.302,2.428,2.725C2605.348-209.391,2604.128-208.303,2602.705-208.386z" />
					<path style="fill:#FFFFFF;" d="M2085.843-5.802c-1.025-0.059-1.807-0.937-1.748-1.963c0.059-1.025,0.938-1.807,1.962-1.748
					c1.025,0.059,1.808,0.938,1.749,1.963C2087.746-6.526,2086.868-5.743,2085.843-5.802z" />
					<path style="fill:#FFFFFF;" d="M766.846-311.455c-1.039-0.06-1.833-0.951-1.773-1.99c0.06-1.039,0.951-1.833,1.99-1.773
					c1.039,0.06,1.833,0.95,1.773,1.989C768.775-312.19,767.885-311.396,766.846-311.455z" />
					<path style="fill:#FFFFFF;" d="M2466.185,416.473c-1.907-0.11-3.365-1.745-3.254-3.652c0.11-1.908,1.745-3.365,3.653-3.255
					c1.907,0.11,3.364,1.745,3.254,3.652C2469.727,415.125,2468.092,416.583,2466.185,416.473z" />
					<path style="fill:#FFFFFF;" d="M1546.964-2.784c-1.95-0.113-3.439-1.784-3.327-3.734c0.113-1.95,1.784-3.44,3.734-3.327
					c1.95,0.112,3.44,1.784,3.327,3.734C1550.586-4.162,1548.914-2.672,1546.964-2.784z" />
					<path style="fill:#FFFFFF;" d="M1253.533,16.18c-1.395-0.08-2.46-1.277-2.38-2.671c0.08-1.395,1.276-2.46,2.671-2.38
					c1.395,0.08,2.46,1.276,2.38,2.671C1256.123,15.194,1254.927,16.26,1253.533,16.18z" />
					<path style="fill:#FFFFFF;" d="M2875.025-243.304c-1.438-0.083-2.536-1.316-2.453-2.753c0.083-1.438,1.315-2.536,2.753-2.453
					c1.438,0.083,2.536,1.316,2.453,2.753C2877.695-244.32,2876.462-243.221,2875.025-243.304z" />
					<path style="fill:#FFFFFF;" d="M1747.522,9.594c-1.039-0.06-1.832-0.951-1.773-1.99c0.06-1.039,0.951-1.832,1.99-1.773
					c1.039,0.06,1.833,0.951,1.773,1.989C1749.452,8.86,1748.561,9.653,1747.522,9.594z" />
					<path style="fill:#FFFFFF;" d="M1175.483-448.726c-0.996-0.057-1.757-0.911-1.7-1.908c0.057-0.996,0.911-1.757,1.908-1.7
					c0.996,0.058,1.757,0.912,1.7,1.908C1177.334-449.43,1176.48-448.668,1175.483-448.726z" />
					<path style="fill:#FFFFFF;" d="M745.855-408.516c-0.882-0.051-1.557-0.808-1.506-1.69c0.051-0.883,0.808-1.557,1.69-1.506
					c0.882,0.05,1.557,0.807,1.505,1.69C747.494-409.14,746.737-408.466,745.855-408.516z" />
					<path style="fill:#FFFFFF;" d="M2702.665,753.331c-1.78-0.103-3.138-1.628-3.036-3.407c0.102-1.779,1.628-3.139,3.407-3.036
					c1.779,0.102,3.138,1.628,3.036,3.406C2705.97,752.074,2704.444,753.434,2702.665,753.331z" />
					<path style="fill:#FFFFFF;" d="M-67.549,62.785c-1.437-0.083-2.535-1.315-2.453-2.753c0.083-1.437,1.315-2.535,2.753-2.453
					c1.437,0.083,2.536,1.315,2.453,2.753C-64.879,61.77-66.111,62.868-67.549,62.785z" />
					<path style="fill:#FFFFFF;" d="M577.947,669.747c-1.466-0.084-2.586-1.341-2.501-2.807c0.084-1.466,1.341-2.586,2.807-2.502
					c1.466,0.085,2.586,1.342,2.501,2.807C580.67,668.711,579.414,669.831,577.947,669.747z" />
					<path style="fill:#FFFFFF;" d="M2024.195,34.682c-1.409-0.081-2.485-1.289-2.405-2.698c0.082-1.409,1.289-2.486,2.699-2.405
					c1.409,0.082,2.485,1.289,2.404,2.698C2026.812,33.686,2025.604,34.763,2024.195,34.682z" />
					<path style="fill:#FFFFFF;" d="M2118.245-424.733c-0.968-0.056-1.708-0.886-1.652-1.854c0.056-0.968,0.886-1.707,1.854-1.651
					c0.968,0.056,1.707,0.886,1.651,1.854C2120.042-425.417,2119.212-424.678,2118.245-424.733z" />
					<path style="fill:#FFFFFF;" d="M1359.326-288.891c-1.053-0.061-1.858-0.964-1.797-2.017c0.06-1.054,0.964-1.858,2.017-1.798
					c1.053,0.061,1.858,0.964,1.798,2.017C1361.283-289.635,1360.38-288.831,1359.326-288.891z" />
					<path style="fill:#FFFFFF;" d="M776.949,258.394c-1.153-0.066-2.034-1.055-1.967-2.208c0.066-1.153,1.055-2.033,2.208-1.967
					c1.153,0.066,2.033,1.054,1.967,2.207C779.09,257.58,778.102,258.461,776.949,258.394z" />
					<path style="fill:#FFFFFF;" d="M1714.351-436.281c-1.922-0.111-3.39-1.758-3.279-3.68c0.11-1.921,1.758-3.389,3.679-3.279
					c1.922,0.111,3.39,1.758,3.279,3.68C1717.92-437.639,1716.272-436.171,1714.351-436.281z" />
					<path style="fill:#FFFFFF;" d="M1428.868,94.773c-1.922-0.111-3.39-1.758-3.279-3.679c0.11-1.922,1.758-3.389,3.679-3.279
					c1.922,0.111,3.39,1.759,3.279,3.68C1432.437,93.416,1430.789,94.883,1428.868,94.773z" />
					<path style="fill:#FFFFFF;" d="M736.982,883.203c-1.566-0.09-2.762-1.432-2.672-2.998c0.09-1.566,1.432-2.762,2.998-2.672
					c1.566,0.09,2.762,1.432,2.672,2.998C739.89,882.096,738.548,883.293,736.982,883.203z" />
					<path style="fill:#FFFFFF;" d="M2346.89,841.931c-1.481-0.085-2.612-1.354-2.526-2.834c0.085-1.48,1.354-2.612,2.835-2.526
					c1.48,0.085,2.611,1.354,2.526,2.835C2349.639,840.885,2348.37,842.016,2346.89,841.931z" />
					<path style="fill:#FFFFFF;" d="M1831.877-37.262c-0.954-0.055-1.682-0.872-1.627-1.826c0.055-0.953,0.872-1.682,1.826-1.627
					c0.953,0.055,1.682,0.872,1.627,1.826C1833.649-37.936,1832.831-37.207,1831.877-37.262z" />
					<path style="fill:#FFFFFF;" d="M1459.496-425.361c-1.039-0.06-1.833-0.95-1.773-1.989c0.06-1.039,0.951-1.833,1.99-1.773
					c1.039,0.06,1.832,0.951,1.773,1.99C1461.426-426.095,1460.535-425.301,1459.496-425.361z" />
					<path style="fill:#FFFFFF;" d="M974.59,222.64c-1.11-0.064-1.958-1.016-1.894-2.126c0.064-1.11,1.016-1.958,2.126-1.894
					c1.11,0.064,1.958,1.016,1.894,2.126C976.652,221.855,975.701,222.704,974.59,222.64z" />
					<path style="fill:#FFFFFF;" d="M1118.368-438.44c-0.954-0.055-1.682-0.872-1.627-1.826c0.055-0.954,0.872-1.682,1.826-1.627
					c0.953,0.055,1.682,0.872,1.627,1.826C1120.139-439.114,1119.321-438.385,1118.368-438.44z" />
					<path style="fill:#FFFFFF;" d="M1895.523,10.567c-1.921-0.11-3.389-1.758-3.279-3.679c0.111-1.922,1.758-3.389,3.68-3.279
					c1.921,0.11,3.39,1.758,3.279,3.679C1899.092,9.21,1897.445,10.678,1895.523,10.567z" />
					<path style="fill:#FFFFFF;" d="M741.724,707.493c-1.538-0.088-2.712-1.406-2.623-2.943c0.088-1.538,1.406-2.712,2.943-2.623
					c1.537,0.088,2.712,1.406,2.623,2.943C744.579,706.407,743.261,707.581,741.724,707.493z" />
					<path style="fill:#FFFFFF;" d="M2119.773-139.701c-1.423-0.081-2.51-1.302-2.428-2.725c0.082-1.423,1.302-2.511,2.725-2.429
					c1.423,0.082,2.511,1.302,2.429,2.726C2122.417-140.706,2121.197-139.619,2119.773-139.701z" />
					<path style="fill:#FFFFFF;" d="M1544.723,178.008c-0.997-0.057-1.757-0.911-1.7-1.908c0.057-0.997,0.911-1.757,1.908-1.7
					c0.997,0.057,1.757,0.912,1.7,1.908C1546.573,177.304,1545.718,178.065,1544.723,178.008z" />
					<path style="fill:#FFFFFF;" d="M1603.748-336.845c-1.039-0.06-1.833-0.951-1.773-1.99c0.06-1.039,0.951-1.832,1.99-1.773
					c1.039,0.06,1.833,0.951,1.773,1.989C1605.678-337.579,1604.787-336.785,1603.748-336.845z" />
					<path style="fill:#FFFFFF;" d="M1014.015-247.291c-1.024-0.058-1.807-0.937-1.748-1.962c0.059-1.025,0.938-1.808,1.962-1.749
					c1.025,0.059,1.808,0.937,1.749,1.963C1015.918-248.015,1015.04-247.232,1014.015-247.291z" />
					<path style="fill:#FFFFFF;" d="M2534.041,209.827c-1.893-0.109-3.339-1.732-3.23-3.625c0.109-1.893,1.732-3.34,3.625-3.231
					c1.893,0.11,3.339,1.732,3.23,3.625C2537.557,208.49,2535.934,209.936,2534.041,209.827z" />
					<path style="fill:#FFFFFF;" d="M390.381-334.146c-1.395-0.08-2.46-1.276-2.38-2.671c0.08-1.395,1.276-2.46,2.671-2.38
					c1.395,0.08,2.461,1.276,2.38,2.671C392.972-335.131,391.777-334.066,390.381-334.146z" />
					<path style="fill:#FFFFFF;" d="M649.956,795.06c-1.608-0.093-2.837-1.472-2.745-3.08c0.093-1.608,1.472-2.837,3.08-2.744
					c1.608,0.092,2.837,1.471,2.744,3.08C652.943,793.924,651.564,795.153,649.956,795.06z" />
					<path style="fill:#FFFFFF;" d="M1391.641,92.836c-1.437-0.083-2.536-1.315-2.453-2.753c0.083-1.438,1.315-2.536,2.753-2.453
					c1.437,0.083,2.535,1.315,2.453,2.753C1394.311,91.82,1393.079,92.918,1391.641,92.836z" />
					<path style="fill:#FFFFFF;" d="M2550.561-201.822c-1.452-0.084-2.561-1.328-2.478-2.78c0.084-1.452,1.329-2.561,2.78-2.477
					c1.452,0.084,2.561,1.328,2.478,2.78C2553.258-202.847,2552.013-201.738,2550.561-201.822z" />
					<path style="fill:#FFFFFF;" d="M1569.914,99.767c-0.968-0.055-1.707-0.886-1.651-1.854c0.056-0.967,0.886-1.707,1.854-1.651
					c0.968,0.056,1.708,0.886,1.652,1.854C1571.712,99.084,1570.882,99.823,1569.914,99.767z" />
					<path style="fill:#FFFFFF;" d="M1528.371-182.786c-1.039-0.06-1.833-0.951-1.773-1.99c0.06-1.038,0.951-1.832,1.99-1.773
					c1.039,0.06,1.833,0.951,1.773,1.989C1530.301-183.52,1529.41-182.726,1528.371-182.786z" />
					<path style="fill:#FFFFFF;" d="M425.067,172.529c-1.167-0.068-2.059-1.068-1.992-2.235c0.068-1.167,1.068-2.059,2.235-1.992
					c1.167,0.068,2.059,1.068,1.992,2.235C427.235,171.704,426.234,172.596,425.067,172.529z" />
					<path style="fill:#FFFFFF;" d="M549.647-442.545c-0.954-0.055-1.683-0.872-1.628-1.826c0.055-0.954,0.873-1.682,1.826-1.628
					c0.954,0.055,1.683,0.873,1.627,1.826C551.418-443.219,550.6-442.49,549.647-442.545z" />
					<path style="fill:#FFFFFF;" d="M575.464,193.861c-1.48-0.085-2.611-1.354-2.526-2.834c0.085-1.48,1.354-2.612,2.835-2.526
					c1.48,0.085,2.611,1.355,2.526,2.835C578.214,192.815,576.944,193.946,575.464,193.861z" />
					<path style="fill:#FFFFFF;" d="M1445.873,170.35c-1.452-0.084-2.561-1.329-2.478-2.78c0.084-1.452,1.328-2.561,2.78-2.478
					c1.452,0.083,2.561,1.328,2.478,2.78C1448.569,169.324,1447.324,170.433,1445.873,170.35z" />
					<path style="fill:#FFFFFF;" d="M1208.311,316.49c-1.068-0.061-1.883-0.976-1.822-2.044c0.062-1.067,0.977-1.883,2.044-1.821
					c1.068,0.061,1.883,0.976,1.822,2.044C1210.294,315.736,1209.378,316.551,1208.311,316.49z" />
					<path style="fill:#FFFFFF;" d="M1188.729,159.936c-1.053-0.061-1.858-0.964-1.797-2.017c0.061-1.054,0.964-1.858,2.017-1.798
					c1.053,0.061,1.858,0.964,1.798,2.017C1190.686,159.192,1189.783,159.997,1188.729,159.936z" />
					<path style="fill:#FFFFFF;" d="M479.557-57.046c-1.11-0.064-1.958-1.015-1.894-2.126c0.064-1.11,1.015-1.958,2.126-1.894
					c1.11,0.064,1.958,1.015,1.894,2.126C481.619-57.83,480.667-56.982,479.557-57.046z" />
					<path style="fill:#FFFFFF;" d="M1204.349-351.004c-0.84-0.048-1.482-0.768-1.433-1.608c0.048-0.84,0.768-1.482,1.608-1.433
					c0.84,0.048,1.482,0.768,1.433,1.608C1205.909-351.598,1205.188-350.956,1204.349-351.004z" />
					<path style="fill:#FFFFFF;" d="M120.975-81.344c-2.007-0.116-3.54-1.836-3.425-3.843c0.116-2.007,1.837-3.54,3.844-3.425
					c2.006,0.116,3.54,1.837,3.424,3.844C124.702-82.762,122.982-81.228,120.975-81.344z" />
					<path style="fill:#FFFFFF;" d="M204.632,662.416c-1.523-0.088-2.686-1.393-2.599-2.916c0.088-1.523,1.393-2.686,2.917-2.599
					c1.522,0.088,2.686,1.393,2.599,2.916C207.461,661.341,206.155,662.504,204.632,662.416z" />
					<path style="fill:#FFFFFF;" d="M1456.559,339.475c-1.495-0.086-2.636-1.367-2.55-2.862c0.086-1.495,1.367-2.637,2.862-2.55
					c1.495,0.086,2.636,1.367,2.55,2.862C1459.335,338.419,1458.053,339.561,1456.559,339.475z" />
					<path style="fill:#FFFFFF;" d="M1059.771,210.842c-1.025-0.059-1.807-0.938-1.749-1.963c0.059-1.024,0.938-1.807,1.963-1.748
					c1.025,0.058,1.808,0.937,1.749,1.962C1061.674,210.118,1060.796,210.901,1059.771,210.842z" />
					<path style="fill:#FFFFFF;" d="M1619.107-299.139c-1.01-0.059-1.782-0.925-1.724-1.935c0.058-1.011,0.925-1.783,1.935-1.725
					c1.01,0.058,1.782,0.925,1.724,1.935C1620.985-299.853,1620.118-299.082,1619.107-299.139z" />
					<path style="fill:#FFFFFF;" d="M741.418,476.649c-1.153-0.066-2.034-1.054-1.967-2.207c0.066-1.153,1.054-2.034,2.207-1.967
					c1.153,0.066,2.034,1.055,1.967,2.208C743.559,475.835,742.57,476.716,741.418,476.649z" />
					<path style="fill:#FFFFFF;" d="M780.152-179.723c-1.025-0.059-1.808-0.938-1.749-1.963c0.059-1.025,0.937-1.808,1.963-1.749
					c1.024,0.059,1.807,0.937,1.748,1.962C782.055-180.448,781.176-179.665,780.152-179.723z" />
					<path style="fill:#FFFFFF;" d="M1981.849-382.995c-1.907-0.109-3.364-1.745-3.254-3.652c0.11-1.907,1.745-3.364,3.652-3.254
					c1.907,0.11,3.365,1.745,3.254,3.652C1985.392-384.342,1983.757-382.885,1981.849-382.995z" />
					<path style="fill:#FFFFFF;" d="M356.601,510.985c-2.078-0.12-3.666-1.902-3.546-3.979c0.12-2.078,1.901-3.666,3.979-3.546
					c2.078,0.119,3.666,1.901,3.546,3.979C360.461,509.516,358.68,511.104,356.601,510.985z" />
					<path style="fill:#FFFFFF;" d="M1035.161-483.362c-1.722-0.099-3.038-1.575-2.938-3.298c0.099-1.723,1.575-3.038,3.297-2.939
					c1.723,0.099,3.038,1.575,2.939,3.298C1038.36-484.579,1036.884-483.263,1035.161-483.362z" />
					<path style="fill:#FFFFFF;" d="M257.888,445.285c-1.58-0.091-2.787-1.445-2.696-3.025c0.091-1.58,1.446-2.787,3.025-2.696
					c1.58,0.091,2.787,1.446,2.696,3.025C260.822,444.169,259.468,445.376,257.888,445.285z" />
					<path style="fill:#FFFFFF;" d="M1372.035-92.912c-1.01-0.059-1.783-0.925-1.725-1.935c0.058-1.01,0.925-1.783,1.935-1.725
					c1.01,0.058,1.782,0.925,1.724,1.935C1373.912-93.626,1373.046-92.854,1372.035-92.912z" />
					<path style="fill:#FFFFFF;" d="M1191.578-281.9c-0.997-0.058-1.758-0.912-1.7-1.908c0.057-0.996,0.911-1.758,1.908-1.7
					c0.997,0.057,1.758,0.911,1.7,1.908C1193.428-282.604,1192.574-281.843,1191.578-281.9z" />
					<path style="fill:#FFFFFF;" d="M769.024-227.166c-0.996-0.057-1.757-0.911-1.7-1.908c0.057-0.996,0.911-1.757,1.908-1.7
					c0.997,0.058,1.758,0.912,1.7,1.908C770.875-227.87,770.02-227.108,769.024-227.166z" />
					<path style="fill:#FFFFFF;" d="M-8.098-215.218c-1.978-0.114-3.49-1.81-3.376-3.789c0.114-1.978,1.81-3.49,3.789-3.375
					c1.978,0.114,3.49,1.81,3.375,3.788C-4.424-216.616-6.12-215.104-8.098-215.218z" />
					<path style="fill:#FFFFFF;" d="M671.125-396.789c-1.423-0.082-2.51-1.303-2.429-2.726c0.082-1.423,1.303-2.51,2.726-2.428
					c1.423,0.082,2.511,1.302,2.429,2.725C673.768-397.795,672.548-396.707,671.125-396.789z" />
					<path style="fill:#FFFFFF;" d="M77.886,554.584c-1.58-0.091-2.787-1.446-2.696-3.026c0.091-1.58,1.446-2.787,3.025-2.695
					c1.58,0.091,2.788,1.445,2.696,3.025C80.82,553.468,79.465,554.675,77.886,554.584z" />
					<path style="fill:#FFFFFF;" d="M1377.866,377.814c-1.523-0.088-2.686-1.393-2.599-2.917c0.088-1.523,1.393-2.686,2.916-2.599
					c1.523,0.088,2.687,1.393,2.599,2.917C1380.694,376.738,1379.389,377.902,1377.866,377.814z" />
					<path style="fill:#FFFFFF;" d="M1959.581-235.186c-0.911-0.052-1.607-0.833-1.555-1.745c0.052-0.911,0.833-1.606,1.745-1.554
					c0.911,0.052,1.606,0.833,1.554,1.745C1961.273-235.829,1960.492-235.134,1959.581-235.186z" />
					<path style="fill:#FFFFFF;" d="M1849.91-256.086c-0.939-0.054-1.657-0.86-1.603-1.799c0.054-0.939,0.859-1.657,1.799-1.603
					c0.939,0.054,1.657,0.859,1.603,1.799S1850.849-256.032,1849.91-256.086z" />
					<path style="fill:#FFFFFF;" d="M364.809,190.675c-1.138-0.066-2.008-1.042-1.943-2.18c0.066-1.139,1.042-2.009,2.181-1.943
					c1.139,0.066,2.009,1.042,1.943,2.18C366.925,189.871,365.948,190.741,364.809,190.675z" />
					<path style="fill:#FFFFFF;" d="M644.747-97.721c-1.039-0.06-1.832-0.95-1.773-1.989c0.06-1.039,0.951-1.833,1.989-1.773
					c1.039,0.06,1.833,0.951,1.773,1.99C646.677-98.454,645.786-97.66,644.747-97.721z" />
					<path style="fill:#FFFFFF;" d="M746.833,94.381c-1.893-0.109-3.339-1.732-3.23-3.625c0.109-1.893,1.732-3.34,3.625-3.23
					c1.893,0.109,3.339,1.732,3.23,3.624C750.35,93.044,748.727,94.49,746.833,94.381z" />
					<path style="fill:#FFFFFF;" d="M1033.384,12.628c-1.494-0.086-2.636-1.367-2.55-2.862c0.086-1.495,1.367-2.636,2.862-2.55
					c1.495,0.086,2.636,1.367,2.55,2.862C1036.16,11.572,1034.878,12.714,1033.384,12.628z" />
					<path style="fill:#FFFFFF;" d="M784.219,520.073c-1.608-0.093-2.837-1.472-2.745-3.08c0.093-1.608,1.472-2.837,3.08-2.744
					c1.608,0.093,2.837,1.471,2.744,3.08C787.206,518.936,785.827,520.165,784.219,520.073z" />
					<path style="fill:#FFFFFF;" d="M1464.343,0.499c-0.939-0.054-1.657-0.86-1.603-1.799c0.054-0.939,0.859-1.657,1.799-1.603
					c0.939,0.054,1.657,0.86,1.603,1.799C1466.088-0.165,1465.282,0.553,1464.343,0.499z" />
					<path style="fill:#FFFFFF;" d="M1275.061-71.192c-0.982-0.057-1.732-0.899-1.676-1.881c0.057-0.982,0.899-1.732,1.881-1.676
					c0.982,0.057,1.732,0.899,1.675,1.881C1276.886-71.886,1276.043-71.136,1275.061-71.192z" />
					<path style="fill:#FFFFFF;" d="M682.392-192.852c-0.996-0.057-1.758-0.911-1.7-1.908c0.057-0.997,0.911-1.757,1.908-1.7
					c0.996,0.058,1.757,0.912,1.7,1.908C684.243-193.556,683.388-192.795,682.392-192.852z" />
					<path style="fill:#FFFFFF;" d="M815.856-266.305c-0.939-0.054-1.657-0.859-1.603-1.799c0.054-0.939,0.86-1.657,1.799-1.603
					c0.939,0.054,1.657,0.859,1.603,1.799C817.601-266.969,816.795-266.251,815.856-266.305z" />
					<path style="fill:#FFFFFF;" d="M579.379,75.609c-1.907-0.11-3.365-1.745-3.254-3.652c0.109-1.907,1.745-3.365,3.652-3.254
					c1.908,0.11,3.365,1.745,3.255,3.652C582.921,74.262,581.286,75.719,579.379,75.609z" />
					<path style="fill:#FFFFFF;" d="M1066.201-225.849c-1.751-0.101-3.088-1.602-2.988-3.353c0.101-1.751,1.602-3.088,3.353-2.987
					c1.751,0.101,3.088,1.602,2.987,3.352C1069.453-227.085,1067.952-225.748,1066.201-225.849z" />
					<path style="fill:#FFFFFF;" d="M-227.899,424.392c-1.723-0.099-3.038-1.575-2.939-3.298c0.099-1.722,1.575-3.038,3.298-2.938
					c1.722,0.099,3.038,1.575,2.938,3.298C-224.701,423.175-226.177,424.491-227.899,424.392z" />
					<path style="fill:#FFFFFF;" d="M1682.492-330.267c-0.968-0.056-1.707-0.886-1.652-1.854c0.056-0.968,0.886-1.707,1.854-1.651
					c0.968,0.055,1.707,0.886,1.651,1.853C1684.289-330.951,1683.459-330.211,1682.492-330.267z" />
					<path style="fill:#FFFFFF;" d="M1868.175-44.351c-1.793-0.104-3.164-1.641-3.06-3.434c0.103-1.794,1.641-3.164,3.434-3.061
					c1.793,0.104,3.164,1.641,3.06,3.435C1871.506-45.618,1869.968-44.247,1868.175-44.351z" />
					<path style="fill:#FFFFFF;" d="M973.862-278.33c-1.722-0.099-3.038-1.575-2.938-3.298c0.099-1.722,1.575-3.038,3.297-2.939
					c1.722,0.099,3.038,1.576,2.939,3.298S975.585-278.231,973.862-278.33z" />
					<path style="fill:#FFFFFF;" d="M2775.211,331.463c-1.48-0.085-2.611-1.354-2.526-2.834c0.085-1.48,1.354-2.611,2.834-2.526
					c1.48,0.085,2.612,1.354,2.526,2.834C2777.96,330.418,2776.691,331.548,2775.211,331.463z" />
					<path style="fill:#FFFFFF;" d="M1499.748,22.37c-0.925-0.053-1.632-0.846-1.578-1.771c0.053-0.925,0.846-1.632,1.771-1.579
					c0.925,0.054,1.632,0.847,1.578,1.772C1501.467,21.717,1500.674,22.424,1499.748,22.37z" />
					<path style="fill:#FFFFFF;" d="M690.186-77.65c-0.997-0.057-1.758-0.912-1.7-1.908c0.057-0.996,0.912-1.757,1.908-1.7
					c0.997,0.057,1.758,0.911,1.7,1.908C692.036-78.354,691.182-77.593,690.186-77.65z" />
					<path style="fill:#FFFFFF;" d="M1153.619,449.917c-1.608-0.092-2.837-1.471-2.745-3.08c0.093-1.608,1.472-2.837,3.08-2.745
					s2.837,1.472,2.744,3.08C1156.606,448.781,1155.227,450.009,1153.619,449.917z" />
					<path style="fill:#FFFFFF;" d="M2421.343-272.122c-1.523-0.088-2.687-1.393-2.599-2.917c0.088-1.522,1.394-2.686,2.917-2.599
					c1.522,0.088,2.686,1.393,2.599,2.917C2424.171-273.198,2422.866-272.035,2421.343-272.122z" />
					<path style="fill:#FFFFFF;" d="M1224.5-233.978c-0.911-0.053-1.607-0.834-1.554-1.745c0.052-0.911,0.833-1.607,1.744-1.554
					c0.911,0.052,1.607,0.833,1.555,1.744C1226.192-234.622,1225.411-233.926,1224.5-233.978z" />
					<path style="fill:#FFFFFF;" d="M-173.583-370.557c-1.936-0.111-3.415-1.771-3.303-3.707c0.111-1.935,1.771-3.414,3.707-3.303
					c1.936,0.111,3.414,1.771,3.303,3.707C-169.988-371.924-171.648-370.445-173.583-370.557z" />
					<path style="fill:#FFFFFF;" d="M489.568-226.376c-1.523-0.088-2.686-1.393-2.599-2.917c0.088-1.523,1.393-2.686,2.916-2.599
					c1.523,0.088,2.686,1.393,2.599,2.917C492.397-227.451,491.091-226.288,489.568-226.376z" />
					<path style="fill:#FFFFFF;" d="M81.732,718.558c-1.879-0.108-3.314-1.719-3.206-3.598c0.108-1.879,1.719-3.314,3.598-3.206
					c1.879,0.108,3.314,1.719,3.206,3.598C85.222,717.231,83.611,718.667,81.732,718.558z" />
					<path style="fill:#FFFFFF;" d="M2653.156-195.448c-1.537-0.088-2.711-1.406-2.623-2.944c0.088-1.537,1.406-2.711,2.944-2.623
					c1.537,0.089,2.711,1.407,2.623,2.944C2656.011-196.534,2654.693-195.359,2653.156-195.448z" />
					<path style="fill:#FFFFFF;" d="M1518.136-312.169c-0.939-0.054-1.657-0.859-1.603-1.799c0.054-0.94,0.859-1.658,1.799-1.603
					s1.657,0.859,1.603,1.799C1519.881-312.832,1519.076-312.115,1518.136-312.169z" />
					<path style="fill:#FFFFFF;" d="M1229.207-224.114c-0.868-0.05-1.532-0.794-1.482-1.663c0.05-0.868,0.795-1.531,1.662-1.481
					c0.869,0.05,1.532,0.794,1.482,1.663C1230.819-224.728,1230.075-224.064,1229.207-224.114z" />
					<path style="fill:#FFFFFF;" d="M2131.17-377.084c-1.822-0.105-3.214-1.667-3.109-3.489c0.105-1.822,1.667-3.214,3.489-3.109
					c1.822,0.105,3.214,1.667,3.109,3.489C2134.553-378.371,2132.991-376.979,2131.17-377.084z" />
					<path style="fill:#FFFFFF;" d="M885.376-403.971c-1.637-0.094-2.887-1.498-2.794-3.134c0.094-1.637,1.498-2.888,3.134-2.794
					c1.637,0.094,2.888,1.498,2.793,3.134C888.416-405.128,887.012-403.878,885.376-403.971z" />
					<path style="fill:#FFFFFF;" d="M1703.992,95.57c-1.522-0.088-2.686-1.393-2.599-2.917c0.088-1.523,1.393-2.686,2.916-2.599
					s2.686,1.393,2.599,2.917C1706.82,94.493,1705.515,95.657,1703.992,95.57z" />
					<path style="fill:#FFFFFF;" d="M1701.675-17.74c-0.883-0.051-1.557-0.807-1.506-1.69c0.051-0.882,0.807-1.557,1.69-1.505
					c0.883,0.05,1.556,0.807,1.506,1.69C1703.313-18.364,1702.557-17.689,1701.675-17.74z" />
					<path style="fill:#FFFFFF;" d="M1088.073-74.049c-0.897-0.052-1.582-0.821-1.53-1.717c0.051-0.897,0.82-1.582,1.717-1.53
					c0.897,0.052,1.582,0.821,1.53,1.717C1089.738-74.683,1088.969-73.998,1088.073-74.049z" />
					<path style="fill:#FFFFFF;" d="M1202.409-186.226c-0.854-0.049-1.507-0.782-1.457-1.636c0.049-0.854,0.781-1.506,1.635-1.457
					c0.854,0.049,1.507,0.781,1.457,1.635C1203.995-186.829,1203.263-186.176,1202.409-186.226z" />
					<path style="fill:#FFFFFF;" d="M1589.238,135.089c-1.751-0.101-3.088-1.602-2.987-3.352c0.1-1.751,1.601-3.089,3.352-2.988
					c1.751,0.101,3.088,1.602,2.987,3.352C1592.49,133.852,1590.989,135.19,1589.238,135.089z" />
					<path style="fill:#FFFFFF;" d="M1007.505-141.445c-1.708-0.099-3.013-1.563-2.914-3.271c0.098-1.708,1.563-3.013,3.271-2.915
					c1.708,0.099,3.013,1.563,2.914,3.271C1010.678-142.651,1009.213-141.347,1007.505-141.445z" />
					<path style="fill:#FFFFFF;" d="M763.798-476.728c-1.566-0.09-2.762-1.432-2.672-2.998s1.432-2.762,2.998-2.671
					c1.566,0.09,2.762,1.432,2.672,2.998S765.363-476.638,763.798-476.728z" />
					<path style="fill:#FFFFFF;" d="M76.002-413.895c-1.566-0.09-2.761-1.432-2.671-2.998c0.09-1.566,1.432-2.762,2.998-2.672
					c1.566,0.09,2.762,1.432,2.672,2.998C78.91-415.001,77.568-413.805,76.002-413.895z" />
					<path style="fill:#FFFFFF;" d="M976.184,144.695c-1.594-0.092-2.812-1.459-2.72-3.053c0.091-1.594,1.459-2.812,3.052-2.72
					c1.594,0.092,2.812,1.458,2.721,3.053C979.144,143.569,977.778,144.787,976.184,144.695z" />
					<path style="fill:#FFFFFF;" d="M2236.695,329.977c-1.537-0.088-2.711-1.406-2.623-2.944c0.089-1.537,1.407-2.711,2.944-2.623
					c1.537,0.089,2.711,1.407,2.623,2.944C2239.55,328.891,2238.232,330.065,2236.695,329.977z" />
					<path style="fill:#FFFFFF;" d="M1667.063-402.676c-0.911-0.052-1.607-0.833-1.555-1.745c0.052-0.911,0.833-1.607,1.745-1.554
					c0.911,0.052,1.606,0.833,1.554,1.745C1668.754-403.319,1667.973-402.624,1667.063-402.676z" />
					<path style="fill:#FFFFFF;" d="M1570.897-422.823c-0.84-0.049-1.482-0.769-1.433-1.608c0.048-0.84,0.768-1.481,1.608-1.433
					c0.84,0.048,1.482,0.768,1.433,1.608C1572.457-423.417,1571.736-422.775,1570.897-422.823z" />
					<path style="fill:#FFFFFF;" d="M2296.43-376.771c-1.822-0.105-3.214-1.667-3.109-3.489c0.105-1.821,1.667-3.214,3.489-3.108
					c1.822,0.105,3.214,1.667,3.109,3.489C2299.814-378.059,2298.252-376.667,2296.43-376.771z" />
					<path style="fill:#FFFFFF;" d="M1538.675,176.16c-1.566-0.09-2.762-1.432-2.671-2.998c0.09-1.566,1.432-2.762,2.998-2.672
					s2.762,1.433,2.671,2.998C1541.583,175.054,1540.24,176.25,1538.675,176.16z" />
					<path style="fill:#FFFFFF;" d="M2298.654,478.939c-1.552-0.089-2.737-1.42-2.647-2.971c0.089-1.551,1.419-2.736,2.971-2.647
					c1.552,0.089,2.737,1.42,2.647,2.971C2301.535,477.843,2300.205,479.028,2298.654,478.939z" />
					<path style="fill:#FFFFFF;" d="M1586.999-280.381c-0.883-0.051-1.557-0.807-1.506-1.69c0.051-0.882,0.808-1.557,1.69-1.505
					c0.883,0.05,1.557,0.807,1.506,1.69C1588.637-281.004,1587.881-280.33,1586.999-280.381z" />
					<path style="fill:#FFFFFF;" d="M1249.268,320.09c-1.779-0.102-3.138-1.628-3.036-3.407c0.102-1.779,1.628-3.138,3.407-3.036
					c1.779,0.103,3.138,1.628,3.036,3.407C1252.573,318.833,1251.047,320.193,1249.268,320.09z" />
					<path style="fill:#FFFFFF;" d="M-349.219-225.737c-1.765-0.102-3.113-1.614-3.011-3.38c0.102-1.765,1.614-3.113,3.38-3.011
					c1.765,0.102,3.113,1.615,3.011,3.38C-345.94-226.984-347.454-225.635-349.219-225.737z" />
					<path style="fill:#FFFFFF;" d="M1416.139,564.508c-1.651-0.095-2.913-1.51-2.817-3.162c0.095-1.651,1.51-2.912,3.161-2.817
					c1.651,0.095,2.913,1.511,2.817,3.162C1419.205,563.342,1417.79,564.603,1416.139,564.508z" />
					<path style="fill:#FFFFFF;" d="M1975.711-394.932c-0.883-0.051-1.557-0.808-1.506-1.69c0.051-0.883,0.808-1.557,1.69-1.506
					c0.883,0.051,1.557,0.807,1.506,1.69C1977.35-395.556,1976.594-394.882,1975.711-394.932z" />
					<path style="fill:#FFFFFF;" d="M2095.173,649.305c-1.722-0.099-3.038-1.576-2.939-3.298c0.099-1.722,1.576-3.038,3.298-2.938
					s3.038,1.575,2.939,3.298C2098.372,648.089,2096.895,649.404,2095.173,649.305z" />
					<path style="fill:#FFFFFF;" d="M2494.12,519.57c-1.552-0.089-2.737-1.419-2.647-2.971c0.09-1.552,1.42-2.737,2.971-2.647
					c1.551,0.089,2.736,1.42,2.647,2.971C2497.002,518.474,2495.671,519.66,2494.12,519.57z" />
					<path style="fill:#FFFFFF;" d="M1961.114-362.366c-0.883-0.051-1.557-0.807-1.506-1.69c0.05-0.882,0.807-1.556,1.69-1.505
					c0.883,0.051,1.557,0.807,1.506,1.69C1962.753-362.989,1961.996-362.315,1961.114-362.366z" />
					<path style="fill:#FFFFFF;" d="M2241.988,115.953c-1.722-0.099-3.038-1.576-2.939-3.298c0.099-1.722,1.576-3.038,3.298-2.939
					c1.722,0.099,3.038,1.576,2.939,3.298C2245.187,114.736,2243.71,116.052,2241.988,115.953z" />
					<path style="fill:#FFFFFF;" d="M1082.366,60.957c-1.694-0.097-2.988-1.55-2.89-3.243c0.098-1.694,1.55-2.988,3.243-2.89
					c1.694,0.097,2.988,1.55,2.89,3.243C1085.512,59.761,1084.059,61.055,1082.366,60.957z" />
					<path style="fill:#FFFFFF;" d="M592.99,27.834c-1.68-0.097-2.963-1.537-2.866-3.217c0.097-1.679,1.537-2.962,3.217-2.866
					c1.68,0.097,2.962,1.537,2.866,3.217C596.11,26.647,594.67,27.931,592.99,27.834z" />
					<path style="fill:#FFFFFF;" d="M545.841,200.895c-1.708-0.099-3.013-1.563-2.915-3.271c0.099-1.708,1.563-3.013,3.271-2.915
					c1.708,0.099,3.013,1.563,2.915,3.271C549.013,199.688,547.548,200.993,545.841,200.895z" />
					<path style="fill:#FFFFFF;" d="M2904.5,429.28c-1.495-0.086-2.636-1.368-2.55-2.862c0.086-1.495,1.367-2.636,2.862-2.55
					c1.495,0.086,2.636,1.367,2.55,2.862C2907.275,428.224,2905.994,429.366,2904.5,429.28z" />
					<path style="fill:#FFFFFF;" d="M1221.328,883.327c-1.85-0.107-3.264-1.693-3.157-3.543c0.106-1.85,1.693-3.264,3.543-3.157
					c1.85,0.107,3.264,1.693,3.157,3.543C1224.765,882.02,1223.178,883.434,1221.328,883.327z" />
					<path style="fill:#FFFFFF;" d="M2500.679-88.183c-1.594-0.092-2.812-1.459-2.72-3.053c0.091-1.594,1.458-2.812,3.052-2.72
					c1.594,0.092,2.812,1.459,2.72,3.053C2503.64-89.309,2502.274-88.091,2500.679-88.183z" />
					<path style="fill:#FFFFFF;" d="M2986.266-341.256c-1.836-0.106-3.239-1.68-3.133-3.516c0.106-1.836,1.68-3.238,3.516-3.133
					c1.836,0.106,3.238,1.68,3.133,3.516C2989.677-342.553,2988.102-341.15,2986.266-341.256z" />
					<path style="fill:#FFFFFF;" d="M1904.935,428.105c-1.708-0.099-3.013-1.563-2.915-3.271c0.099-1.708,1.563-3.013,3.271-2.915
					c1.708,0.099,3.013,1.563,2.915,3.271C1908.107,426.899,1906.643,428.203,1904.935,428.105z" />
					<path style="fill:#FFFFFF;" d="M1626.443,911.391c-1.694-0.097-2.988-1.549-2.89-3.243c0.097-1.694,1.55-2.988,3.243-2.89
					c1.693,0.098,2.988,1.55,2.89,3.243C1629.589,910.195,1628.137,911.489,1626.443,911.391z" />
					<path style="fill:#FFFFFF;" d="M2473.508-421.829c-1.637-0.094-2.887-1.497-2.793-3.134c0.094-1.637,1.497-2.887,3.134-2.793
					c1.637,0.094,2.887,1.498,2.793,3.134C2476.548-422.985,2475.145-421.735,2473.508-421.829z" />
					<path style="fill:#FFFFFF;" d="M21.267,924.389c-2.121-0.122-3.741-1.941-3.619-4.061c0.122-2.121,1.941-3.741,4.061-3.619
					c2.121,0.122,3.741,1.94,3.619,4.061C25.206,922.89,23.388,924.511,21.267,924.389z" />
					<path style="fill:#FFFFFF;" d="M2368.224-69.954c-1.594-0.092-2.812-1.459-2.72-3.053c0.092-1.594,1.458-2.812,3.053-2.72
					c1.594,0.091,2.812,1.458,2.72,3.052C2371.185-71.08,2369.819-69.863,2368.224-69.954z" />
					<path style="fill:#FFFFFF;" d="M1844.074,641.696c-1.708-0.099-3.013-1.563-2.914-3.271c0.098-1.708,1.563-3.013,3.271-2.915
					c1.707,0.099,3.013,1.563,2.914,3.271C1847.247,640.489,1845.782,641.794,1844.074,641.696z" />
					<path style="fill:#FFFFFF;" d="M47.05,246.842c-1.879-0.108-3.314-1.719-3.206-3.598c0.108-1.879,1.719-3.314,3.598-3.206
					c1.879,0.108,3.314,1.718,3.206,3.598C50.54,245.515,48.929,246.951,47.05,246.842z" />
					<path style="fill:#FFFFFF;" d="M2587.833-300.362c-1.765-0.102-3.113-1.615-3.011-3.38s1.615-3.113,3.38-3.011
					c1.765,0.102,3.113,1.615,3.011,3.38C2591.111-301.609,2589.598-300.261,2587.833-300.362z" />
					<path style="fill:#FFFFFF;" d="M1787.86,387.593c-1.679-0.097-2.963-1.537-2.866-3.216c0.097-1.68,1.536-2.963,3.216-2.866
					c1.68,0.097,2.963,1.536,2.866,3.216C1790.98,386.407,1789.54,387.69,1787.86,387.593z" />
					<path style="fill:#FFFFFF;" d="M2218.96,971.942c-1.637-0.094-2.887-1.497-2.793-3.134c0.094-1.637,1.497-2.887,3.134-2.793
					c1.637,0.094,2.887,1.497,2.793,3.134C2222,970.785,2220.597,972.036,2218.96,971.942z" />
					<path style="fill:#FFFFFF;" d="M2187.935-265.448c-1.666-0.096-2.938-1.524-2.842-3.189c0.095-1.665,1.524-2.937,3.189-2.842
					c1.665,0.096,2.937,1.524,2.842,3.189C2191.028-266.624,2189.6-265.353,2187.935-265.448z" />
					<path style="fill:#FFFFFF;" d="M2733.971,173.842c-1.622-0.093-2.862-1.484-2.769-3.107c0.093-1.622,1.484-2.862,3.107-2.768
					c1.622,0.093,2.862,1.484,2.769,3.107C2736.985,172.696,2735.594,173.936,2733.971,173.842z" />
				</g>

			</g>
		</g>
	</g>
</svg>