<?xml version="1.0" standalone="no"?><!DOCTYPE svg PUBLIC "-//W3C//DTD SVG 1.1//EN" "http://www.w3.org/Graphics/SVG/1.1/DTD/svg11.dtd"><svg t="1733305179551" class="icon" viewBox="0 0 1024 1024" version="1.1" xmlns="http://www.w3.org/2000/svg" p-id="13366" xmlns:xlink="http://www.w3.org/1999/xlink" width="200" height="200"><path d="M864 624c0 80-60.8 144-137.6 144H300.8C224 761.6 160 700.8 160 617.6c0-54.4 28.8-102.4 70.4-128-3.2-9.6-6.4-19.2-6.4-28.8 0-54.4 41.6-102.4 96-102.4 22.4 0 41.6 9.6 57.6 22.4C416 307.2 486.4 256 569.6 256c115.2 0 208 99.2 208 220.8v12.8c51.2 22.4 86.4 73.6 86.4 134.4z" fill="#ffffff" p-id="13367"></path></svg>