<svg width="50" height="51" viewBox="0 0 50 51" fill="none" xmlns="http://www.w3.org/2000/svg">
<g filter="url(#filter0_i_0_1)">
<path d="M49.1836 35.9863C49.1836 38.0143 48.7962 39.9284 48.0215 41.7285C47.2695 43.5059 46.2214 45.0667 44.877 46.4111C43.5553 47.7327 41.9945 48.7809 40.1943 49.5557C38.417 50.3076 36.5143 50.6836 34.4863 50.6836C32.6634 50.6836 30.9089 50.3646 29.2227 49.7266C27.5592 49.0885 26.0553 48.1543 24.7109 46.9238C23.3665 48.1543 21.8512 49.0885 20.165 49.7266C18.4788 50.3646 16.7243 50.6836 14.9014 50.6836C12.8734 50.6836 10.9593 50.3076 9.15918 49.5557C7.38184 48.7809 5.82096 47.7327 4.47656 46.4111C3.15495 45.0667 2.10677 43.5059 1.33203 41.7285C0.580078 39.9284 0.204102 38.0143 0.204102 35.9863V0.986328H10.0137V35.9863C10.0137 36.6699 10.139 37.3193 10.3896 37.9346C10.6403 38.527 10.9821 39.0511 11.415 39.5068C11.8708 39.9398 12.3949 40.2816 12.9873 40.5322C13.5798 40.7829 14.2178 40.9082 14.9014 40.9082C15.585 40.9082 16.223 40.7829 16.8154 40.5322C17.4079 40.2816 17.9206 39.9398 18.3535 39.5068C18.8092 39.0511 19.1624 38.527 19.4131 37.9346C19.6637 37.3193 19.7891 36.6699 19.7891 35.9863V0.986328H29.5986V35.9863C29.5986 36.6699 29.724 37.3193 29.9746 37.9346C30.2253 38.527 30.5671 39.0511 31 39.5068C31.4557 39.9398 31.9798 40.2816 32.5723 40.5322C33.1647 40.7829 33.8027 40.9082 34.4863 40.9082C35.1699 40.9082 35.8079 40.7829 36.4004 40.5322C36.9928 40.2816 37.5055 39.9398 37.9385 39.5068C38.3942 39.0511 38.7474 38.527 38.998 37.9346C39.2715 37.3193 39.4082 36.6699 39.4082 35.9863V0.986328H49.1836V35.9863Z" fill="white" fill-opacity="0.83"/>
</g>
<path d="M47.7656 33.7725C47.7656 35.6865 47.401 37.498 46.6719 39.207C45.9427 40.8932 44.9401 42.363 43.6641 43.6162C42.4108 44.8695 40.9297 45.8607 39.2207 46.5898C37.5345 47.319 35.723 47.6836 33.7861 47.6836C32.0544 47.6836 30.391 47.3874 28.7959 46.7949C27.2008 46.1797 25.7539 45.291 24.4551 44.1289C23.179 45.291 21.7435 46.1797 20.1484 46.7949C18.5762 47.3874 16.9128 47.6836 15.1582 47.6836C13.2214 47.6836 11.4098 47.319 9.72363 46.5898C8.03743 45.8607 6.55632 44.8695 5.28027 43.6162C4.02702 42.363 3.03581 40.8932 2.30664 39.207C1.57747 37.498 1.21289 35.6865 1.21289 33.7725V10.4619H10.5439V33.7725C10.5439 34.4105 10.6579 35.0143 10.8857 35.584C11.1364 36.1309 11.4668 36.6208 11.877 37.0537C12.3099 37.4639 12.7998 37.7943 13.3467 38.0449C13.9163 38.2728 14.5202 38.3867 15.1582 38.3867C15.7962 38.3867 16.4001 38.2728 16.9697 38.0449C17.5394 37.7943 18.0407 37.4639 18.4736 37.0537C18.9066 36.6208 19.237 36.1309 19.4648 35.584C19.7155 35.0143 19.8408 34.4105 19.8408 33.7725V10.4619H29.1377V33.7725C29.1377 34.4105 29.263 35.0143 29.5137 35.584C29.7643 36.1309 30.0947 36.6208 30.5049 37.0537C30.9378 37.4639 31.4277 37.7943 31.9746 38.0449C32.5443 38.2728 33.1481 38.3867 33.7861 38.3867C34.4242 38.3867 35.028 38.2728 35.5977 38.0449C36.1673 37.7943 36.6572 37.4639 37.0674 37.0537C37.5003 36.6208 37.8421 36.1309 38.0928 35.584C38.3434 35.0143 38.4688 34.4105 38.4688 33.7725V10.4619H47.7656V33.7725Z" fill="#25A386"/>
<path d="M47.7656 25.7725C47.7656 27.6865 47.401 29.498 46.6719 31.207C45.9427 32.8932 44.9401 34.363 43.6641 35.6162C42.4108 36.8695 40.9297 37.8607 39.2207 38.5898C37.5345 39.319 35.723 39.6836 33.7861 39.6836C32.0544 39.6836 30.391 39.3874 28.7959 38.7949C27.2008 38.1797 25.7539 37.291 24.4551 36.1289C23.179 37.291 21.7435 38.1797 20.1484 38.7949C18.5762 39.3874 16.9128 39.6836 15.1582 39.6836C13.2214 39.6836 11.4098 39.319 9.72363 38.5898C8.03743 37.8607 6.55632 36.8695 5.28027 35.6162C4.02702 34.363 3.03581 32.8932 2.30664 31.207C1.57747 29.498 1.21289 27.6865 1.21289 25.7725V2.46191H10.5439V25.7725C10.5439 26.4105 10.6579 27.0143 10.8857 27.584C11.1364 28.1309 11.4668 28.6208 11.877 29.0537C12.3099 29.4639 12.7998 29.7943 13.3467 30.0449C13.9163 30.2728 14.5202 30.3867 15.1582 30.3867C15.7962 30.3867 16.4001 30.2728 16.9697 30.0449C17.5394 29.7943 18.0407 29.4639 18.4736 29.0537C18.9066 28.6208 19.237 28.1309 19.4648 27.584C19.7155 27.0143 19.8408 26.4105 19.8408 25.7725V2.46191H29.1377V25.7725C29.1377 26.4105 29.263 27.0143 29.5137 27.584C29.7643 28.1309 30.0947 28.6208 30.5049 29.0537C30.9378 29.4639 31.4277 29.7943 31.9746 30.0449C32.5443 30.2728 33.1481 30.3867 33.7861 30.3867C34.4242 30.3867 35.028 30.2728 35.5977 30.0449C36.1673 29.7943 36.6572 29.4639 37.0674 29.0537C37.5003 28.6208 37.8421 28.1309 38.0928 27.584C38.3434 27.0143 38.4688 26.4105 38.4688 25.7725V2.46191H47.7656V25.7725Z" fill="#25A386"/>
<defs>
<filter id="filter0_i_0_1" x="0.204102" y="0.986328" width="48.9795" height="53.6973" filterUnits="userSpaceOnUse" color-interpolation-filters="sRGB">
<feFlood flood-opacity="0" result="BackgroundImageFix"/>
<feBlend mode="normal" in="SourceGraphic" in2="BackgroundImageFix" result="shape"/>
<feColorMatrix in="SourceAlpha" type="matrix" values="0 0 0 0 0 0 0 0 0 0 0 0 0 0 0 0 0 0 127 0" result="hardAlpha"/>
<feOffset dy="4"/>
<feGaussianBlur stdDeviation="2"/>
<feComposite in2="hardAlpha" operator="arithmetic" k2="-1" k3="1"/>
<feColorMatrix type="matrix" values="0 0 0 0 0 0 0 0 0 0 0 0 0 0 0 0 0 0 0.25 0"/>
<feBlend mode="normal" in2="shape" result="effect1_innerShadow_0_1"/>
</filter>
</defs>
</svg>
