<svg width="259" height="68" viewBox="0 0 259 68" fill="none" xmlns="http://www.w3.org/2000/svg">
<mask id="path-1-outside-1_0_1" maskUnits="userSpaceOnUse" x="13" y="-1" width="246" height="62" fill="black">
<rect fill="white" x="13" y="-1" width="246" height="62"/>
<path d="M37.32 55.112C37.32 56.12 36.912 57.008 36.096 57.776C35.328 58.496 34.416 58.856 33.36 58.856C32.304 58.856 31.2 58.16 30.048 56.768C28.944 55.328 28.392 54.104 28.392 53.096C28.392 51.896 28.704 50.672 29.328 49.424C29.376 49.088 29.544 47.408 29.832 44.384C30.12 41.36 30.864 36.272 32.064 29.12C33.312 21.92 34.104 17.024 34.44 14.432V13.712C34.44 12.56 34.008 11.984 33.144 11.984C32.328 11.984 31.488 12.416 30.624 13.28C30.72 13.472 30.768 13.856 30.768 14.432C30.768 15.008 30.12 16.856 28.824 19.976C27.528 23.048 25.68 27.728 23.28 34.016C22.56 35.744 21.6 36.608 20.4 36.608C19.2 36.608 18.12 35.888 17.16 34.448C16.2 33.008 15.72 31.784 15.72 30.776C15.72 29.72 15.888 28.736 16.224 27.824C17.424 24.944 18.792 22.088 20.328 19.256C21.864 16.376 23.064 14.096 23.928 12.416C24.84 10.736 25.512 9.512 25.944 8.744C26.424 7.976 26.904 7.592 27.384 7.592C27.864 7.592 28.296 7.64 28.68 7.736C29.592 6.632 30.816 6.08 32.352 6.08C33.888 6.08 35.424 6.56 36.96 7.52C38.544 8.48 39.336 10.88 39.336 14.72C39.336 16.064 39.216 18.008 38.976 20.552C38.736 23.048 38.592 24.632 38.544 25.304C42.432 14.216 45.888 7.28 48.912 4.496C49.44 3.968 50.184 3.704 51.144 3.704C53.304 3.704 54.648 4.136 55.176 5C55.752 5.816 56.04 7.352 56.04 9.608C56.04 11.816 55.824 14.216 55.392 16.808C54.96 19.4 54.288 22.688 53.376 26.672C52.464 30.608 51.864 33.224 51.576 34.52C51.336 35.768 51.216 36.992 51.216 38.192C51.216 39.392 51.288 39.992 51.432 39.992C51.816 39.992 52.776 38.72 54.312 36.176C55.896 33.584 56.832 32.288 57.12 32.288C57.408 32.288 57.552 32.744 57.552 33.656C57.552 36.872 57.168 40.28 56.4 43.88C55.68 47.48 54.624 50.216 53.232 52.088C51.888 53.96 50.664 54.896 49.56 54.896C49.08 54.896 48.48 54.632 47.76 54.104C47.04 53.528 46.608 53.168 46.464 53.024C44.88 51.296 44.088 48.776 44.088 45.464C44.088 42.536 45.576 33.848 48.552 19.4C49.464 14.792 50.088 11.6 50.424 9.824C46.824 15.872 44.016 22.28 42 29.048C40.032 35.768 38.496 43.424 37.392 52.016L37.176 53.816L37.32 55.112ZM77.4662 38.408C77.4662 44.216 75.7862 49.376 72.4262 53.888C71.2262 55.424 69.8822 56.192 68.3942 56.192C66.9542 56.192 65.8022 55.832 64.9382 55.112C61.8182 52.52 60.2582 48.08 60.2582 41.792C60.2582 37.424 61.4342 31.856 63.7862 25.088C63.9782 24.608 64.1462 24.32 64.2902 24.224C64.4342 24.08 64.6742 24.008 65.0102 24.008C65.3942 24.008 65.8502 23.768 66.3782 23.288C66.9062 22.76 67.7702 22.496 68.9702 22.496C70.2182 22.496 71.4662 22.952 72.7142 23.864C73.9622 24.776 74.8742 26 75.4502 27.536C76.7942 31.136 77.4662 34.76 77.4662 38.408ZM71.4902 33.728C71.4902 29.312 70.9382 27.104 69.8342 27.104C69.3062 27.104 68.8262 27.512 68.3942 28.328C66.4742 32.888 65.5142 38.336 65.5142 44.672C65.5142 46.256 65.5382 47.456 65.5862 48.272C69.5222 45.248 71.4902 40.4 71.4902 33.728ZM84.5503 22.064C86.1823 22.064 87.8623 22.88 89.5903 24.512C90.5023 25.376 90.9583 26.216 90.9583 27.032C90.9583 28.52 89.6863 34.52 87.1423 45.032C87.0463 45.512 86.9983 45.944 86.9983 46.328C86.9983 46.712 87.0943 46.904 87.2863 46.904C87.4783 46.904 87.7903 46.688 88.2223 46.256C89.7583 44.336 90.8383 42.44 91.4623 40.568C92.0863 38.696 92.5423 37.328 92.8303 36.464C93.1183 35.552 93.3823 34.28 93.6223 32.648C93.8623 31.016 94.0303 29.864 94.1263 29.192C94.2703 28.28 94.5343 25.832 94.9183 21.848C95.0623 20.936 95.3263 20.48 95.7103 20.48C96.1423 20.48 96.4303 20.84 96.5743 21.56C97.5823 27.032 98.0863 32.6 98.0863 38.264C98.0863 43.928 96.7663 48.728 94.1263 52.664C92.7823 54.776 91.2463 55.832 89.5183 55.832C88.7983 55.832 88.1023 55.64 87.4303 55.256C85.5583 54.392 84.0703 52.832 82.9663 50.576C81.8623 48.32 81.3103 46.064 81.3103 43.808C81.3103 42.224 81.4783 40.808 81.8143 39.56C82.1983 38.264 82.5583 37.064 82.8943 35.96C83.4223 34.232 83.6863 33.152 83.6863 32.72C83.6863 32.24 83.2303 31.808 82.3183 31.424C81.4543 31.04 80.8783 30.536 80.5903 29.912C80.3503 29.24 79.9903 27.968 79.5103 26.096C79.0303 24.176 78.7903 23.048 78.7903 22.712C78.7903 22.376 78.9583 22.208 79.2943 22.208L81.0943 22.352L84.5503 22.064ZM117.333 45.896C113.397 52.952 110.397 56.48 108.333 56.48C106.845 56.48 105.501 55.568 104.301 53.744C103.965 53.264 103.605 52.52 103.221 51.512C102.837 50.456 102.357 49.496 101.781 48.632C101.253 47.768 100.989 46.616 100.989 45.176C100.989 43.688 101.277 42.368 101.853 41.216C105.789 33.44 109.941 28.112 114.309 25.232C114.885 24.8 115.557 24.584 116.325 24.584C117.093 24.584 118.053 25.016 119.205 25.88C119.877 26.552 120.285 27.128 120.429 27.608C120.669 28.664 120.789 29.312 120.789 29.552C122.469 30.128 123.309 31.184 123.309 32.72C123.309 33.776 123.021 36.176 122.445 39.92C121.869 43.616 121.533 46.376 121.437 48.2C121.437 49.208 121.773 49.712 122.445 49.712C123.213 49.712 124.581 48.368 126.549 45.68C128.565 42.992 129.717 41.648 130.005 41.648C130.485 41.648 130.725 42.44 130.725 44.024L130.581 47.552C130.581 48.896 129.981 50.744 128.781 53.096C127.581 55.4 126.045 56.552 124.173 56.552C123.021 56.552 122.109 56.168 121.437 55.4C121.197 55.16 120.837 54.68 120.357 53.96C118.869 51.8 117.861 49.112 117.333 45.896ZM117.981 29.264C111.933 34.784 108.093 41.096 106.461 48.2C111.309 44.024 115.149 37.712 117.981 29.264ZM156.931 39.272C156.931 45.512 154.531 51.152 149.731 56.192C148.723 57.248 147.331 57.776 145.555 57.776C142.675 57.776 140.299 57.056 138.427 55.616C134.971 52.976 133.243 47.696 133.243 39.776C133.243 34.544 134.299 29.024 136.411 23.216C138.523 17.408 141.211 12.104 144.475 7.304C144.955 6.728 145.315 6.44 145.555 6.44C145.795 6.44 146.059 6.512 146.347 6.656C146.683 6.8 147.019 6.968 147.355 7.16C147.739 7.352 148.003 7.472 148.147 7.52V5.36C147.859 4.784 147.715 4.28 147.715 3.848C147.715 3.416 147.907 3.2 148.291 3.2C148.675 3.2 149.083 3.272 149.515 3.416C153.739 4.856 155.851 8.312 155.851 13.784C155.851 16.904 155.059 20.096 153.475 23.36C153.043 24.224 152.659 24.656 152.323 24.656C152.083 24.656 151.723 24.272 151.243 23.504C149.707 20.336 148.723 16.232 148.291 11.192C147.571 11.192 147.043 11.456 146.707 11.984C146.371 12.512 145.795 13.904 144.979 16.16C141.955 24.32 140.443 32.696 140.443 41.288C140.443 46.04 140.971 50.096 142.027 53.456C145.147 50.528 147.835 46.904 150.091 42.584C152.395 38.216 154.099 33.752 155.203 29.192C156.355 32.984 156.931 36.344 156.931 39.272ZM165.7 2.48C165.7 1.904 166.012 1.616 166.636 1.616C166.876 1.616 167.188 1.664 167.572 1.76C170.452 2.336 171.892 3.992 171.892 6.728C171.892 7.4 171.82 8.144 171.676 8.96C171.532 9.728 171.244 11.36 170.812 13.856C170.428 16.352 170.14 18.152 169.948 19.256L169.228 24.224C168.076 31.808 167.5 38.792 167.5 45.176C167.5 46.568 167.836 47.264 168.508 47.264C168.748 47.264 169.012 47.12 169.3 46.832C172.66 42.608 174.604 40.04 175.132 39.128C175.708 38.168 176.116 37.688 176.356 37.688C176.644 37.688 176.788 38.024 176.788 38.696C176.788 39.32 176.644 40.544 176.356 42.368C176.116 44.144 175.972 45.296 175.924 45.824C175.876 46.304 175.756 46.856 175.564 47.48C175.42 48.104 175.276 48.608 175.132 48.992C175.036 49.328 174.796 49.832 174.412 50.504C174.028 51.128 173.764 51.536 173.62 51.728C172.612 53.072 171.796 54.128 171.172 54.896C170.596 55.616 169.9 55.976 169.084 55.976C168.316 55.976 167.572 55.616 166.852 54.896C166.132 54.176 165.604 53.528 165.268 52.952C164.98 52.376 164.548 51.488 163.972 50.288C162.292 47.024 161.452 43.592 161.452 39.992C161.452 36.92 161.788 33.152 162.46 28.688C163.18 24.224 163.612 21.44 163.756 20.336C162.652 20.336 162.1 19.856 162.1 18.896C162.1 18.512 162.148 18.152 162.244 17.816C162.388 17.432 162.844 16.088 163.612 13.784C165.244 9.128 166.06 6.08 166.06 4.64L165.7 2.48ZM194.587 45.896C190.651 52.952 187.651 56.48 185.587 56.48C184.099 56.48 182.755 55.568 181.555 53.744C181.219 53.264 180.859 52.52 180.475 51.512C180.091 50.456 179.611 49.496 179.035 48.632C178.507 47.768 178.243 46.616 178.243 45.176C178.243 43.688 178.531 42.368 179.107 41.216C183.043 33.44 187.195 28.112 191.563 25.232C192.139 24.8 192.811 24.584 193.579 24.584C194.347 24.584 195.307 25.016 196.459 25.88C197.131 26.552 197.539 27.128 197.683 27.608C197.923 28.664 198.043 29.312 198.043 29.552C199.723 30.128 200.563 31.184 200.563 32.72C200.563 33.776 200.275 36.176 199.699 39.92C199.123 43.616 198.787 46.376 198.691 48.2C198.691 49.208 199.027 49.712 199.699 49.712C200.467 49.712 201.835 48.368 203.803 45.68C205.819 42.992 206.971 41.648 207.259 41.648C207.739 41.648 207.979 42.44 207.979 44.024L207.835 47.552C207.835 48.896 207.235 50.744 206.035 53.096C204.835 55.4 203.299 56.552 201.427 56.552C200.275 56.552 199.363 56.168 198.691 55.4C198.451 55.16 198.091 54.68 197.611 53.96C196.123 51.8 195.115 49.112 194.587 45.896ZM195.235 29.264C189.187 34.784 185.347 41.096 183.715 48.2C188.563 44.024 192.403 37.712 195.235 29.264ZM221.513 23.504C222.233 23.168 223.217 23 224.465 23C225.713 23 227.201 23.504 228.929 24.512C230.657 25.472 231.521 26.624 231.521 27.968C231.521 29.264 230.993 30.44 229.937 31.496C228.929 32.552 227.777 33.08 226.481 33.08C224.513 33.08 223.145 32.168 222.377 30.344C222.281 30.056 222.113 29.912 221.873 29.912C221.681 29.912 220.889 30.2 219.497 30.776C218.153 31.352 217.241 31.76 216.761 32C216.281 32.24 216.041 32.48 216.041 32.72C216.041 32.912 216.377 33.176 217.049 33.512C225.593 35.816 229.865 39.344 229.865 44.096C229.865 45.776 229.193 47.528 227.849 49.352C226.553 51.128 224.705 52.592 222.305 53.744C219.905 54.896 217.601 55.472 215.393 55.472C213.185 55.472 211.625 54.872 210.713 53.672C209.849 52.472 209.417 50.744 209.417 48.488C209.417 46.232 210.209 44.552 211.793 43.448C213.905 42.056 215.633 41.36 216.977 41.36C217.313 41.36 217.481 41.456 217.481 41.648C217.481 41.792 217.097 42.08 216.329 42.512C215.609 42.944 214.817 43.568 213.953 44.384C213.137 45.2 212.729 45.872 212.729 46.4C212.729 46.88 213.305 47.12 214.457 47.12C217.529 47.12 220.553 46.256 223.529 44.528C224.201 44.192 224.537 43.808 224.537 43.376C224.537 42.896 224.033 42.416 223.025 41.936C222.017 41.456 220.313 40.76 217.913 39.848C215.561 38.936 213.689 38.168 212.297 37.544C210.953 36.872 210.281 35.792 210.281 34.304C210.281 33.872 210.377 33.272 210.569 32.504C210.809 31.688 210.953 31.136 211.001 30.848C211.241 29.168 211.985 28.016 213.233 27.392C214.529 26.768 217.289 25.472 221.513 23.504ZM256.74 45.32C256.74 49.112 256.044 52.016 254.652 54.032C253.596 55.376 252.684 56.048 251.916 56.048C251.148 56.048 250.38 55.664 249.612 54.896C246.924 51.776 245.58 48.032 245.58 43.664C245.58 42.224 245.748 40.736 246.084 39.2C246.66 36.56 246.948 34.856 246.948 34.088C246.948 33.32 246.9 32.936 246.804 32.936C246.516 32.936 244.62 39.536 241.116 52.736C240.684 54.08 240.228 54.752 239.748 54.752C238.452 54.752 236.916 52.52 235.14 48.056C234.18 45.944 233.7 43.4 233.7 40.424C233.7 37.064 233.892 34.232 234.276 31.928C234.708 29.624 234.972 28.208 235.068 27.68C235.164 27.104 235.332 26.216 235.572 25.016C235.86 23.768 236.052 22.952 236.148 22.568C236.724 20.168 237.108 18.464 237.3 17.456C236.1 17.456 235.5 17.096 235.5 16.376C235.5 16.04 235.644 15.68 235.932 15.296C238.572 11.12 240.444 7.424 241.548 4.208C241.74 3.392 242.124 2.984 242.7 2.984C243.468 2.984 244.044 3.728 244.428 5.216C244.812 6.704 245.004 8 245.004 9.104C245.004 11.888 244.092 14.12 242.268 15.8C240.108 29.192 239.028 36.224 239.028 36.896C239.028 37.568 239.124 37.904 239.316 37.904C239.508 37.904 239.844 37.472 240.324 36.608C240.852 35.696 241.668 33.992 242.772 31.496C243.876 28.952 244.788 27.08 245.508 25.88C246.564 24.104 247.908 23.216 249.54 23.216C252.132 23.216 253.428 25.64 253.428 30.488C253.428 34.424 252.516 39.392 250.692 45.392C250.644 45.584 250.62 45.776 250.62 45.968C250.62 46.496 250.86 46.76 251.34 46.76C251.868 46.76 252.756 46.064 254.004 44.672C255.3 43.28 256.068 42.584 256.308 42.584C256.596 42.584 256.74 43.496 256.74 45.32Z"/>
</mask>
<path d="M37.32 55.112C37.32 56.12 36.912 57.008 36.096 57.776C35.328 58.496 34.416 58.856 33.36 58.856C32.304 58.856 31.2 58.16 30.048 56.768C28.944 55.328 28.392 54.104 28.392 53.096C28.392 51.896 28.704 50.672 29.328 49.424C29.376 49.088 29.544 47.408 29.832 44.384C30.12 41.36 30.864 36.272 32.064 29.12C33.312 21.92 34.104 17.024 34.44 14.432V13.712C34.44 12.56 34.008 11.984 33.144 11.984C32.328 11.984 31.488 12.416 30.624 13.28C30.72 13.472 30.768 13.856 30.768 14.432C30.768 15.008 30.12 16.856 28.824 19.976C27.528 23.048 25.68 27.728 23.28 34.016C22.56 35.744 21.6 36.608 20.4 36.608C19.2 36.608 18.12 35.888 17.16 34.448C16.2 33.008 15.72 31.784 15.72 30.776C15.72 29.72 15.888 28.736 16.224 27.824C17.424 24.944 18.792 22.088 20.328 19.256C21.864 16.376 23.064 14.096 23.928 12.416C24.84 10.736 25.512 9.512 25.944 8.744C26.424 7.976 26.904 7.592 27.384 7.592C27.864 7.592 28.296 7.64 28.68 7.736C29.592 6.632 30.816 6.08 32.352 6.08C33.888 6.08 35.424 6.56 36.96 7.52C38.544 8.48 39.336 10.88 39.336 14.72C39.336 16.064 39.216 18.008 38.976 20.552C38.736 23.048 38.592 24.632 38.544 25.304C42.432 14.216 45.888 7.28 48.912 4.496C49.44 3.968 50.184 3.704 51.144 3.704C53.304 3.704 54.648 4.136 55.176 5C55.752 5.816 56.04 7.352 56.04 9.608C56.04 11.816 55.824 14.216 55.392 16.808C54.96 19.4 54.288 22.688 53.376 26.672C52.464 30.608 51.864 33.224 51.576 34.52C51.336 35.768 51.216 36.992 51.216 38.192C51.216 39.392 51.288 39.992 51.432 39.992C51.816 39.992 52.776 38.72 54.312 36.176C55.896 33.584 56.832 32.288 57.12 32.288C57.408 32.288 57.552 32.744 57.552 33.656C57.552 36.872 57.168 40.28 56.4 43.88C55.68 47.48 54.624 50.216 53.232 52.088C51.888 53.96 50.664 54.896 49.56 54.896C49.08 54.896 48.48 54.632 47.76 54.104C47.04 53.528 46.608 53.168 46.464 53.024C44.88 51.296 44.088 48.776 44.088 45.464C44.088 42.536 45.576 33.848 48.552 19.4C49.464 14.792 50.088 11.6 50.424 9.824C46.824 15.872 44.016 22.28 42 29.048C40.032 35.768 38.496 43.424 37.392 52.016L37.176 53.816L37.32 55.112ZM77.4662 38.408C77.4662 44.216 75.7862 49.376 72.4262 53.888C71.2262 55.424 69.8822 56.192 68.3942 56.192C66.9542 56.192 65.8022 55.832 64.9382 55.112C61.8182 52.52 60.2582 48.08 60.2582 41.792C60.2582 37.424 61.4342 31.856 63.7862 25.088C63.9782 24.608 64.1462 24.32 64.2902 24.224C64.4342 24.08 64.6742 24.008 65.0102 24.008C65.3942 24.008 65.8502 23.768 66.3782 23.288C66.9062 22.76 67.7702 22.496 68.9702 22.496C70.2182 22.496 71.4662 22.952 72.7142 23.864C73.9622 24.776 74.8742 26 75.4502 27.536C76.7942 31.136 77.4662 34.76 77.4662 38.408ZM71.4902 33.728C71.4902 29.312 70.9382 27.104 69.8342 27.104C69.3062 27.104 68.8262 27.512 68.3942 28.328C66.4742 32.888 65.5142 38.336 65.5142 44.672C65.5142 46.256 65.5382 47.456 65.5862 48.272C69.5222 45.248 71.4902 40.4 71.4902 33.728ZM84.5503 22.064C86.1823 22.064 87.8623 22.88 89.5903 24.512C90.5023 25.376 90.9583 26.216 90.9583 27.032C90.9583 28.52 89.6863 34.52 87.1423 45.032C87.0463 45.512 86.9983 45.944 86.9983 46.328C86.9983 46.712 87.0943 46.904 87.2863 46.904C87.4783 46.904 87.7903 46.688 88.2223 46.256C89.7583 44.336 90.8383 42.44 91.4623 40.568C92.0863 38.696 92.5423 37.328 92.8303 36.464C93.1183 35.552 93.3823 34.28 93.6223 32.648C93.8623 31.016 94.0303 29.864 94.1263 29.192C94.2703 28.28 94.5343 25.832 94.9183 21.848C95.0623 20.936 95.3263 20.48 95.7103 20.48C96.1423 20.48 96.4303 20.84 96.5743 21.56C97.5823 27.032 98.0863 32.6 98.0863 38.264C98.0863 43.928 96.7663 48.728 94.1263 52.664C92.7823 54.776 91.2463 55.832 89.5183 55.832C88.7983 55.832 88.1023 55.64 87.4303 55.256C85.5583 54.392 84.0703 52.832 82.9663 50.576C81.8623 48.32 81.3103 46.064 81.3103 43.808C81.3103 42.224 81.4783 40.808 81.8143 39.56C82.1983 38.264 82.5583 37.064 82.8943 35.96C83.4223 34.232 83.6863 33.152 83.6863 32.72C83.6863 32.24 83.2303 31.808 82.3183 31.424C81.4543 31.04 80.8783 30.536 80.5903 29.912C80.3503 29.24 79.9903 27.968 79.5103 26.096C79.0303 24.176 78.7903 23.048 78.7903 22.712C78.7903 22.376 78.9583 22.208 79.2943 22.208L81.0943 22.352L84.5503 22.064ZM117.333 45.896C113.397 52.952 110.397 56.48 108.333 56.48C106.845 56.48 105.501 55.568 104.301 53.744C103.965 53.264 103.605 52.52 103.221 51.512C102.837 50.456 102.357 49.496 101.781 48.632C101.253 47.768 100.989 46.616 100.989 45.176C100.989 43.688 101.277 42.368 101.853 41.216C105.789 33.44 109.941 28.112 114.309 25.232C114.885 24.8 115.557 24.584 116.325 24.584C117.093 24.584 118.053 25.016 119.205 25.88C119.877 26.552 120.285 27.128 120.429 27.608C120.669 28.664 120.789 29.312 120.789 29.552C122.469 30.128 123.309 31.184 123.309 32.72C123.309 33.776 123.021 36.176 122.445 39.92C121.869 43.616 121.533 46.376 121.437 48.2C121.437 49.208 121.773 49.712 122.445 49.712C123.213 49.712 124.581 48.368 126.549 45.68C128.565 42.992 129.717 41.648 130.005 41.648C130.485 41.648 130.725 42.44 130.725 44.024L130.581 47.552C130.581 48.896 129.981 50.744 128.781 53.096C127.581 55.4 126.045 56.552 124.173 56.552C123.021 56.552 122.109 56.168 121.437 55.4C121.197 55.16 120.837 54.68 120.357 53.96C118.869 51.8 117.861 49.112 117.333 45.896ZM117.981 29.264C111.933 34.784 108.093 41.096 106.461 48.2C111.309 44.024 115.149 37.712 117.981 29.264ZM156.931 39.272C156.931 45.512 154.531 51.152 149.731 56.192C148.723 57.248 147.331 57.776 145.555 57.776C142.675 57.776 140.299 57.056 138.427 55.616C134.971 52.976 133.243 47.696 133.243 39.776C133.243 34.544 134.299 29.024 136.411 23.216C138.523 17.408 141.211 12.104 144.475 7.304C144.955 6.728 145.315 6.44 145.555 6.44C145.795 6.44 146.059 6.512 146.347 6.656C146.683 6.8 147.019 6.968 147.355 7.16C147.739 7.352 148.003 7.472 148.147 7.52V5.36C147.859 4.784 147.715 4.28 147.715 3.848C147.715 3.416 147.907 3.2 148.291 3.2C148.675 3.2 149.083 3.272 149.515 3.416C153.739 4.856 155.851 8.312 155.851 13.784C155.851 16.904 155.059 20.096 153.475 23.36C153.043 24.224 152.659 24.656 152.323 24.656C152.083 24.656 151.723 24.272 151.243 23.504C149.707 20.336 148.723 16.232 148.291 11.192C147.571 11.192 147.043 11.456 146.707 11.984C146.371 12.512 145.795 13.904 144.979 16.16C141.955 24.32 140.443 32.696 140.443 41.288C140.443 46.04 140.971 50.096 142.027 53.456C145.147 50.528 147.835 46.904 150.091 42.584C152.395 38.216 154.099 33.752 155.203 29.192C156.355 32.984 156.931 36.344 156.931 39.272ZM165.7 2.48C165.7 1.904 166.012 1.616 166.636 1.616C166.876 1.616 167.188 1.664 167.572 1.76C170.452 2.336 171.892 3.992 171.892 6.728C171.892 7.4 171.82 8.144 171.676 8.96C171.532 9.728 171.244 11.36 170.812 13.856C170.428 16.352 170.14 18.152 169.948 19.256L169.228 24.224C168.076 31.808 167.5 38.792 167.5 45.176C167.5 46.568 167.836 47.264 168.508 47.264C168.748 47.264 169.012 47.12 169.3 46.832C172.66 42.608 174.604 40.04 175.132 39.128C175.708 38.168 176.116 37.688 176.356 37.688C176.644 37.688 176.788 38.024 176.788 38.696C176.788 39.32 176.644 40.544 176.356 42.368C176.116 44.144 175.972 45.296 175.924 45.824C175.876 46.304 175.756 46.856 175.564 47.48C175.42 48.104 175.276 48.608 175.132 48.992C175.036 49.328 174.796 49.832 174.412 50.504C174.028 51.128 173.764 51.536 173.62 51.728C172.612 53.072 171.796 54.128 171.172 54.896C170.596 55.616 169.9 55.976 169.084 55.976C168.316 55.976 167.572 55.616 166.852 54.896C166.132 54.176 165.604 53.528 165.268 52.952C164.98 52.376 164.548 51.488 163.972 50.288C162.292 47.024 161.452 43.592 161.452 39.992C161.452 36.92 161.788 33.152 162.46 28.688C163.18 24.224 163.612 21.44 163.756 20.336C162.652 20.336 162.1 19.856 162.1 18.896C162.1 18.512 162.148 18.152 162.244 17.816C162.388 17.432 162.844 16.088 163.612 13.784C165.244 9.128 166.06 6.08 166.06 4.64L165.7 2.48ZM194.587 45.896C190.651 52.952 187.651 56.48 185.587 56.48C184.099 56.48 182.755 55.568 181.555 53.744C181.219 53.264 180.859 52.52 180.475 51.512C180.091 50.456 179.611 49.496 179.035 48.632C178.507 47.768 178.243 46.616 178.243 45.176C178.243 43.688 178.531 42.368 179.107 41.216C183.043 33.44 187.195 28.112 191.563 25.232C192.139 24.8 192.811 24.584 193.579 24.584C194.347 24.584 195.307 25.016 196.459 25.88C197.131 26.552 197.539 27.128 197.683 27.608C197.923 28.664 198.043 29.312 198.043 29.552C199.723 30.128 200.563 31.184 200.563 32.72C200.563 33.776 200.275 36.176 199.699 39.92C199.123 43.616 198.787 46.376 198.691 48.2C198.691 49.208 199.027 49.712 199.699 49.712C200.467 49.712 201.835 48.368 203.803 45.68C205.819 42.992 206.971 41.648 207.259 41.648C207.739 41.648 207.979 42.44 207.979 44.024L207.835 47.552C207.835 48.896 207.235 50.744 206.035 53.096C204.835 55.4 203.299 56.552 201.427 56.552C200.275 56.552 199.363 56.168 198.691 55.4C198.451 55.16 198.091 54.68 197.611 53.96C196.123 51.8 195.115 49.112 194.587 45.896ZM195.235 29.264C189.187 34.784 185.347 41.096 183.715 48.2C188.563 44.024 192.403 37.712 195.235 29.264ZM221.513 23.504C222.233 23.168 223.217 23 224.465 23C225.713 23 227.201 23.504 228.929 24.512C230.657 25.472 231.521 26.624 231.521 27.968C231.521 29.264 230.993 30.44 229.937 31.496C228.929 32.552 227.777 33.08 226.481 33.08C224.513 33.08 223.145 32.168 222.377 30.344C222.281 30.056 222.113 29.912 221.873 29.912C221.681 29.912 220.889 30.2 219.497 30.776C218.153 31.352 217.241 31.76 216.761 32C216.281 32.24 216.041 32.48 216.041 32.72C216.041 32.912 216.377 33.176 217.049 33.512C225.593 35.816 229.865 39.344 229.865 44.096C229.865 45.776 229.193 47.528 227.849 49.352C226.553 51.128 224.705 52.592 222.305 53.744C219.905 54.896 217.601 55.472 215.393 55.472C213.185 55.472 211.625 54.872 210.713 53.672C209.849 52.472 209.417 50.744 209.417 48.488C209.417 46.232 210.209 44.552 211.793 43.448C213.905 42.056 215.633 41.36 216.977 41.36C217.313 41.36 217.481 41.456 217.481 41.648C217.481 41.792 217.097 42.08 216.329 42.512C215.609 42.944 214.817 43.568 213.953 44.384C213.137 45.2 212.729 45.872 212.729 46.4C212.729 46.88 213.305 47.12 214.457 47.12C217.529 47.12 220.553 46.256 223.529 44.528C224.201 44.192 224.537 43.808 224.537 43.376C224.537 42.896 224.033 42.416 223.025 41.936C222.017 41.456 220.313 40.76 217.913 39.848C215.561 38.936 213.689 38.168 212.297 37.544C210.953 36.872 210.281 35.792 210.281 34.304C210.281 33.872 210.377 33.272 210.569 32.504C210.809 31.688 210.953 31.136 211.001 30.848C211.241 29.168 211.985 28.016 213.233 27.392C214.529 26.768 217.289 25.472 221.513 23.504ZM256.74 45.32C256.74 49.112 256.044 52.016 254.652 54.032C253.596 55.376 252.684 56.048 251.916 56.048C251.148 56.048 250.38 55.664 249.612 54.896C246.924 51.776 245.58 48.032 245.58 43.664C245.58 42.224 245.748 40.736 246.084 39.2C246.66 36.56 246.948 34.856 246.948 34.088C246.948 33.32 246.9 32.936 246.804 32.936C246.516 32.936 244.62 39.536 241.116 52.736C240.684 54.08 240.228 54.752 239.748 54.752C238.452 54.752 236.916 52.52 235.14 48.056C234.18 45.944 233.7 43.4 233.7 40.424C233.7 37.064 233.892 34.232 234.276 31.928C234.708 29.624 234.972 28.208 235.068 27.68C235.164 27.104 235.332 26.216 235.572 25.016C235.86 23.768 236.052 22.952 236.148 22.568C236.724 20.168 237.108 18.464 237.3 17.456C236.1 17.456 235.5 17.096 235.5 16.376C235.5 16.04 235.644 15.68 235.932 15.296C238.572 11.12 240.444 7.424 241.548 4.208C241.74 3.392 242.124 2.984 242.7 2.984C243.468 2.984 244.044 3.728 244.428 5.216C244.812 6.704 245.004 8 245.004 9.104C245.004 11.888 244.092 14.12 242.268 15.8C240.108 29.192 239.028 36.224 239.028 36.896C239.028 37.568 239.124 37.904 239.316 37.904C239.508 37.904 239.844 37.472 240.324 36.608C240.852 35.696 241.668 33.992 242.772 31.496C243.876 28.952 244.788 27.08 245.508 25.88C246.564 24.104 247.908 23.216 249.54 23.216C252.132 23.216 253.428 25.64 253.428 30.488C253.428 34.424 252.516 39.392 250.692 45.392C250.644 45.584 250.62 45.776 250.62 45.968C250.62 46.496 250.86 46.76 251.34 46.76C251.868 46.76 252.756 46.064 254.004 44.672C255.3 43.28 256.068 42.584 256.308 42.584C256.596 42.584 256.74 43.496 256.74 45.32Z" fill="url(#paint0_linear_0_1)"/>
<defs>
<linearGradient id="paint0_linear_0_1" x1="136.5" y1="-13" x2="136.5" y2="77" gradientUnits="userSpaceOnUse">
<stop stop-color="#6863F1"/>
<stop offset="1" stop-color="#312E81"/>
</linearGradient>
</defs>
</svg>
