<svg width="57" height="61" viewBox="0 0 57 61" fill="none" xmlns="http://www.w3.org/2000/svg">
<g filter="url(#filter0_d_0_1)">
<mask id="path-1-outside-1_0_1" maskUnits="userSpaceOnUse" x="2" y="1" width="55" height="60" fill="black">
<rect fill="white" x="2" y="1" width="55" height="60"/>
<path d="M41.52 11.648C43.392 11.888 44.64 12.56 45.264 13.664C45.936 14.72 46.2 15.872 46.056 17.12C45.912 18.32 45.456 19.424 44.688 20.432C43.968 21.392 43.152 21.896 42.24 21.944C41.904 22.952 41.376 23.648 40.656 24.032C39.936 24.416 39.144 24.68 38.28 24.824C37.416 24.968 36.504 25.136 35.544 25.328C34.632 25.472 33.768 25.88 32.952 26.552C32.136 27.224 31.44 27.896 30.864 28.568C30.336 29.192 29.904 29.816 29.568 30.44C28.992 31.496 28.488 32.792 28.056 34.328C27.96 35.384 28.464 36.368 29.568 37.28C30.864 38.288 32.28 38.744 33.816 38.648C35.352 38.504 36.576 38.576 37.488 38.864C38.448 39.104 39.168 39.464 39.648 39.944C40.704 41.048 40.608 42.32 39.36 43.76C36.96 47.6 32.928 49.88 27.264 50.6C25.584 50.84 23.904 50.888 22.224 50.744C20.544 50.648 18.912 50.024 17.328 48.872C15.744 47.72 14.496 46.16 13.584 44.192C11.568 39.68 11.736 34.424 14.088 28.424C16.344 22.808 19.728 18.488 24.24 15.464C29.184 12.104 34.944 10.832 41.52 11.648Z"/>
</mask>
<path d="M41.52 11.648C43.392 11.888 44.64 12.56 45.264 13.664C45.936 14.72 46.2 15.872 46.056 17.12C45.912 18.32 45.456 19.424 44.688 20.432C43.968 21.392 43.152 21.896 42.24 21.944C41.904 22.952 41.376 23.648 40.656 24.032C39.936 24.416 39.144 24.68 38.28 24.824C37.416 24.968 36.504 25.136 35.544 25.328C34.632 25.472 33.768 25.88 32.952 26.552C32.136 27.224 31.44 27.896 30.864 28.568C30.336 29.192 29.904 29.816 29.568 30.44C28.992 31.496 28.488 32.792 28.056 34.328C27.96 35.384 28.464 36.368 29.568 37.28C30.864 38.288 32.28 38.744 33.816 38.648C35.352 38.504 36.576 38.576 37.488 38.864C38.448 39.104 39.168 39.464 39.648 39.944C40.704 41.048 40.608 42.32 39.36 43.76C36.96 47.6 32.928 49.88 27.264 50.6C25.584 50.84 23.904 50.888 22.224 50.744C20.544 50.648 18.912 50.024 17.328 48.872C15.744 47.72 14.496 46.16 13.584 44.192C11.568 39.68 11.736 34.424 14.088 28.424C16.344 22.808 19.728 18.488 24.24 15.464C29.184 12.104 34.944 10.832 41.52 11.648Z" fill="white"/>
<path d="M41.52 11.648L42.7916 1.72918L42.7715 1.7266L42.7514 1.72411L41.52 11.648ZM45.264 13.664L36.5584 18.5846L36.687 18.8122L36.8274 19.0327L45.264 13.664ZM46.056 17.12L55.9848 18.3114L55.9875 18.2888L55.9901 18.2662L46.056 17.12ZM44.688 20.432L36.7337 14.3716L36.7107 14.4017L36.688 14.432L44.688 20.432ZM42.24 21.944L41.7144 11.9578L34.9084 12.316L32.7532 18.7817L42.24 21.944ZM40.656 24.032L45.3619 32.8555L45.3619 32.8555L40.656 24.032ZM38.28 24.824L36.636 14.9601L36.636 14.9601L38.28 24.824ZM35.544 25.328L37.1036 35.2056L37.3051 35.1738L37.5052 35.1338L35.544 25.328ZM32.952 26.552L26.5949 18.8327L26.5949 18.8327L32.952 26.552ZM30.864 28.568L23.2714 22.0601L23.2507 22.0843L23.2301 22.1086L30.864 28.568ZM29.568 30.44L38.347 35.2285L38.3599 35.2048L38.3727 35.181L29.568 30.44ZM28.056 34.328L18.4295 31.6205L18.1804 32.5063L18.0971 33.4226L28.056 34.328ZM29.568 37.28L23.1992 44.9896L23.3125 45.0833L23.4286 45.1735L29.568 37.28ZM33.816 38.648L34.4398 48.6285L34.5948 48.6188L34.7494 48.6043L33.816 38.648ZM37.488 38.864L34.4767 48.3998L34.7671 48.4915L35.0626 48.5654L37.488 38.864ZM39.648 39.944L46.8744 33.0318L46.7976 32.9515L46.7191 32.8729L39.648 39.944ZM39.36 43.76L31.8031 37.2107L31.2929 37.7994L30.88 38.46L39.36 43.76ZM27.264 50.6L26.003 40.6798L25.9263 40.6896L25.8498 40.7005L27.264 50.6ZM22.224 50.744L23.078 40.7805L22.9364 40.7684L22.7945 40.7603L22.224 50.744ZM17.328 48.872L11.4463 56.9594L11.4463 56.9594L17.328 48.872ZM13.584 44.192L4.45391 48.2714L4.48197 48.3342L4.51089 48.3966L13.584 44.192ZM14.088 28.424L4.80871 24.6964L4.79308 24.7353L4.77777 24.7744L14.088 28.424ZM24.24 15.464L29.8074 23.7709L29.8342 23.7529L29.8609 23.7348L24.24 15.464ZM40.2484 21.5668C40.3489 21.5797 39.8656 21.5387 39.119 21.1367C38.2831 20.6866 37.2815 19.864 36.5584 18.5846L53.9696 8.74343C51.1466 3.74878 46.2023 2.16645 42.7916 1.72918L40.2484 21.5668ZM36.8274 19.0327C36.5873 18.6555 36.3563 18.1542 36.2187 17.5538C36.0812 16.9538 36.0719 16.4073 36.1219 15.9738L55.9901 18.2662C56.396 14.7482 55.6093 11.2946 53.7006 8.29525L36.8274 19.0327ZM36.1272 15.9285C36.1622 15.6369 36.2402 15.3285 36.3634 15.0304C36.4854 14.735 36.6249 14.5144 36.7337 14.3716L52.6423 26.4924C54.4361 24.1381 55.6179 21.3688 55.9848 18.3114L36.1272 15.9285ZM36.688 14.432C36.8968 14.1537 37.3952 13.5692 38.2811 13.022C39.2264 12.4382 40.4099 12.0265 41.7144 11.9578L42.7656 31.9302C47.5041 31.6808 50.7872 28.9664 52.688 26.432L36.688 14.432ZM32.7532 18.7817C32.9742 18.1186 33.7916 16.3597 35.9501 15.2085L45.3619 32.8555C48.9604 30.9363 50.8338 27.7854 51.7268 25.1063L32.7532 18.7817ZM35.9501 15.2085C36.2555 15.0456 36.5084 14.9813 36.636 14.9601L39.924 34.6879C41.7796 34.3787 43.6165 33.7864 45.3619 32.8555L35.9501 15.2085ZM36.636 14.9601C35.6545 15.1236 34.6362 15.3115 33.5828 15.5222L37.5052 35.1338C38.3718 34.9605 39.1775 34.8124 39.924 34.6879L36.636 14.9601ZM33.9844 15.4504C31.0664 15.9111 28.5857 17.1932 26.5949 18.8327L39.3091 34.2713C38.9503 34.5668 38.1976 35.0329 37.1036 35.2056L33.9844 15.4504ZM26.5949 18.8327C25.4158 19.8037 24.2875 20.8747 23.2714 22.0601L38.4566 35.0759C38.5925 34.9173 38.8562 34.6443 39.3091 34.2713L26.5949 18.8327ZM23.2301 22.1086C22.32 23.1842 21.4744 24.3783 20.7633 25.699L38.3727 35.181C38.3336 35.2537 38.352 35.1998 38.4979 35.0274L23.2301 22.1086ZM20.789 25.6515C19.7585 27.5409 19.0032 29.5805 18.4295 31.6205L37.6825 37.0355C37.9728 36.0035 38.2255 35.4511 38.347 35.2285L20.789 25.6515ZM18.0971 33.4226C17.6031 38.8568 20.529 42.7838 23.1992 44.9896L35.9368 29.5704C36.1379 29.7365 36.7397 30.2787 37.2624 31.2992C37.8346 32.4162 38.1458 33.7938 38.0149 35.2334L18.0971 33.4226ZM23.4286 45.1735C26.5093 47.5696 30.2991 48.8873 34.4398 48.6285L33.1922 28.6675C33.6281 28.6402 34.1442 28.6909 34.6673 28.8594C35.1804 29.0246 35.5288 29.2475 35.7074 29.3865L23.4286 45.1735ZM34.7494 48.6043C34.9353 48.5869 35.0741 48.5796 35.1703 48.5771C35.2671 48.5746 35.3076 48.5773 35.2988 48.5767C35.2907 48.5763 35.2151 48.5716 35.0835 48.5494C34.9525 48.5273 34.7438 48.4842 34.4767 48.3998L40.4993 29.3282C37.7706 28.4665 35.0307 28.4903 32.8826 28.6917L34.7494 48.6043ZM35.0626 48.5654C35.0202 48.5548 33.8356 48.2738 32.5769 47.0151L46.7191 32.8729C44.5004 30.6542 41.8758 29.6532 39.9134 29.1626L35.0626 48.5654ZM32.4216 46.8562C31.4111 45.7998 30.1889 43.7228 30.3964 40.9734C30.5722 38.6435 31.6811 37.3515 31.8031 37.2107L46.9169 50.3093C48.2869 48.7285 50.0678 46.0805 50.3396 42.4786C50.6431 38.4572 48.9409 35.1922 46.8744 33.0318L32.4216 46.8562ZM30.88 38.46C30.4737 39.1101 29.5352 40.2308 26.003 40.6798L28.525 60.5202C36.3208 59.5292 43.4463 56.0899 47.84 49.06L30.88 38.46ZM25.8498 40.7005C24.9161 40.8339 23.997 40.8593 23.078 40.7805L21.37 60.7075C23.811 60.9167 26.2519 60.8461 28.6782 60.4995L25.8498 40.7005ZM22.7945 40.7603C22.9009 40.7664 23.0034 40.7808 23.0973 40.8012C23.1908 40.8216 23.2631 40.845 23.3114 40.8635C23.4096 40.901 23.3747 40.9046 23.2097 40.7846L11.4463 56.9594C14.3224 59.0511 17.7607 60.5053 21.6535 60.7277L22.7945 40.7603ZM23.2097 40.7846C23.1464 40.7386 22.9318 40.5802 22.6571 39.9874L4.51089 48.3966C6.06018 51.7398 8.34159 54.7014 11.4463 56.9594L23.2097 40.7846ZM22.7141 40.1126C22.0961 38.7295 21.7142 36.3697 23.3982 32.0736L4.77777 24.7744C1.75783 32.4783 1.03989 40.6305 4.45391 48.2714L22.7141 40.1126ZM23.3673 32.1516C24.9632 28.1787 27.1526 25.5501 29.8074 23.7709L18.6726 7.15712C12.3034 11.4259 7.72477 17.4373 4.80871 24.6964L23.3673 32.1516ZM29.8609 23.7348C32.5746 21.8905 35.8405 21.0199 40.2886 21.5719L42.7514 1.72411C34.0475 0.644055 25.7934 2.31753 18.6191 7.19324L29.8609 23.7348Z" fill="url(#paint0_linear_0_1)" mask="url(#path-1-outside-1_0_1)"/>
</g>
<defs>
<filter id="filter0_d_0_1" x="0.659998" y="0.524012" width="55.512" height="60.336" filterUnits="userSpaceOnUse" color-interpolation-filters="sRGB">
<feFlood flood-opacity="0" result="BackgroundImageFix"/>
<feColorMatrix in="SourceAlpha" type="matrix" values="0 0 0 0 0 0 0 0 0 0 0 0 0 0 0 0 0 0 127 0" result="hardAlpha"/>
<feOffset/>
<feGaussianBlur stdDeviation="4.95"/>
<feComposite in2="hardAlpha" operator="out"/>
<feColorMatrix type="matrix" values="0 0 0 0 0 0 0 0 0 0 0 0 0 0 0 0 0 0 0.25 0"/>
<feBlend mode="normal" in2="BackgroundImageFix" result="effect1_dropShadow_0_1"/>
<feBlend mode="normal" in="SourceGraphic" in2="effect1_dropShadow_0_1" result="shape"/>
</filter>
<linearGradient id="paint0_linear_0_1" x1="28.5" y1="-26" x2="28.5" y2="64" gradientUnits="userSpaceOnUse">
<stop stop-color="#410F88"/>
<stop offset="1" stop-color="#843BED"/>
</linearGradient>
</defs>
</svg>
