<svg width="25" height="32" viewBox="0 0 25 32" fill="none" xmlns="http://www.w3.org/2000/svg">
<mask id="path-1-outside-1_0_1" maskUnits="userSpaceOnUse" x="-4" y="-4" width="33" height="40" fill="black">
<rect fill="white" x="-4" y="-4" width="33" height="40"/>
<path d="M0.308594 16.2344C0.308594 5.89583 4.37109 0.726562 12.4961 0.726562C15.7122 0.726562 18.2188 1.39714 20.0156 2.73828C21.8255 4.06641 23.069 5.86328 23.7461 8.12891C24.4362 10.3815 24.7812 13.0833 24.7812 16.2344C24.7812 20.8698 23.8307 24.5547 21.9297 27.2891C20.0286 30.0234 16.8841 31.3906 12.4961 31.3906C8.08203 31.3906 4.94401 30.0365 3.08203 27.3281C1.23307 24.6198 0.308594 20.9219 0.308594 16.2344ZM13.4727 25.1602C14.5404 25.1602 15.1523 25.1016 15.3086 24.9844C15.6341 24.4115 15.8815 23.4154 16.0508 21.9961C16.2201 20.5638 16.3047 18.9622 16.3047 17.1914C16.3047 15.3294 16.2135 13.6042 16.0312 12.0156C15.862 10.4141 15.6211 9.29427 15.3086 8.65625C14.9831 8.39583 14.5013 8.20052 13.8633 8.07031C13.2253 7.9401 12.5221 7.86849 11.7539 7.85547C11.3112 7.85547 10.9076 7.88151 10.543 7.93359C10.1914 7.97266 9.9375 8.03776 9.78125 8.12891C9.40365 8.77995 9.1237 9.72396 8.94141 10.9609C8.77214 12.1849 8.6875 13.5846 8.6875 15.1602C8.6875 16.944 8.78516 18.7214 8.98047 20.4922C9.17578 22.263 9.41667 23.6172 9.70312 24.5547C9.88542 24.75 10.3477 24.8997 11.0898 25.0039C11.832 25.1081 12.6263 25.1602 13.4727 25.1602Z"/>
</mask>
<path d="M0.308594 16.2344C0.308594 5.89583 4.37109 0.726562 12.4961 0.726562C15.7122 0.726562 18.2188 1.39714 20.0156 2.73828C21.8255 4.06641 23.069 5.86328 23.7461 8.12891C24.4362 10.3815 24.7812 13.0833 24.7812 16.2344C24.7812 20.8698 23.8307 24.5547 21.9297 27.2891C20.0286 30.0234 16.8841 31.3906 12.4961 31.3906C8.08203 31.3906 4.94401 30.0365 3.08203 27.3281C1.23307 24.6198 0.308594 20.9219 0.308594 16.2344ZM13.4727 25.1602C14.5404 25.1602 15.1523 25.1016 15.3086 24.9844C15.6341 24.4115 15.8815 23.4154 16.0508 21.9961C16.2201 20.5638 16.3047 18.9622 16.3047 17.1914C16.3047 15.3294 16.2135 13.6042 16.0312 12.0156C15.862 10.4141 15.6211 9.29427 15.3086 8.65625C14.9831 8.39583 14.5013 8.20052 13.8633 8.07031C13.2253 7.9401 12.5221 7.86849 11.7539 7.85547C11.3112 7.85547 10.9076 7.88151 10.543 7.93359C10.1914 7.97266 9.9375 8.03776 9.78125 8.12891C9.40365 8.77995 9.1237 9.72396 8.94141 10.9609C8.77214 12.1849 8.6875 13.5846 8.6875 15.1602C8.6875 16.944 8.78516 18.7214 8.98047 20.4922C9.17578 22.263 9.41667 23.6172 9.70312 24.5547C9.88542 24.75 10.3477 24.8997 11.0898 25.0039C11.832 25.1081 12.6263 25.1602 13.4727 25.1602Z" fill="#FFCB31"/>
<path d="M20.0156 2.73828L17.6231 5.94385L17.6361 5.95356L17.6492 5.96316L20.0156 2.73828ZM23.7461 8.12891L19.9136 9.27426L19.9175 9.28744L19.9215 9.30059L23.7461 8.12891ZM3.08203 27.3281L-0.221551 29.5835L-0.214136 29.5942L3.08203 27.3281ZM15.3086 24.9844L17.7086 28.1844L18.3749 27.6846L18.7864 26.9604L15.3086 24.9844ZM16.0508 21.9961L20.0226 22.4698L20.0231 22.4656L16.0508 21.9961ZM16.0312 12.0156L12.0534 12.436L12.0553 12.4539L12.0573 12.4716L16.0312 12.0156ZM15.3086 8.65625L18.9008 6.89678L18.5068 6.09234L17.8074 5.53277L15.3086 8.65625ZM11.7539 7.85547L11.8217 3.85604L11.7878 3.85547H11.7539V7.85547ZM10.543 7.93359L10.9847 11.9091L11.0468 11.9022L11.1087 11.8934L10.543 7.93359ZM9.78125 8.12891L7.76577 4.67379L6.85192 5.20687L6.32113 6.12203L9.78125 8.12891ZM8.94141 10.9609L4.98415 10.3778L4.98155 10.3954L4.97912 10.413L8.94141 10.9609ZM9.70312 24.5547L5.87772 25.7236L6.14794 26.6079L6.7789 27.284L9.70312 24.5547ZM4.30859 16.2344C4.30859 11.4802 5.26104 8.65225 6.50047 7.07515C7.59569 5.68155 9.34135 4.72656 12.4961 4.72656V-3.27344C7.52584 -3.27344 3.17775 -1.64379 0.21047 2.13188C-2.6126 5.72406 -3.69141 10.65 -3.69141 16.2344H4.30859ZM12.4961 4.72656C15.2119 4.72656 16.7598 5.29956 17.6231 5.94385L22.4082 -0.467285C19.6777 -2.50529 16.2125 -3.27344 12.4961 -3.27344V4.72656ZM17.6492 5.96316C18.7181 6.74753 19.4716 7.79533 19.9136 9.27426L27.5786 6.98356C26.6664 3.93123 24.933 1.38528 22.3821 -0.486601L17.6492 5.96316ZM19.9215 9.30059C20.4637 11.0701 20.7812 13.3555 20.7812 16.2344H28.7812C28.7812 12.8112 28.4087 9.69292 27.5706 6.95722L19.9215 9.30059ZM20.7812 16.2344C20.7812 20.3636 19.9302 23.1577 18.6454 25.0057L25.2139 29.5724C27.7312 25.9517 28.7812 21.376 28.7812 16.2344H20.7812ZM18.6454 25.0057C17.7207 26.3358 16.0337 27.3906 12.4961 27.3906V35.3906C17.7345 35.3906 22.3366 33.7111 25.2139 29.5724L18.6454 25.0057ZM12.4961 27.3906C8.90267 27.3906 7.25097 26.3315 6.3782 25.062L-0.214136 29.5942C2.63705 33.7414 7.26139 35.3906 12.4961 35.3906V27.3906ZM6.3856 25.0728C5.14674 23.2581 4.30859 20.4483 4.30859 16.2344H-3.69141C-3.69141 21.3955 -2.68059 25.9814 -0.221533 29.5834L6.3856 25.0728ZM13.4727 29.1602C14.0559 29.1602 14.6218 29.1451 15.1137 29.098C15.3549 29.0749 15.6679 29.0361 15.9982 28.9605C16.1966 28.9151 16.9623 28.7441 17.7086 28.1844L12.9086 21.7844C13.1128 21.6312 13.2993 21.5234 13.4418 21.4499C13.5863 21.3755 13.7127 21.3225 13.8093 21.2858C13.9964 21.2149 14.1422 21.1784 14.2138 21.1621C14.3519 21.1304 14.416 21.1282 14.3512 21.1344C14.2311 21.1459 13.9571 21.1602 13.4727 21.1602V29.1602ZM18.7864 26.9604C19.5376 25.6383 19.8469 23.9431 20.0226 22.4698L12.0789 21.5224C12.007 22.1257 11.9277 22.5556 11.8562 22.8434C11.7774 23.1609 11.7423 23.1641 11.8308 23.0083L18.7864 26.9604ZM20.0231 22.4656C20.2144 20.8471 20.3047 19.0853 20.3047 17.1914H12.3047C12.3047 18.8392 12.2257 20.2805 12.0784 21.5266L20.0231 22.4656ZM20.3047 17.1914C20.3047 15.2011 20.2074 13.3217 20.0052 11.5596L12.0573 12.4716C12.2197 13.8866 12.3047 15.4577 12.3047 17.1914H20.3047ZM20.0091 11.5952C19.8371 9.96815 19.5507 8.22355 18.9008 6.89678L11.7163 10.4157C11.6697 10.3206 11.7248 10.4056 11.8131 10.8158C11.8944 11.1937 11.9782 11.7248 12.0534 12.436L20.0091 11.5952ZM17.8074 5.53277C16.785 4.71491 15.6073 4.34379 14.6631 4.1511L13.0634 11.9895C13.1994 12.0173 13.2352 12.0355 13.2003 12.0214C13.1672 12.008 13.0128 11.9421 12.8098 11.7797L17.8074 5.53277ZM14.6631 4.1511C13.7457 3.96386 12.7933 3.87251 11.8217 3.85604L11.6861 11.8549C12.2509 11.8645 12.7048 11.9163 13.0634 11.9895L14.6631 4.1511ZM11.7539 3.85547C11.1584 3.85547 10.5622 3.89024 9.97728 3.9738L11.1087 11.8934C11.2529 11.8728 11.464 11.8555 11.7539 11.8555V3.85547ZM10.1012 3.95806C9.62439 4.01104 8.67425 4.14384 7.76577 4.67379L11.7967 11.584C11.4473 11.7879 11.1683 11.8643 11.0824 11.8864C10.9779 11.9132 10.9353 11.9146 10.9847 11.9091L10.1012 3.95806ZM6.32113 6.12203C5.57536 7.40784 5.19798 8.92673 4.98415 10.3778L12.8987 11.5441C12.9692 11.0656 13.049 10.7121 13.123 10.4624C13.1989 10.2067 13.2515 10.1183 13.2414 10.1358L6.32113 6.12203ZM4.97912 10.413C4.77901 11.8599 4.6875 13.4485 4.6875 15.1602H12.6875C12.6875 13.7208 12.7653 12.5099 12.9037 11.5089L4.97912 10.413ZM4.6875 15.1602C4.6875 17.0903 4.79318 19.0141 5.00458 20.9307L12.9564 20.0537C12.7771 18.4286 12.6875 16.7977 12.6875 15.1602H4.6875ZM5.00458 20.9307C5.20894 22.7836 5.48213 24.4289 5.87772 25.7236L13.5285 23.3858C13.3512 22.8055 13.1426 21.7424 12.9564 20.0537L5.00458 20.9307ZM6.7789 27.284C7.57436 28.1362 8.52657 28.4804 8.95382 28.6188C9.49015 28.7925 10.0422 28.8961 10.5339 28.9651L11.6458 21.0427C11.3953 21.0076 11.3451 20.9842 11.4192 21.0082C11.461 21.0217 11.5957 21.0674 11.7802 21.1662C11.9542 21.2593 12.2859 21.4596 12.6273 21.8254L6.7789 27.284ZM10.5339 28.9651C11.482 29.0982 12.4637 29.1602 13.4727 29.1602V21.1602C12.7889 21.1602 12.182 21.118 11.6458 21.0427L10.5339 28.9651Z" fill="#D91965" mask="url(#path-1-outside-1_0_1)"/>
</svg>
