<svg width="111" height="90" viewBox="0 0 111 90" fill="none" xmlns="http://www.w3.org/2000/svg">
<path d="M44 0L87.3013 75H0.69873L44 0Z" fill="#A7F9EA"/>
<path d="M56 7L99.3013 82H12.6987L56 7Z" fill="#62ECD1"/>
<path d="M67 14L110.301 89H23.6987L67 14Z" fill="#48DEC1"/>
<path d="M65.096 38.96C65.48 38.912 66.08 38.888 66.896 38.888H68.768C71.984 38.888 75.128 39.128 78.2 39.608C79.784 39.848 81.008 40.088 81.872 40.328V50.624C81.152 50.576 79.952 50.456 78.272 50.264C76.016 50.024 74.048 49.904 72.368 49.904C70.496 49.904 68.984 49.976 67.832 50.12C66.728 50.216 65.816 50.408 65.096 50.696V38.96ZM68.768 89.576C63.968 89.576 60.152 89.168 57.32 88.352C54.536 87.488 52.424 86.072 50.984 84.104C49.592 82.232 48.632 79.76 48.104 76.688C47.624 73.568 47.384 69.416 47.384 64.232C47.384 59.672 47.552 55.976 47.888 53.144C48.272 50.312 48.944 47.936 49.904 46.016C50.912 44.048 52.376 42.536 54.296 41.48C56.264 40.376 58.856 39.632 62.072 39.248V64.232C62.072 66.92 62.12 69.512 62.216 72.008C62.312 73.928 62.672 75.368 63.296 76.328C63.968 77.288 65 77.888 66.392 78.128C67.736 78.416 69.728 78.56 72.368 78.56C75.104 78.56 77.432 78.44 79.352 78.2C80.12 78.152 81.056 78.032 82.16 77.84V88.28C79.808 88.808 77.144 89.168 74.168 89.36C72.536 89.504 70.736 89.576 68.768 89.576Z" fill="#04C8A2"/>
</svg>
