<svg width="130" height="86" viewBox="0 0 130 86" fill="none" xmlns="http://www.w3.org/2000/svg">
<path d="M59.999 84H10.391C6.569 84 3.995 83.727 2.669 83.181C1.343 82.635 0.68 81.777 0.68 80.607V6.54599C0.68 4.518 1.577 3.075 3.371 2.21699C5.243 1.35899 8.558 0.929996 13.316 0.929996H60.35C61.988 0.929996 62.807 3.66 62.807 9.11999C62.807 14.502 62.456 18.636 61.754 21.522C61.052 24.33 60.116 25.734 58.946 25.734C53.876 25.734 45.335 25.227 33.323 24.213V32.052C44.867 31.584 52.394 31.35 55.904 31.35C58.01 31.35 59.063 33.807 59.063 38.721C59.063 43.635 58.634 47.379 57.776 49.953C56.996 52.449 55.904 53.697 54.5 53.697L33.323 53.229V60.717C46.895 59.703 56.255 59.196 61.403 59.196C63.041 59.196 63.86 61.926 63.86 67.386C63.86 72.846 63.509 76.98 62.807 79.788C62.105 82.596 61.169 84 59.999 84Z" fill="#00BFFF"/>
<path d="M87.188 82.011C85.316 81.153 83.288 79.866 81.104 78.15C78.998 76.434 77.243 74.406 75.839 72.066C72.563 66.45 70.925 59.118 70.925 50.07C70.925 44.454 71.822 39.462 73.616 35.094C75.41 30.648 77.594 27.216 80.168 24.798C82.742 22.38 85.706 20.391 89.06 18.831C94.442 16.335 99.824 15.087 105.206 15.087C114.254 15.087 120.533 15.789 124.043 17.193C127.631 18.597 129.425 20.976 129.425 24.33C129.425 27.684 128.801 31.272 127.553 35.094C126.383 38.838 124.823 40.71 122.873 40.71C122.249 40.71 120.338 40.047 117.14 38.721C114.02 37.395 111.29 36.732 108.95 36.732C106.688 36.732 104.933 37.668 103.685 39.54C102.515 41.334 101.93 44.883 101.93 50.187C101.93 55.413 102.476 59.001 103.568 60.951C104.66 62.823 106.337 63.759 108.599 63.759C110.939 63.759 113.825 62.979 117.257 61.419C120.689 59.859 122.6 59.079 122.99 59.079C124.472 59.079 125.876 60.834 127.202 64.344C128.606 67.854 129.308 70.974 129.308 73.704C129.308 77.916 127.124 80.88 122.756 82.596C118.388 84.234 112.46 85.053 104.972 85.053C97.562 85.053 91.634 84.039 87.188 82.011Z" fill="#00BFFF"/>
</svg>
