<svg width="42" height="117" viewBox="0 0 42 117" fill="none" xmlns="http://www.w3.org/2000/svg">
<g filter="url(#filter0_d_0_1)">
<path d="M28.4297 102.949L28.8164 93.5977C28.8164 90.5742 28.6992 88.6641 28.4648 87.8672C28.2539 87.0703 28.0312 86.3672 27.7969 85.7578C27.5625 85.1484 27.2578 84.6562 26.8828 84.2812C26.5078 83.9062 26.0625 83.5547 25.5469 83.2266C24.5625 82.5703 23.0156 82.2422 20.9062 82.2422C18.7969 82.2422 17.0156 83.0977 15.5625 84.8086C14.1328 86.5195 13.418 88.5703 13.418 90.9609C13.418 91.8516 13.5938 93.1758 13.9453 94.9336C14.2969 96.7148 14.4727 98.0508 14.4727 98.9414C14.4727 100.629 13.875 101.473 12.6797 101.473C11.4844 101.473 10.8867 100.652 10.8867 99.0117C10.8867 98.0977 11.0625 96.7266 11.4141 94.8984C11.7891 93.0703 11.9766 91.6875 11.9766 90.75L12.2227 81.3281V40.0195C12.2227 38.5664 11.7656 37.3945 10.8516 36.5039L11.5547 35.7656C12.5391 36.7031 13.7109 37.1719 15.0703 37.1719H27.7969C29.2031 37.1719 30.375 36.7031 31.3125 35.7656L32.0156 36.5039C31.1016 37.418 30.6445 38.5898 30.6445 40.0195V81.1523C30.6445 82.3711 30.5156 84.4688 30.2578 87.4453C30 90.4453 29.918 92.7539 30.0117 94.3711H29.9766C30.8438 98.2617 31.2773 101.227 31.2773 103.266C31.2773 105.305 30.8906 106.324 30.1172 106.324C28.9922 106.324 28.4297 105.199 28.4297 102.949Z" fill="url(#paint0_linear_0_1)"/>
</g>
<path d="M22 0L26.4903 12.4377H41.0211L29.2654 20.1246L33.7557 32.5623L22 24.8754L10.2443 32.5623L14.7346 20.1246L2.97887 12.4377H17.5097L22 0Z" fill="#93F625"/>
<defs>
<filter id="filter0_d_0_1" x="0.951563" y="25.8656" width="40.9641" height="90.3586" filterUnits="userSpaceOnUse" color-interpolation-filters="sRGB">
<feFlood flood-opacity="0" result="BackgroundImageFix"/>
<feColorMatrix in="SourceAlpha" type="matrix" values="0 0 0 0 0 0 0 0 0 0 0 0 0 0 0 0 0 0 127 0" result="hardAlpha"/>
<feOffset/>
<feGaussianBlur stdDeviation="4.95"/>
<feComposite in2="hardAlpha" operator="out"/>
<feColorMatrix type="matrix" values="0 0 0 0 0 0 0 0 0 0 0 0 0 0 0 0 0 0 0.25 0"/>
<feBlend mode="normal" in2="BackgroundImageFix" result="effect1_dropShadow_0_1"/>
<feBlend mode="normal" in="SourceGraphic" in2="effect1_dropShadow_0_1" result="shape"/>
</filter>
<linearGradient id="paint0_linear_0_1" x1="6" y1="70" x2="38" y2="70" gradientUnits="userSpaceOnUse">
<stop stop-color="#93F625"/>
<stop offset="1" stop-color="#569016"/>
</linearGradient>
</defs>
</svg>
