<svg width="206" height="70" viewBox="0 0 206 70" fill="none" xmlns="http://www.w3.org/2000/svg">
<path d="M59.2 31.3C59.6667 30.1 60.3167 29.2 61.15 28.6C62.0167 27.9667 62.8333 27.5833 63.6 27.45C64.4 27.2833 65.05 27.3667 65.55 27.7C66.0833 28.0333 66.2667 28.55 66.1 29.25C66.7333 28.6167 67.65 28.0333 68.85 27.5C70.05 26.9667 71 26.6 71.7 26.4C72.4 26.2 73 26.1 73.5 26.1C74.6 26.1667 74.9167 26.7667 74.45 27.9C75.0167 28 75.4333 28.3667 75.7 29C75.9667 29.6333 76 30.3333 75.8 31.1C75.6 31.8667 75.15 32.6167 74.45 33.35C73.75 34.0833 72.8 34.5833 71.6 34.85C70.4333 35.1167 69.45 35.7333 68.65 36.7C67.8833 37.6333 67.2 38.8 66.6 40.2C65.6 42.5667 64.7 45.9167 63.9 50.25C63.6333 51.8167 62.55 53.1333 60.65 54.2C58.85 55.2333 57.2 55.5333 55.7 55.1C54 54.6333 53.25 53.3833 53.45 51.35C53.5167 49.9167 53.95 48.0167 54.75 45.65C55.55 43.25 56.1667 41.45 56.6 40.25C57.0333 39.0167 57.3333 38.0833 57.5 37.45L59.2 31.3ZM76.173 36.7C76.2064 35.3333 76.1064 34.2167 75.873 33.35C75.6397 32.4833 75.6397 31.7667 75.873 31.2C76.1397 30.6 76.5397 30.1833 77.073 29.95C77.6397 29.7167 78.2897 29.65 79.023 29.75C79.7897 29.8167 80.5397 30.0333 81.273 30.4C83.0397 31.2 84.273 32.3333 84.973 33.8C85.1397 34.5333 85.073 35.45 84.773 36.55C84.5064 37.6167 84.1897 38.7333 83.823 39.9C83.4564 41.0333 83.1064 42.15 82.773 43.25C82.4397 44.3167 82.3064 45.2167 82.373 45.95C83.2397 45.4167 83.9897 44.6167 84.623 43.55C85.2897 42.4833 85.8897 41.35 86.423 40.15C86.9897 38.9167 87.5064 37.7 87.973 36.5C88.473 35.3 88.9397 34.35 89.373 33.65C89.8397 32.95 90.2064 32.4 90.473 32C90.7397 31.5667 91.0064 31.1833 91.273 30.85C91.7064 30.2833 92.273 29.7333 92.973 29.2C93.173 29.0333 93.773 29.0667 94.773 29.3C95.8064 29.5 96.5564 29.65 97.023 29.75C97.523 29.8167 97.8564 29.7833 98.023 29.65L98.723 29.15C99.6564 28.6833 100.756 28.7 102.023 29.2C103.256 29.7333 103.906 30.55 103.973 31.65C103.94 31.6833 103.923 31.75 103.923 31.85L104.073 31.9L103.723 32.2C103.49 32.6333 103.306 32.9333 103.173 33.1C103.073 33.2333 102.84 33.45 102.473 33.75C100.206 36.1833 97.6064 40.7 94.673 47.3C93.9397 48.9333 93.273 50.4 92.673 51.7C93.573 52.2667 94.2564 53 94.723 53.9C95.1897 54.8 95.1897 55.7833 94.723 56.85C91.9564 59.05 90.4064 61.1167 90.073 63.05C89.9064 64.25 89.6897 65.1 89.423 65.6C89.1897 66.1 88.8064 66.5833 88.273 67.05C86.473 68.3833 84.3564 68.05 81.923 66.05C80.1897 64.3167 80.1064 62.15 81.673 59.55C82.073 58.85 82.4564 58.1167 82.823 57.35C83.3564 56.2167 84.2064 54.5333 85.373 52.3C82.5064 53.9667 79.873 53.9333 77.473 52.2C75.773 50.9 75.173 47.95 75.673 43.35C76.0064 40.2833 76.173 38.0667 76.173 36.7ZM110.389 30.65C111.089 30.15 111.955 30.0333 112.989 30.3C113.189 30.3333 113.389 30.35 113.589 30.35C114.322 28.85 115.589 28.0667 117.389 28C117.855 27.9667 118.505 27.8833 119.339 27.75C120.172 27.6167 121.172 27.65 122.339 27.85C123.539 28.05 124.589 28.4 125.489 28.9C127.455 29.9667 128.639 31.5 129.039 33.5C129.839 36.4333 129.722 39.6333 128.689 43.1C127.589 46.9333 125.722 50 123.089 52.3C121.889 53.3667 120.622 54.0333 119.289 54.3C117.955 54.6 116.755 54.7667 115.689 54.8C114.622 54.8333 113.639 54.8333 112.739 54.8C111.872 54.8 111.022 54.7167 110.189 54.55C108.389 54.1833 106.905 53.3333 105.739 52C104.372 50.5 103.789 48.1667 103.989 45C104.122 42.2 104.822 39.3833 106.089 36.55C107.389 33.6833 108.822 31.7167 110.389 30.65ZM119.189 40.7C118.355 40.9667 117.572 41.0833 116.839 41.05C116.472 41.4167 116.139 41.8167 115.839 42.25C115.572 42.65 115.205 43.0333 114.739 43.4C114.272 43.7333 114.039 43.8667 114.039 43.8C113.472 44.6 113.005 45.4333 112.639 46.3C112.272 47.1333 112.272 47.9833 112.639 48.85C113.972 48.9833 114.955 48.95 115.589 48.75C116.222 48.55 116.805 48.1667 117.339 47.6C117.905 47.0333 118.339 46.3667 118.639 45.6C119.239 44.1667 119.422 42.5333 119.189 40.7ZM138.459 30.35C140.693 29.45 142.193 29.4333 142.959 30.3C143.359 30.7667 143.559 31.4167 143.559 32.25V32.5C144.793 31.0667 146.943 29.8667 150.009 28.9C153.243 27.9 155.909 27.6167 158.009 28.05C160.743 28.6167 162.276 30.4 162.609 33.4C162.876 35.9333 162.293 39.15 160.859 43.05C160.393 44.05 160.026 44.8667 159.759 45.5C159.526 46.1 159.309 46.65 159.109 47.15C158.676 48.0833 157.993 49.2 157.059 50.5C156.526 51.5 155.693 52.2667 154.559 52.8C153.459 53.3333 152.359 53.6333 151.259 53.7C150.193 53.8 149.309 53.6333 148.609 53.2C147.909 52.8 147.709 52.15 148.009 51.25C148.776 49.1833 149.409 47.3 149.909 45.6C150.409 43.9 150.926 42.45 151.459 41.25C151.959 39.55 152.026 38.4833 151.659 38.05C151.359 37.7167 150.843 37.7667 150.109 38.2C149.476 38.6 149.026 39.0667 148.759 39.6C148.159 40.0333 147.026 41.7667 145.359 44.8C144.893 45.6333 144.426 46.4667 143.959 47.3C143.526 48.1 143.109 48.85 142.709 49.55C142.343 50.25 142.009 50.8333 141.709 51.3C141.443 51.7667 141.193 52.0667 140.959 52.2C140.759 52.3667 140.576 52.4667 140.409 52.5C140.276 52.5667 140.159 52.6333 140.059 52.7C139.959 52.7667 139.876 52.9833 139.809 53.35C139.676 54.1167 138.876 54.6833 137.409 55.05C135.043 55.65 132.909 55.55 131.009 54.75C130.376 54.4833 129.876 54.1167 129.509 53.65C128.743 52.1167 130.059 46.9 133.459 38C134.659 34.8667 135.443 33 135.809 32.4C136.643 31.1333 137.176 30.4167 137.409 30.25C137.676 30.0833 138.026 30.1167 138.459 30.35ZM169.827 30.35C170.26 29.25 171.293 28.5 172.927 28.1C174.46 27.7 175.893 27.75 177.227 28.25C178.593 28.7833 179.21 29.65 179.077 30.85C178.71 32.0167 178.243 33.45 177.677 35.15C177.143 36.8167 176.627 38.5333 176.127 40.3C174.793 44.8333 174.027 48.0333 173.827 49.9C173.327 52.9 172.493 54.5167 171.327 54.75C170.993 54.8167 170.677 54.8667 170.377 54.9C169.643 54.9333 169.177 55.1333 168.977 55.5C168.777 55.8667 168.443 56.1333 167.977 56.3C167.51 56.5 166.993 56.5833 166.427 56.55C165.893 56.55 165.343 56.4167 164.777 56.15C164.21 55.9167 163.727 55.5667 163.327 55.1C162.393 53.9667 162.21 52.45 162.777 50.55C163.31 46.9167 164.66 42.3 166.827 36.7C167.86 33.9333 168.86 31.8167 169.827 30.35ZM179.277 22.85C177.643 23.1833 176.31 23.0833 175.277 22.55C174.277 22.0167 173.693 21.3833 173.527 20.65C173.36 19.8833 173.593 19.1 174.227 18.3C174.96 17.3 176.06 16.65 177.527 16.35C178.193 16.2833 178.677 16.25 178.977 16.25C179.277 16.25 179.643 16.3167 180.077 16.45C181.177 16.55 181.893 17.0333 182.227 17.9C182.693 18.6333 182.727 19.4667 182.327 20.4C181.96 21.3333 180.943 22.15 179.277 22.85ZM197.741 29.7C198.608 29.0333 199.208 28.5333 199.541 28.2C199.874 27.8667 200.224 27.55 200.591 27.25C200.958 26.95 201.308 26.7667 201.641 26.7C201.974 26.6333 202.341 26.6667 202.741 26.8C203.174 26.9 203.558 27 203.891 27.1C204.258 27.2 204.474 27.2667 204.541 27.3C204.908 27.6667 205.208 28.15 205.441 28.75C205.674 29.35 205.791 29.8167 205.791 30.15C205.791 30.4833 205.691 30.7833 205.491 31.05C204.824 32.7833 203.058 35.2333 200.191 38.4C199.491 39.2 198.874 39.85 198.341 40.35C198.641 41.35 198.858 42.6667 198.991 44.3C199.324 47.6667 199.541 49.6 199.641 50.1C199.741 50.6 199.808 50.9667 199.841 51.2C199.874 51.4333 199.974 51.6667 200.141 51.9C200.274 52.4667 200.091 52.9167 199.591 53.25C199.124 53.5833 198.524 53.8333 197.791 54C196.258 54.3667 194.958 54.4167 193.891 54.15C193.358 53.75 192.974 53.25 192.741 52.65C192.408 51.95 191.891 50.5 191.191 48.3C190.824 48.7 190.474 49.1 190.141 49.5C189.808 49.9 189.474 50.3 189.141 50.7L188.441 51.65C188.241 51.9167 188.041 52.1833 187.841 52.45C187.674 52.7167 187.474 53 187.241 53.3C186.774 53.8333 186.074 54.3833 185.141 54.95C184.241 55.3167 183.408 55.4833 182.641 55.45C181.208 55.35 180.424 54.9667 180.291 54.3C179.524 54.0333 179.074 53.6167 178.941 53.05C178.808 52.5167 178.891 51.65 179.191 50.45C182.191 44.9833 184.841 41.25 187.141 39.25C186.841 38.7833 186.608 38.0667 186.441 37.1C186.074 35.3 185.741 34.1333 185.441 33.6C184.608 33.3667 184.008 32.9333 183.641 32.3C183.274 31.6667 183.374 30.7833 183.941 29.65L184.541 28.95C185.841 27.7833 187.174 27.0833 188.541 26.85C189.941 26.6167 191.224 26.95 192.391 27.85C193.258 28.1833 194.208 29.1167 195.241 30.65C195.508 31.05 195.674 31.3833 195.741 31.65C196.241 30.9833 196.908 30.3333 197.741 29.7Z" fill="white"/>
<g filter="url(#filter0_d_0_1)">
<mask id="path-2-outside-1_0_1" maskUnits="userSpaceOnUse" x="2" y="1" width="55" height="60" fill="black">
<rect fill="white" x="2" y="1" width="55" height="60"/>
<path d="M41.52 11.648C43.392 11.888 44.64 12.56 45.264 13.664C45.936 14.72 46.2 15.872 46.056 17.12C45.912 18.32 45.456 19.424 44.688 20.432C43.968 21.392 43.152 21.896 42.24 21.944C41.904 22.952 41.376 23.648 40.656 24.032C39.936 24.416 39.144 24.68 38.28 24.824C37.416 24.968 36.504 25.136 35.544 25.328C34.632 25.472 33.768 25.88 32.952 26.552C32.136 27.224 31.44 27.896 30.864 28.568C30.336 29.192 29.904 29.816 29.568 30.44C28.992 31.496 28.488 32.792 28.056 34.328C27.96 35.384 28.464 36.368 29.568 37.28C30.864 38.288 32.28 38.744 33.816 38.648C35.352 38.504 36.576 38.576 37.488 38.864C38.448 39.104 39.168 39.464 39.648 39.944C40.704 41.048 40.608 42.32 39.36 43.76C36.96 47.6 32.928 49.88 27.264 50.6C25.584 50.84 23.904 50.888 22.224 50.744C20.544 50.648 18.912 50.024 17.328 48.872C15.744 47.72 14.496 46.16 13.584 44.192C11.568 39.68 11.736 34.424 14.088 28.424C16.344 22.808 19.728 18.488 24.24 15.464C29.184 12.104 34.944 10.832 41.52 11.648Z"/>
</mask>
<path d="M41.52 11.648C43.392 11.888 44.64 12.56 45.264 13.664C45.936 14.72 46.2 15.872 46.056 17.12C45.912 18.32 45.456 19.424 44.688 20.432C43.968 21.392 43.152 21.896 42.24 21.944C41.904 22.952 41.376 23.648 40.656 24.032C39.936 24.416 39.144 24.68 38.28 24.824C37.416 24.968 36.504 25.136 35.544 25.328C34.632 25.472 33.768 25.88 32.952 26.552C32.136 27.224 31.44 27.896 30.864 28.568C30.336 29.192 29.904 29.816 29.568 30.44C28.992 31.496 28.488 32.792 28.056 34.328C27.96 35.384 28.464 36.368 29.568 37.28C30.864 38.288 32.28 38.744 33.816 38.648C35.352 38.504 36.576 38.576 37.488 38.864C38.448 39.104 39.168 39.464 39.648 39.944C40.704 41.048 40.608 42.32 39.36 43.76C36.96 47.6 32.928 49.88 27.264 50.6C25.584 50.84 23.904 50.888 22.224 50.744C20.544 50.648 18.912 50.024 17.328 48.872C15.744 47.72 14.496 46.16 13.584 44.192C11.568 39.68 11.736 34.424 14.088 28.424C16.344 22.808 19.728 18.488 24.24 15.464C29.184 12.104 34.944 10.832 41.52 11.648Z" fill="white"/>
<path d="M41.52 11.648L42.7916 1.72918L42.7715 1.7266L42.7514 1.72411L41.52 11.648ZM45.264 13.664L36.5584 18.5846L36.687 18.8122L36.8274 19.0327L45.264 13.664ZM46.056 17.12L55.9848 18.3114L55.9875 18.2888L55.9901 18.2662L46.056 17.12ZM44.688 20.432L36.7337 14.3716L36.7107 14.4017L36.688 14.432L44.688 20.432ZM42.24 21.944L41.7144 11.9578L34.9084 12.316L32.7532 18.7817L42.24 21.944ZM40.656 24.032L45.3619 32.8555L45.3619 32.8555L40.656 24.032ZM38.28 24.824L36.636 14.9601L36.636 14.9601L38.28 24.824ZM35.544 25.328L37.1036 35.2056L37.3051 35.1738L37.5052 35.1338L35.544 25.328ZM32.952 26.552L26.5949 18.8327L26.5949 18.8327L32.952 26.552ZM30.864 28.568L23.2714 22.0601L23.2507 22.0843L23.2301 22.1086L30.864 28.568ZM29.568 30.44L38.347 35.2285L38.3599 35.2048L38.3727 35.181L29.568 30.44ZM28.056 34.328L18.4295 31.6205L18.1804 32.5063L18.0971 33.4226L28.056 34.328ZM29.568 37.28L23.1992 44.9896L23.3125 45.0833L23.4286 45.1735L29.568 37.28ZM33.816 38.648L34.4398 48.6285L34.5948 48.6188L34.7494 48.6043L33.816 38.648ZM37.488 38.864L34.4767 48.3998L34.7671 48.4915L35.0626 48.5654L37.488 38.864ZM39.648 39.944L46.8744 33.0318L46.7976 32.9515L46.7191 32.8729L39.648 39.944ZM39.36 43.76L31.8031 37.2107L31.2929 37.7994L30.88 38.46L39.36 43.76ZM27.264 50.6L26.003 40.6798L25.9263 40.6896L25.8498 40.7005L27.264 50.6ZM22.224 50.744L23.078 40.7805L22.9364 40.7684L22.7945 40.7603L22.224 50.744ZM17.328 48.872L11.4463 56.9594L11.4463 56.9594L17.328 48.872ZM13.584 44.192L4.45391 48.2714L4.48197 48.3342L4.51089 48.3966L13.584 44.192ZM14.088 28.424L4.80871 24.6964L4.79308 24.7353L4.77777 24.7744L14.088 28.424ZM24.24 15.464L29.8074 23.7709L29.8342 23.7529L29.8609 23.7348L24.24 15.464ZM40.2484 21.5668C40.3489 21.5797 39.8656 21.5387 39.119 21.1367C38.2831 20.6866 37.2815 19.864 36.5584 18.5846L53.9696 8.74343C51.1466 3.74878 46.2023 2.16645 42.7916 1.72918L40.2484 21.5668ZM36.8274 19.0327C36.5873 18.6555 36.3563 18.1542 36.2187 17.5538C36.0812 16.9538 36.0719 16.4073 36.1219 15.9738L55.9901 18.2662C56.396 14.7482 55.6093 11.2946 53.7006 8.29525L36.8274 19.0327ZM36.1272 15.9285C36.1622 15.6369 36.2402 15.3285 36.3634 15.0304C36.4854 14.735 36.6249 14.5144 36.7337 14.3716L52.6423 26.4924C54.4361 24.1381 55.6179 21.3688 55.9848 18.3114L36.1272 15.9285ZM36.688 14.432C36.8968 14.1537 37.3952 13.5692 38.2811 13.022C39.2264 12.4382 40.4099 12.0265 41.7144 11.9578L42.7656 31.9302C47.5041 31.6808 50.7872 28.9664 52.688 26.432L36.688 14.432ZM32.7532 18.7817C32.9742 18.1186 33.7916 16.3597 35.9501 15.2085L45.3619 32.8555C48.9604 30.9363 50.8338 27.7854 51.7268 25.1063L32.7532 18.7817ZM35.9501 15.2085C36.2555 15.0456 36.5084 14.9813 36.636 14.9601L39.924 34.6879C41.7796 34.3787 43.6165 33.7864 45.3619 32.8555L35.9501 15.2085ZM36.636 14.9601C35.6545 15.1236 34.6362 15.3115 33.5828 15.5222L37.5052 35.1338C38.3718 34.9605 39.1775 34.8124 39.924 34.6879L36.636 14.9601ZM33.9844 15.4504C31.0664 15.9111 28.5857 17.1932 26.5949 18.8327L39.3091 34.2713C38.9503 34.5668 38.1976 35.0329 37.1036 35.2056L33.9844 15.4504ZM26.5949 18.8327C25.4158 19.8037 24.2875 20.8747 23.2714 22.0601L38.4566 35.0759C38.5925 34.9173 38.8562 34.6443 39.3091 34.2713L26.5949 18.8327ZM23.2301 22.1086C22.32 23.1842 21.4744 24.3783 20.7633 25.699L38.3727 35.181C38.3336 35.2537 38.352 35.1998 38.4979 35.0274L23.2301 22.1086ZM20.789 25.6515C19.7585 27.5409 19.0032 29.5805 18.4295 31.6205L37.6825 37.0355C37.9728 36.0035 38.2255 35.4511 38.347 35.2285L20.789 25.6515ZM18.0971 33.4226C17.6031 38.8568 20.529 42.7838 23.1992 44.9896L35.9368 29.5704C36.1379 29.7365 36.7397 30.2787 37.2624 31.2992C37.8346 32.4162 38.1458 33.7938 38.0149 35.2334L18.0971 33.4226ZM23.4286 45.1735C26.5093 47.5696 30.2991 48.8873 34.4398 48.6285L33.1922 28.6675C33.6281 28.6402 34.1442 28.6909 34.6673 28.8594C35.1804 29.0246 35.5288 29.2475 35.7074 29.3865L23.4286 45.1735ZM34.7494 48.6043C34.9353 48.5869 35.0741 48.5796 35.1703 48.5771C35.2671 48.5746 35.3076 48.5773 35.2988 48.5767C35.2907 48.5763 35.2151 48.5716 35.0835 48.5494C34.9525 48.5273 34.7438 48.4842 34.4767 48.3998L40.4993 29.3282C37.7706 28.4665 35.0307 28.4903 32.8826 28.6917L34.7494 48.6043ZM35.0626 48.5654C35.0202 48.5548 33.8356 48.2738 32.5769 47.0151L46.7191 32.8729C44.5004 30.6542 41.8758 29.6532 39.9134 29.1626L35.0626 48.5654ZM32.4216 46.8562C31.4111 45.7998 30.1889 43.7228 30.3964 40.9734C30.5722 38.6435 31.6811 37.3515 31.8031 37.2107L46.9169 50.3093C48.2869 48.7285 50.0678 46.0805 50.3396 42.4786C50.6431 38.4572 48.9409 35.1922 46.8744 33.0318L32.4216 46.8562ZM30.88 38.46C30.4737 39.1101 29.5352 40.2308 26.003 40.6798L28.525 60.5202C36.3208 59.5292 43.4463 56.0899 47.84 49.06L30.88 38.46ZM25.8498 40.7005C24.9161 40.8339 23.997 40.8593 23.078 40.7805L21.37 60.7075C23.811 60.9167 26.2519 60.8461 28.6782 60.4995L25.8498 40.7005ZM22.7945 40.7603C22.9009 40.7664 23.0034 40.7808 23.0973 40.8012C23.1908 40.8216 23.2631 40.845 23.3114 40.8635C23.4096 40.901 23.3747 40.9046 23.2097 40.7846L11.4463 56.9594C14.3224 59.0511 17.7607 60.5053 21.6535 60.7277L22.7945 40.7603ZM23.2097 40.7846C23.1464 40.7386 22.9318 40.5802 22.6571 39.9874L4.51089 48.3966C6.06018 51.7398 8.34159 54.7014 11.4463 56.9594L23.2097 40.7846ZM22.7141 40.1126C22.0961 38.7295 21.7142 36.3697 23.3982 32.0736L4.77777 24.7744C1.75783 32.4783 1.03989 40.6305 4.45391 48.2714L22.7141 40.1126ZM23.3673 32.1516C24.9632 28.1787 27.1526 25.5501 29.8074 23.7709L18.6726 7.15712C12.3034 11.4259 7.72477 17.4373 4.80871 24.6964L23.3673 32.1516ZM29.8609 23.7348C32.5746 21.8905 35.8405 21.0199 40.2886 21.5719L42.7514 1.72411C34.0475 0.644055 25.7934 2.31753 18.6191 7.19324L29.8609 23.7348Z" fill="url(#paint0_linear_0_1)" mask="url(#path-2-outside-1_0_1)"/>
</g>
<defs>
<filter id="filter0_d_0_1" x="0.659998" y="0.524012" width="55.512" height="60.336" filterUnits="userSpaceOnUse" color-interpolation-filters="sRGB">
<feFlood flood-opacity="0" result="BackgroundImageFix"/>
<feColorMatrix in="SourceAlpha" type="matrix" values="0 0 0 0 0 0 0 0 0 0 0 0 0 0 0 0 0 0 127 0" result="hardAlpha"/>
<feOffset/>
<feGaussianBlur stdDeviation="4.95"/>
<feComposite in2="hardAlpha" operator="out"/>
<feColorMatrix type="matrix" values="0 0 0 0 0 0 0 0 0 0 0 0 0 0 0 0 0 0 0.25 0"/>
<feBlend mode="normal" in2="BackgroundImageFix" result="effect1_dropShadow_0_1"/>
<feBlend mode="normal" in="SourceGraphic" in2="effect1_dropShadow_0_1" result="shape"/>
</filter>
<linearGradient id="paint0_linear_0_1" x1="28.5" y1="-26" x2="28.5" y2="64" gradientUnits="userSpaceOnUse">
<stop stop-color="#410F88"/>
<stop offset="1" stop-color="#843BED"/>
</linearGradient>
</defs>
</svg>
