<svg width="399" height="95" viewBox="0 0 399 95" fill="none" xmlns="http://www.w3.org/2000/svg">
<path d="M122.096 29.96C122.48 29.912 123.08 29.888 123.896 29.888H125.768C128.984 29.888 132.128 30.128 135.2 30.608C136.784 30.848 138.008 31.088 138.872 31.328V41.624C138.152 41.576 136.952 41.456 135.272 41.264C133.016 41.024 131.048 40.904 129.368 40.904C127.496 40.904 125.984 40.976 124.832 41.12C123.728 41.216 122.816 41.408 122.096 41.696V29.96ZM125.768 80.576C120.968 80.576 117.152 80.168 114.32 79.352C111.536 78.488 109.424 77.072 107.984 75.104C106.592 73.232 105.632 70.76 105.104 67.688C104.624 64.568 104.384 60.416 104.384 55.232C104.384 50.672 104.552 46.976 104.888 44.144C105.272 41.312 105.944 38.936 106.904 37.016C107.912 35.048 109.376 33.536 111.296 32.48C113.264 31.376 115.856 30.632 119.072 30.248V55.232C119.072 57.92 119.12 60.512 119.216 63.008C119.312 64.928 119.672 66.368 120.296 67.328C120.968 68.288 122 68.888 123.392 69.128C124.736 69.416 126.728 69.56 129.368 69.56C132.104 69.56 134.432 69.44 136.352 69.2C137.12 69.152 138.056 69.032 139.16 68.84V79.28C136.808 79.808 134.144 80.168 131.168 80.36C129.536 80.504 127.736 80.576 125.768 80.576ZM161.938 58.04H166.978C166.978 55.352 166.714 53.624 166.186 52.856C165.898 52.424 165.514 52.16 165.034 52.064C164.554 51.92 163.858 51.848 162.946 51.848H161.938V42.704H162.946C167.074 42.704 170.242 43.04 172.45 43.712C174.706 44.384 176.362 45.488 177.418 47.024C178.378 48.368 178.954 50.096 179.146 52.208C179.386 54.32 179.506 57.488 179.506 61.712V64.592H161.938V58.04ZM164.386 80.576C159.97 80.576 156.49 80.216 153.946 79.496C151.45 78.728 149.578 77.528 148.33 75.896C147.226 74.456 146.506 72.68 146.17 70.568C145.834 68.408 145.666 65.456 145.666 61.712C145.666 58.256 145.786 55.52 146.026 53.504C146.266 51.44 146.77 49.688 147.538 48.248C148.402 46.664 149.722 45.44 151.498 44.576C153.322 43.664 155.794 43.088 158.914 42.848V64.592C158.914 66.224 158.986 67.4 159.13 68.12C159.274 68.792 159.61 69.296 160.138 69.632C160.714 70.016 161.602 70.232 162.802 70.28C164.338 70.376 165.97 70.424 167.698 70.424C170.77 70.424 173.002 70.352 174.394 70.208L178.066 69.92V79.208C176.146 79.784 173.506 80.168 170.146 80.36C168.514 80.504 166.594 80.576 164.386 80.576ZM187.544 26.504H200.864V80H187.544V26.504ZM210.356 30.464H224.756V80H210.356V30.464ZM227.78 30.464H244.628V41.48H227.78V30.464ZM227.78 50.912H241.964V61.928H227.78V50.912ZM271.449 61.712C271.449 59.264 271.425 57.632 271.377 56.816C271.329 55.664 271.185 54.8 270.945 54.224C270.705 53.6 270.321 53.216 269.793 53.072C269.217 52.928 268.425 52.856 267.417 52.856H266.409V42.704H267.417C271.593 42.704 274.857 43.04 277.209 43.712C279.561 44.336 281.313 45.392 282.465 46.88C283.521 48.224 284.193 50.024 284.481 52.28C284.817 54.488 284.985 57.632 284.985 61.712C284.985 65.504 284.865 68.456 284.625 70.568C284.433 72.632 283.929 74.336 283.113 75.68C282.201 77.168 280.833 78.296 279.009 79.064C277.185 79.784 274.665 80.24 271.449 80.432V61.712ZM267.417 80.576C263.241 80.576 259.977 80.264 257.625 79.64C255.273 79.016 253.521 77.96 252.369 76.472C251.313 75.128 250.617 73.352 250.281 71.144C249.993 68.936 249.849 65.792 249.849 61.712C249.849 57.968 249.969 55.04 250.209 52.928C250.449 50.816 250.977 49.064 251.793 47.672C252.657 46.136 254.001 45.008 255.825 44.288C257.649 43.52 260.169 43.04 263.385 42.848V61.712C263.385 64.16 263.409 65.768 263.457 66.536C263.505 67.688 263.649 68.552 263.889 69.128C264.129 69.704 264.537 70.064 265.113 70.208C265.593 70.352 266.361 70.424 267.417 70.424H268.425V80.576H267.417ZM309.196 45.368C310.204 44.408 311.38 43.736 312.724 43.352C314.116 42.92 315.82 42.704 317.836 42.704V54.728C315.676 54.728 313.9 54.872 312.508 55.16C311.164 55.448 310.06 55.952 309.196 56.672V45.368ZM292.852 43.28H306.172V80H292.852V43.28ZM333.527 79.784C331.607 79.784 329.975 79.472 328.631 78.848C327.287 78.176 326.183 77.12 325.319 75.68C323.591 72.896 322.727 68.048 322.727 61.136C322.727 54.176 323.591 49.352 325.319 46.664C326.183 45.32 327.287 44.336 328.631 43.712C329.975 43.088 331.607 42.776 333.527 42.776C335.159 42.776 336.551 42.92 337.703 43.208C338.855 43.496 339.911 44.024 340.871 44.792V53.864H340.079C339.023 53.864 338.255 53.936 337.775 54.08C337.343 54.176 337.007 54.416 336.767 54.8C336.527 55.328 336.383 56.072 336.335 57.032C336.287 57.704 336.263 59.12 336.263 61.28C336.263 63.44 336.287 64.856 336.335 65.528C336.383 66.536 336.527 67.28 336.767 67.76C337.007 68.192 337.391 68.456 337.919 68.552C338.591 68.648 339.311 68.696 340.079 68.696H340.871V77.84C339.911 78.608 338.879 79.136 337.775 79.424C336.671 79.664 335.255 79.784 333.527 79.784ZM338.351 94.832C335.951 94.832 333.071 94.688 329.711 94.4L325.391 93.968V84.68H335.039C336.767 84.68 338.447 84.632 340.079 84.536C341.279 84.44 342.143 84.2 342.671 83.816C343.247 83.48 343.607 82.88 343.751 82.016C343.847 80.864 343.895 79.64 343.895 78.344V43.28H357.215V75.968C357.215 79.712 357.047 82.64 356.711 84.752C356.375 86.912 355.655 88.712 354.551 90.152C353.303 91.736 351.383 92.912 348.791 93.68C346.247 94.448 342.767 94.832 338.351 94.832ZM381.344 58.04H386.384C386.384 55.352 386.12 53.624 385.592 52.856C385.304 52.424 384.92 52.16 384.44 52.064C383.96 51.92 383.264 51.848 382.352 51.848H381.344V42.704H382.352C386.48 42.704 389.648 43.04 391.856 43.712C394.112 44.384 395.768 45.488 396.824 47.024C397.784 48.368 398.36 50.096 398.552 52.208C398.792 54.32 398.912 57.488 398.912 61.712V64.592H381.344V58.04ZM383.792 80.576C379.376 80.576 375.896 80.216 373.352 79.496C370.856 78.728 368.984 77.528 367.736 75.896C366.632 74.456 365.912 72.68 365.576 70.568C365.24 68.408 365.072 65.456 365.072 61.712C365.072 58.256 365.192 55.52 365.432 53.504C365.672 51.44 366.176 49.688 366.944 48.248C367.808 46.664 369.128 45.44 370.904 44.576C372.728 43.664 375.2 43.088 378.32 42.848V64.592C378.32 66.224 378.392 67.4 378.536 68.12C378.68 68.792 379.016 69.296 379.544 69.632C380.12 70.016 381.008 70.232 382.208 70.28C383.744 70.376 385.376 70.424 387.104 70.424C390.176 70.424 392.408 70.352 393.8 70.208L397.472 69.92V79.208C395.552 79.784 392.912 80.168 389.552 80.36C387.92 80.504 386 80.576 383.792 80.576Z" fill="#04C8A2"/>
<path d="M44 0L87.3013 75H0.69873L44 0Z" fill="#A7F9EA"/>
<path d="M56 7L99.3013 82H12.6987L56 7Z" fill="#62ECD1"/>
<path d="M67 14L110.301 89H23.6987L67 14Z" fill="#48DEC1"/>
</svg>
