<svg width="511" height="99" viewBox="0 0 511 99" fill="none" xmlns="http://www.w3.org/2000/svg">
<mask id="path-1-outside-1_0_1" maskUnits="userSpaceOnUse" x="99" y="28" width="416" height="60" fill="black">
<rect fill="white" x="99" y="28" width="416" height="60"/>
<path d="M103.24 58.584V32.52H166.6V58.584H154.936V41.88H139.24V84H127.72V41.88H114.904V58.584H103.24ZM174.5 84V46.92H184.94V84H174.5ZM174.428 40.8V32.664H185.012V40.8H174.428ZM212.868 84C208.692 84 205.62 82.968 203.652 80.904C201.684 78.792 200.7 76.032 200.7 72.624V55.2H189.972V46.92H200.7V35.544H211.14V46.92H226.548V55.2H211.14V71.328C211.14 74.256 212.58 75.72 215.46 75.72H228.564V84H212.868ZM244.515 84C240.627 84 237.651 83.016 235.587 81.048C233.523 79.08 232.491 76.272 232.491 72.624C232.491 69.024 233.523 66.24 235.587 64.272C237.651 62.304 240.627 61.32 244.515 61.32H272.163V59.592C272.163 56.664 270.723 55.2 267.843 55.2H237.315V46.92H270.579C274.947 46.92 278.043 47.928 279.867 49.944C281.691 51.912 282.603 54.696 282.603 58.296V84H244.515ZM246.387 75.72H272.163V69.6H246.387C245.475 69.6 244.755 69.888 244.227 70.464C243.747 70.992 243.507 71.712 243.507 72.624C243.507 73.536 243.747 74.28 244.227 74.856C244.755 75.432 245.475 75.72 246.387 75.72ZM291.27 84V46.92H323.598C327.822 46.92 330.894 47.976 332.814 50.088C334.782 52.152 335.766 54.888 335.766 58.296V84H325.326V59.52C325.326 56.64 323.886 55.2 321.006 55.2H301.71V84H291.27ZM345.101 84V32.52H388.229C393.557 32.52 397.685 33.864 400.613 36.552C403.589 39.24 405.077 43.32 405.077 48.792C405.077 53.448 403.997 57.096 401.837 59.736C399.677 62.376 396.605 64.032 392.621 64.704L404.501 84H391.397L380.381 65.064H356.621V84H345.101ZM386.861 41.88H356.621V55.632L386.861 55.704C388.973 55.704 390.581 55.176 391.685 54.12C392.837 53.064 393.413 51.288 393.413 48.792C393.413 46.248 392.837 44.472 391.685 43.464C390.581 42.408 388.973 41.88 386.861 41.88ZM425.174 84C420.95 84 417.854 82.944 415.886 80.832C413.966 78.72 413.006 75.984 413.006 72.624V46.92H423.446V71.4C423.446 74.28 424.886 75.72 427.766 75.72H442.742C445.622 75.72 447.062 74.28 447.062 71.4V46.92H457.502V72.624C457.502 75.984 456.518 78.72 454.55 80.832C452.63 82.944 449.558 84 445.334 84H425.174ZM465.766 84V46.92H498.094C502.318 46.92 505.39 47.976 507.31 50.088C509.278 52.152 510.262 54.888 510.262 58.296V84H499.822V59.52C499.822 56.64 498.382 55.2 495.502 55.2H476.206V84H465.766Z"/>
</mask>
<path d="M103.24 58.584V32.52H166.6V58.584H154.936V41.88H139.24V84H127.72V41.88H114.904V58.584H103.24ZM174.5 84V46.92H184.94V84H174.5ZM174.428 40.8V32.664H185.012V40.8H174.428ZM212.868 84C208.692 84 205.62 82.968 203.652 80.904C201.684 78.792 200.7 76.032 200.7 72.624V55.2H189.972V46.92H200.7V35.544H211.14V46.92H226.548V55.2H211.14V71.328C211.14 74.256 212.58 75.72 215.46 75.72H228.564V84H212.868ZM244.515 84C240.627 84 237.651 83.016 235.587 81.048C233.523 79.08 232.491 76.272 232.491 72.624C232.491 69.024 233.523 66.24 235.587 64.272C237.651 62.304 240.627 61.32 244.515 61.32H272.163V59.592C272.163 56.664 270.723 55.2 267.843 55.2H237.315V46.92H270.579C274.947 46.92 278.043 47.928 279.867 49.944C281.691 51.912 282.603 54.696 282.603 58.296V84H244.515ZM246.387 75.72H272.163V69.6H246.387C245.475 69.6 244.755 69.888 244.227 70.464C243.747 70.992 243.507 71.712 243.507 72.624C243.507 73.536 243.747 74.28 244.227 74.856C244.755 75.432 245.475 75.72 246.387 75.72ZM291.27 84V46.92H323.598C327.822 46.92 330.894 47.976 332.814 50.088C334.782 52.152 335.766 54.888 335.766 58.296V84H325.326V59.52C325.326 56.64 323.886 55.2 321.006 55.2H301.71V84H291.27ZM345.101 84V32.52H388.229C393.557 32.52 397.685 33.864 400.613 36.552C403.589 39.24 405.077 43.32 405.077 48.792C405.077 53.448 403.997 57.096 401.837 59.736C399.677 62.376 396.605 64.032 392.621 64.704L404.501 84H391.397L380.381 65.064H356.621V84H345.101ZM386.861 41.88H356.621V55.632L386.861 55.704C388.973 55.704 390.581 55.176 391.685 54.12C392.837 53.064 393.413 51.288 393.413 48.792C393.413 46.248 392.837 44.472 391.685 43.464C390.581 42.408 388.973 41.88 386.861 41.88ZM425.174 84C420.95 84 417.854 82.944 415.886 80.832C413.966 78.72 413.006 75.984 413.006 72.624V46.92H423.446V71.4C423.446 74.28 424.886 75.72 427.766 75.72H442.742C445.622 75.72 447.062 74.28 447.062 71.4V46.92H457.502V72.624C457.502 75.984 456.518 78.72 454.55 80.832C452.63 82.944 449.558 84 445.334 84H425.174ZM465.766 84V46.92H498.094C502.318 46.92 505.39 47.976 507.31 50.088C509.278 52.152 510.262 54.888 510.262 58.296V84H499.822V59.52C499.822 56.64 498.382 55.2 495.502 55.2H476.206V84H465.766Z" fill="white"/>
<path d="M103.24 58.584H99.24V62.584H103.24V58.584ZM103.24 32.52V28.52H99.24V32.52H103.24ZM166.6 32.52H170.6V28.52H166.6V32.52ZM166.6 58.584V62.584H170.6V58.584H166.6ZM154.936 58.584H150.936V62.584H154.936V58.584ZM154.936 41.88H158.936V37.88H154.936V41.88ZM139.24 41.88V37.88H135.24V41.88H139.24ZM139.24 84V88H143.24V84H139.24ZM127.72 84H123.72V88H127.72V84ZM127.72 41.88H131.72V37.88H127.72V41.88ZM114.904 41.88V37.88H110.904V41.88H114.904ZM114.904 58.584V62.584H118.904V58.584H114.904ZM107.24 58.584V32.52H99.24V58.584H107.24ZM103.24 36.52H166.6V28.52H103.24V36.52ZM162.6 32.52V58.584H170.6V32.52H162.6ZM166.6 54.584H154.936V62.584H166.6V54.584ZM158.936 58.584V41.88H150.936V58.584H158.936ZM154.936 37.88H139.24V45.88H154.936V37.88ZM135.24 41.88V84H143.24V41.88H135.24ZM139.24 80H127.72V88H139.24V80ZM131.72 84V41.88H123.72V84H131.72ZM127.72 37.88H114.904V45.88H127.72V37.88ZM110.904 41.88V58.584H118.904V41.88H110.904ZM114.904 54.584H103.24V62.584H114.904V54.584ZM174.5 84H170.5V88H174.5V84ZM174.5 46.92V42.92H170.5V46.92H174.5ZM184.94 46.92H188.94V42.92H184.94V46.92ZM184.94 84V88H188.94V84H184.94ZM174.428 40.8H170.428V44.8H174.428V40.8ZM174.428 32.664V28.664H170.428V32.664H174.428ZM185.012 32.664H189.012V28.664H185.012V32.664ZM185.012 40.8V44.8H189.012V40.8H185.012ZM178.5 84V46.92H170.5V84H178.5ZM174.5 50.92H184.94V42.92H174.5V50.92ZM180.94 46.92V84H188.94V46.92H180.94ZM184.94 80H174.5V88H184.94V80ZM178.428 40.8V32.664H170.428V40.8H178.428ZM174.428 36.664H185.012V28.664H174.428V36.664ZM181.012 32.664V40.8H189.012V32.664H181.012ZM185.012 36.8H174.428V44.8H185.012V36.8ZM203.652 80.904L200.725 83.6309L200.741 83.6477L200.757 83.6643L203.652 80.904ZM200.7 55.2H204.7V51.2H200.7V55.2ZM189.972 55.2H185.972V59.2H189.972V55.2ZM189.972 46.92V42.92H185.972V46.92H189.972ZM200.7 46.92V50.92H204.7V46.92H200.7ZM200.7 35.544V31.544H196.7V35.544H200.7ZM211.14 35.544H215.14V31.544H211.14V35.544ZM211.14 46.92H207.14V50.92H211.14V46.92ZM226.548 46.92H230.548V42.92H226.548V46.92ZM226.548 55.2V59.2H230.548V55.2H226.548ZM211.14 55.2V51.2H207.14V55.2H211.14ZM228.564 75.72H232.564V71.72H228.564V75.72ZM228.564 84V88H232.564V84H228.564ZM212.868 80C209.275 80 207.468 79.1101 206.547 78.1437L200.757 83.6643C203.772 86.8259 208.108 88 212.868 88V80ZM206.578 78.1771C205.422 76.9365 204.7 75.2144 204.7 72.624H196.7C196.7 76.8496 197.945 80.6475 200.725 83.6309L206.578 78.1771ZM204.7 72.624V55.2H196.7V72.624H204.7ZM200.7 51.2H189.972V59.2H200.7V51.2ZM193.972 55.2V46.92H185.972V55.2H193.972ZM189.972 50.92H200.7V42.92H189.972V50.92ZM204.7 46.92V35.544H196.7V46.92H204.7ZM200.7 39.544H211.14V31.544H200.7V39.544ZM207.14 35.544V46.92H215.14V35.544H207.14ZM211.14 50.92H226.548V42.92H211.14V50.92ZM222.548 46.92V55.2H230.548V46.92H222.548ZM226.548 51.2H211.14V59.2H226.548V51.2ZM207.14 55.2V71.328H215.14V55.2H207.14ZM207.14 71.328C207.14 73.3921 207.648 75.6781 209.368 77.427C211.1 79.188 213.386 79.72 215.46 79.72V71.72C215.067 71.72 214.888 71.6687 214.854 71.6571C214.841 71.6527 214.864 71.6593 214.91 71.6876C214.958 71.7167 215.015 71.7598 215.072 71.817C215.195 71.9429 215.223 72.0406 215.211 72.0033C215.192 71.9474 215.14 71.7443 215.14 71.328H207.14ZM215.46 79.72H228.564V71.72H215.46V79.72ZM224.564 75.72V84H232.564V75.72H224.564ZM228.564 80H212.868V88H228.564V80ZM235.587 81.048L232.827 83.943L235.587 81.048ZM235.587 64.272L232.827 61.377L232.827 61.377L235.587 64.272ZM272.163 61.32V65.32H276.163V61.32H272.163ZM237.315 55.2H233.315V59.2H237.315V55.2ZM237.315 46.92V42.92H233.315V46.92H237.315ZM279.867 49.944L276.901 52.6277L276.917 52.6455L276.934 52.6631L279.867 49.944ZM282.603 84V88H286.603V84H282.603ZM272.163 75.72V79.72H276.163V75.72H272.163ZM272.163 69.6H276.163V65.6H272.163V69.6ZM244.227 70.464L241.279 67.7611L241.273 67.7672L241.267 67.7733L244.227 70.464ZM244.227 74.856L241.154 77.4167L241.215 77.4893L241.279 77.5589L244.227 74.856ZM244.515 80C241.275 80 239.432 79.1869 238.348 78.153L232.827 83.943C235.871 86.8451 239.979 88 244.515 88V80ZM238.348 78.153C237.282 77.1368 236.491 75.5006 236.491 72.624H228.491C228.491 77.0434 229.765 81.0232 232.827 83.943L238.348 78.153ZM236.491 72.624C236.491 69.8135 237.271 68.193 238.348 67.1669L232.827 61.377C229.775 64.287 228.491 68.2345 228.491 72.624H236.491ZM238.348 67.1669C239.432 66.1331 241.275 65.32 244.515 65.32V57.32C239.979 57.32 235.871 58.4749 232.827 61.377L238.348 67.1669ZM244.515 65.32H272.163V57.32H244.515V65.32ZM276.163 61.32V59.592H268.163V61.32H276.163ZM276.163 59.592C276.163 57.5279 275.655 55.2419 273.935 53.493C272.203 51.732 269.917 51.2 267.843 51.2V59.2C268.236 59.2 268.415 59.2513 268.449 59.2629C268.463 59.2673 268.439 59.2607 268.393 59.2324C268.345 59.2033 268.288 59.1602 268.232 59.103C268.108 58.9771 268.08 58.8794 268.092 58.9167C268.111 58.9726 268.163 59.1757 268.163 59.592H276.163ZM267.843 51.2H237.315V59.2H267.843V51.2ZM241.315 55.2V46.92H233.315V55.2H241.315ZM237.315 50.92H270.579V42.92H237.315V50.92ZM270.579 50.92C274.486 50.92 276.191 51.8427 276.901 52.6277L282.833 47.2603C279.896 44.0133 275.408 42.92 270.579 42.92V50.92ZM276.934 52.6631C277.866 53.669 278.603 55.3533 278.603 58.296H286.603C286.603 54.0387 285.517 50.155 282.801 47.2249L276.934 52.6631ZM278.603 58.296V84H286.603V58.296H278.603ZM282.603 80H244.515V88H282.603V80ZM246.387 79.72H272.163V71.72H246.387V79.72ZM276.163 75.72V69.6H268.163V75.72H276.163ZM272.163 65.6H246.387V73.6H272.163V65.6ZM246.387 65.6C244.559 65.6 242.693 66.2185 241.279 67.7611L247.176 73.1669C247.037 73.3179 246.851 73.4492 246.649 73.5299C246.461 73.6051 246.352 73.6 246.387 73.6V65.6ZM241.267 67.7733C239.948 69.2249 239.507 71.0029 239.507 72.624H247.507C247.507 72.5139 247.522 72.5444 247.482 72.6649C247.437 72.7989 247.345 72.9809 247.187 73.1547L241.267 67.7733ZM239.507 72.624C239.507 74.2616 239.953 75.9755 241.154 77.4167L247.3 72.2953C247.402 72.4172 247.464 72.544 247.494 72.638C247.521 72.7225 247.507 72.7309 247.507 72.624H239.507ZM241.279 77.5589C242.693 79.1015 244.559 79.72 246.387 79.72V71.72C246.352 71.72 246.461 71.7149 246.649 71.7901C246.851 71.8708 247.037 72.0021 247.176 72.1531L241.279 77.5589ZM291.27 84H287.27V88H291.27V84ZM291.27 46.92V42.92H287.27V46.92H291.27ZM332.814 50.088L329.854 52.7787L329.886 52.8139L329.919 52.8483L332.814 50.088ZM335.766 84V88H339.766V84H335.766ZM325.326 84H321.326V88H325.326V84ZM301.71 55.2V51.2H297.71V55.2H301.71ZM301.71 84V88H305.71V84H301.71ZM295.27 84V46.92H287.27V84H295.27ZM291.27 50.92H323.598V42.92H291.27V50.92ZM323.598 50.92C327.24 50.92 328.994 51.8331 329.854 52.7787L335.773 47.3973C332.793 44.1189 328.403 42.92 323.598 42.92V50.92ZM329.919 52.8483C331.043 54.0271 331.766 55.7026 331.766 58.296H339.766C339.766 54.0734 338.521 50.2769 335.709 47.3277L329.919 52.8483ZM331.766 58.296V84H339.766V58.296H331.766ZM335.766 80H325.326V88H335.766V80ZM329.326 84V59.52H321.326V84H329.326ZM329.326 59.52C329.326 57.4634 328.809 55.1863 327.074 53.4516C325.339 51.7169 323.062 51.2 321.006 51.2V59.2C321.404 59.2 321.59 59.2512 321.631 59.2647C321.647 59.2702 321.626 59.2647 321.58 59.2375C321.533 59.2094 321.476 59.1667 321.417 59.1084C321.359 59.0501 321.316 58.9923 321.288 58.9455C321.261 58.9001 321.256 58.8786 321.261 58.8949C321.274 58.9355 321.326 59.1214 321.326 59.52H329.326ZM321.006 51.2H301.71V59.2H321.006V51.2ZM297.71 55.2V84H305.71V55.2H297.71ZM301.71 80H291.27V88H301.71V80ZM345.101 84H341.101V88H345.101V84ZM345.101 32.52V28.52H341.101V32.52H345.101ZM400.613 36.552L397.908 39.4986L397.92 39.5096L397.932 39.5204L400.613 36.552ZM392.621 64.704L391.956 60.7597L386.103 61.7469L389.215 66.8011L392.621 64.704ZM404.501 84V88H411.661L407.907 81.9029L404.501 84ZM391.397 84L387.939 86.0114L389.096 88H391.397V84ZM380.381 65.064L383.838 63.0526L382.682 61.064H380.381V65.064ZM356.621 65.064V61.064H352.621V65.064H356.621ZM356.621 84V88H360.621V84H356.621ZM356.621 41.88V37.88H352.621V41.88H356.621ZM356.621 55.632H352.621V59.6225L356.611 59.632L356.621 55.632ZM386.861 55.704L386.851 59.704H386.861V55.704ZM391.685 54.12L388.982 51.1714L388.951 51.2001L388.92 51.2294L391.685 54.12ZM391.685 43.464L388.92 46.3546L388.984 46.4159L389.051 46.4743L391.685 43.464ZM349.101 84V32.52H341.101V84H349.101ZM345.101 36.52H388.229V28.52H345.101V36.52ZM388.229 36.52C392.902 36.52 395.939 37.6911 397.908 39.4986L403.318 33.6054C399.431 30.0369 394.212 28.52 388.229 28.52V36.52ZM397.932 39.5204C399.795 41.2033 401.077 44.022 401.077 48.792H409.077C409.077 42.618 407.383 37.2767 403.294 33.5836L397.932 39.5204ZM401.077 48.792C401.077 52.8601 400.134 55.5002 398.741 57.203L404.933 62.269C407.86 58.6918 409.077 54.0359 409.077 48.792H401.077ZM398.741 57.203C397.303 58.9603 395.171 60.2174 391.956 60.7597L393.286 68.6483C398.039 67.8466 402.051 65.7917 404.933 62.269L398.741 57.203ZM389.215 66.8011L401.095 86.0971L407.907 81.9029L396.027 62.6069L389.215 66.8011ZM404.501 80H391.397V88H404.501V80ZM394.854 81.9886L383.838 63.0526L376.923 67.0754L387.939 86.0114L394.854 81.9886ZM380.381 61.064H356.621V69.064H380.381V61.064ZM352.621 65.064V84H360.621V65.064H352.621ZM356.621 80H345.101V88H356.621V80ZM386.861 37.88H356.621V45.88H386.861V37.88ZM352.621 41.88V55.632H360.621V41.88H352.621ZM356.611 59.632L386.851 59.704L386.87 51.704L356.63 51.632L356.611 59.632ZM386.861 59.704C389.604 59.704 392.356 59.0135 394.45 57.0106L388.92 51.2294C388.806 51.3385 388.342 51.704 386.861 51.704V59.704ZM394.388 57.0686C396.749 54.9042 397.413 51.7556 397.413 48.792H389.413C389.413 50.8204 388.925 51.2238 388.982 51.1714L394.388 57.0686ZM397.413 48.792C397.413 45.8326 396.772 42.6001 394.319 40.4537L389.051 46.4743C388.975 46.4082 389.062 46.4342 389.176 46.786C389.297 47.1604 389.413 47.798 389.413 48.792H397.413ZM394.45 40.5734C392.356 38.5705 389.604 37.88 386.861 37.88V45.88C388.342 45.88 388.806 46.2455 388.92 46.3546L394.45 40.5734ZM415.886 80.832L412.926 83.5227L412.943 83.5409L412.96 83.5589L415.886 80.832ZM413.006 46.92V42.92H409.006V46.92H413.006ZM423.446 46.92H427.446V42.92H423.446V46.92ZM447.062 46.92V42.92H443.062V46.92H447.062ZM457.502 46.92H461.502V42.92H457.502V46.92ZM454.55 80.832L451.624 78.1051L451.607 78.1231L451.59 78.1413L454.55 80.832ZM425.174 80C421.541 80 419.731 79.0907 418.812 78.1051L412.96 83.5589C415.977 86.7973 420.359 88 425.174 88V80ZM418.846 78.1413C417.711 76.8932 417.006 75.1761 417.006 72.624H409.006C409.006 76.7919 410.221 80.5468 412.926 83.5227L418.846 78.1413ZM417.006 72.624V46.92H409.006V72.624H417.006ZM413.006 50.92H423.446V42.92H413.006V50.92ZM419.446 46.92V71.4H427.446V46.92H419.446ZM419.446 71.4C419.446 73.4566 419.963 75.7337 421.698 77.4684C423.432 79.2031 425.709 79.72 427.766 79.72V71.72C427.367 71.72 427.181 71.6688 427.141 71.6553C427.125 71.6498 427.146 71.6553 427.191 71.6825C427.238 71.7106 427.296 71.7533 427.354 71.8116C427.413 71.8699 427.455 71.9277 427.483 71.9745C427.511 72.0199 427.516 72.0414 427.511 72.0251C427.497 71.9845 427.446 71.7986 427.446 71.4H419.446ZM427.766 79.72H442.742V71.72H427.766V79.72ZM442.742 79.72C444.799 79.72 447.076 79.2031 448.81 77.4684C450.545 75.7337 451.062 73.4566 451.062 71.4H443.062C443.062 71.7986 443.011 71.9845 442.997 72.0251C442.992 72.0414 442.997 72.0199 443.024 71.9745C443.053 71.9277 443.095 71.8699 443.154 71.8116C443.212 71.7533 443.27 71.7106 443.316 71.6825C443.362 71.6553 443.383 71.6498 443.367 71.6553C443.326 71.6688 443.141 71.72 442.742 71.72V79.72ZM451.062 71.4V46.92H443.062V71.4H451.062ZM447.062 50.92H457.502V42.92H447.062V50.92ZM453.502 46.92V72.624H461.502V46.92H453.502ZM453.502 72.624C453.502 75.1493 452.79 76.8538 451.624 78.1051L457.476 83.5589C460.246 80.5862 461.502 76.8187 461.502 72.624H453.502ZM451.59 78.1413C450.731 79.0869 448.976 80 445.334 80V88C450.139 88 454.529 86.8011 457.51 83.5227L451.59 78.1413ZM445.334 80H425.174V88H445.334V80ZM465.766 84H461.766V88H465.766V84ZM465.766 46.92V42.92H461.766V46.92H465.766ZM507.31 50.088L504.35 52.7787L504.382 52.8139L504.415 52.8483L507.31 50.088ZM510.262 84V88H514.262V84H510.262ZM499.822 84H495.822V88H499.822V84ZM476.206 55.2V51.2H472.206V55.2H476.206ZM476.206 84V88H480.206V84H476.206ZM469.766 84V46.92H461.766V84H469.766ZM465.766 50.92H498.094V42.92H465.766V50.92ZM498.094 50.92C501.736 50.92 503.49 51.8331 504.35 52.7787L510.269 47.3973C507.289 44.1189 502.899 42.92 498.094 42.92V50.92ZM504.415 52.8483C505.539 54.0271 506.262 55.7026 506.262 58.296H514.262C514.262 54.0734 513.017 50.2769 510.205 47.3277L504.415 52.8483ZM506.262 58.296V84H514.262V58.296H506.262ZM510.262 80H499.822V88H510.262V80ZM503.822 84V59.52H495.822V84H503.822ZM503.822 59.52C503.822 57.4634 503.305 55.1863 501.57 53.4516C499.835 51.7169 497.558 51.2 495.502 51.2V59.2C495.9 59.2 496.086 59.2512 496.127 59.2647C496.143 59.2702 496.122 59.2647 496.076 59.2375C496.029 59.2094 495.971 59.1667 495.913 59.1084C495.855 59.0501 495.812 58.9923 495.784 58.9455C495.757 58.9001 495.751 58.8786 495.757 58.8949C495.77 58.9355 495.822 59.1214 495.822 59.52H503.822ZM495.502 51.2H476.206V59.2H495.502V51.2ZM472.206 55.2V84H480.206V55.2H472.206ZM476.206 80H465.766V88H476.206V80Z" fill="#00D1E5" mask="url(#path-1-outside-1_0_1)"/>
<circle cx="42.5" cy="59.5" r="39.5" fill="#00D1E5"/>
<ellipse cx="42.5" cy="42" rx="42.5" ry="42" fill="#7EE5EE"/>
<path d="M12.24 48.584V22.52H75.6V48.584H63.936V31.88H48.24V74H36.72V31.88H23.904V48.584H12.24Z" fill="white"/>
</svg>
