<svg width="561" height="126" viewBox="0 0 561 126" fill="none" xmlns="http://www.w3.org/2000/svg">
<g filter="url(#filter0_d_0_1)">
<path d="M28.4297 105.949L28.8164 96.5977C28.8164 93.5742 28.6992 91.6641 28.4648 90.8672C28.2539 90.0703 28.0312 89.3672 27.7969 88.7578C27.5625 88.1484 27.2578 87.6562 26.8828 87.2812C26.5078 86.9062 26.0625 86.5547 25.5469 86.2266C24.5625 85.5703 23.0156 85.2422 20.9062 85.2422C18.7969 85.2422 17.0156 86.0977 15.5625 87.8086C14.1328 89.5195 13.418 91.5703 13.418 93.9609C13.418 94.8516 13.5938 96.1758 13.9453 97.9336C14.2969 99.7148 14.4727 101.051 14.4727 101.941C14.4727 103.629 13.875 104.473 12.6797 104.473C11.4844 104.473 10.8867 103.652 10.8867 102.012C10.8867 101.098 11.0625 99.7266 11.4141 97.8984C11.7891 96.0703 11.9766 94.6875 11.9766 93.75L12.2227 84.3281V43.0195C12.2227 41.5664 11.7656 40.3945 10.8516 39.5039L11.5547 38.7656C12.5391 39.7031 13.7109 40.1719 15.0703 40.1719H27.7969C29.2031 40.1719 30.375 39.7031 31.3125 38.7656L32.0156 39.5039C31.1016 40.418 30.6445 41.5898 30.6445 43.0195V84.1523C30.6445 85.3711 30.5156 87.4688 30.2578 90.4453C30 93.4453 29.918 95.7539 30.0117 97.3711H29.9766C30.8438 101.262 31.2773 104.227 31.2773 106.266C31.2773 108.305 30.8906 109.324 30.1172 109.324C28.9922 109.324 28.4297 108.199 28.4297 105.949ZM56.6067 97.8984L57.4505 88.3711C57.4505 87.6211 57.0286 87 56.1848 86.5078C54.802 85.7344 53.1145 85.3477 51.1223 85.3477C48.4505 85.3477 46.6106 85.875 45.6028 86.9297C45.1575 87.3984 44.9348 88.0781 44.9348 88.9688C44.9348 89.8828 45.2044 91.4648 45.7434 93.7148C46.2825 95.9648 46.552 97.5469 46.552 98.4609C46.552 99.3984 46.3762 100.137 46.0247 100.676C45.6966 101.238 45.2044 101.52 44.5481 101.52C43.8919 101.52 43.388 101.238 43.0364 100.676C42.6848 100.137 42.5091 99.3984 42.5091 98.4609C42.5091 97.5234 42.7903 95.9062 43.3528 93.6094C43.9387 91.3125 44.2317 89.5781 44.2317 88.4062L44.1966 45.3047C44.1966 42.5391 43.3528 40.2305 41.6653 38.3789L42.4036 37.6406C44.302 39.3281 46.6106 40.1719 49.3294 40.1719H59.8411C61.3411 40.1719 62.6067 39.9961 63.638 39.6445C64.6927 39.2695 65.5364 38.543 66.1692 37.4648L67.3294 38.0273C66.72 39.4805 66.4153 40.8516 66.4153 42.1406C66.4153 43.1953 68.2669 45.8438 71.97 50.0859C76.7981 55.6172 79.9036 59.332 81.2864 61.2305C82.6692 63.1289 83.5716 64.6641 83.9934 65.8359H86.1028C84.9544 64.1484 84.3802 61.7695 84.3802 58.6992C84.3802 57.2695 84.5559 55.1367 84.9075 52.3008C85.2591 49.4414 85.4348 47.2969 85.4348 45.8672C85.4348 42.0234 84.2161 39.5273 81.7786 38.3789L82.5169 37.6406C84.4153 39.3281 86.7239 40.1719 89.4427 40.1719H96.6497C99.3684 40.1719 101.677 39.3281 103.575 37.6406L104.279 38.3789C102.615 40.2539 101.782 42.5625 101.782 45.3047L101.712 88.2305C101.712 89.2383 101.947 90.7383 102.415 92.7305C102.884 94.7461 103.118 96.2578 103.118 97.2656C103.118 98.7656 102.544 99.5156 101.396 99.5156C100.247 99.5156 99.6731 98.7656 99.6731 97.2656C99.6731 96.2812 99.8958 94.8281 100.341 92.9062C100.786 91.0078 101.009 89.6953 101.009 88.9688C101.009 88.2656 100.775 87.7617 100.306 87.457C99.8372 87.1523 99.3802 87 98.9348 87H85.0481C83.0794 87 82.095 88.793 82.095 92.3789C82.095 93.8555 82.3645 95.9883 82.9036 98.7773C83.4661 101.59 83.7473 103.711 83.7473 105.141C83.7473 107.18 82.9856 108.199 81.4622 108.199C79.9387 108.199 79.177 107.168 79.177 105.105C79.177 103.793 79.47 101.883 80.0559 99.375C80.6653 96.8672 80.9817 94.9805 81.0052 93.7148L81.0755 89.0391C81.1458 86.8594 80.9231 85.4414 80.4075 84.7852L63.5677 63.4453C63.1223 62.8594 62.6302 61.6406 62.0911 59.7891L59.9466 59.8594C61.1653 61.125 61.7747 62.5312 61.7747 64.0781V84.1523L62.4427 101.941C62.4427 102.316 62.3255 102.633 62.0911 102.891C61.8802 103.172 61.5755 103.312 61.177 103.312C60.802 103.312 60.4856 103.148 60.2278 102.82C59.97 102.516 59.8411 102.164 59.8411 101.766L60.263 88.2656C60.263 87.9844 60.1575 87.7266 59.9466 87.4922C59.7356 87.2578 59.4895 87.1406 59.2083 87.1406C58.5989 87.1406 58.2942 87.6094 58.2942 88.5469C58.2942 89.4844 58.4466 91.0195 58.7512 93.1523C59.0794 95.2852 59.2434 96.75 59.2434 97.5469C59.2434 99.3281 58.7981 100.219 57.9075 100.219C57.0403 100.219 56.6067 99.4453 56.6067 97.8984ZM133.686 72.4805L133.405 79.6523C133.405 80.9414 133.71 82.8516 134.319 85.3828C134.952 87.8906 135.268 89.7422 135.268 90.9375C135.268 92.1562 135.467 93.8555 135.866 96.0352C136.264 98.2148 136.463 99.9609 136.463 101.273C136.463 102.609 135.889 103.277 134.741 103.277C133.616 103.277 133.053 102.621 133.053 101.309C133.053 100.02 133.253 98.2852 133.651 96.1055C134.073 93.9492 134.284 92.332 134.284 91.2539C134.284 90.1758 133.909 89.1914 133.159 88.3008C132.409 87.4336 131.518 87 130.487 87C128.143 87 126.971 89.8477 126.971 95.543C126.971 96.8789 127.147 98.8828 127.499 101.555C127.85 104.227 128.026 106.055 128.026 107.039C128.026 108.961 127.452 109.922 126.303 109.922C125.717 109.922 125.26 109.664 124.932 109.148C124.628 108.656 124.475 107.941 124.475 107.004C124.475 106.066 124.674 104.355 125.073 101.871C125.495 99.3867 125.706 97.582 125.706 96.457C125.706 95.332 125.635 94.2656 125.495 93.2578C125.378 92.2734 125.143 91.207 124.792 90.0586C124.463 88.9336 123.924 88.0195 123.174 87.3164C122.448 86.6133 121.499 86.2617 120.327 86.2617C119.178 86.2617 118.135 86.7656 117.198 87.7734C116.284 88.7812 115.827 89.7305 115.827 90.6211C115.827 91.5352 115.991 92.4844 116.319 93.4688C116.647 94.4531 116.811 95.2148 116.811 95.7539C116.811 96.7852 116.424 97.3008 115.651 97.3008C114.901 97.3008 114.526 96.7852 114.526 95.7539L115.37 90.1289L115.335 45.375C115.335 42.6094 114.491 40.3008 112.803 38.4492L113.506 37.7461C115.381 39.4102 117.69 40.2422 120.432 40.2422H161.003C163.745 40.2422 166.053 39.4102 167.928 37.7461L168.631 38.4492C166.967 40.3242 166.135 42.4336 166.135 44.7773C166.135 47.1211 166.288 48.9375 166.592 50.2266C166.897 51.5156 167.577 52.7578 168.631 53.9531L167.928 54.6562C166.686 52.9922 165.139 52.1602 163.288 52.1602H136.604C135.292 52.1602 134.167 51.7148 133.229 50.8242L132.561 51.4922C133.452 52.4297 133.897 53.5664 133.897 54.9023C133.897 56.2383 133.452 57.375 132.561 58.3125L133.229 58.9805C134.003 58.2305 134.928 57.75 136.006 57.5391C137.108 57.3281 138.409 57.2227 139.909 57.2227L153.268 57.9609C155.448 57.9609 157.37 57.7734 159.034 57.3984C160.721 57.0234 162.163 56.2617 163.358 55.1133L164.061 55.8164C162.303 57.7383 161.424 60.3984 161.424 63.7969C161.424 67.1953 162.233 69.7383 163.85 71.4258L163.112 72.1289C160.979 70.2305 157.534 69.2812 152.776 69.2812L139.628 70.0195C136.417 70.0195 134.225 69.4336 133.053 68.2617L132.385 68.9648C133.253 69.8555 133.686 71.0273 133.686 72.4805ZM197.265 81.1641L196.703 76.8047V76.418C197.195 75.5508 197.863 75.1172 198.707 75.1172L227.394 75.1523C228.824 75.1523 229.984 74.6953 230.875 73.7812L231.578 74.4844C230.547 75.5156 230.031 77.4844 230.031 80.3906C230.031 80.3906 230.031 81.0703 230.031 82.4297C230.031 84.7969 230.547 86.5195 231.578 87.5977L230.875 88.3008C229.961 87.3867 228.801 86.9297 227.394 86.9297H185.805C183.719 86.9297 182.183 87.3281 181.199 88.125C180.074 89.0625 179.512 91.7109 179.512 96.0703C179.512 97.8281 179.781 100.418 180.32 103.84C180.859 107.285 181.129 109.875 181.129 111.609C181.129 114.117 180.238 115.371 178.457 115.371C176.535 115.371 175.574 114.082 175.574 111.504C175.574 109.746 175.961 107.145 176.734 103.699C177.508 100.254 177.894 97.6406 177.894 95.8594L177.719 84.082V43.0898C177.719 41.6367 177.273 40.4766 176.383 39.6094L177.086 38.8711C178.047 39.7852 179.219 40.2422 180.601 40.2422H225.742C227.172 40.2422 228.344 39.7852 229.258 38.8711L229.961 39.6094C228.93 40.6406 228.414 42.5859 228.414 45.4453V47.4141C228.414 49.9219 228.93 51.6797 229.961 52.6875L229.258 53.3555C228.086 52.1602 225.332 51.5625 220.996 51.5625L203.523 52.3711C199.211 52.3711 196.469 51.7734 195.297 50.5781L194.558 51.2812C195.473 52.1719 195.93 53.3555 195.93 54.832C195.93 56.2852 195.473 57.457 194.558 58.3477L195.297 59.0156C196.422 57.8438 198.789 57.2578 202.398 57.2578L217.129 58.0664C220.762 58.0664 223.164 57.4805 224.336 56.3086L225.074 57.0117C224.043 58.043 223.527 60.0234 223.527 62.9531V64.9219C223.527 67.3359 224.043 69.082 225.074 70.1602L224.336 70.8984C223.211 69.7266 220.832 69.1406 217.199 69.1406L202.469 69.9141C198.859 69.9141 196.469 69.3281 195.297 68.1562L194.594 68.8594C195.297 69.5625 195.707 70.4062 195.824 71.3906C195.941 72.3516 196.012 73.043 196.035 73.4648C196.058 73.8633 196.058 74.4961 196.035 75.3633C196.012 76.207 196 76.7109 196 76.875L195.402 81.0938C195.402 81.9375 195.707 82.3594 196.316 82.3594C196.949 82.3594 197.265 81.9609 197.265 81.1641ZM297.724 98.5312L298.497 91.2539C298.497 88.3008 297.29 86.0508 294.876 84.5039C292.485 82.9336 289.966 82.2422 287.318 82.4297C284.669 82.5938 282.818 83.4844 281.763 85.1016C281.224 85.875 280.954 86.7891 280.954 87.8438L280.778 97.2656C280.778 98.5547 280.978 100.465 281.376 102.996C281.775 105.551 281.974 107.473 281.974 108.762C281.974 111.035 281.329 112.172 280.04 112.172C278.751 112.172 278.107 111.07 278.107 108.867C278.107 107.414 278.318 105.328 278.739 102.609C279.161 99.8906 279.396 97.8281 279.443 96.4219C279.513 95.0156 279.548 92.0156 279.548 87.4219C279.548 86.2031 279.173 84.7969 278.423 83.2031C277.673 81.6094 276.489 79.418 274.872 76.6289C273.255 73.8398 271.931 71.3789 270.9 69.2461L269.845 68.6484C269.282 69.6797 268.286 70.1953 266.857 70.1953L263.903 70.3008C261.888 70.3008 260.376 69.8086 259.368 68.8242L258.63 69.5273C258.7 70.3945 258.735 72.2461 258.735 75.082L258.7 83.6953C258.7 86.2734 258.747 88.1719 258.841 89.3906L259.509 94.5586C259.509 95.5195 259.181 96 258.525 96C257.868 96 257.54 95.5547 257.54 94.6641L258.103 90.3047C258.103 89.25 257.786 88.4062 257.153 87.7734C256.544 87.1641 255.735 86.8594 254.728 86.8594C253.743 86.8594 252.864 87.293 252.091 88.1602C251.341 89.0508 250.966 90.1992 250.966 91.6055C250.966 93.0117 251.224 94.9102 251.739 97.3008C252.255 99.7148 252.513 101.449 252.513 102.504C252.513 104.707 251.728 105.809 250.157 105.809C248.587 105.809 247.802 104.73 247.802 102.574C247.802 101.566 248.025 99.8086 248.47 97.3008C248.939 94.793 249.173 92.8008 249.173 91.3242C249.173 89.8477 248.833 88.6289 248.153 87.668C247.474 86.7305 246.7 86.2617 245.833 86.2617C244.966 86.2617 244.228 86.5547 243.618 87.1406C243.009 87.75 242.704 88.5 242.704 89.3906L243.653 97.7227C243.653 99.1523 243.126 99.8672 242.071 99.8672C241.017 99.8672 240.489 99.1406 240.489 97.6875C240.489 96.8438 240.712 95.3672 241.157 93.2578C241.603 91.1719 241.814 89.543 241.79 88.3711C241.767 87.1992 241.755 72.0352 241.755 42.8789C241.755 41.4258 241.31 40.2656 240.419 39.3984L241.122 38.6953C242.036 39.5859 243.196 40.0312 244.603 40.0312H276.103C281.025 40.0312 284.329 40.1836 286.017 40.4883C287.728 40.7695 289.216 41.0742 290.482 41.4023C291.771 41.7305 292.849 42.1406 293.716 42.6328C294.607 43.1016 295.497 43.6992 296.388 44.4258C297.302 45.1289 298.028 45.9375 298.568 46.8516C299.81 48.9375 300.431 51.1523 300.431 53.4961C300.431 55.8398 300.243 57.7617 299.868 59.2617C299.517 60.7383 298.919 62.1328 298.075 63.4453C296.247 66.2812 293.036 67.6992 288.443 67.6992L288.161 68.5078C289.638 69.0938 290.622 69.9023 291.114 70.9336C293.177 75.4336 294.7 78.293 295.685 79.5117C296.669 80.707 297.583 81.668 298.427 82.3945C299.271 83.1211 300.478 83.8594 302.048 84.6094C303.618 85.3594 304.568 85.8516 304.896 86.0859C305.224 86.2969 305.388 86.4727 305.388 86.6133C305.388 88.957 305.704 91.9688 306.337 95.6484C306.97 99.3281 307.286 101.695 307.286 102.75C307.286 103.805 307.239 104.566 307.146 105.035C307.075 105.504 306.9 105.961 306.618 106.406C306.337 106.875 305.927 107.109 305.388 107.109C304.849 107.109 304.439 106.723 304.157 105.949C303.9 105.176 303.771 104.227 303.771 103.102C303.771 101.977 303.923 99.9609 304.228 97.0547C304.532 94.1719 304.685 91.9922 304.685 90.5156C304.685 87.5859 303.735 86.1211 301.837 86.1211C300.9 86.1211 300.196 86.2852 299.728 86.6133C299.282 86.9414 299.06 87.6094 299.06 88.6172C299.06 89.6484 299.271 91.2773 299.693 93.5039C300.114 95.7305 300.325 97.4062 300.325 98.5312C300.325 99.6797 299.892 100.254 299.025 100.254C298.157 100.254 297.724 99.6797 297.724 98.5312ZM274.31 51.7031L266.013 51.9492C262.614 51.9492 260.4 51.4453 259.368 50.4375L258.63 51.1055C259.568 52.0195 260.036 53.1914 260.036 54.6211V56.9766C260.036 58.3828 259.568 59.5547 258.63 60.4922L259.368 61.1953C260.376 60.1641 262.462 59.6484 265.626 59.6484L274.521 59.9648C276.888 59.9648 278.716 59.6602 280.005 59.0508C281.318 58.418 281.974 57.2695 281.974 55.6055C281.974 54.5508 281.61 53.7305 280.884 53.1445C280.157 52.5352 279.278 52.1484 278.247 51.9844C277.216 51.7969 275.903 51.7031 274.31 51.7031ZM356.381 76.1016C355.491 75.3984 355.045 74.5781 355.045 73.6406V73.3594C355.045 72.4219 355.467 71.5312 356.311 70.6875L355.819 70.2305C354.975 71.0742 354.096 71.4961 353.182 71.4961H349.772C348.342 71.4961 347.17 71.9531 346.256 72.8672L345.518 72.1289C346.455 71.1914 346.924 70.0312 346.924 68.6484V63.4453C346.924 62.0391 346.455 60.8672 345.518 59.9297L346.256 59.2266C347.147 60.1172 348.319 60.5625 349.772 60.5625H371.358C372.811 60.5625 373.983 60.1172 374.873 59.2266L375.541 59.9297C374.651 60.8203 374.205 61.9922 374.205 63.4453V78.1758C374.205 78.9023 374.299 79.4883 374.487 79.9336C374.698 80.3555 375.108 80.7305 375.717 81.0586L375.155 82.0781C374.733 81.8672 374.252 81.7617 373.713 81.7617C373.198 81.7617 372.6 81.9844 371.92 82.4297C366.483 86.0625 358.748 88.1016 348.717 88.5469V91.9219L349.28 95.8242C349.28 96.3867 349.163 96.8203 348.928 97.125C348.694 97.4297 348.424 97.582 348.12 97.582C347.838 97.582 347.58 97.4414 347.346 97.1602C347.112 96.8789 346.995 96.5977 346.995 96.3164C346.995 96.0586 347.041 95.6953 347.135 95.2266C347.416 93.7734 347.557 92.2969 347.557 90.7969C347.557 89.2969 347.452 88.5469 347.241 88.5469C342.647 88.5469 337.819 88.2305 332.756 87.5977C332.545 87.5273 332.44 88.7812 332.44 91.3594C332.44 93.9375 332.651 96.5977 333.073 99.3398C333.518 102.082 333.741 103.992 333.741 105.07C333.741 107.25 333.073 108.34 331.737 108.34C331.104 108.34 330.553 108.094 330.084 107.602C329.639 107.109 329.416 106.312 329.416 105.211C329.416 104.133 329.803 102.188 330.577 99.375C331.35 96.5859 331.737 94.4062 331.737 92.8359V87.3516C318.354 84.3516 311.663 76.2773 311.663 63.1289C311.663 53.1211 315.788 46.125 324.038 42.1406C328.795 39.8203 334.608 38.6602 341.475 38.6602C352.561 38.6602 361.069 40.8281 366.998 45.1641C370.209 47.5078 372.26 50.1797 373.151 53.1797C373.573 54.5859 374.323 55.6641 375.401 56.4141L374.873 57.1172C373.913 56.4141 372.647 56.0625 371.077 56.0625L356.241 56.5547C354.764 56.6484 353.768 57.2109 353.252 58.2422L352.092 57.6797C352.28 57.2812 352.373 56.8242 352.373 56.3086C352.373 55.793 351.975 55.0078 351.178 53.9531C350.381 52.875 349.28 52.0664 347.873 51.5273C346.491 50.9648 344.651 50.6836 342.354 50.6836C340.08 50.6836 338.229 51.0117 336.799 51.668C335.37 52.3242 334.233 53.2266 333.389 54.375C331.748 56.6953 330.928 59.7656 330.928 63.5859C330.928 67.4062 332.147 70.5586 334.584 73.043C337.045 75.5039 340.256 76.7344 344.217 76.7344C348.178 76.7344 351.19 76.4766 353.252 75.9609C353.627 75.8672 353.991 75.8203 354.342 75.8203C354.694 75.8203 355.233 76.1016 355.959 76.6641L356.381 76.1016ZM441.828 98.5312L442.601 91.2539C442.601 88.3008 441.394 86.0508 438.98 84.5039C436.59 82.9336 434.07 82.2422 431.422 82.4297C428.773 82.5938 426.922 83.4844 425.867 85.1016C425.328 85.875 425.058 86.7891 425.058 87.8438L424.883 97.2656C424.883 98.5547 425.082 100.465 425.48 102.996C425.879 105.551 426.078 107.473 426.078 108.762C426.078 111.035 425.433 112.172 424.144 112.172C422.855 112.172 422.211 111.07 422.211 108.867C422.211 107.414 422.422 105.328 422.843 102.609C423.265 99.8906 423.5 97.8281 423.547 96.4219C423.617 95.0156 423.652 92.0156 423.652 87.4219C423.652 86.2031 423.277 84.7969 422.527 83.2031C421.777 81.6094 420.593 79.418 418.976 76.6289C417.359 73.8398 416.035 71.3789 415.004 69.2461L413.949 68.6484C413.386 69.6797 412.39 70.1953 410.961 70.1953L408.008 70.3008C405.992 70.3008 404.48 69.8086 403.472 68.8242L402.734 69.5273C402.804 70.3945 402.84 72.2461 402.84 75.082L402.804 83.6953C402.804 86.2734 402.851 88.1719 402.945 89.3906L403.613 94.5586C403.613 95.5195 403.285 96 402.629 96C401.972 96 401.644 95.5547 401.644 94.6641L402.207 90.3047C402.207 89.25 401.89 88.4062 401.258 87.7734C400.648 87.1641 399.84 86.8594 398.832 86.8594C397.847 86.8594 396.968 87.293 396.195 88.1602C395.445 89.0508 395.07 90.1992 395.07 91.6055C395.07 93.0117 395.328 94.9102 395.843 97.3008C396.359 99.7148 396.617 101.449 396.617 102.504C396.617 104.707 395.832 105.809 394.261 105.809C392.691 105.809 391.906 104.73 391.906 102.574C391.906 101.566 392.129 99.8086 392.574 97.3008C393.043 94.793 393.277 92.8008 393.277 91.3242C393.277 89.8477 392.937 88.6289 392.258 87.668C391.578 86.7305 390.804 86.2617 389.937 86.2617C389.07 86.2617 388.332 86.5547 387.722 87.1406C387.113 87.75 386.808 88.5 386.808 89.3906L387.758 97.7227C387.758 99.1523 387.23 99.8672 386.175 99.8672C385.121 99.8672 384.593 99.1406 384.593 97.6875C384.593 96.8438 384.816 95.3672 385.261 93.2578C385.707 91.1719 385.918 89.543 385.894 88.3711C385.871 87.1992 385.859 72.0352 385.859 42.8789C385.859 41.4258 385.414 40.2656 384.523 39.3984L385.226 38.6953C386.14 39.5859 387.3 40.0312 388.707 40.0312H420.207C425.129 40.0312 428.433 40.1836 430.121 40.4883C431.832 40.7695 433.32 41.0742 434.586 41.4023C435.875 41.7305 436.953 42.1406 437.82 42.6328C438.711 43.1016 439.601 43.6992 440.492 44.4258C441.406 45.1289 442.133 45.9375 442.672 46.8516C443.914 48.9375 444.535 51.1523 444.535 53.4961C444.535 55.8398 444.347 57.7617 443.972 59.2617C443.621 60.7383 443.023 62.1328 442.179 63.4453C440.351 66.2812 437.14 67.6992 432.547 67.6992L432.265 68.5078C433.742 69.0938 434.726 69.9023 435.218 70.9336C437.281 75.4336 438.804 78.293 439.789 79.5117C440.773 80.707 441.687 81.668 442.531 82.3945C443.375 83.1211 444.582 83.8594 446.152 84.6094C447.722 85.3594 448.672 85.8516 449 86.0859C449.328 86.2969 449.492 86.4727 449.492 86.6133C449.492 88.957 449.808 91.9688 450.441 95.6484C451.074 99.3281 451.39 101.695 451.39 102.75C451.39 103.805 451.343 104.566 451.25 105.035C451.179 105.504 451.004 105.961 450.722 106.406C450.441 106.875 450.031 107.109 449.492 107.109C448.953 107.109 448.543 106.723 448.261 105.949C448.004 105.176 447.875 104.227 447.875 103.102C447.875 101.977 448.027 99.9609 448.332 97.0547C448.636 94.1719 448.789 91.9922 448.789 90.5156C448.789 87.5859 447.84 86.1211 445.941 86.1211C445.004 86.1211 444.3 86.2852 443.832 86.6133C443.386 86.9414 443.164 87.6094 443.164 88.6172C443.164 89.6484 443.375 91.2773 443.797 93.5039C444.218 95.7305 444.429 97.4062 444.429 98.5312C444.429 99.6797 443.996 100.254 443.129 100.254C442.261 100.254 441.828 99.6797 441.828 98.5312ZM418.414 51.7031L410.117 51.9492C406.718 51.9492 404.504 51.4453 403.472 50.4375L402.734 51.1055C403.672 52.0195 404.14 53.1914 404.14 54.6211V56.9766C404.14 58.3828 403.672 59.5547 402.734 60.4922L403.472 61.1953C404.48 60.1641 406.566 59.6484 409.73 59.6484L418.625 59.9648C420.992 59.9648 422.82 59.6602 424.109 59.0508C425.422 58.418 426.078 57.2695 426.078 55.6055C426.078 54.5508 425.715 53.7305 424.988 53.1445C424.261 52.5352 423.383 52.1484 422.351 51.9844C421.32 51.7969 420.008 51.7031 418.414 51.7031ZM475.454 105.949L475.841 96.5977C475.841 93.5742 475.724 91.6641 475.489 90.8672C475.278 90.0703 475.056 89.3672 474.821 88.7578C474.587 88.1484 474.282 87.6562 473.907 87.2812C473.532 86.9062 473.087 86.5547 472.571 86.2266C471.587 85.5703 470.04 85.2422 467.931 85.2422C465.821 85.2422 464.04 86.0977 462.587 87.8086C461.157 89.5195 460.442 91.5703 460.442 93.9609C460.442 94.8516 460.618 96.1758 460.97 97.9336C461.321 99.7148 461.497 101.051 461.497 101.941C461.497 103.629 460.899 104.473 459.704 104.473C458.509 104.473 457.911 103.652 457.911 102.012C457.911 101.098 458.087 99.7266 458.438 97.8984C458.813 96.0703 459.001 94.6875 459.001 93.75L459.247 84.3281V43.0195C459.247 41.5664 458.79 40.3945 457.876 39.5039L458.579 38.7656C459.563 39.7031 460.735 40.1719 462.095 40.1719H474.821C476.228 40.1719 477.399 39.7031 478.337 38.7656L479.04 39.5039C478.126 40.418 477.669 41.5898 477.669 43.0195V84.1523C477.669 85.3711 477.54 87.4688 477.282 90.4453C477.024 93.4453 476.942 95.7539 477.036 97.3711H477.001C477.868 101.262 478.302 104.227 478.302 106.266C478.302 108.305 477.915 109.324 477.142 109.324C476.017 109.324 475.454 108.199 475.454 105.949ZM509.397 95.6836L510.1 90.6914C510.1 90.1289 509.983 89.3672 509.748 88.4062C509.537 87.4688 509.233 87 508.834 87H494.069C492.686 87 491.526 87.457 490.588 88.3711L489.885 87.668C490.776 86.7773 491.221 85.6055 491.221 84.1523V43.0195C491.221 41.543 490.776 40.3711 489.885 39.5039L490.588 38.7656C491.549 39.7031 492.709 40.1719 494.069 40.1719H523.143C537.158 40.1719 545.854 44.7305 549.229 53.8477C550.166 56.4258 550.635 59.3555 550.635 62.6367C550.635 71.918 548.127 78.4102 543.112 82.1133C539.666 84.668 534.498 86.2031 527.608 86.7188C524.936 86.9297 521.854 87.0234 518.362 87C514.869 87 512.83 87 512.244 87C511.846 87 511.506 87.5625 511.225 88.6875C510.944 89.8125 510.803 90.6562 510.803 91.2188L511.401 95.7188C511.401 96.6094 511.061 97.0547 510.381 97.0547C509.725 97.0547 509.397 96.5977 509.397 95.6836ZM529.506 71.4961C530.209 70.5586 530.76 69.3516 531.158 67.875C531.557 66.375 531.756 64.582 531.756 62.4961C531.756 60.3867 531.405 58.6289 530.701 57.2227C529.998 55.8164 529.061 54.7852 527.889 54.1289C526.717 53.4727 525.416 52.9922 523.987 52.6875C522.557 52.3594 521.057 52.1836 519.487 52.1602C517.94 52.1133 516.487 52.0781 515.127 52.0547C511.799 52.0078 509.666 51.5156 508.729 50.5781L508.026 51.2812C508.94 52.1719 509.397 53.3438 509.397 54.7969C509.397 65.2734 509.42 72 509.467 74.9766H517.448C521.432 74.9766 524.256 74.625 525.92 73.9219C527.608 73.2188 528.803 72.4102 529.506 71.4961Z" fill="url(#paint0_linear_0_1)"/>
</g>
<path d="M22 0L26.4903 12.4377H41.0211L29.2654 20.1246L33.7557 32.5623L22 24.8754L10.2443 32.5623L14.7346 20.1246L2.97887 12.4377H17.5097L22 0Z" fill="#93F625"/>
<defs>
<filter id="filter0_d_0_1" x="0.951563" y="27.5648" width="559.583" height="97.7062" filterUnits="userSpaceOnUse" color-interpolation-filters="sRGB">
<feFlood flood-opacity="0" result="BackgroundImageFix"/>
<feColorMatrix in="SourceAlpha" type="matrix" values="0 0 0 0 0 0 0 0 0 0 0 0 0 0 0 0 0 0 127 0" result="hardAlpha"/>
<feOffset/>
<feGaussianBlur stdDeviation="4.95"/>
<feComposite in2="hardAlpha" operator="out"/>
<feColorMatrix type="matrix" values="0 0 0 0 0 0 0 0 0 0 0 0 0 0 0 0 0 0 0.25 0"/>
<feBlend mode="normal" in2="BackgroundImageFix" result="effect1_dropShadow_0_1"/>
<feBlend mode="normal" in="SourceGraphic" in2="effect1_dropShadow_0_1" result="shape"/>
</filter>
<linearGradient id="paint0_linear_0_1" x1="6" y1="73" x2="555" y2="73" gradientUnits="userSpaceOnUse">
<stop stop-color="#93F625"/>
<stop offset="1" stop-color="#569016"/>
</linearGradient>
</defs>
</svg>
