<svg width="592" height="109" viewBox="0 0 592 109" fill="none" xmlns="http://www.w3.org/2000/svg">
<g filter="url(#filter0_i_0_1)">
<path d="M35.855 92C32.111 92 29.654 91.727 28.484 91.181C27.314 90.635 26.495 89.699 26.027 88.373L0.17 17.003C0.17 15.521 2.939 13.805 8.477 11.855C14.093 9.90499 19.748 8.93 25.442 8.93C32.774 8.93 36.674 11.231 37.142 15.833L41.12 52.922H42.758L46.034 15.833C46.424 11.231 51.689 8.93 61.829 8.93C65.729 8.93 68.342 9.476 69.668 10.568C70.994 11.582 71.735 12.947 71.891 14.663L75.752 52.922H77.39L80.432 15.833C80.666 13.571 83.318 11.855 88.388 10.685C93.536 9.51499 98.606 8.93 103.598 8.93C108.668 8.93 112.1 9.671 113.894 11.153C115.766 12.635 116.702 14.195 116.702 15.833L91.664 88.373C90.806 90.791 85.034 92 74.348 92C71.15 92 69.005 91.727 67.913 91.181C66.821 90.635 66.08 89.699 65.69 88.373L59.606 68.015H58.202L52.001 88.373C51.299 90.791 45.917 92 35.855 92Z" fill="#CE22FF"/>
</g>
<g filter="url(#filter1_i_0_1)">
<path d="M144.325 93.053C137.227 93.053 131.65 91.376 127.594 88.022C125.956 86.618 124.513 84.551 123.265 81.821C122.095 79.091 121.51 75.893 121.51 72.227C121.51 68.561 122.368 65.363 124.084 62.633C125.878 59.903 128.023 57.797 130.519 56.315C133.015 54.833 135.94 53.624 139.294 52.688C144.364 51.362 149.941 50.699 156.025 50.699H159.886C159.886 47.501 158.794 45.239 156.61 43.913C155.674 43.367 154.231 43.094 152.281 43.094C150.409 43.094 148.108 43.601 145.378 44.615C142.726 45.629 140.503 46.682 138.709 47.774C136.915 48.788 135.706 49.295 135.082 49.295C133.678 49.295 131.767 47.462 129.349 43.796C126.931 40.052 125.722 36.659 125.722 33.617C125.722 32.603 127.165 31.277 130.051 29.639C132.937 28.001 136.993 26.519 142.219 25.193C147.523 23.789 152.671 23.087 157.663 23.087C162.655 23.087 166.945 23.516 170.533 24.374C174.199 25.154 177.163 26.129 179.425 27.299C181.765 28.469 183.715 30.029 185.275 31.979C186.913 33.929 188.122 35.684 188.902 37.244C189.76 38.804 190.384 40.832 190.774 43.328C191.32 46.214 191.593 49.763 191.593 53.975V89.192C191.593 90.05 189.487 90.752 185.275 91.298C181.141 91.766 177.007 92 172.873 92C168.817 92 166.165 91.883 164.917 91.649C163.747 91.415 163.045 91.142 162.811 90.83C162.577 90.518 162.382 89.972 162.226 89.192L161.29 82.523H160.354C158.404 89.543 153.061 93.053 144.325 93.053ZM160.003 73.631V59.942C157.975 59.942 156.337 60.8 155.089 62.516C153.841 64.232 153.217 66.182 153.217 68.366C153.217 73.514 154.387 76.088 156.727 76.088C157.741 76.088 158.521 75.854 159.067 75.386C159.691 74.84 160.003 74.255 160.003 73.631Z" fill="#E52259"/>
</g>
<g filter="url(#filter2_i_0_1)">
<path d="M241.685 55.028V89.192C241.685 90.05 239.462 90.752 235.016 91.298C230.648 91.766 226.085 92 221.327 92C216.647 92 213.605 91.805 212.201 91.415C210.797 90.947 210.095 90.206 210.095 89.192V31.511C210.095 30.029 212.24 28.43 216.53 26.714C220.898 24.998 225.617 24.14 230.687 24.14C235.835 24.14 238.721 25.544 239.345 28.352L240.515 33.734H241.334C242.426 30.77 245.039 28.274 249.173 26.246C253.307 24.14 257.441 23.087 261.575 23.087C265.709 23.087 268.595 23.75 270.233 25.076C271.949 26.402 272.807 28.118 272.807 30.224C272.807 32.252 272.651 34.865 272.339 38.063C272.027 41.261 271.247 44.732 269.999 48.476C268.829 52.22 267.269 54.092 265.319 54.092C264.539 54.092 262.082 53.507 257.948 52.337C253.814 51.167 250.382 50.582 247.652 50.582C245 50.582 243.323 50.972 242.621 51.752C241.997 52.532 241.685 53.624 241.685 55.028Z" fill="#FF4B4B"/>
</g>
<g filter="url(#filter3_i_0_1)">
<path d="M289.095 106.157V31.745C289.095 30.107 291.279 28.43 295.647 26.714C300.015 24.998 304.734 24.14 309.804 24.14C312.144 24.14 313.977 24.413 315.303 24.959C316.629 25.505 317.448 26.051 317.76 26.597C318.072 27.143 318.657 29.483 319.515 33.617H320.451C320.607 32.915 321.309 31.823 322.557 30.341C323.805 28.859 325.053 27.65 326.301 26.714C327.627 25.778 329.499 24.959 331.917 24.257C334.335 23.477 337.143 23.087 340.341 23.087C343.617 23.087 346.581 23.828 349.233 25.31C351.885 26.714 353.835 28.391 355.083 30.341C356.409 32.213 357.423 34.631 358.125 37.595C358.905 40.481 359.334 42.821 359.412 44.615C359.568 46.331 359.646 48.866 359.646 52.22C359.646 55.496 359.529 58.772 359.295 62.048C359.061 65.246 358.632 68.522 358.008 71.876C357.384 75.23 356.487 78.116 355.317 80.534C354.147 82.952 352.665 85.136 350.871 87.086C347.283 90.986 342.018 92.936 335.076 92.936C332.58 92.936 330.357 92.585 328.407 91.883C326.535 91.103 325.131 90.206 324.195 89.192C322.245 87.086 321.114 85.214 320.802 83.576L320.685 82.406H319.749L321.387 92.936V106.157C321.387 107.015 319.125 107.678 314.601 108.146C310.155 108.692 305.553 108.965 300.795 108.965C296.115 108.965 292.995 108.731 291.435 108.263C289.875 107.873 289.095 107.171 289.095 106.157ZM327.939 57.719C327.939 51.089 327.588 46.448 326.886 43.796C326.184 41.144 325.131 39.818 323.727 39.818C322.323 39.818 321.309 40.598 320.685 42.158V72.812C320.685 74.84 321.738 75.854 323.844 75.854C326.574 75.854 327.939 69.809 327.939 57.719Z" fill="#D6E830"/>
</g>
<g filter="url(#filter4_i_0_1)">
<path d="M410.323 88.607C410.323 89.621 407.905 90.44 403.069 91.064C398.311 91.688 393.553 92 388.795 92C384.037 92 380.995 91.727 379.669 91.181C378.343 90.635 377.68 89.777 377.68 88.607V16.769C377.68 14.819 379.903 13.025 384.349 11.387C388.873 9.749 393.982 8.93 399.676 8.93C401.704 8.93 403.225 9.008 404.239 9.164C406.891 9.554 408.763 11.231 409.855 14.195L421.087 44.381H421.555V16.769C421.555 14.819 423.778 13.025 428.224 11.387C432.67 9.749 437.74 8.93 443.434 8.93C448.348 8.93 451.468 9.866 452.794 11.738C453.73 13.064 454.198 14.273 454.198 15.365V88.607C454.198 89.621 451.78 90.44 446.944 91.064C442.186 91.688 436.921 92 431.149 92C425.455 92 422.335 91.259 421.789 89.777L410.908 60.995H410.323V88.607Z" fill="#7DF129"/>
</g>
<g filter="url(#filter5_i_0_1)">
<path d="M498.27 31.511V89.192C498.27 90.05 496.008 90.752 491.484 91.298C487.038 91.766 482.436 92 477.678 92C472.998 92 469.956 91.805 468.552 91.415C467.226 90.947 466.563 90.206 466.563 89.192V33.617C466.563 31.901 468.747 30.224 473.115 28.586C477.561 26.87 482.397 26.012 487.623 26.012C494.721 26.012 498.27 27.845 498.27 31.511ZM482.358 0.739996C487.506 0.739996 491.523 1.52 494.409 3.07999C497.373 4.56199 498.855 7.29199 498.855 11.27C498.855 18.29 493.395 21.8 482.475 21.8C471.555 21.8 466.095 18.29 466.095 11.27C466.095 4.25 471.516 0.739996 482.358 0.739996Z" fill="#1EFFF7"/>
</g>
<g filter="url(#filter6_i_0_1)">
<path d="M548.802 87.554C548.178 90.518 544.707 92 538.389 92C532.071 92 526.338 91.649 521.19 90.947C516.12 90.167 513.585 88.997 513.585 87.437C513.585 86.501 515.223 83.576 518.499 78.662C521.775 73.748 526.728 66.845 533.358 57.953C520.878 40.949 514.638 32.057 514.638 31.277C514.638 29.795 517.368 28.235 522.828 26.597C528.288 24.959 532.89 24.14 536.634 24.14C540.378 24.14 543.264 24.608 545.292 25.544C547.398 26.402 548.568 27.377 548.802 28.469L553.95 46.37H555.003L556.875 29.522C556.953 29.054 557.85 28.43 559.566 27.65C561.36 26.792 563.739 26.012 566.703 25.31C569.667 24.53 572.514 24.14 575.244 24.14C585.54 24.14 590.688 25.895 590.688 29.405C590.688 30.497 589.167 33.578 586.125 38.648C583.083 43.64 578.52 50.621 572.436 59.591C585.384 77.141 591.858 86.423 591.858 87.437C591.858 90.479 587.451 92 578.637 92C564.987 92 557.85 90.518 557.226 87.554L552.663 72.227H551.844L548.802 87.554Z" fill="#FF55B8"/>
</g>
<defs>
<filter id="filter0_i_0_1" x="0.169983" y="8.93005" width="116.532" height="83.0699" filterUnits="userSpaceOnUse" color-interpolation-filters="sRGB">
<feFlood flood-opacity="0" result="BackgroundImageFix"/>
<feBlend mode="normal" in="SourceGraphic" in2="BackgroundImageFix" result="shape"/>
<feColorMatrix in="SourceAlpha" type="matrix" values="0 0 0 0 0 0 0 0 0 0 0 0 0 0 0 0 0 0 127 0" result="hardAlpha"/>
<feOffset/>
<feGaussianBlur stdDeviation="3"/>
<feComposite in2="hardAlpha" operator="arithmetic" k2="-1" k3="1"/>
<feColorMatrix type="matrix" values="0 0 0 0 0 0 0 0 0 0 0 0 0 0 0 0 0 0 0.25 0"/>
<feBlend mode="normal" in2="shape" result="effect1_innerShadow_0_1"/>
</filter>
<filter id="filter1_i_0_1" x="121.51" y="23.087" width="70.083" height="69.9659" filterUnits="userSpaceOnUse" color-interpolation-filters="sRGB">
<feFlood flood-opacity="0" result="BackgroundImageFix"/>
<feBlend mode="normal" in="SourceGraphic" in2="BackgroundImageFix" result="shape"/>
<feColorMatrix in="SourceAlpha" type="matrix" values="0 0 0 0 0 0 0 0 0 0 0 0 0 0 0 0 0 0 127 0" result="hardAlpha"/>
<feOffset/>
<feGaussianBlur stdDeviation="3"/>
<feComposite in2="hardAlpha" operator="arithmetic" k2="-1" k3="1"/>
<feColorMatrix type="matrix" values="0 0 0 0 0 0 0 0 0 0 0 0 0 0 0 0 0 0 0.25 0"/>
<feBlend mode="normal" in2="shape" result="effect1_innerShadow_0_1"/>
</filter>
<filter id="filter2_i_0_1" x="210.095" y="23.087" width="62.712" height="68.913" filterUnits="userSpaceOnUse" color-interpolation-filters="sRGB">
<feFlood flood-opacity="0" result="BackgroundImageFix"/>
<feBlend mode="normal" in="SourceGraphic" in2="BackgroundImageFix" result="shape"/>
<feColorMatrix in="SourceAlpha" type="matrix" values="0 0 0 0 0 0 0 0 0 0 0 0 0 0 0 0 0 0 127 0" result="hardAlpha"/>
<feOffset/>
<feGaussianBlur stdDeviation="3"/>
<feComposite in2="hardAlpha" operator="arithmetic" k2="-1" k3="1"/>
<feColorMatrix type="matrix" values="0 0 0 0 0 0 0 0 0 0 0 0 0 0 0 0 0 0 0.25 0"/>
<feBlend mode="normal" in2="shape" result="effect1_innerShadow_0_1"/>
</filter>
<filter id="filter3_i_0_1" x="289.095" y="23.087" width="70.551" height="85.8779" filterUnits="userSpaceOnUse" color-interpolation-filters="sRGB">
<feFlood flood-opacity="0" result="BackgroundImageFix"/>
<feBlend mode="normal" in="SourceGraphic" in2="BackgroundImageFix" result="shape"/>
<feColorMatrix in="SourceAlpha" type="matrix" values="0 0 0 0 0 0 0 0 0 0 0 0 0 0 0 0 0 0 127 0" result="hardAlpha"/>
<feOffset/>
<feGaussianBlur stdDeviation="3"/>
<feComposite in2="hardAlpha" operator="arithmetic" k2="-1" k3="1"/>
<feColorMatrix type="matrix" values="0 0 0 0 0 0 0 0 0 0 0 0 0 0 0 0 0 0 0.25 0"/>
<feBlend mode="normal" in2="shape" result="effect1_innerShadow_0_1"/>
</filter>
<filter id="filter4_i_0_1" x="377.68" y="8.93005" width="76.518" height="83.0699" filterUnits="userSpaceOnUse" color-interpolation-filters="sRGB">
<feFlood flood-opacity="0" result="BackgroundImageFix"/>
<feBlend mode="normal" in="SourceGraphic" in2="BackgroundImageFix" result="shape"/>
<feColorMatrix in="SourceAlpha" type="matrix" values="0 0 0 0 0 0 0 0 0 0 0 0 0 0 0 0 0 0 127 0" result="hardAlpha"/>
<feOffset/>
<feGaussianBlur stdDeviation="3"/>
<feComposite in2="hardAlpha" operator="arithmetic" k2="-1" k3="1"/>
<feColorMatrix type="matrix" values="0 0 0 0 0 0 0 0 0 0 0 0 0 0 0 0 0 0 0.25 0"/>
<feBlend mode="normal" in2="shape" result="effect1_innerShadow_0_1"/>
</filter>
<filter id="filter5_i_0_1" x="466.095" y="0.73999" width="32.76" height="91.26" filterUnits="userSpaceOnUse" color-interpolation-filters="sRGB">
<feFlood flood-opacity="0" result="BackgroundImageFix"/>
<feBlend mode="normal" in="SourceGraphic" in2="BackgroundImageFix" result="shape"/>
<feColorMatrix in="SourceAlpha" type="matrix" values="0 0 0 0 0 0 0 0 0 0 0 0 0 0 0 0 0 0 127 0" result="hardAlpha"/>
<feOffset/>
<feGaussianBlur stdDeviation="3"/>
<feComposite in2="hardAlpha" operator="arithmetic" k2="-1" k3="1"/>
<feColorMatrix type="matrix" values="0 0 0 0 0 0 0 0 0 0 0 0 0 0 0 0 0 0 0.25 0"/>
<feBlend mode="normal" in2="shape" result="effect1_innerShadow_0_1"/>
</filter>
<filter id="filter6_i_0_1" x="513.585" y="24.14" width="78.273" height="67.86" filterUnits="userSpaceOnUse" color-interpolation-filters="sRGB">
<feFlood flood-opacity="0" result="BackgroundImageFix"/>
<feBlend mode="normal" in="SourceGraphic" in2="BackgroundImageFix" result="shape"/>
<feColorMatrix in="SourceAlpha" type="matrix" values="0 0 0 0 0 0 0 0 0 0 0 0 0 0 0 0 0 0 127 0" result="hardAlpha"/>
<feOffset/>
<feGaussianBlur stdDeviation="3"/>
<feComposite in2="hardAlpha" operator="arithmetic" k2="-1" k3="1"/>
<feColorMatrix type="matrix" values="0 0 0 0 0 0 0 0 0 0 0 0 0 0 0 0 0 0 0.25 0"/>
<feBlend mode="normal" in2="shape" result="effect1_innerShadow_0_1"/>
</filter>
</defs>
</svg>
