<svg width="731" height="143" viewBox="0 0 731 143" fill="none" xmlns="http://www.w3.org/2000/svg">
<path d="M17.0434 86.2038L19.9982 84.7521L18.7298 81.714C17.9591 79.868 17.5909 78.855 17.5909 78C17.5909 70.803 24.72 63.5 35.2273 63.5C39.3232 63.5 42.9041 64.8938 46.0251 66.8872L48.9442 68.7516L50.839 65.8521C58.6346 53.923 73.0221 45.5 90.1818 45.5C114.17 45.5 132.477 61.8846 132.477 80.8125V83.0625V85.5473L134.823 86.3667C145.086 89.9516 151.5 97.8677 151.5 106.688C151.5 118.26 140.29 128.5 124.705 128.5H31.1186C15.2233 127.399 3.5 117.546 3.5 105.562C3.5 97.6367 8.7845 90.2615 17.0434 86.2038Z" fill="white" stroke="black" stroke-width="7"/>
<g filter="url(#filter0_d_0_1)">
<path d="M155 64.6875C155 78.75 144.636 90 131.545 90H59C45.9091 88.875 35 78.1875 35 63.5625C35 54 39.9091 45.5625 47 41.0625C46.4545 39.375 45.9091 37.6875 45.9091 36C45.9091 26.4375 53 18 62.2727 18C66.0909 18 69.3636 19.6875 72.0909 21.9375C78.6364 9 90.6364 0 104.818 0C124.455 0 140.273 17.4375 140.273 38.8125V41.0625C149 45 155 54 155 64.6875Z" fill="white"/>
<path d="M48.3396 43.1733L49.9743 42.1359L49.3788 40.2936C48.8073 38.5254 48.4091 37.2228 48.4091 36C48.4091 27.5285 54.6537 20.5 62.2727 20.5C65.3129 20.5 68.0401 21.8365 70.5 23.8659L72.9108 25.8548L74.3217 23.0661C80.5409 10.7733 91.7807 2.5 104.818 2.5C122.861 2.5 137.773 18.5952 137.773 38.8125V41.0625V42.6772L139.245 43.3413C147.049 46.8624 152.5 54.953 152.5 64.6875C152.5 77.5565 143.076 87.5 131.545 87.5H59.1099C47.3034 86.4339 37.5 76.7964 37.5 63.5625C37.5 54.8465 41.9792 47.2097 48.3396 43.1733Z" stroke="black" stroke-width="5"/>
</g>
<g filter="url(#filter1_d_0_1)">
<path d="M197 109.688C197 123.75 186.636 135 173.545 135H101C87.9091 133.875 77 123.187 77 108.562C77 99 81.9091 90.5625 89 86.0625C88.4545 84.375 87.9091 82.6875 87.9091 81C87.9091 71.4375 95 63 104.273 63C108.091 63 111.364 64.6875 114.091 66.9375C120.636 54 132.636 45 146.818 45C166.455 45 182.273 62.4375 182.273 83.8125V86.0625C191 90 197 99 197 109.688Z" fill="white"/>
<path d="M90.3396 88.1733L91.9743 87.1359L91.3788 85.2936C90.8073 83.5254 90.4091 82.2228 90.4091 81C90.4091 72.5285 96.6537 65.5 104.273 65.5C107.313 65.5 110.04 66.8365 112.5 68.8659L114.911 70.8548L116.322 68.0661C122.541 55.7733 133.781 47.5 146.818 47.5C164.861 47.5 179.773 63.5952 179.773 83.8125V86.0625V87.6772L181.245 88.3413C189.049 91.8624 194.5 99.953 194.5 109.688C194.5 122.557 185.076 132.5 173.545 132.5H101.11C89.3034 131.434 79.5 121.796 79.5 108.562C79.5 99.8465 83.9792 92.2097 90.3396 88.1733Z" stroke="black" stroke-width="5"/>
</g>
<path d="M274.999 120H225.391C221.569 120 218.995 119.727 217.669 119.181C216.343 118.635 215.68 117.777 215.68 116.607V42.546C215.68 40.518 216.577 39.075 218.371 38.217C220.243 37.359 223.558 36.93 228.316 36.93H275.35C276.988 36.93 277.807 39.66 277.807 45.12C277.807 50.502 277.456 54.636 276.754 57.522C276.052 60.33 275.116 61.734 273.946 61.734C268.876 61.734 260.335 61.227 248.323 60.213V68.052C259.867 67.584 267.394 67.35 270.904 67.35C273.01 67.35 274.063 69.807 274.063 74.721C274.063 79.635 273.634 83.379 272.776 85.953C271.996 88.449 270.904 89.697 269.5 89.697L248.323 89.229V96.717C261.895 95.703 271.255 95.196 276.403 95.196C278.041 95.196 278.86 97.926 278.86 103.386C278.86 108.846 278.509 112.98 277.807 115.788C277.105 118.596 276.169 120 274.999 120ZM302.769 118.011C300.897 117.153 298.869 115.866 296.685 114.15C294.579 112.434 292.824 110.406 291.42 108.066C288.144 102.45 286.506 95.118 286.506 86.07C286.506 80.454 287.403 75.462 289.197 71.094C290.991 66.648 293.175 63.216 295.749 60.798C298.323 58.38 301.287 56.391 304.641 54.831C310.023 52.335 315.405 51.087 320.787 51.087C329.835 51.087 336.114 51.789 339.624 53.193C343.212 54.597 345.006 56.976 345.006 60.33C345.006 63.684 344.382 67.272 343.134 71.094C341.964 74.838 340.404 76.71 338.454 76.71C337.83 76.71 335.919 76.047 332.721 74.721C329.601 73.395 326.871 72.732 324.531 72.732C322.269 72.732 320.514 73.668 319.266 75.54C318.096 77.334 317.511 80.883 317.511 86.187C317.511 91.413 318.057 95.001 319.149 96.951C320.241 98.823 321.918 99.759 324.18 99.759C326.52 99.759 329.406 98.979 332.838 97.419C336.27 95.859 338.181 95.079 338.571 95.079C340.053 95.079 341.457 96.834 342.783 100.344C344.187 103.854 344.889 106.974 344.889 109.704C344.889 113.916 342.705 116.88 338.337 118.596C333.969 120.234 328.041 121.053 320.553 121.053C313.143 121.053 307.215 120.039 302.769 118.011ZM391.198 117.192V84.666C391.198 78.816 390.964 74.565 390.496 71.913C390.028 69.261 388.897 67.935 387.103 67.935C385.543 67.935 384.763 68.988 384.763 71.094V117.192C384.763 118.05 382.501 118.752 377.977 119.298C373.453 119.766 368.812 120 364.054 120C359.296 120 356.293 119.805 355.045 119.415C353.797 118.947 353.173 118.206 353.173 117.192V36.111C353.173 34.473 355.435 32.835 359.959 31.197C364.483 29.559 369.241 28.74 374.233 28.74C379.459 28.74 382.774 29.715 384.178 31.665C384.646 32.289 384.88 32.952 384.88 33.654V50.853L383.593 58.926H384.412C385.504 57.288 387.22 55.845 389.56 54.597C393.928 52.257 398.686 51.087 403.834 51.087C411.244 51.087 416.236 53.466 418.81 58.224C421.462 62.904 422.788 70.548 422.788 81.156V117.192C422.788 118.05 420.487 118.752 415.885 119.298C411.361 119.766 406.72 120 401.962 120C397.282 120 394.318 119.805 393.07 119.415C391.822 118.947 391.198 118.206 391.198 117.192ZM468.189 121.053C462.339 121.053 457.308 120.546 453.096 119.532C448.884 118.518 445.062 116.724 441.63 114.15C434.532 109.002 430.983 99.408 430.983 85.368C430.983 72.888 434.61 63.957 441.864 58.575C448.65 53.583 457.425 51.087 468.189 51.087C472.791 51.087 476.73 51.321 480.006 51.789C483.282 52.179 486.597 53.076 489.951 54.48C493.383 55.884 496.113 57.795 498.141 60.213C500.247 62.631 501.963 65.985 503.289 70.275C504.615 74.487 505.278 79.518 505.278 85.368C505.278 97.224 501.924 106.155 495.216 112.161C488.508 118.089 479.499 121.053 468.189 121.053ZM464.094 98.238C464.64 101.046 465.186 102.723 465.732 103.269C466.356 103.815 467.136 104.088 468.072 104.088C469.086 104.088 469.866 103.815 470.412 103.269C471.036 102.723 471.582 101.046 472.05 98.238C472.596 95.43 472.869 91.92 472.869 87.708C472.869 83.418 472.752 80.142 472.518 77.88C472.362 75.54 472.128 73.746 471.816 72.498C471.582 71.25 471.231 70.275 470.763 69.573C470.061 68.559 469.203 68.052 468.189 68.052C467.253 68.052 466.473 68.364 465.849 68.988C465.225 69.534 464.64 71.25 464.094 74.136C463.548 76.944 463.275 80.961 463.275 86.187C463.275 91.413 463.548 95.43 464.094 98.238ZM572.62 119.181C569.5 119.883 566.302 120.351 563.026 120.585C559.828 120.897 556.669 121.053 553.549 121.053C550.507 121.053 548.128 120.975 546.412 120.819C544.774 120.663 542.59 120.273 539.86 119.649C537.13 119.025 534.634 118.167 532.372 117.075C530.11 115.983 527.692 114.384 525.118 112.278C522.622 110.172 520.516 107.676 518.8 104.79C514.822 98.082 512.833 89.424 512.833 78.816C512.833 71.718 513.925 65.439 516.109 59.979C518.371 54.519 521.062 50.307 524.182 47.343C527.38 44.379 531.007 42 535.063 40.206C541.615 37.242 548.206 35.76 554.836 35.76C564.352 35.76 571.177 36.54 575.311 38.1C577.183 38.802 578.86 39.894 580.342 41.376C581.824 42.858 582.565 45.003 582.565 47.811C582.565 50.619 581.863 54.168 580.459 58.458C579.133 62.748 577.183 64.893 574.609 64.893C573.829 64.893 570.943 64.269 565.951 63.021C560.959 61.773 557.566 61.149 555.772 61.149C553.042 61.149 550.702 62.67 548.752 65.712C546.88 68.754 545.944 73.083 545.944 78.699C545.944 84.315 546.763 88.683 548.401 91.803C550.117 94.923 552.34 96.483 555.07 96.483C557.02 96.483 560.53 95.703 565.6 94.143C570.748 92.505 573.751 91.686 574.609 91.686C577.027 91.686 578.899 93.909 580.225 98.355C581.629 102.801 582.331 106.389 582.331 109.119C582.331 111.849 581.473 114.033 579.757 115.671C578.119 117.231 575.74 118.401 572.62 119.181ZM622.959 83.028V117.192C622.959 118.05 620.736 118.752 616.29 119.298C611.922 119.766 607.359 120 602.601 120C597.921 120 594.879 119.805 593.475 119.415C592.071 118.947 591.369 118.206 591.369 117.192V59.511C591.369 58.029 593.514 56.43 597.804 54.714C602.172 52.998 606.891 52.14 611.961 52.14C617.109 52.14 619.995 53.544 620.619 56.352L621.789 61.734H622.608C623.7 58.77 626.313 56.274 630.447 54.246C634.581 52.14 638.715 51.087 642.849 51.087C646.983 51.087 649.869 51.75 651.507 53.076C653.223 54.402 654.081 56.118 654.081 58.224C654.081 60.252 653.925 62.865 653.613 66.063C653.301 69.261 652.521 72.732 651.273 76.476C650.103 80.22 648.543 82.092 646.593 82.092C645.813 82.092 643.356 81.507 639.222 80.337C635.088 79.167 631.656 78.582 628.926 78.582C626.274 78.582 624.597 78.972 623.895 79.752C623.271 80.532 622.959 81.624 622.959 83.028ZM700.523 112.395V105.492H699.587C699.197 105.882 698.612 106.389 697.832 107.013C697.052 107.637 695.219 108.456 692.333 109.47C689.447 110.484 686.21 110.991 682.622 110.991C679.112 110.991 675.992 110.445 673.262 109.353C670.61 108.183 668.504 106.662 666.944 104.79C665.384 102.84 664.175 100.266 663.317 97.068C661.835 91.998 661.094 84.822 661.094 75.54V59.394C661.094 57.756 663.395 56.157 667.997 54.597C672.599 52.959 677.435 52.14 682.505 52.14C689.291 52.14 692.684 53.895 692.684 57.405V72.147C692.684 87.747 693.932 95.547 696.428 95.547C697.91 95.547 698.651 94.494 698.651 92.388V59.394C698.651 57.756 701.108 56.157 706.022 54.597C710.936 52.959 716.201 52.14 721.817 52.14C727.433 52.14 730.241 53.661 730.241 56.703V112.044C730.241 129.438 718.463 138.135 694.907 138.135C682.505 138.135 674.081 136.926 669.635 134.508C667.685 133.416 666.71 132.285 666.71 131.115C666.71 129.243 667.49 126.084 669.05 121.638C670.61 117.27 672.053 115.086 673.379 115.086C673.691 115.086 674.783 115.32 676.655 115.788C682.427 117.348 687.224 118.128 691.046 118.128C694.946 118.128 697.481 117.699 698.651 116.841C699.899 115.983 700.523 114.501 700.523 112.395Z" fill="#289ADB"/>
<defs>
<filter id="filter0_d_0_1" x="31" y="0" width="128" height="98" filterUnits="userSpaceOnUse" color-interpolation-filters="sRGB">
<feFlood flood-opacity="0" result="BackgroundImageFix"/>
<feColorMatrix in="SourceAlpha" type="matrix" values="0 0 0 0 0 0 0 0 0 0 0 0 0 0 0 0 0 0 127 0" result="hardAlpha"/>
<feOffset dy="4"/>
<feGaussianBlur stdDeviation="2"/>
<feComposite in2="hardAlpha" operator="out"/>
<feColorMatrix type="matrix" values="0 0 0 0 0 0 0 0 0 0 0 0 0 0 0 0 0 0 0.25 0"/>
<feBlend mode="normal" in2="BackgroundImageFix" result="effect1_dropShadow_0_1"/>
<feBlend mode="normal" in="SourceGraphic" in2="effect1_dropShadow_0_1" result="shape"/>
</filter>
<filter id="filter1_d_0_1" x="73" y="45" width="128" height="98" filterUnits="userSpaceOnUse" color-interpolation-filters="sRGB">
<feFlood flood-opacity="0" result="BackgroundImageFix"/>
<feColorMatrix in="SourceAlpha" type="matrix" values="0 0 0 0 0 0 0 0 0 0 0 0 0 0 0 0 0 0 127 0" result="hardAlpha"/>
<feOffset dy="4"/>
<feGaussianBlur stdDeviation="2"/>
<feComposite in2="hardAlpha" operator="out"/>
<feColorMatrix type="matrix" values="0 0 0 0 0 0 0 0 0 0 0 0 0 0 0 0 0 0 0.25 0"/>
<feBlend mode="normal" in2="BackgroundImageFix" result="effect1_dropShadow_0_1"/>
<feBlend mode="normal" in="SourceGraphic" in2="effect1_dropShadow_0_1" result="shape"/>
</filter>
</defs>
</svg>
