<svg width="170" height="41" viewBox="0 0 170 41" fill="none" xmlns="http://www.w3.org/2000/svg">
<g filter="url(#filter0_d_0_1)">
<mask id="path-1-outside-1_0_1" maskUnits="userSpaceOnUse" x="0" y="0" width="170" height="41" fill="black">
<rect fill="white" width="170" height="41"/>
<path d="M4.30859 21.2344C4.30859 10.8958 8.37109 5.72656 16.4961 5.72656C19.7122 5.72656 22.2188 6.39714 24.0156 7.73828C25.8255 9.06641 27.069 10.8633 27.7461 13.1289C28.4362 15.3815 28.7812 18.0833 28.7812 21.2344C28.7812 25.8698 27.8307 29.5547 25.9297 32.2891C24.0286 35.0234 20.8841 36.3906 16.4961 36.3906C12.082 36.3906 8.94401 35.0365 7.08203 32.3281C5.23307 29.6198 4.30859 25.9219 4.30859 21.2344ZM17.4727 30.1602C18.5404 30.1602 19.1523 30.1016 19.3086 29.9844C19.6341 29.4115 19.8815 28.4154 20.0508 26.9961C20.2201 25.5638 20.3047 23.9622 20.3047 22.1914C20.3047 20.3294 20.2135 18.6042 20.0312 17.0156C19.862 15.4141 19.6211 14.2943 19.3086 13.6562C18.9831 13.3958 18.5013 13.2005 17.8633 13.0703C17.2253 12.9401 16.5221 12.8685 15.7539 12.8555C15.3112 12.8555 14.9076 12.8815 14.543 12.9336C14.1914 12.9727 13.9375 13.0378 13.7812 13.1289C13.4036 13.7799 13.1237 14.724 12.9414 15.9609C12.7721 17.1849 12.6875 18.5846 12.6875 20.1602C12.6875 21.944 12.7852 23.7214 12.9805 25.4922C13.1758 27.263 13.4167 28.6172 13.7031 29.5547C13.8854 29.75 14.3477 29.8997 15.0898 30.0039C15.832 30.1081 16.6263 30.1602 17.4727 30.1602ZM33.8102 30.7656C33.8102 30.2057 33.8232 28.832 33.8492 26.6445C33.8883 22.3477 33.9078 19.9974 33.9078 19.5938L32.1109 19.3008C31.8635 18.5586 31.6878 17.862 31.5836 17.2109C31.4794 16.5599 31.4273 15.9023 31.4273 15.2383C31.4273 14.9648 31.4339 14.7565 31.4469 14.6133C31.6682 14.418 32.0133 14.1836 32.482 13.9102C32.9508 13.6367 33.5042 13.3958 34.1422 13.1875C34.7802 12.9661 35.4312 12.8555 36.0953 12.8555C37.6448 12.8555 38.7646 13.2005 39.4547 13.8906C40.1578 14.5807 40.5094 15.5898 40.5094 16.918C40.5094 17.7253 40.4052 18.7604 40.1969 20.0234C40.0016 21.2734 39.7997 22.1654 39.5914 22.6992L40.2945 22.8164L41.4664 18.4023C41.9872 16.4102 42.6383 14.9909 43.4195 14.1445C44.2008 13.2852 45.0797 12.8555 46.0562 12.8555C46.6943 12.8555 47.3258 12.9531 47.9508 13.1484C48.5888 13.3438 49.0771 13.5846 49.4156 13.8711C49.7802 14.6784 49.9625 15.7526 49.9625 17.0938C49.9625 18.0312 49.8714 18.9622 49.6891 19.8867C49.5068 20.7982 49.2724 21.5339 48.9859 22.0938L44.8844 21.5469C44.051 22.4323 43.1656 23.6628 42.2281 25.2383C41.2906 26.8008 40.5419 28.2396 39.982 29.5547L39.9625 30.5703L43.7516 29.6719C44.3896 30.6484 44.7607 31.8073 44.8648 33.1484C44.8648 33.2266 44.5719 33.5456 43.9859 34.1055C43.4 34.6654 42.6253 35.1862 41.6617 35.668C40.7112 36.1367 39.6174 36.3711 38.3805 36.3711C37.1044 36.3711 36.0367 36.0326 35.1773 35.3555C34.331 34.6654 33.8818 33.5065 33.8297 31.8789C33.8167 31.6836 33.8102 31.3125 33.8102 30.7656ZM52.6281 24.1836C52.6281 19.3659 52.7518 14.9193 52.9992 10.8438L50.7922 10.4531C50.4797 9.25521 50.3234 7.96615 50.3234 6.58594C50.5187 6.33854 50.8833 6.03255 51.4172 5.66797C51.951 5.30339 52.5695 4.98438 53.2727 4.71094C53.9888 4.4375 54.6984 4.30078 55.4016 4.30078C57.0031 4.30078 58.1945 4.71094 58.9758 5.53125C59.757 6.35156 60.1477 7.60807 60.1477 9.30078C60.1477 10.3034 60.0565 11.8529 59.8742 13.9492C59.7049 16.0326 59.4576 18.0443 59.132 19.9844L58.5852 23.3047L59.2102 23.5195L59.8742 20.9414C60.4992 18.5326 61.4432 16.5859 62.7062 15.1016C63.9823 13.6042 65.5773 12.8555 67.4914 12.8555C68.9237 12.8555 70.0891 13.168 70.9875 13.793C71.899 14.4049 72.5565 15.2188 72.9602 16.2344C73.3638 17.237 73.5656 18.3438 73.5656 19.5547C73.5656 21.1953 73.4094 23.0378 73.0969 25.082C72.7844 27.1133 72.3677 29.0143 71.8469 30.7852C71.3391 32.5169 70.4927 33.8841 69.3078 34.8867C68.1359 35.8893 66.6711 36.3906 64.9133 36.3906C64.2232 36.3906 63.3378 36.2604 62.257 36C61.1763 35.7396 59.9784 35.3164 58.6633 34.7305C58.468 35.056 58.2466 35.375 57.9992 35.6875C57.7648 36 57.5565 36.2344 57.3742 36.3906C56.4107 36.3906 55.6034 36.3125 54.9523 36.1562C54.3013 36 53.813 35.8372 53.4875 35.668C53.162 35.4857 52.9992 35.375 52.9992 35.3359C52.7518 32.6536 52.6281 28.9362 52.6281 24.1836ZM64.5422 31.2344C64.6984 31.2344 64.7961 31.2214 64.8352 31.1953C65.3039 29.4375 65.5383 26.7747 65.5383 23.207C65.5383 22.5951 65.5057 22.1003 65.4406 21.7227C65.1411 21.3451 64.7115 21.1562 64.1516 21.1562C63.9693 21.3125 63.3443 22.3411 62.2766 24.2422C61.2089 26.1302 60.4211 27.582 59.9133 28.5977V29.5352C60.6294 30.0299 61.4562 30.4401 62.3937 30.7656C63.3312 31.0781 64.0474 31.2344 64.5422 31.2344ZM78.2234 20.4922C78.2234 17.4844 78.2755 14.8151 78.3797 12.4844L75.743 12.0742C75.5737 11.5924 75.4435 11.0586 75.3523 10.4727C75.2612 9.88672 75.2156 9.32031 75.2156 8.77344C75.2156 8.35677 75.2482 7.90104 75.3133 7.40625C77.019 6.80729 79.2716 6.3776 82.0711 6.11719C84.8706 5.85677 87.6049 5.72656 90.2742 5.72656C92.2664 5.72656 93.9786 5.88281 95.4109 6.19531C96.8432 6.50781 98.0411 7.21745 99.0047 8.32422C99.9812 9.41797 100.47 11.0586 100.47 13.2461C100.47 14.1445 100.326 15.1406 100.04 16.2344C99.7534 17.3151 99.3562 18.3958 98.8484 19.4766C98.3797 20.4661 97.8458 21.4102 97.2469 22.3086C96.6609 23.194 96.049 23.9557 95.4109 24.5938C95.7885 25.5833 96.1792 26.4883 96.5828 27.3086C96.9865 28.1159 97.6049 29.099 98.4383 30.2578L101.173 29.1055C102.188 29.9779 102.781 31.1367 102.95 32.582C102.95 32.6602 102.637 33.0312 102.012 33.6953C101.401 34.3594 100.6 34.9779 99.6102 35.5508C98.6206 36.1107 97.5073 36.3906 96.2703 36.3906C95.3068 36.3906 94.4409 36.2214 93.6727 35.8828C92.9174 35.5443 92.2924 34.9518 91.7977 34.1055C91.3159 33.2721 90.9318 32.2826 90.6453 31.1367C90.3589 29.9909 90.157 28.8581 90.0398 27.7383L85.5867 27.543C85.7039 28.5586 85.8536 29.6068 86.0359 30.6875C86.2182 31.7552 86.3289 32.3997 86.368 32.6211C86.5893 33.9102 86.7325 34.7891 86.7977 35.2578C86.1987 35.6224 85.4695 35.9023 84.6102 36.0977C83.7638 36.293 82.8979 36.3906 82.0125 36.3906C80.9969 36.3906 80.0138 36.2539 79.0633 35.9805C78.7768 34.8346 78.562 32.8294 78.4187 29.9648C78.2885 27.0872 78.2234 23.9297 78.2234 20.4922ZM90.3719 22.8359C90.8276 21.5339 91.1857 20.1211 91.4461 18.5977C91.7195 17.0612 91.9669 15.2318 92.1883 13.1094C91.8107 12.9661 91.3159 12.8555 90.7039 12.7773C90.0919 12.6992 89.4995 12.6602 88.9266 12.6602C87.6245 12.6602 86.6479 12.6927 85.9969 12.7578C85.8536 17.6536 85.6974 21.1237 85.5281 23.168L90.3719 22.8359ZM110.518 23.1289C111.286 23.1289 112.133 23.207 113.057 23.3633C113.995 23.5195 114.854 23.7083 115.635 23.9297V23.3242C115.635 22.9206 115.622 22.4714 115.596 21.9766C115.583 21.4818 115.557 21.1562 115.518 21C115.401 20.7786 115.062 20.5508 114.502 20.3164C113.955 20.082 113.057 19.9648 111.807 19.9648C111.039 19.9648 110.245 20.0625 109.424 20.2578C108.617 20.4401 107.718 20.6875 106.729 21C106.195 20.1146 105.765 19.2747 105.44 18.4805C105.127 17.6732 104.971 16.8659 104.971 16.0586C104.971 15.8112 104.991 15.5638 105.03 15.3164C107.139 13.6758 109.867 12.8555 113.213 12.8555C115.062 12.8555 116.703 13.0638 118.135 13.4805C119.567 13.8971 120.746 14.7044 121.67 15.9023C122.595 17.1003 123.057 18.7995 123.057 21C123.057 23.1484 122.803 25.2318 122.295 27.25C121.801 29.2552 121.547 30.2773 121.534 30.3164L124.366 29.1055C124.743 29.5091 125.075 30.0039 125.362 30.5898C125.661 31.1628 125.85 31.8268 125.928 32.582C125.746 32.9727 125.349 33.474 124.737 34.0859C124.125 34.6849 123.376 35.2188 122.491 35.6875C121.605 36.1562 120.681 36.3906 119.717 36.3906C118.636 36.3906 117.816 36.0716 117.256 35.4336C116.709 34.7956 116.436 33.9688 116.436 32.9531C116.436 32.3802 116.521 31.8008 116.69 31.2148L116.104 31.0391C115.739 33.0964 114.965 34.5026 113.78 35.2578C112.595 36.013 111.286 36.3906 109.854 36.3906C108.916 36.3906 108.011 36.1302 107.139 35.6094C106.267 35.0755 105.557 34.3073 105.01 33.3047C104.463 32.2891 104.19 31.1042 104.19 29.75C104.19 27.5885 104.73 25.9479 105.811 24.8281C106.892 23.6953 108.461 23.1289 110.518 23.1289ZM112.745 30.5703C113.07 30.5052 113.454 30.3229 113.897 30.0234C114.353 29.724 114.756 29.3659 115.108 28.9492C115.459 28.5326 115.668 28.1354 115.733 27.7578L115.616 27.2891C114.926 27.1979 114.19 27.1523 113.409 27.1523C112.745 27.1523 112.289 27.2044 112.041 27.3086C111.625 27.7773 111.416 28.2982 111.416 28.8711C111.416 29.2878 111.521 29.6654 111.729 30.0039C111.95 30.3424 112.289 30.5312 112.745 30.5703ZM128.184 7.97266C128.184 6.82682 128.555 5.89583 129.297 5.17969C130.052 4.46354 131.25 4.10547 132.891 4.10547C134.531 4.10547 135.723 4.46354 136.465 5.17969C137.22 5.89583 137.598 6.82682 137.598 7.97266C137.598 8.6237 137.37 9.22266 136.914 9.76953C136.471 10.3164 135.885 10.7526 135.156 11.0781C134.427 11.3906 133.672 11.5469 132.891 11.5469C132.044 11.5469 131.257 11.3646 130.527 11C129.811 10.6224 129.238 10.1536 128.809 9.59375C128.392 9.03385 128.184 8.49349 128.184 7.97266ZM127.227 19.1445C127.057 18.5065 126.94 17.9271 126.875 17.4062C126.81 16.8724 126.777 16.319 126.777 15.7461L126.797 15.1992C127.07 14.8477 127.493 14.4961 128.066 14.1445C128.652 13.7799 129.329 13.474 130.098 13.2266C130.879 12.9792 131.686 12.8555 132.52 12.8555C134.342 12.8555 135.638 13.2656 136.406 14.0859C137.174 14.9062 137.559 16.1823 137.559 17.9141C137.559 18.9557 137.409 20.3164 137.109 21.9961C136.823 23.6758 136.471 25.3099 136.055 26.8984C135.651 28.474 135.299 29.6003 135 30.2773L135.039 30.3164L137.93 29.2617C138.451 29.7044 138.841 30.1927 139.102 30.7266C139.375 31.2604 139.551 31.8789 139.629 32.582C139.629 32.6732 139.342 33.0508 138.77 33.7148C138.197 34.3659 137.435 34.9779 136.484 35.5508C135.547 36.1107 134.46 36.3906 133.223 36.3906C131.973 36.3906 130.957 36.0521 130.176 35.375C129.408 34.6979 129.023 33.5391 129.023 31.8984C129.023 29.9844 129.076 27.9531 129.18 25.8047C129.284 23.6562 129.447 21.5729 129.668 19.5547L127.227 19.1445ZM141.767 24.7305C141.767 22.7513 142.041 20.8568 142.587 19.0469C143.147 17.237 144.02 15.7526 145.205 14.5938C146.403 13.4349 147.907 12.8555 149.716 12.8555C151.748 12.8555 153.688 13.5 155.537 14.7891L155.849 14.5938C155.81 13.0703 155.621 11.6901 155.283 10.4531L151.318 10.1992C151.136 9.96484 150.992 9.61979 150.888 9.16406C150.784 8.69531 150.732 8.21354 150.732 7.71875C150.732 7.05469 150.81 6.48177 150.966 6C151.748 5.4401 152.75 5.01693 153.974 4.73047C155.198 4.44401 156.422 4.30078 157.646 4.30078C159 4.30078 160.022 4.58724 160.712 5.16016C161.403 5.72005 161.865 6.57292 162.099 7.71875C162.347 8.85156 162.47 10.4271 162.47 12.4453C162.47 15.1016 162.36 18.1159 162.138 21.4883C161.917 24.8607 161.63 27.6146 161.279 29.75L161.201 30.082L163.466 29.1055C163.844 29.5091 164.176 30.0039 164.462 30.5898C164.762 31.1628 164.951 31.8268 165.029 32.582C164.847 32.9727 164.449 33.474 163.837 34.0859C163.226 34.6849 162.477 35.2188 161.591 35.6875C160.706 36.1562 159.782 36.3906 158.818 36.3906C157.737 36.3906 156.904 36.0716 156.318 35.4336C155.745 34.7826 155.459 33.9557 155.459 32.9531C155.459 32.6927 155.524 32.1589 155.654 31.3516C155.797 30.5443 155.914 29.9844 156.005 29.6719L155.42 29.4961C154.755 31.8268 153.877 33.5586 152.783 34.6914C151.689 35.8242 150.335 36.3906 148.72 36.3906C146.989 36.3906 145.602 35.8177 144.56 34.6719C143.532 33.513 142.809 32.0612 142.392 30.3164C141.976 28.5716 141.767 26.7096 141.767 24.7305ZM155.166 24.3789C155.244 23.9102 155.283 23.3633 155.283 22.7383C155.283 22.3346 155.263 21.9505 155.224 21.5859C155.198 21.2214 155.166 20.9609 155.127 20.8047C154.606 20.4271 154.013 20.1602 153.349 20.0039C152.698 19.8477 152.099 19.7695 151.552 19.7695C151.214 19.7695 150.849 19.8021 150.459 19.8672C150.198 20.1276 149.99 20.694 149.834 21.5664C149.677 22.4258 149.599 23.3958 149.599 24.4766C149.599 25.6354 149.677 26.7617 149.834 27.8555C150.003 28.9362 150.237 29.7826 150.537 30.3945C150.745 30.3945 151.149 30.0755 151.748 29.4375C152.36 28.7865 152.991 27.9922 153.642 27.0547C154.293 26.1042 154.801 25.2122 155.166 24.3789Z"/>
</mask>
<path d="M4.30859 21.2344C4.30859 10.8958 8.37109 5.72656 16.4961 5.72656C19.7122 5.72656 22.2188 6.39714 24.0156 7.73828C25.8255 9.06641 27.069 10.8633 27.7461 13.1289C28.4362 15.3815 28.7812 18.0833 28.7812 21.2344C28.7812 25.8698 27.8307 29.5547 25.9297 32.2891C24.0286 35.0234 20.8841 36.3906 16.4961 36.3906C12.082 36.3906 8.94401 35.0365 7.08203 32.3281C5.23307 29.6198 4.30859 25.9219 4.30859 21.2344ZM17.4727 30.1602C18.5404 30.1602 19.1523 30.1016 19.3086 29.9844C19.6341 29.4115 19.8815 28.4154 20.0508 26.9961C20.2201 25.5638 20.3047 23.9622 20.3047 22.1914C20.3047 20.3294 20.2135 18.6042 20.0312 17.0156C19.862 15.4141 19.6211 14.2943 19.3086 13.6562C18.9831 13.3958 18.5013 13.2005 17.8633 13.0703C17.2253 12.9401 16.5221 12.8685 15.7539 12.8555C15.3112 12.8555 14.9076 12.8815 14.543 12.9336C14.1914 12.9727 13.9375 13.0378 13.7812 13.1289C13.4036 13.7799 13.1237 14.724 12.9414 15.9609C12.7721 17.1849 12.6875 18.5846 12.6875 20.1602C12.6875 21.944 12.7852 23.7214 12.9805 25.4922C13.1758 27.263 13.4167 28.6172 13.7031 29.5547C13.8854 29.75 14.3477 29.8997 15.0898 30.0039C15.832 30.1081 16.6263 30.1602 17.4727 30.1602ZM33.8102 30.7656C33.8102 30.2057 33.8232 28.832 33.8492 26.6445C33.8883 22.3477 33.9078 19.9974 33.9078 19.5938L32.1109 19.3008C31.8635 18.5586 31.6878 17.862 31.5836 17.2109C31.4794 16.5599 31.4273 15.9023 31.4273 15.2383C31.4273 14.9648 31.4339 14.7565 31.4469 14.6133C31.6682 14.418 32.0133 14.1836 32.482 13.9102C32.9508 13.6367 33.5042 13.3958 34.1422 13.1875C34.7802 12.9661 35.4312 12.8555 36.0953 12.8555C37.6448 12.8555 38.7646 13.2005 39.4547 13.8906C40.1578 14.5807 40.5094 15.5898 40.5094 16.918C40.5094 17.7253 40.4052 18.7604 40.1969 20.0234C40.0016 21.2734 39.7997 22.1654 39.5914 22.6992L40.2945 22.8164L41.4664 18.4023C41.9872 16.4102 42.6383 14.9909 43.4195 14.1445C44.2008 13.2852 45.0797 12.8555 46.0562 12.8555C46.6943 12.8555 47.3258 12.9531 47.9508 13.1484C48.5888 13.3438 49.0771 13.5846 49.4156 13.8711C49.7802 14.6784 49.9625 15.7526 49.9625 17.0938C49.9625 18.0312 49.8714 18.9622 49.6891 19.8867C49.5068 20.7982 49.2724 21.5339 48.9859 22.0938L44.8844 21.5469C44.051 22.4323 43.1656 23.6628 42.2281 25.2383C41.2906 26.8008 40.5419 28.2396 39.982 29.5547L39.9625 30.5703L43.7516 29.6719C44.3896 30.6484 44.7607 31.8073 44.8648 33.1484C44.8648 33.2266 44.5719 33.5456 43.9859 34.1055C43.4 34.6654 42.6253 35.1862 41.6617 35.668C40.7112 36.1367 39.6174 36.3711 38.3805 36.3711C37.1044 36.3711 36.0367 36.0326 35.1773 35.3555C34.331 34.6654 33.8818 33.5065 33.8297 31.8789C33.8167 31.6836 33.8102 31.3125 33.8102 30.7656ZM52.6281 24.1836C52.6281 19.3659 52.7518 14.9193 52.9992 10.8438L50.7922 10.4531C50.4797 9.25521 50.3234 7.96615 50.3234 6.58594C50.5187 6.33854 50.8833 6.03255 51.4172 5.66797C51.951 5.30339 52.5695 4.98438 53.2727 4.71094C53.9888 4.4375 54.6984 4.30078 55.4016 4.30078C57.0031 4.30078 58.1945 4.71094 58.9758 5.53125C59.757 6.35156 60.1477 7.60807 60.1477 9.30078C60.1477 10.3034 60.0565 11.8529 59.8742 13.9492C59.7049 16.0326 59.4576 18.0443 59.132 19.9844L58.5852 23.3047L59.2102 23.5195L59.8742 20.9414C60.4992 18.5326 61.4432 16.5859 62.7062 15.1016C63.9823 13.6042 65.5773 12.8555 67.4914 12.8555C68.9237 12.8555 70.0891 13.168 70.9875 13.793C71.899 14.4049 72.5565 15.2188 72.9602 16.2344C73.3638 17.237 73.5656 18.3438 73.5656 19.5547C73.5656 21.1953 73.4094 23.0378 73.0969 25.082C72.7844 27.1133 72.3677 29.0143 71.8469 30.7852C71.3391 32.5169 70.4927 33.8841 69.3078 34.8867C68.1359 35.8893 66.6711 36.3906 64.9133 36.3906C64.2232 36.3906 63.3378 36.2604 62.257 36C61.1763 35.7396 59.9784 35.3164 58.6633 34.7305C58.468 35.056 58.2466 35.375 57.9992 35.6875C57.7648 36 57.5565 36.2344 57.3742 36.3906C56.4107 36.3906 55.6034 36.3125 54.9523 36.1562C54.3013 36 53.813 35.8372 53.4875 35.668C53.162 35.4857 52.9992 35.375 52.9992 35.3359C52.7518 32.6536 52.6281 28.9362 52.6281 24.1836ZM64.5422 31.2344C64.6984 31.2344 64.7961 31.2214 64.8352 31.1953C65.3039 29.4375 65.5383 26.7747 65.5383 23.207C65.5383 22.5951 65.5057 22.1003 65.4406 21.7227C65.1411 21.3451 64.7115 21.1562 64.1516 21.1562C63.9693 21.3125 63.3443 22.3411 62.2766 24.2422C61.2089 26.1302 60.4211 27.582 59.9133 28.5977V29.5352C60.6294 30.0299 61.4562 30.4401 62.3937 30.7656C63.3312 31.0781 64.0474 31.2344 64.5422 31.2344ZM78.2234 20.4922C78.2234 17.4844 78.2755 14.8151 78.3797 12.4844L75.743 12.0742C75.5737 11.5924 75.4435 11.0586 75.3523 10.4727C75.2612 9.88672 75.2156 9.32031 75.2156 8.77344C75.2156 8.35677 75.2482 7.90104 75.3133 7.40625C77.019 6.80729 79.2716 6.3776 82.0711 6.11719C84.8706 5.85677 87.6049 5.72656 90.2742 5.72656C92.2664 5.72656 93.9786 5.88281 95.4109 6.19531C96.8432 6.50781 98.0411 7.21745 99.0047 8.32422C99.9812 9.41797 100.47 11.0586 100.47 13.2461C100.47 14.1445 100.326 15.1406 100.04 16.2344C99.7534 17.3151 99.3562 18.3958 98.8484 19.4766C98.3797 20.4661 97.8458 21.4102 97.2469 22.3086C96.6609 23.194 96.049 23.9557 95.4109 24.5938C95.7885 25.5833 96.1792 26.4883 96.5828 27.3086C96.9865 28.1159 97.6049 29.099 98.4383 30.2578L101.173 29.1055C102.188 29.9779 102.781 31.1367 102.95 32.582C102.95 32.6602 102.637 33.0312 102.012 33.6953C101.401 34.3594 100.6 34.9779 99.6102 35.5508C98.6206 36.1107 97.5073 36.3906 96.2703 36.3906C95.3068 36.3906 94.4409 36.2214 93.6727 35.8828C92.9174 35.5443 92.2924 34.9518 91.7977 34.1055C91.3159 33.2721 90.9318 32.2826 90.6453 31.1367C90.3589 29.9909 90.157 28.8581 90.0398 27.7383L85.5867 27.543C85.7039 28.5586 85.8536 29.6068 86.0359 30.6875C86.2182 31.7552 86.3289 32.3997 86.368 32.6211C86.5893 33.9102 86.7325 34.7891 86.7977 35.2578C86.1987 35.6224 85.4695 35.9023 84.6102 36.0977C83.7638 36.293 82.8979 36.3906 82.0125 36.3906C80.9969 36.3906 80.0138 36.2539 79.0633 35.9805C78.7768 34.8346 78.562 32.8294 78.4187 29.9648C78.2885 27.0872 78.2234 23.9297 78.2234 20.4922ZM90.3719 22.8359C90.8276 21.5339 91.1857 20.1211 91.4461 18.5977C91.7195 17.0612 91.9669 15.2318 92.1883 13.1094C91.8107 12.9661 91.3159 12.8555 90.7039 12.7773C90.0919 12.6992 89.4995 12.6602 88.9266 12.6602C87.6245 12.6602 86.6479 12.6927 85.9969 12.7578C85.8536 17.6536 85.6974 21.1237 85.5281 23.168L90.3719 22.8359ZM110.518 23.1289C111.286 23.1289 112.133 23.207 113.057 23.3633C113.995 23.5195 114.854 23.7083 115.635 23.9297V23.3242C115.635 22.9206 115.622 22.4714 115.596 21.9766C115.583 21.4818 115.557 21.1562 115.518 21C115.401 20.7786 115.062 20.5508 114.502 20.3164C113.955 20.082 113.057 19.9648 111.807 19.9648C111.039 19.9648 110.245 20.0625 109.424 20.2578C108.617 20.4401 107.718 20.6875 106.729 21C106.195 20.1146 105.765 19.2747 105.44 18.4805C105.127 17.6732 104.971 16.8659 104.971 16.0586C104.971 15.8112 104.991 15.5638 105.03 15.3164C107.139 13.6758 109.867 12.8555 113.213 12.8555C115.062 12.8555 116.703 13.0638 118.135 13.4805C119.567 13.8971 120.746 14.7044 121.67 15.9023C122.595 17.1003 123.057 18.7995 123.057 21C123.057 23.1484 122.803 25.2318 122.295 27.25C121.801 29.2552 121.547 30.2773 121.534 30.3164L124.366 29.1055C124.743 29.5091 125.075 30.0039 125.362 30.5898C125.661 31.1628 125.85 31.8268 125.928 32.582C125.746 32.9727 125.349 33.474 124.737 34.0859C124.125 34.6849 123.376 35.2188 122.491 35.6875C121.605 36.1562 120.681 36.3906 119.717 36.3906C118.636 36.3906 117.816 36.0716 117.256 35.4336C116.709 34.7956 116.436 33.9688 116.436 32.9531C116.436 32.3802 116.521 31.8008 116.69 31.2148L116.104 31.0391C115.739 33.0964 114.965 34.5026 113.78 35.2578C112.595 36.013 111.286 36.3906 109.854 36.3906C108.916 36.3906 108.011 36.1302 107.139 35.6094C106.267 35.0755 105.557 34.3073 105.01 33.3047C104.463 32.2891 104.19 31.1042 104.19 29.75C104.19 27.5885 104.73 25.9479 105.811 24.8281C106.892 23.6953 108.461 23.1289 110.518 23.1289ZM112.745 30.5703C113.07 30.5052 113.454 30.3229 113.897 30.0234C114.353 29.724 114.756 29.3659 115.108 28.9492C115.459 28.5326 115.668 28.1354 115.733 27.7578L115.616 27.2891C114.926 27.1979 114.19 27.1523 113.409 27.1523C112.745 27.1523 112.289 27.2044 112.041 27.3086C111.625 27.7773 111.416 28.2982 111.416 28.8711C111.416 29.2878 111.521 29.6654 111.729 30.0039C111.95 30.3424 112.289 30.5312 112.745 30.5703ZM128.184 7.97266C128.184 6.82682 128.555 5.89583 129.297 5.17969C130.052 4.46354 131.25 4.10547 132.891 4.10547C134.531 4.10547 135.723 4.46354 136.465 5.17969C137.22 5.89583 137.598 6.82682 137.598 7.97266C137.598 8.6237 137.37 9.22266 136.914 9.76953C136.471 10.3164 135.885 10.7526 135.156 11.0781C134.427 11.3906 133.672 11.5469 132.891 11.5469C132.044 11.5469 131.257 11.3646 130.527 11C129.811 10.6224 129.238 10.1536 128.809 9.59375C128.392 9.03385 128.184 8.49349 128.184 7.97266ZM127.227 19.1445C127.057 18.5065 126.94 17.9271 126.875 17.4062C126.81 16.8724 126.777 16.319 126.777 15.7461L126.797 15.1992C127.07 14.8477 127.493 14.4961 128.066 14.1445C128.652 13.7799 129.329 13.474 130.098 13.2266C130.879 12.9792 131.686 12.8555 132.52 12.8555C134.342 12.8555 135.638 13.2656 136.406 14.0859C137.174 14.9062 137.559 16.1823 137.559 17.9141C137.559 18.9557 137.409 20.3164 137.109 21.9961C136.823 23.6758 136.471 25.3099 136.055 26.8984C135.651 28.474 135.299 29.6003 135 30.2773L135.039 30.3164L137.93 29.2617C138.451 29.7044 138.841 30.1927 139.102 30.7266C139.375 31.2604 139.551 31.8789 139.629 32.582C139.629 32.6732 139.342 33.0508 138.77 33.7148C138.197 34.3659 137.435 34.9779 136.484 35.5508C135.547 36.1107 134.46 36.3906 133.223 36.3906C131.973 36.3906 130.957 36.0521 130.176 35.375C129.408 34.6979 129.023 33.5391 129.023 31.8984C129.023 29.9844 129.076 27.9531 129.18 25.8047C129.284 23.6562 129.447 21.5729 129.668 19.5547L127.227 19.1445ZM141.767 24.7305C141.767 22.7513 142.041 20.8568 142.587 19.0469C143.147 17.237 144.02 15.7526 145.205 14.5938C146.403 13.4349 147.907 12.8555 149.716 12.8555C151.748 12.8555 153.688 13.5 155.537 14.7891L155.849 14.5938C155.81 13.0703 155.621 11.6901 155.283 10.4531L151.318 10.1992C151.136 9.96484 150.992 9.61979 150.888 9.16406C150.784 8.69531 150.732 8.21354 150.732 7.71875C150.732 7.05469 150.81 6.48177 150.966 6C151.748 5.4401 152.75 5.01693 153.974 4.73047C155.198 4.44401 156.422 4.30078 157.646 4.30078C159 4.30078 160.022 4.58724 160.712 5.16016C161.403 5.72005 161.865 6.57292 162.099 7.71875C162.347 8.85156 162.47 10.4271 162.47 12.4453C162.47 15.1016 162.36 18.1159 162.138 21.4883C161.917 24.8607 161.63 27.6146 161.279 29.75L161.201 30.082L163.466 29.1055C163.844 29.5091 164.176 30.0039 164.462 30.5898C164.762 31.1628 164.951 31.8268 165.029 32.582C164.847 32.9727 164.449 33.474 163.837 34.0859C163.226 34.6849 162.477 35.2188 161.591 35.6875C160.706 36.1562 159.782 36.3906 158.818 36.3906C157.737 36.3906 156.904 36.0716 156.318 35.4336C155.745 34.7826 155.459 33.9557 155.459 32.9531C155.459 32.6927 155.524 32.1589 155.654 31.3516C155.797 30.5443 155.914 29.9844 156.005 29.6719L155.42 29.4961C154.755 31.8268 153.877 33.5586 152.783 34.6914C151.689 35.8242 150.335 36.3906 148.72 36.3906C146.989 36.3906 145.602 35.8177 144.56 34.6719C143.532 33.513 142.809 32.0612 142.392 30.3164C141.976 28.5716 141.767 26.7096 141.767 24.7305ZM155.166 24.3789C155.244 23.9102 155.283 23.3633 155.283 22.7383C155.283 22.3346 155.263 21.9505 155.224 21.5859C155.198 21.2214 155.166 20.9609 155.127 20.8047C154.606 20.4271 154.013 20.1602 153.349 20.0039C152.698 19.8477 152.099 19.7695 151.552 19.7695C151.214 19.7695 150.849 19.8021 150.459 19.8672C150.198 20.1276 149.99 20.694 149.834 21.5664C149.677 22.4258 149.599 23.3958 149.599 24.4766C149.599 25.6354 149.677 26.7617 149.834 27.8555C150.003 28.9362 150.237 29.7826 150.537 30.3945C150.745 30.3945 151.149 30.0755 151.748 29.4375C152.36 28.7865 152.991 27.9922 153.642 27.0547C154.293 26.1042 154.801 25.2122 155.166 24.3789Z" fill="#FFCB31"/>
<path d="M24.0156 7.73828L21.6231 10.9438L21.6361 10.9536L21.6492 10.9632L24.0156 7.73828ZM27.7461 13.1289L23.9136 14.2743L23.9175 14.2874L23.9215 14.3006L27.7461 13.1289ZM7.08203 32.3281L3.77845 34.5835L3.78586 34.5942L7.08203 32.3281ZM19.3086 29.9844L21.7086 33.1844L22.3749 32.6846L22.7864 31.9604L19.3086 29.9844ZM20.0508 26.9961L24.0226 27.4698L24.0231 27.4656L20.0508 26.9961ZM20.0312 17.0156L16.0534 17.436L16.0553 17.4539L16.0573 17.4716L20.0312 17.0156ZM19.3086 13.6562L22.9008 11.8968L22.5068 11.0923L21.8074 10.5328L19.3086 13.6562ZM15.7539 12.8555L15.8217 8.85604L15.7878 8.85547H15.7539V12.8555ZM14.543 12.9336L14.9847 16.9091L15.0468 16.9022L15.1087 16.8934L14.543 12.9336ZM13.7812 13.1289L11.7658 9.67379L10.8519 10.2069L10.3211 11.122L13.7812 13.1289ZM12.9414 15.9609L8.98415 15.3778L8.98155 15.3954L8.97912 15.413L12.9414 15.9609ZM13.7031 29.5547L9.87772 30.7236L10.1479 31.6079L10.7789 32.284L13.7031 29.5547ZM8.30859 21.2344C8.30859 16.4802 9.26104 13.6522 10.5005 12.0752C11.5957 10.6816 13.3413 9.72656 16.4961 9.72656V1.72656C11.5258 1.72656 7.17775 3.35621 4.21047 7.13188C1.3874 10.7241 0.308594 15.65 0.308594 21.2344H8.30859ZM16.4961 9.72656C19.2119 9.72656 20.7598 10.2996 21.6231 10.9438L26.4082 4.53271C23.6777 2.49471 20.2125 1.72656 16.4961 1.72656V9.72656ZM21.6492 10.9632C22.7181 11.7475 23.4716 12.7953 23.9136 14.2743L31.5786 11.9836C30.6664 8.93123 28.933 6.38528 26.3821 4.5134L21.6492 10.9632ZM23.9215 14.3006C24.4637 16.0701 24.7812 18.3555 24.7812 21.2344H32.7812C32.7812 17.8112 32.4087 14.6929 31.5706 11.9572L23.9215 14.3006ZM24.7812 21.2344C24.7812 25.3636 23.9302 28.1577 22.6454 30.0057L29.2139 34.5724C31.7312 30.9517 32.7812 26.376 32.7812 21.2344H24.7812ZM22.6454 30.0057C21.7207 31.3358 20.0337 32.3906 16.4961 32.3906V40.3906C21.7345 40.3906 26.3366 38.7111 29.2139 34.5724L22.6454 30.0057ZM16.4961 32.3906C12.9027 32.3906 11.251 31.3315 10.3782 30.062L3.78586 34.5942C6.63705 38.7414 11.2614 40.3906 16.4961 40.3906V32.3906ZM10.3856 30.0728C9.14674 28.2581 8.30859 25.4483 8.30859 21.2344H0.308594C0.308594 26.3955 1.31941 30.9814 3.77847 34.5834L10.3856 30.0728ZM17.4727 34.1602C18.0559 34.1602 18.6218 34.1451 19.1137 34.098C19.3549 34.0749 19.6679 34.0361 19.9982 33.9605C20.1966 33.9151 20.9623 33.7441 21.7086 33.1844L16.9086 26.7844C17.1128 26.6312 17.2993 26.5234 17.4418 26.4499C17.5863 26.3755 17.7127 26.3225 17.8093 26.2858C17.9964 26.2149 18.1422 26.1784 18.2138 26.1621C18.3519 26.1304 18.416 26.1282 18.3512 26.1344C18.2311 26.1459 17.9571 26.1602 17.4727 26.1602V34.1602ZM22.7864 31.9604C23.5376 30.6383 23.8469 28.9431 24.0226 27.4698L16.0789 26.5224C16.007 27.1257 15.9277 27.5556 15.8562 27.8434C15.7774 28.1609 15.7423 28.1641 15.8308 28.0083L22.7864 31.9604ZM24.0231 27.4656C24.2144 25.8471 24.3047 24.0853 24.3047 22.1914H16.3047C16.3047 23.8392 16.2257 25.2805 16.0784 26.5266L24.0231 27.4656ZM24.3047 22.1914C24.3047 20.2011 24.2074 18.3217 24.0052 16.5596L16.0573 17.4716C16.2197 18.8866 16.3047 20.4577 16.3047 22.1914H24.3047ZM24.0091 16.5952C23.8371 14.9682 23.5507 13.2236 22.9008 11.8968L15.7163 15.4157C15.6697 15.3206 15.7248 15.4056 15.8131 15.8158C15.8944 16.1937 15.9782 16.7248 16.0534 17.436L24.0091 16.5952ZM21.8074 10.5328C20.785 9.71491 19.6073 9.34379 18.6631 9.1511L17.0634 16.9895C17.1994 17.0173 17.2352 17.0355 17.2003 17.0214C17.1672 17.008 17.0128 16.9421 16.8098 16.7797L21.8074 10.5328ZM18.6631 9.1511C17.7457 8.96386 16.7933 8.87251 15.8217 8.85604L15.6861 16.8549C16.2509 16.8645 16.7048 16.9163 17.0634 16.9895L18.6631 9.1511ZM15.7539 8.85547C15.1584 8.85547 14.5622 8.89024 13.9773 8.9738L15.1087 16.8934C15.2529 16.8728 15.464 16.8555 15.7539 16.8555V8.85547ZM14.1012 8.95806C13.6244 9.01104 12.6742 9.14384 11.7658 9.67379L15.7967 16.584C15.4473 16.7879 15.1683 16.8643 15.0824 16.8864C14.9779 16.9132 14.9353 16.9146 14.9847 16.9091L14.1012 8.95806ZM10.3211 11.122C9.57536 12.4078 9.19798 13.9267 8.98415 15.3778L16.8987 16.5441C16.9692 16.0656 17.049 15.7121 17.123 15.4624C17.1989 15.2067 17.2515 15.1183 17.2414 15.1358L10.3211 11.122ZM8.97912 15.413C8.77901 16.8599 8.6875 18.4485 8.6875 20.1602H16.6875C16.6875 18.7208 16.7653 17.5099 16.9037 16.5089L8.97912 15.413ZM8.6875 20.1602C8.6875 22.0903 8.79318 24.0141 9.00458 25.9307L16.9564 25.0537C16.7771 23.4286 16.6875 21.7977 16.6875 20.1602H8.6875ZM9.00458 25.9307C9.20894 27.7836 9.48213 29.4289 9.87772 30.7236L17.5285 28.3858C17.3512 27.8055 17.1426 26.7424 16.9564 25.0537L9.00458 25.9307ZM10.7789 32.284C11.5744 33.1362 12.5266 33.4804 12.9538 33.6188C13.4901 33.7925 14.0422 33.8961 14.5339 33.9651L15.6458 26.0427C15.3953 26.0076 15.3451 25.9842 15.4192 26.0082C15.461 26.0217 15.5957 26.0674 15.7802 26.1662C15.9542 26.2593 16.2859 26.4596 16.6273 26.8254L10.7789 32.284ZM14.5339 33.9651C15.482 34.0982 16.4637 34.1602 17.4727 34.1602V26.1602C16.7889 26.1602 16.182 26.118 15.6458 26.0427L14.5339 33.9651ZM33.8492 26.6445L37.849 26.6921L37.8491 26.6809L33.8492 26.6445ZM33.9078 19.5938H37.9078V16.1931L34.5515 15.6459L33.9078 19.5938ZM32.1109 19.3008L28.3162 20.5657L29.0808 22.8596L31.4673 23.2487L32.1109 19.3008ZM31.4469 14.6133L28.8004 11.6139L27.6073 12.6666L27.4633 14.2511L31.4469 14.6133ZM34.1422 13.1875L35.3838 16.9899L35.4186 16.9785L35.4533 16.9665L34.1422 13.1875ZM39.4547 13.8906L36.6263 16.7191L36.6395 16.7323L36.6528 16.7454L39.4547 13.8906ZM40.1969 20.0234L36.2502 19.3724L36.2474 19.3892L36.2448 19.4059L40.1969 20.0234ZM39.5914 22.6992L35.8651 21.245L34.074 25.8348L38.9338 26.6448L39.5914 22.6992ZM40.2945 22.8164L39.6369 26.762L43.2268 27.3603L44.1606 23.8428L40.2945 22.8164ZM41.4664 18.4023L45.3325 19.4287L45.3344 19.4214L45.3363 19.4141L41.4664 18.4023ZM43.4195 14.1445L46.3587 16.8577L46.3691 16.8465L46.3793 16.8352L43.4195 14.1445ZM47.9508 13.1484L46.7577 16.9664L46.7688 16.9698L46.7799 16.9732L47.9508 13.1484ZM49.4156 13.8711L53.0611 12.2247L52.6892 11.4012L51.9994 10.8175L49.4156 13.8711ZM49.6891 19.8867L53.6114 20.6712L53.6135 20.6606L49.6891 19.8867ZM48.9859 22.0938L48.4573 26.0587L51.2594 26.4323L52.5469 23.9157L48.9859 22.0938ZM44.8844 21.5469L45.413 17.582L43.3784 17.3107L41.9716 18.8054L44.8844 21.5469ZM42.2281 25.2383L45.6581 27.2963L45.6619 27.29L45.6656 27.2837L42.2281 25.2383ZM39.982 29.5547L36.3017 27.9878L35.9977 28.7019L35.9828 29.4778L39.982 29.5547ZM39.9625 30.5703L35.9632 30.4934L35.864 35.653L40.8854 34.4624L39.9625 30.5703ZM43.7516 29.6719L47.1002 27.4841L45.5632 25.1314L42.8287 25.7798L43.7516 29.6719ZM44.8648 33.1484H48.8648V32.9933L48.8528 32.8387L44.8648 33.1484ZM41.6617 35.668L43.4309 39.2555L43.4407 39.2506L43.4506 39.2457L41.6617 35.668ZM35.1773 35.3555L32.6496 38.4555L32.6755 38.4767L32.7019 38.4974L35.1773 35.3555ZM33.8297 31.8789L37.8276 31.751L37.8254 31.6818L37.8208 31.6128L33.8297 31.8789ZM37.8102 30.7656C37.8102 30.2348 37.8228 28.8882 37.8489 26.6921L29.8495 26.5969C29.8236 28.7759 29.8102 30.1766 29.8102 30.7656H37.8102ZM37.8491 26.6809C37.888 22.4003 37.9078 20.0213 37.9078 19.5938H29.9078C29.9078 19.9735 29.8886 22.295 29.8494 26.6082L37.8491 26.6809ZM34.5515 15.6459L32.7546 15.3529L31.4673 23.2487L33.2641 23.5416L34.5515 15.6459ZM35.9057 18.0359C35.7148 17.4632 35.5975 16.9799 35.5334 16.579L27.6338 17.8429C27.778 18.7441 28.0123 19.654 28.3162 20.5657L35.9057 18.0359ZM35.5334 16.579C35.4629 16.1384 35.4273 15.6922 35.4273 15.2383H27.4273C27.4273 16.1125 27.496 16.9814 27.6338 17.8429L35.5334 16.579ZM35.4273 15.2383C35.4273 15.1312 35.4286 15.0539 35.4303 15.0019C35.432 14.9452 35.4335 14.9418 35.4304 14.9754L27.4633 14.2511C27.4336 14.578 27.4273 14.9308 27.4273 15.2383H35.4273ZM34.0934 17.6126C34.038 17.6614 34.0341 17.6577 34.1192 17.5999C34.1976 17.5467 34.3201 17.4688 34.4975 17.3653L30.4665 10.455C29.9265 10.7701 29.3156 11.1593 28.8004 11.6139L34.0934 17.6126ZM34.4975 17.3653C34.6718 17.2636 34.9547 17.13 35.3838 16.9899L32.9006 9.38508C32.0536 9.66164 31.2297 10.0098 30.4665 10.455L34.4975 17.3653ZM35.4533 16.9665C35.6769 16.8889 35.8852 16.8555 36.0953 16.8555V8.85547C34.9773 8.85547 33.8835 9.04336 32.8311 9.40847L35.4533 16.9665ZM36.0953 16.8555C36.5913 16.8555 36.8413 16.9128 36.9194 16.9369C36.9805 16.9557 36.826 16.9188 36.6263 16.7191L42.2831 11.0622C40.5039 9.28297 38.1038 8.85547 36.0953 8.85547V16.8555ZM36.6528 16.7454C36.5972 16.6908 36.5516 16.6323 36.5176 16.5775C36.4841 16.5237 36.4706 16.4874 36.4684 16.481C36.4659 16.474 36.5094 16.5975 36.5094 16.918H44.5094C44.5094 14.9018 43.9634 12.7111 42.2566 11.0359L36.6528 16.7454ZM36.5094 16.918C36.5094 17.4191 36.441 18.2156 36.2502 19.3724L44.1435 20.6744C44.3694 19.3053 44.5094 18.0314 44.5094 16.918H36.5094ZM36.2448 19.4059C36.1562 19.9729 36.0728 20.415 35.9977 20.7471C35.9604 20.9116 35.9282 21.036 35.9023 21.1259C35.8757 21.2185 35.8619 21.2533 35.8651 21.245L43.3177 24.1534C43.6963 23.1833 43.9492 21.919 44.1489 20.6409L36.2448 19.4059ZM38.9338 26.6448L39.6369 26.762L40.9521 18.8708L40.249 18.7536L38.9338 26.6448ZM44.1606 23.8428L45.3325 19.4287L37.6003 17.376L36.4285 21.79L44.1606 23.8428ZM45.3363 19.4141C45.8029 17.6293 46.2482 16.9775 46.3587 16.8577L40.4803 11.4314C39.0284 13.0043 38.1715 15.191 37.5965 17.3906L45.3363 19.4141ZM46.3793 16.8352C46.492 16.7112 46.513 16.7265 46.4215 16.7713C46.3763 16.7934 46.316 16.8164 46.2446 16.8329C46.1731 16.8495 46.1081 16.8555 46.0562 16.8555V8.85547C43.7394 8.85547 41.8427 9.93262 40.4598 11.4538L46.3793 16.8352ZM46.0562 16.8555C46.279 16.8555 46.5086 16.8885 46.7577 16.9664L49.1439 9.33052C48.1429 9.01773 47.1095 8.85547 46.0562 8.85547V16.8555ZM46.7799 16.9732C46.8565 16.9967 46.9147 17.0173 46.9566 17.0335C46.9987 17.0498 47.0207 17.0603 47.0258 17.0628C47.0311 17.0654 47.015 17.0578 46.9827 17.0373C46.9504 17.0167 46.8976 16.9803 46.8319 16.9246L51.9994 10.8175C51.0925 10.0501 50.0411 9.6051 49.1216 9.32364L46.7799 16.9732ZM45.7701 15.5174C45.8124 15.611 45.9625 16.0558 45.9625 17.0938H53.9625C53.9625 15.4494 53.748 13.7458 53.0611 12.2247L45.7701 15.5174ZM45.9625 17.0938C45.9625 17.7701 45.8969 18.442 45.7646 19.1129L53.6135 20.6606C53.8458 19.4825 53.9625 18.2924 53.9625 17.0938H45.9625ZM45.7667 19.1023C45.6257 19.8077 45.4846 20.1553 45.4249 20.2718L52.5469 23.9157C53.0602 22.9124 53.3879 21.7887 53.6114 20.6712L45.7667 19.1023ZM49.5146 18.1288L45.413 17.582L44.3557 25.5118L48.4573 26.0587L49.5146 18.1288ZM41.9716 18.8054C40.8652 19.981 39.8101 21.4796 38.7907 23.1928L45.6656 27.2837C46.5211 25.846 47.2369 24.8836 47.7972 24.2883L41.9716 18.8054ZM38.7982 23.1803C37.7903 24.86 36.9501 26.4649 36.3017 27.9878L43.6624 31.1216C44.1338 30.0143 44.7909 28.7416 45.6581 27.2963L38.7982 23.1803ZM35.9828 29.4778L35.9632 30.4934L43.9618 30.6472L43.9813 29.6316L35.9828 29.4778ZM40.8854 34.4624L44.6744 33.564L42.8287 25.7798L39.0396 26.6782L40.8854 34.4624ZM40.4029 31.8597C40.6206 32.1929 40.8167 32.6833 40.8769 33.4582L48.8528 32.8387C48.7047 30.9313 48.1586 29.104 47.1002 27.4841L40.4029 31.8597ZM40.8648 33.1484C40.8648 32.566 40.9935 32.1171 41.0724 31.8839C41.1587 31.629 41.2542 31.4342 41.316 31.3175C41.4366 31.0895 41.5504 30.9327 41.591 30.8776C41.6796 30.7575 41.7359 30.7005 41.699 30.7407C41.6417 30.8031 41.4966 30.9516 41.2225 31.2135L46.7494 36.9974C47.0612 36.6994 47.3556 36.4085 47.5912 36.1519C47.7008 36.0326 47.867 35.8462 48.0288 35.6268C48.1061 35.5221 48.2473 35.3231 48.3863 35.0606C48.4525 34.9354 48.8648 34.1893 48.8648 33.1484H40.8648ZM41.2225 31.2135C41.0025 31.4237 40.5891 31.7321 39.8729 32.0903L43.4506 39.2457C44.6614 38.6402 45.7975 37.907 46.7494 36.9974L41.2225 31.2135ZM39.8925 32.0805C39.5772 32.236 39.1062 32.3711 38.3805 32.3711V40.3711C40.1287 40.3711 41.8452 40.0375 43.4309 39.2555L39.8925 32.0805ZM38.3805 32.3711C37.8466 32.3711 37.6933 32.2454 37.6528 32.2135L32.7019 38.4974C34.3801 39.8197 36.3623 40.3711 38.3805 40.3711V32.3711ZM37.7051 32.2554C37.7882 32.3232 37.8508 32.3946 37.8929 32.4546C37.9334 32.5124 37.9427 32.5422 37.9353 32.523C37.9156 32.4723 37.8435 32.2456 37.8276 31.751L29.8317 32.0068C29.9024 34.2158 30.54 36.7354 32.6496 38.4555L37.7051 32.2554ZM37.8208 31.6128C37.8209 31.6145 37.8174 31.5508 37.8144 31.3839C37.8117 31.2299 37.8102 31.0255 37.8102 30.7656H29.8102C29.8102 31.2974 29.8154 31.7971 29.8385 32.145L37.8208 31.6128ZM52.9992 10.8438L56.9919 11.0861L57.2079 7.52649L53.6963 6.90497L52.9992 10.8438ZM50.7922 10.4531L46.9217 11.4628L47.5692 13.9449L50.0951 14.3919L50.7922 10.4531ZM50.3234 6.58594L47.1839 4.10736L46.3234 5.19729V6.58594H50.3234ZM53.2727 4.71094L51.8458 0.974064L51.8343 0.978456L51.8229 0.982919L53.2727 4.71094ZM59.8742 13.9492L55.8893 13.6027L55.8883 13.614L55.8874 13.6253L59.8742 13.9492ZM59.132 19.9844L55.1872 19.3225L55.1852 19.3343L59.132 19.9844ZM58.5852 23.3047L54.6383 22.6546L54.0892 25.9889L57.2848 27.0874L58.5852 23.3047ZM59.2102 23.5195L57.9098 27.3023L62.0039 28.7096L63.0837 24.5173L59.2102 23.5195ZM59.8742 20.9414L56.0024 19.9368L56.0007 19.9437L59.8742 20.9414ZM62.7062 15.1016L59.6618 12.5071L59.6598 12.5094L62.7062 15.1016ZM70.9875 13.793L68.7032 17.0766L68.7303 17.0954L68.7578 17.1139L70.9875 13.793ZM72.9602 16.2344L69.243 17.7117L69.2463 17.72L69.2496 17.7282L72.9602 16.2344ZM73.0969 25.082L77.0504 25.6903L77.0509 25.6865L73.0969 25.082ZM71.8469 30.7852L68.0094 29.6565L68.0085 29.6596L71.8469 30.7852ZM69.3078 34.8867L66.724 31.8332L66.7157 31.8402L66.7074 31.8473L69.3078 34.8867ZM58.6633 34.7305L60.2912 31.0767L57.0557 29.6352L55.2333 32.6725L58.6633 34.7305ZM57.9992 35.6875L54.863 33.2047L54.8306 33.2457L54.7992 33.2875L57.9992 35.6875ZM57.3742 36.3906V40.3906H58.8539L59.9774 39.4277L57.3742 36.3906ZM53.4875 35.668L51.5331 39.158L51.5871 39.1883L51.6421 39.2168L53.4875 35.668ZM52.9992 35.3359H56.9992V35.1519L56.9823 34.9686L52.9992 35.3359ZM64.8352 31.1953L67.054 34.5235L68.3109 33.6856L68.7001 32.226L64.8352 31.1953ZM65.4406 21.7227L69.3825 21.043L69.209 20.037L68.5746 19.2371L65.4406 21.7227ZM64.1516 21.1562V17.1562H62.6719L61.5484 18.1192L64.1516 21.1562ZM62.2766 24.2422L65.7584 26.2112L65.7641 26.201L62.2766 24.2422ZM59.9133 28.5977L56.3356 26.8088L55.9133 27.6534V28.5977H59.9133ZM59.9133 29.5352H55.9133V31.6334L57.6396 32.8261L59.9133 29.5352ZM62.3937 30.7656L61.0817 34.5443L61.1052 34.5525L61.1288 34.5604L62.3937 30.7656ZM56.6281 24.1836C56.6281 19.4328 56.7501 15.0682 56.9919 11.0861L49.0066 10.6014C48.7535 14.7704 48.6281 19.2989 48.6281 24.1836H56.6281ZM53.6963 6.90497L51.4893 6.51434L50.0951 14.3919L52.3021 14.7825L53.6963 6.90497ZM54.6627 9.44344C54.4454 8.61046 54.3234 7.66392 54.3234 6.58594H46.3234C46.3234 8.26837 46.514 9.89996 46.9217 11.4628L54.6627 9.44344ZM53.463 9.06451C53.3889 9.15836 53.3328 9.21521 53.3135 9.23432C53.2924 9.25514 53.2903 9.25543 53.3148 9.2348C53.3675 9.19062 53.4795 9.10335 53.673 8.97117L49.1613 2.36476C48.5674 2.77037 47.7758 3.35759 47.1839 4.10736L53.463 9.06451ZM53.673 8.97117C53.9176 8.80415 54.2574 8.6198 54.7224 8.43896L51.8229 0.982919C50.8817 1.34895 49.9845 1.80262 49.1613 2.36476L53.673 8.97117ZM54.6995 8.44781C55.0012 8.33259 55.2283 8.30078 55.4016 8.30078V0.300781C54.1685 0.300781 52.9764 0.542408 51.8458 0.974064L54.6995 8.44781ZM55.4016 8.30078C55.8737 8.30078 56.1135 8.36275 56.1942 8.39055C56.2532 8.41085 56.1782 8.39381 56.0792 8.28987L61.8723 2.77263C60.068 0.878077 57.6363 0.300781 55.4016 0.300781V8.30078ZM56.0792 8.28987C55.9818 8.18756 55.9929 8.14099 56.035 8.27633C56.0822 8.42826 56.1477 8.74804 56.1477 9.30078H64.1477C64.1477 7.07974 63.644 4.63286 61.8723 2.77263L56.0792 8.28987ZM56.1477 9.30078C56.1477 10.1201 56.0699 11.5252 55.8893 13.6027L63.8592 14.2957C64.0431 12.1805 64.1477 10.4866 64.1477 9.30078H56.1477ZM55.8874 13.6253C55.7267 15.6024 55.4928 17.5011 55.1872 19.3225L63.0769 20.6463C63.4223 18.5875 63.6832 16.4627 63.8611 14.2732L55.8874 13.6253ZM55.1852 19.3343L54.6383 22.6546L62.532 23.9548L63.0789 20.6344L55.1852 19.3343ZM57.2848 27.0874L57.9098 27.3023L60.5105 19.7368L59.8855 19.5219L57.2848 27.0874ZM63.0837 24.5173L63.7478 21.9391L56.0007 19.9437L55.3366 22.5218L63.0837 24.5173ZM63.746 21.946C64.26 19.9651 64.974 18.6088 65.7527 17.6937L59.6598 12.5094C57.9124 14.5631 56.7385 17.1 56.0024 19.9368L63.746 21.946ZM65.7507 17.696C66.2911 17.0619 66.786 16.8555 67.4914 16.8555V8.85547C64.3687 8.85547 61.6735 10.1465 59.6618 12.5071L65.7507 17.696ZM67.4914 16.8555C68.3568 16.8555 68.6546 17.0428 68.7032 17.0766L73.2718 10.5093C71.5235 9.29317 69.4906 8.85547 67.4914 8.85547V16.8555ZM68.7578 17.1139C69.0019 17.2778 69.1391 17.4503 69.243 17.7117L76.6773 14.757C75.9739 12.9872 74.796 11.5321 73.2172 10.4721L68.7578 17.1139ZM69.2496 17.7282C69.4404 18.2021 69.5656 18.7942 69.5656 19.5547H77.5656C77.5656 17.8933 77.2872 16.2718 76.6707 14.7405L69.2496 17.7282ZM69.5656 19.5547C69.5656 20.9488 69.4322 22.5844 69.1428 24.4776L77.0509 25.6865C77.3865 23.4911 77.5656 21.4418 77.5656 19.5547H69.5656ZM69.1434 24.4738C68.855 26.3486 68.4748 28.0742 68.0094 29.6565L75.6843 31.9138C76.2606 29.9544 76.7138 27.8779 77.0504 25.6903L69.1434 24.4738ZM68.0085 29.6596C67.6844 30.7649 67.2186 31.4147 66.724 31.8332L71.8916 37.9403C73.7668 36.3535 74.9937 34.2689 75.6853 31.9107L68.0085 29.6596ZM66.7074 31.8473C66.361 32.1437 65.8591 32.3906 64.9133 32.3906V40.3906C67.483 40.3906 69.9109 39.6349 71.9082 37.9261L66.7074 31.8473ZM64.9133 32.3906C64.6706 32.3906 64.13 32.3368 63.1941 32.1113L61.32 39.8887C62.5456 40.184 63.7758 40.3906 64.9133 40.3906V32.3906ZM63.1941 32.1113C62.4077 31.9218 61.445 31.5908 60.2912 31.0767L57.0354 38.3842C58.5118 39.042 59.9449 39.5574 61.32 39.8887L63.1941 32.1113ZM55.2333 32.6725C55.131 32.8431 55.0087 33.0206 54.863 33.2047L61.1354 38.1703C61.4845 37.7294 61.805 37.2689 62.0933 36.7885L55.2333 32.6725ZM54.7992 33.2875C54.7671 33.3304 54.7405 33.3643 54.7193 33.3904C54.6981 33.4166 54.6842 33.4327 54.6775 33.4402C54.6707 33.4479 54.674 33.4437 54.6874 33.4304C54.7005 33.4173 54.7284 33.3902 54.7711 33.3536L59.9774 39.4277C60.4752 39.0009 60.8841 38.5077 61.1992 38.0875L54.7992 33.2875ZM57.3742 32.3906C56.6004 32.3906 56.1299 32.3253 55.8858 32.2667L54.0189 40.0458C55.0768 40.2997 56.2209 40.3906 57.3742 40.3906V32.3906ZM55.8858 32.2667C55.6409 32.2079 55.4712 32.1584 55.3628 32.1223C55.2454 32.0831 55.2513 32.0767 55.3329 32.1191L51.6421 39.2168C52.4022 39.6121 53.2653 39.8649 54.0189 40.0458L55.8858 32.2667ZM55.4419 32.1779C55.3079 32.1029 55.3063 32.0968 55.3705 32.1405C55.3877 32.1522 55.5447 32.2572 55.738 32.4349C55.8286 32.5183 56.042 32.7213 56.2618 33.029C56.3756 33.1883 56.5399 33.4431 56.6841 33.7835C56.8258 34.1178 56.9992 34.655 56.9992 35.3359H48.9992C48.9992 36.6098 49.5987 37.4644 49.7519 37.6789C49.9819 38.0009 50.2106 38.2203 50.3215 38.3224C50.5554 38.5376 50.7735 38.6889 50.872 38.7559C51.0991 38.9103 51.3416 39.0508 51.5331 39.158L55.4419 32.1779ZM56.9823 34.9686C56.7516 32.4667 56.6281 28.8909 56.6281 24.1836H48.6281C48.6281 28.9815 48.7521 32.8406 49.0161 35.7033L56.9823 34.9686ZM64.5422 35.2344C64.7076 35.2344 64.9665 35.2288 65.2613 35.1895C65.3917 35.1721 66.22 35.0795 67.054 34.5235L62.6164 27.8671C63.0796 27.5583 63.4978 27.4229 63.696 27.3663C63.9216 27.3018 64.1033 27.2731 64.204 27.2597C64.401 27.2334 64.533 27.2344 64.5422 27.2344V35.2344ZM68.7001 32.226C69.3078 29.9469 69.5383 26.857 69.5383 23.207H61.5383C61.5383 26.6924 61.3 28.9281 60.9702 30.1647L68.7001 32.226ZM69.5383 23.207C69.5383 22.4847 69.5021 21.7369 69.3825 21.043L61.4988 22.4023C61.5094 22.4636 61.5383 22.7054 61.5383 23.207H69.5383ZM68.5746 19.2371C67.3884 17.7414 65.7105 17.1562 64.1516 17.1562V25.1562C63.9826 25.1562 63.6651 25.1271 63.2847 24.9599C62.8865 24.785 62.5505 24.5157 62.3066 24.2082L68.5746 19.2371ZM61.5484 18.1192C61.0325 18.5614 60.6758 19.1119 60.6262 19.1848C60.4688 19.4157 60.2993 19.6853 60.1276 19.9679C59.7797 20.5405 59.3304 21.3194 58.789 22.2834L65.7641 26.201C66.2904 25.264 66.6875 24.578 66.9646 24.122C67.1053 23.8902 67.193 23.7545 67.2375 23.6892C67.2606 23.6554 67.2498 23.6732 67.2125 23.721C67.2118 23.7218 67.0437 23.9455 66.7547 24.1933L61.5484 18.1192ZM58.7948 22.2732C57.7178 24.1776 56.8899 25.7002 56.3356 26.8088L63.491 30.3865C63.9523 29.4639 64.6999 28.0829 65.7584 26.2112L58.7948 22.2732ZM55.9133 28.5977V29.5352H63.9133V28.5977H55.9133ZM57.6396 32.8261C58.6909 33.5525 59.8499 34.1166 61.0817 34.5443L63.7058 26.9869C63.0626 26.7636 62.5679 26.5074 62.187 26.2442L57.6396 32.8261ZM61.1288 34.5604C62.1519 34.9014 63.3746 35.2344 64.5422 35.2344V27.2344C64.6828 27.2344 64.6849 27.2524 64.4867 27.2091C64.3063 27.1698 64.0353 27.0964 63.6587 26.9709L61.1288 34.5604ZM78.3797 12.4844L82.3757 12.663L82.5357 9.08276L78.9945 8.53191L78.3797 12.4844ZM75.743 12.0742L71.9691 13.4002L72.7627 15.6587L75.1281 16.0267L75.743 12.0742ZM75.3523 10.4727L71.3999 11.0875L75.3523 10.4727ZM75.3133 7.40625L73.988 3.63217L71.6682 4.44676L71.3475 6.88443L75.3133 7.40625ZM99.0047 8.32422L95.9878 10.9507L96.0042 10.9696L96.0209 10.9883L99.0047 8.32422ZM100.04 16.2344L103.906 17.2592L103.909 17.2478L100.04 16.2344ZM98.8484 19.4766L102.463 21.1889L102.469 21.1776L98.8484 19.4766ZM97.2469 22.3086L93.9187 20.0898L93.9111 20.1011L97.2469 22.3086ZM95.4109 24.5938L92.5825 21.7653L90.7497 23.5981L91.6738 26.0198L95.4109 24.5938ZM96.5828 27.3086L92.9938 29.0746L92.9994 29.0861L93.0051 29.0974L96.5828 27.3086ZM98.4383 30.2578L95.1908 32.5931L97.0527 35.1824L99.9917 33.9439L98.4383 30.2578ZM101.173 29.1055L103.779 26.0712L101.901 24.4579L99.6192 25.4194L101.173 29.1055ZM102.95 32.582H106.95V32.3486L106.923 32.1167L102.95 32.582ZM102.012 33.6953L99.0997 30.9539L99.0853 30.9691L99.0711 30.9846L102.012 33.6953ZM99.6102 35.5508L101.58 39.0322L101.597 39.0224L101.614 39.0125L99.6102 35.5508ZM93.6727 35.8828L92.0364 39.5328L92.048 39.538L92.0596 39.5432L93.6727 35.8828ZM91.7977 34.1055L88.3347 36.1075L88.3396 36.1159L88.3445 36.1243L91.7977 34.1055ZM90.6453 31.1367L86.7647 32.1069L90.6453 31.1367ZM90.0398 27.7383L94.0181 27.322L93.6593 23.8932L90.2151 23.7421L90.0398 27.7383ZM85.5867 27.543L85.762 23.5468L81.0754 23.3413L81.6131 28.0015L85.5867 27.543ZM86.0359 30.6875L82.0916 31.3528L82.093 31.3607L86.0359 30.6875ZM86.368 32.6211L90.3103 31.9441L90.3087 31.935L90.3071 31.926L86.368 32.6211ZM86.7977 35.2578L88.8774 38.6746L91.1209 37.309L90.7596 34.7075L86.7977 35.2578ZM84.6102 36.0977L83.7237 32.1971L83.7107 32.2001L84.6102 36.0977ZM79.0633 35.9805L75.1827 36.9506L75.7419 39.1872L77.9574 39.8246L79.0633 35.9805ZM78.4187 29.9648L74.4228 30.1457L74.4233 30.1551L74.4237 30.1646L78.4187 29.9648ZM90.3719 22.8359L90.6454 26.8266L93.2762 26.6462L94.1473 24.1573L90.3719 22.8359ZM91.4461 18.5977L87.508 17.8968L87.5056 17.9102L87.5033 17.9237L91.4461 18.5977ZM92.1883 13.1094L96.1667 13.5243L96.4861 10.4615L93.6069 9.36938L92.1883 13.1094ZM85.9969 12.7578L85.5989 8.77766L82.1014 9.12741L81.9986 12.6408L85.9969 12.7578ZM85.5281 23.168L81.5418 22.8379L81.1576 27.4769L85.8017 27.1586L85.5281 23.168ZM82.2234 20.4922C82.2234 17.5279 82.2748 14.9201 82.3757 12.663L74.3837 12.3058C74.2762 14.7101 74.2234 17.4408 74.2234 20.4922H82.2234ZM78.9945 8.53191L76.3578 8.12175L75.1281 16.0267L77.7649 16.4368L78.9945 8.53191ZM79.5168 10.7483C79.4405 10.531 79.3642 10.2395 79.3048 9.85783L71.3999 11.0875C71.5228 11.8777 71.7069 12.6539 71.9691 13.4002L79.5168 10.7483ZM79.3048 9.85783C79.2427 9.45844 79.2156 9.09806 79.2156 8.77344H71.2156C71.2156 9.54256 71.2797 10.315 71.3999 11.0875L79.3048 9.85783ZM79.2156 8.77344C79.2156 8.56135 79.2325 8.28249 79.2791 7.92807L71.3475 6.88443C71.2639 7.51959 71.2156 8.15219 71.2156 8.77344H79.2156ZM76.6385 11.1803C77.9149 10.7321 79.8091 10.3449 82.4416 10.1L81.7006 2.13438C78.7341 2.41033 76.1231 2.88244 73.988 3.63217L76.6385 11.1803ZM82.4416 10.1C85.1244 9.85043 87.735 9.72656 90.2742 9.72656V1.72656C87.4749 1.72656 84.6168 1.86311 81.7006 2.13438L82.4416 10.1ZM90.2742 9.72656C92.0744 9.72656 93.4855 9.86932 94.5583 10.1034L96.2636 2.28725C94.4718 1.8963 92.4584 1.72656 90.2742 1.72656V9.72656ZM94.5583 10.1034C95.1492 10.2323 95.5885 10.492 95.9878 10.9507L102.022 5.69775C100.494 3.94287 98.5372 2.78332 96.2636 2.28725L94.5583 10.1034ZM96.0209 10.9883C96.0857 11.0608 96.4695 11.5705 96.4695 13.2461H104.47C104.47 10.5467 103.877 7.77515 101.988 5.66016L96.0209 10.9883ZM96.4695 13.2461C96.4695 13.7278 96.3914 14.377 96.1704 15.2209L103.909 17.2478C104.261 15.9043 104.47 14.5612 104.47 13.2461H96.4695ZM96.1734 15.2095C95.9525 16.0428 95.6406 16.8977 95.2282 17.7755L102.469 21.1776C103.072 19.894 103.554 18.5874 103.906 17.2592L96.1734 15.2095ZM95.2335 17.7642C94.8467 18.5807 94.4084 19.3552 93.9187 20.0898L100.575 24.5274C101.283 23.4651 101.913 22.3516 102.463 21.1889L95.2335 17.7642ZM93.9111 20.1011C93.4479 20.8011 93.0013 21.3465 92.5825 21.7653L98.2394 27.4222C99.0966 26.5649 99.874 25.5869 100.583 24.5161L93.9111 20.1011ZM91.6738 26.0198C92.0887 27.1073 92.5278 28.1276 92.9938 29.0746L100.172 25.5426C99.8305 24.849 99.4883 24.0594 99.1481 23.1677L91.6738 26.0198ZM93.0051 29.0974C93.5424 30.172 94.2956 31.3483 95.1908 32.5931L101.686 27.9225C100.914 26.8496 100.431 26.0598 100.161 25.5197L93.0051 29.0974ZM99.9917 33.9439L102.726 32.7915L99.6192 25.4194L96.8849 26.5718L99.9917 33.9439ZM98.5663 32.1397C98.7509 32.2984 98.9137 32.5052 98.9772 33.0473L106.923 32.1167C106.648 29.7683 105.626 27.6574 103.779 26.0712L98.5663 32.1397ZM98.95 32.582C98.95 31.976 99.0899 31.5162 99.1597 31.3111C99.2408 31.0729 99.3283 30.8924 99.3809 30.7905C99.4846 30.5895 99.5794 30.4521 99.6078 30.4113C99.6726 30.3182 99.7053 30.2838 99.656 30.3424C99.5717 30.4425 99.3973 30.6377 99.0997 30.9539L104.925 36.4368C105.253 36.0889 105.547 35.7665 105.775 35.4955C105.882 35.3685 106.032 35.1852 106.175 34.9798C106.242 34.8829 106.367 34.6984 106.49 34.4596C106.525 34.3924 106.95 33.6315 106.95 32.582H98.95ZM99.0711 30.9846C98.7933 31.286 98.3353 31.6669 97.606 32.0891L101.614 39.0125C102.864 38.2889 104.008 37.4328 104.954 36.406L99.0711 30.9846ZM97.6404 32.0694C97.3038 32.2599 96.8794 32.3906 96.2703 32.3906V40.3906C98.1352 40.3906 99.9374 39.9615 101.58 39.0322L97.6404 32.0694ZM96.2703 32.3906C95.7805 32.3906 95.4759 32.3063 95.2857 32.2225L92.0596 39.5432C93.4059 40.1364 94.833 40.3906 96.2703 40.3906V32.3906ZM95.3089 32.2328C95.3307 32.2426 95.3509 32.254 95.3675 32.2652C95.3839 32.2763 95.3911 32.2832 95.3893 32.2816C95.3861 32.2785 95.3333 32.2277 95.2508 32.0867L88.3445 36.1243C89.1803 37.554 90.3878 38.7938 92.0364 39.5328L95.3089 32.2328ZM95.2606 32.1035C95.0021 31.6563 94.7416 31.0293 94.5259 30.1666L86.7647 32.1069C87.122 33.5358 87.6297 34.888 88.3347 36.1075L95.2606 32.1035ZM94.5259 30.1666C94.2827 29.194 94.1148 28.2462 94.0181 27.322L86.0616 28.1546C86.1992 29.4699 86.435 30.7878 86.7647 32.1069L94.5259 30.1666ZM90.2151 23.7421L85.762 23.5468L85.4114 31.5391L89.8646 31.7344L90.2151 23.7421ZM81.6131 28.0015C81.7388 29.091 81.8986 30.2083 82.0917 31.3528L89.9802 30.0222C89.8087 29.0053 89.669 28.0262 89.5604 27.0845L81.6131 28.0015ZM82.093 31.3607C82.2744 32.423 82.3873 33.0811 82.4288 33.3162L90.3071 31.926C90.2705 31.7184 90.1621 31.0875 89.9789 30.0143L82.093 31.3607ZM82.4257 33.2981C82.6482 34.5937 82.7807 35.4121 82.8357 35.8081L90.7596 34.7075C90.6844 34.1661 90.5305 33.2266 90.3103 31.9441L82.4257 33.2981ZM84.7179 31.841C84.5687 31.9318 84.2651 32.0741 83.7237 32.1971L85.4966 39.9982C86.6739 39.7306 87.8287 39.313 88.8774 38.6746L84.7179 31.841ZM83.7107 32.2001C83.165 32.326 82.6011 32.3906 82.0125 32.3906V40.3906C83.1947 40.3906 84.3626 40.2599 85.5096 39.9952L83.7107 32.2001ZM82.0125 32.3906C81.3608 32.3906 80.7505 32.3036 80.1691 32.1364L77.9574 39.8246C79.2771 40.2042 80.6329 40.3906 82.0125 40.3906V32.3906ZM82.9438 35.0103C82.7624 34.2846 82.5572 32.6331 82.4138 29.7651L74.4237 30.1646C74.5668 33.0258 74.7912 35.3847 75.1827 36.9506L82.9438 35.0103ZM82.4147 29.784C82.2876 26.9768 82.2234 23.8805 82.2234 20.4922H74.2234C74.2234 23.9789 74.2894 27.1977 74.4228 30.1457L82.4147 29.784ZM94.1473 24.1573C94.685 22.6211 95.0953 20.9894 95.3889 19.2716L87.5033 17.9237C87.2761 19.2528 86.9702 20.4466 86.5964 21.5145L94.1473 24.1573ZM95.3842 19.2985C95.6794 17.6401 95.9387 15.7104 96.1667 13.5243L88.2099 12.6944C87.9951 14.7531 87.7597 16.4823 87.508 17.8968L95.3842 19.2985ZM93.6069 9.36938C92.8242 9.07251 91.9891 8.90894 91.2104 8.80954L90.1974 16.7451C90.4055 16.7717 90.5571 16.7993 90.6608 16.8225C90.7673 16.8463 90.7967 16.8596 90.7697 16.8494L93.6069 9.36938ZM91.2104 8.80954C90.4432 8.7116 89.6812 8.66016 88.9266 8.66016V16.6602C89.3178 16.6602 89.7407 16.6868 90.1974 16.7451L91.2104 8.80954ZM88.9266 8.66016C87.5943 8.66016 86.4554 8.69201 85.5989 8.77766L86.3949 16.738C86.8405 16.6934 87.6546 16.6602 88.9266 16.6602V8.66016ZM81.9986 12.6408C81.8554 17.5358 81.7013 20.9108 81.5418 22.8379L89.5145 23.498C89.6934 21.3366 89.8519 17.7715 89.9952 12.8748L81.9986 12.6408ZM85.8017 27.1586L90.6454 26.8266L90.0983 18.8453L85.2546 19.1773L85.8017 27.1586ZM113.057 23.3633L112.39 27.3074L112.399 27.3089L113.057 23.3633ZM115.635 23.9297L114.545 27.7782L119.635 29.2205V23.9297H115.635ZM115.596 21.9766L111.597 22.0818L111.599 22.1343L111.602 22.1868L115.596 21.9766ZM115.518 21L119.399 20.0299L119.281 19.5582L119.053 19.1284L115.518 21ZM114.502 20.3164L112.927 23.993L112.942 23.9996L112.958 24.0062L114.502 20.3164ZM109.424 20.2578L110.305 24.1596L110.328 24.1544L110.351 24.149L109.424 20.2578ZM106.729 21L103.303 23.0654L104.93 25.7628L107.933 24.8143L106.729 21ZM105.44 18.4805L101.71 19.9244L101.724 19.961L101.739 19.9974L105.44 18.4805ZM105.03 15.3164L102.574 12.159L101.325 13.1301L101.079 14.6926L105.03 15.3164ZM121.67 15.9023L124.837 13.4585L121.67 15.9023ZM122.295 27.25L118.416 26.274L118.414 26.2828L118.412 26.2917L122.295 27.25ZM121.534 30.3164L117.739 29.0515L114.925 37.4924L123.106 33.9943L121.534 30.3164ZM124.366 29.1055L127.287 26.3728L125.371 24.3252L122.793 25.4276L124.366 29.1055ZM125.362 30.5898L121.768 32.3467L121.792 32.3951L121.817 32.4429L125.362 30.5898ZM125.928 32.582L129.553 34.2736L130.021 33.271L129.907 32.1704L125.928 32.582ZM124.737 34.0859L127.535 36.9446L127.55 36.9296L127.565 36.9144L124.737 34.0859ZM122.491 35.6875L124.362 39.2227L122.491 35.6875ZM117.256 35.4336L114.219 38.0368L114.234 38.0544L114.25 38.072L117.256 35.4336ZM116.69 31.2148L120.533 32.325L121.632 28.5212L117.839 27.3835L116.69 31.2148ZM116.104 31.0391L117.253 27.2078L112.949 25.9166L112.165 30.3411L116.104 31.0391ZM113.78 35.2578L115.93 38.6309L113.78 35.2578ZM107.139 35.6094L105.051 39.0212L105.07 39.0327L105.089 39.0439L107.139 35.6094ZM105.01 33.3047L101.488 35.2011L101.493 35.2106L101.499 35.2201L105.01 33.3047ZM105.811 24.8281L108.689 27.6059L108.697 27.5976L108.705 27.5892L105.811 24.8281ZM112.745 30.5703L112.403 34.5557L112.97 34.6043L113.529 34.4926L112.745 30.5703ZM113.897 30.0234L111.7 26.6806L111.678 26.6953L111.656 26.7103L113.897 30.0234ZM115.733 27.7578L119.675 28.4374L119.818 27.6061L119.613 26.7877L115.733 27.7578ZM115.616 27.2891L119.496 26.3189L118.836 23.6797L116.139 23.3235L115.616 27.2891ZM112.041 27.3086L110.489 23.6221L109.654 23.9738L109.052 24.6511L112.041 27.3086ZM111.729 30.0039L108.322 32.1003L108.351 32.147L108.381 32.1929L111.729 30.0039ZM110.518 27.1289C111.02 27.1289 111.64 27.1805 112.39 27.3073L113.724 19.4192C112.625 19.2335 111.552 19.1289 110.518 19.1289V27.1289ZM112.399 27.3089C113.215 27.4448 113.927 27.6033 114.545 27.7782L116.726 20.0812C115.78 19.8134 114.774 19.5943 113.715 19.4177L112.399 27.3089ZM119.635 23.9297V23.3242H111.635V23.9297H119.635ZM119.635 23.3242C119.635 22.8369 119.619 22.3161 119.591 21.7663L111.602 22.1868C111.625 22.6266 111.635 23.0043 111.635 23.3242H119.635ZM119.595 21.8713C119.584 21.4601 119.563 20.6858 119.399 20.0299L111.637 21.9701C111.616 21.8853 111.603 21.8182 111.595 21.7764C111.588 21.7331 111.583 21.7014 111.581 21.6846C111.578 21.6672 111.578 21.658 111.578 21.6588C111.578 21.6593 111.578 21.6661 111.58 21.6803C111.582 21.7096 111.585 21.7575 111.588 21.8275C111.592 21.8966 111.595 21.9809 111.597 22.0818L119.595 21.8713ZM119.053 19.1284C118.551 18.1793 117.819 17.6204 117.41 17.3447C116.946 17.0328 116.464 16.8011 116.047 16.6266L112.958 24.0062C113.101 24.0661 113.068 24.0655 112.943 23.9814C112.875 23.9358 112.741 23.8392 112.581 23.6815C112.423 23.5263 112.189 23.2612 111.983 22.8716L119.053 19.1284ZM116.078 16.6398C114.734 16.0638 113.133 15.9648 111.807 15.9648V23.9648C112.319 23.9648 112.674 23.9895 112.901 24.0191C113.155 24.0522 113.118 24.0751 112.927 23.993L116.078 16.6398ZM111.807 15.9648C110.698 15.9648 109.592 16.106 108.498 16.3666L110.351 24.149C110.897 24.019 111.379 23.9648 111.807 23.9648V15.9648ZM108.543 16.356C107.604 16.5682 106.595 16.8475 105.524 17.1857L107.933 24.8143C108.842 24.5275 109.63 24.312 110.305 24.1596L108.543 16.356ZM110.154 18.9346C109.706 18.1905 109.375 17.5345 109.141 16.9636L101.739 19.9974C102.156 21.015 102.684 22.0387 103.303 23.0654L110.154 18.9346ZM109.17 17.0365C109.023 16.6562 108.971 16.3373 108.971 16.0586H100.971C100.971 17.3945 101.232 18.6902 101.71 19.9244L109.17 17.0365ZM108.971 16.0586C108.971 16.0227 108.974 15.9839 108.981 15.9403L101.079 14.6926C101.007 15.1437 100.971 15.5997 100.971 16.0586H108.971ZM107.485 18.4738C108.731 17.5048 110.528 16.8555 113.213 16.8555V8.85547C109.206 8.85547 105.547 9.84679 102.574 12.159L107.485 18.4738ZM113.213 16.8555C114.771 16.8555 116.023 17.0319 117.018 17.3212L119.252 9.63969C117.383 9.0957 115.354 8.85547 113.213 8.85547V16.8555ZM117.018 17.3212C117.624 17.4975 118.089 17.8089 118.504 18.3462L124.837 13.4585C123.403 11.6 121.511 10.2968 119.252 9.63969L117.018 17.3212ZM118.504 18.3462C118.691 18.589 119.057 19.2961 119.057 21H127.057C127.057 18.3029 126.499 15.6115 124.837 13.4585L118.504 18.3462ZM119.057 21C119.057 22.83 118.841 24.5851 118.416 26.274L126.174 28.226C126.765 25.8785 127.057 23.4668 127.057 21H119.057ZM118.412 26.2917C118.165 27.2938 117.978 28.0482 117.852 28.5562C117.789 28.8107 117.741 29.0002 117.709 29.127C117.693 29.1913 117.682 29.2342 117.676 29.2595C117.672 29.2731 117.672 29.2743 117.674 29.2681C117.674 29.2657 117.678 29.2525 117.683 29.2337C117.686 29.2243 117.691 29.2065 117.697 29.184C117.702 29.1684 117.717 29.117 117.739 29.0515L125.328 31.5813C125.351 31.5146 125.366 31.4615 125.371 31.4437C125.379 31.419 125.385 31.3986 125.388 31.3861C125.395 31.361 125.401 31.3396 125.404 31.327C125.411 31.3006 125.418 31.2738 125.424 31.2518C125.436 31.206 125.45 31.1469 125.468 31.0785C125.503 30.94 125.552 30.7414 125.616 30.4848C125.744 29.9706 125.931 29.2114 126.179 28.2083L118.412 26.2917ZM123.106 33.9943L125.938 32.7834L122.793 25.4276L119.961 26.6385L123.106 33.9943ZM121.445 31.8381C121.507 31.905 121.626 32.0552 121.768 32.3467L128.955 28.833C128.525 27.9526 127.979 27.1132 127.287 26.3728L121.445 31.8381ZM121.817 32.4429C121.845 32.4961 121.914 32.6557 121.949 32.9936L129.907 32.1704C129.786 30.998 129.478 29.8294 128.907 28.7368L121.817 32.4429ZM122.303 30.8905C122.352 30.786 122.39 30.7267 122.397 30.7167C122.405 30.7047 122.395 30.721 122.358 30.7671C122.282 30.8635 122.141 31.0252 121.908 31.2575L127.565 36.9144C128.243 36.2361 129.061 35.3274 129.553 34.2736L122.303 30.8905ZM121.939 31.2273C121.644 31.5163 121.221 31.8337 120.619 32.1523L124.362 39.2227C125.531 38.6038 126.606 37.8535 127.535 36.9446L121.939 31.2273ZM120.619 32.1523C120.287 32.3284 120.002 32.3906 119.717 32.3906V40.3906C121.359 40.3906 122.924 39.9841 124.362 39.2227L120.619 32.1523ZM119.717 32.3906C119.563 32.3906 119.597 32.3673 119.741 32.4233C119.815 32.452 119.906 32.4974 120.004 32.5652C120.103 32.6334 120.19 32.7123 120.263 32.7952L114.25 38.072C115.766 39.8002 117.822 40.3906 119.717 40.3906V32.3906ZM120.293 32.8304C120.328 32.8715 120.361 32.9174 120.387 32.9653C120.414 33.0128 120.43 33.0527 120.439 33.079C120.456 33.1317 120.436 33.1035 120.436 32.9531H112.436C112.436 34.7156 112.928 36.5301 114.219 38.0368L120.293 32.8304ZM120.436 32.9531C120.436 32.7793 120.461 32.5734 120.533 32.325L112.847 30.1047C112.58 31.0282 112.436 31.9811 112.436 32.9531H120.436ZM117.839 27.3835L117.253 27.2078L114.955 34.8704L115.54 35.0461L117.839 27.3835ZM112.165 30.3411C111.9 31.8353 111.49 31.9736 111.63 31.8847L115.93 38.6309C118.439 37.0316 119.578 34.3574 120.043 31.737L112.165 30.3411ZM111.63 31.8847C111.1 32.2222 110.54 32.3906 109.854 32.3906V40.3906C112.032 40.3906 114.089 39.8038 115.93 38.6309L111.63 31.8847ZM109.854 32.3906C109.699 32.3906 109.496 32.3577 109.19 32.1749L105.089 39.0439C106.527 39.9027 108.134 40.3906 109.854 40.3906V32.3906ZM109.227 32.1975C109.019 32.0705 108.773 31.8503 108.522 31.3893L101.499 35.2201C102.341 36.7642 103.514 38.0806 105.051 39.0212L109.227 32.1975ZM108.532 31.4083C108.349 31.0693 108.19 30.5576 108.19 29.75H100.19C100.19 31.6507 100.577 33.5089 101.488 35.2011L108.532 31.4083ZM108.19 29.75C108.19 28.2168 108.569 27.7306 108.689 27.6059L102.933 22.0503C100.892 24.1652 100.19 26.9603 100.19 29.75H108.19ZM108.705 27.5892C108.815 27.4746 109.195 27.1289 110.518 27.1289V19.1289C107.726 19.1289 104.969 19.9161 102.917 22.067L108.705 27.5892ZM113.529 34.4926C114.597 34.279 115.492 33.7739 116.138 33.3366L111.656 26.7103C111.561 26.7741 111.532 26.7854 111.562 26.7711C111.588 26.7587 111.726 26.6948 111.96 26.648L113.529 34.4926ZM116.094 33.3663C116.871 32.8552 117.565 32.24 118.165 31.5287L112.051 26.3697C111.948 26.4917 111.834 26.5927 111.7 26.6806L116.094 33.3663ZM118.165 31.5287C118.792 30.7859 119.448 29.7509 119.675 28.4374L111.791 27.0782C111.84 26.7925 111.928 26.5903 111.986 26.4807C112.042 26.3738 112.078 26.3378 112.051 26.3697L118.165 31.5287ZM119.613 26.7877L119.496 26.3189L111.735 28.2592L111.852 28.728L119.613 26.7877ZM116.139 23.3235C115.256 23.2068 114.344 23.1523 113.409 23.1523V31.1523C114.036 31.1523 114.595 31.189 115.092 31.2546L116.139 23.3235ZM113.409 23.1523C112.774 23.1523 111.565 23.1689 110.489 23.6221L113.594 30.9951C113.479 31.0433 113.382 31.0764 113.309 31.0987C113.235 31.1211 113.175 31.1358 113.134 31.145C113.054 31.1627 113.012 31.1667 113.023 31.1655C113.031 31.1646 113.066 31.161 113.135 31.1578C113.203 31.1546 113.294 31.1523 113.409 31.1523V23.1523ZM109.052 24.6511C108.051 25.7772 107.416 27.2227 107.416 28.8711H115.416C115.416 29.0824 115.375 29.3141 115.287 29.5363C115.2 29.7531 115.094 29.8951 115.031 29.966L109.052 24.6511ZM107.416 28.8711C107.416 29.9907 107.707 31.1003 108.322 32.1003L115.136 27.9075C115.226 28.0547 115.301 28.2228 115.351 28.4031C115.4 28.5821 115.416 28.7428 115.416 28.8711H107.416ZM108.381 32.1929C109.369 33.7042 110.904 34.4272 112.403 34.5557L113.086 26.5849C113.322 26.6052 113.691 26.6793 114.097 26.906C114.518 27.1406 114.849 27.4669 115.077 27.8149L108.381 32.1929ZM129.297 5.17969L126.545 2.27719L126.532 2.28915L126.519 2.30121L129.297 5.17969ZM136.465 5.17969L133.687 8.05816L133.7 8.07023L133.712 8.08218L136.465 5.17969ZM136.914 9.76953L133.841 7.20879L133.823 7.23064L133.805 7.25274L136.914 9.76953ZM135.156 11.0781L136.732 14.7547L136.759 14.7429L136.787 14.7307L135.156 11.0781ZM130.527 11L128.662 14.5383L128.7 14.5584L128.738 14.5777L130.527 11ZM128.809 9.59375L125.6 11.9818L125.617 12.0055L125.635 12.029L128.809 9.59375ZM127.227 19.1445L123.36 20.1703L124.021 22.6621L126.564 23.0893L127.227 19.1445ZM126.875 17.4062L122.904 17.8905L122.906 17.9024L126.875 17.4062ZM126.777 15.7461L122.78 15.6033L122.777 15.6747V15.7461H126.777ZM126.797 15.1992L123.639 12.7435L122.846 13.7642L122.799 15.0565L126.797 15.1992ZM128.066 14.1445L130.158 17.5538L130.169 17.5473L130.18 17.5408L128.066 14.1445ZM130.098 13.2266L128.89 9.41319L128.881 9.41613L128.872 9.41912L130.098 13.2266ZM136.406 14.0859L133.487 16.8202L136.406 14.0859ZM137.109 21.9961L133.171 21.294L133.169 21.3088L133.166 21.3236L137.109 21.9961ZM136.055 26.8984L132.186 25.8836L132.183 25.8946L132.18 25.9057L136.055 26.8984ZM135 30.2773L131.342 28.6593L130.233 31.1669L132.172 33.1058L135 30.2773ZM135.039 30.3164L132.211 33.1448L134.014 34.9483L136.41 34.0741L135.039 30.3164ZM137.93 29.2617L140.52 26.214L138.746 24.7059L136.559 25.504L137.93 29.2617ZM139.102 30.7266L135.506 32.4803L135.524 32.5153L135.541 32.5501L139.102 30.7266ZM139.629 32.582H143.629V32.3605L143.604 32.1403L139.629 32.582ZM138.77 33.7148L141.772 36.3574L141.785 36.3426L141.798 36.3278L138.77 33.7148ZM136.484 35.5508L138.535 38.985L138.542 38.9808L138.549 38.9766L136.484 35.5508ZM130.176 35.375L127.531 38.3758L127.543 38.3868L127.556 38.3978L130.176 35.375ZM129.668 19.5547L133.644 19.9908L134.056 16.2358L130.331 15.61L129.668 19.5547ZM132.184 7.97266C132.184 7.90208 132.189 7.86561 132.191 7.85715C132.192 7.84965 132.19 7.86509 132.178 7.89612C132.165 7.92779 132.147 7.96312 132.124 7.997C132.101 8.03058 132.082 8.05088 132.074 8.05816L126.519 2.30121C124.905 3.85865 124.184 5.87394 124.184 7.97266H132.184ZM132.049 8.08218C131.889 8.23435 131.79 8.24165 131.907 8.20647C132.039 8.16697 132.345 8.10547 132.891 8.10547V0.105469C130.793 0.105469 128.372 0.544507 126.545 2.27719L132.049 8.08218ZM132.891 8.10547C133.437 8.10547 133.738 8.16716 133.863 8.20475C133.973 8.23786 133.86 8.22476 133.687 8.05816L139.242 2.30121C137.418 0.541091 134.98 0.105469 132.891 0.105469V8.10547ZM133.712 8.08218C133.707 8.07677 133.688 8.0575 133.665 8.02375C133.641 7.98963 133.622 7.95288 133.608 7.91846C133.594 7.88465 133.591 7.86571 133.591 7.86911C133.592 7.8735 133.598 7.90593 133.598 7.97266H141.598C141.598 5.85187 140.854 3.82916 139.217 2.27719L133.712 8.08218ZM133.598 7.97266C133.598 7.82004 133.626 7.64999 133.688 7.48786C133.748 7.33045 133.817 7.23798 133.841 7.20879L139.987 12.3303C140.982 11.1365 141.598 9.64904 141.598 7.97266H133.598ZM133.805 7.25274C133.802 7.25665 133.789 7.27214 133.754 7.2983C133.717 7.32561 133.647 7.37155 133.526 7.42557L136.787 14.7307C138.013 14.1832 139.133 13.3854 140.023 12.2863L133.805 7.25274ZM133.581 7.40154C133.341 7.50404 133.122 7.54688 132.891 7.54688V15.5469C134.222 15.5469 135.513 15.2772 136.732 14.7547L133.581 7.40154ZM132.891 7.54688C132.641 7.54688 132.468 7.49843 132.316 7.42229L128.738 14.5777C130.045 15.2307 131.448 15.5469 132.891 15.5469V7.54688ZM132.393 7.46172C132.112 7.3137 132.012 7.19799 131.982 7.15847L125.635 12.029C126.464 13.1093 127.51 13.9311 128.662 14.5383L132.393 7.46172ZM132.018 7.20571C131.942 7.1036 132.184 7.38261 132.184 7.97266H124.184C124.184 9.60437 124.842 10.9641 125.6 11.9818L132.018 7.20571ZM131.093 18.1188C130.959 17.6127 130.882 17.2137 130.844 16.9101L122.906 17.9024C122.998 18.6404 123.156 19.4004 123.36 20.1703L131.093 18.1188ZM130.846 16.922C130.801 16.5589 130.777 16.1676 130.777 15.7461H122.777C122.777 16.4704 122.818 17.1859 122.904 17.8905L130.846 16.922ZM130.775 15.8889L130.794 15.342L122.799 15.0565L122.78 15.6033L130.775 15.8889ZM129.954 17.655C129.878 17.7532 129.836 17.781 129.875 17.7486C129.913 17.7178 130 17.6509 130.158 17.5538L125.974 10.7352C125.179 11.2231 124.318 11.871 123.639 12.7435L129.954 17.655ZM130.18 17.5408C130.446 17.3753 130.816 17.1976 131.324 17.034L128.872 9.41912C127.843 9.75033 126.859 10.1846 125.953 10.7483L130.18 17.5408ZM131.305 17.0399C131.689 16.9183 132.089 16.8555 132.52 16.8555V8.85547C131.284 8.85547 130.069 9.04001 128.89 9.41319L131.305 17.0399ZM132.52 16.8555C133.152 16.8555 133.501 16.9291 133.651 16.9765C133.781 17.0178 133.66 17.0055 133.487 16.8202L139.326 11.3517C137.443 9.34114 134.784 8.85547 132.52 8.85547V16.8555ZM133.487 16.8202C133.378 16.7042 133.393 16.6545 133.44 16.8112C133.492 16.9827 133.559 17.3286 133.559 17.9141H141.559C141.559 15.6985 141.082 13.2268 139.326 11.3517L133.487 16.8202ZM133.559 17.9141C133.559 18.6197 133.452 19.7197 133.171 21.294L141.047 22.6982C141.366 20.9131 141.559 19.2918 141.559 17.9141H133.559ZM133.166 21.3236C132.899 22.8925 132.572 24.4122 132.186 25.8836L139.924 27.9133C140.371 26.2076 140.747 24.4591 141.052 22.6686L133.166 21.3236ZM132.18 25.9057C131.782 27.4583 131.497 28.3079 131.342 28.6593L138.658 31.8954C139.102 30.8926 139.52 29.4896 139.93 27.8912L132.18 25.9057ZM132.172 33.1058L132.211 33.1448L137.867 27.488L137.828 27.4489L132.172 33.1058ZM136.41 34.0741L139.301 33.0194L136.559 25.504L133.668 26.5587L136.41 34.0741ZM135.339 32.3095C135.423 32.3805 135.468 32.4317 135.49 32.4587C135.511 32.4847 135.512 32.4919 135.506 32.4803L142.697 28.9729C142.16 27.8737 141.399 26.9605 140.52 26.214L135.339 32.3095ZM135.541 32.5501C135.558 32.5825 135.619 32.7179 135.653 33.0238L143.604 32.1403C143.482 31.0399 143.192 29.9384 142.662 28.9031L135.541 32.5501ZM135.629 32.582C135.629 32.097 135.719 31.7191 135.776 31.5166C135.838 31.296 135.908 31.1245 135.954 31.0187C136.045 30.8126 136.131 30.669 136.162 30.6183C136.228 30.5097 136.267 30.4639 136.227 30.516C136.16 30.6042 136.01 30.7898 135.741 31.1019L141.798 36.3278C142.102 35.9758 142.381 35.6406 142.601 35.3511C142.704 35.2145 142.85 35.0156 142.988 34.7899C143.055 34.6806 143.168 34.4874 143.277 34.2406C143.337 34.1041 143.629 33.4572 143.629 32.582H135.629ZM135.767 31.0723C135.528 31.3437 135.112 31.7075 134.419 32.125L138.549 38.9766C139.758 38.2482 140.865 37.3881 141.772 36.3574L135.767 31.0723ZM134.433 32.1166C134.195 32.259 133.835 32.3906 133.223 32.3906V40.3906C135.084 40.3906 136.899 39.9624 138.535 38.985L134.433 32.1166ZM133.223 32.3906C132.957 32.3906 132.826 32.3547 132.788 32.342C132.76 32.3327 132.775 32.3348 132.796 32.3522L127.556 38.3978C129.209 39.8305 131.221 40.3906 133.223 40.3906V32.3906ZM132.821 32.3742C132.933 32.4736 133.011 32.5733 133.06 32.6504C133.106 32.7245 133.116 32.7623 133.108 32.7395C133.088 32.6785 133.023 32.4283 133.023 31.8984H125.023C125.023 34.0091 125.498 36.5836 127.531 38.3758L132.821 32.3742ZM133.023 31.8984C133.023 30.0563 133.074 28.0901 133.175 25.9984L125.184 25.611C125.077 27.8162 125.023 29.9125 125.023 31.8984H133.023ZM133.175 25.9984C133.275 23.9262 133.432 21.9238 133.644 19.9908L125.692 19.1186C125.461 21.222 125.292 23.3863 125.184 25.611L133.175 25.9984ZM130.331 15.61L127.889 15.1998L126.564 23.0893L129.005 23.4994L130.331 15.61ZM142.587 19.0469L138.766 17.8647L138.762 17.8773L138.758 17.8899L142.587 19.0469ZM145.205 14.5938L142.424 11.7188L142.416 11.7264L142.408 11.7341L145.205 14.5938ZM155.537 14.7891L153.249 18.0703L155.416 19.5813L157.657 18.1811L155.537 14.7891ZM155.849 14.5938L157.969 17.9857L159.906 16.775L159.848 14.4912L155.849 14.5938ZM155.283 10.4531L159.141 9.39722L158.387 6.64374L155.538 6.4613L155.283 10.4531ZM151.318 10.1992L148.161 12.655L149.266 14.076L151.062 14.191L151.318 10.1992ZM150.888 9.16406L146.984 10.0318L146.986 10.0436L146.989 10.0554L150.888 9.16406ZM150.966 6L148.636 2.74873L147.567 3.51489L147.162 4.76598L150.966 6ZM160.712 5.16016L158.157 8.2378L158.175 8.2522L158.192 8.2664L160.712 5.16016ZM162.099 7.71875L158.18 8.52033L158.186 8.5463L158.191 8.5722L162.099 7.71875ZM161.279 29.75L165.173 30.6662L165.204 30.5339L165.226 30.3998L161.279 29.75ZM161.201 30.082L157.307 29.1659L155.487 36.9005L162.784 33.7553L161.201 30.082ZM163.466 29.1055L166.387 26.3728L164.466 24.3188L161.883 25.4322L163.466 29.1055ZM164.462 30.5898L160.869 32.3467L160.893 32.3951L160.918 32.4429L164.462 30.5898ZM165.029 32.582L168.654 34.2736L169.122 33.271L169.008 32.1704L165.029 32.582ZM163.837 34.0859L166.635 36.9446L166.651 36.9296L166.666 36.9144L163.837 34.0859ZM156.318 35.4336L153.315 38.0761L153.343 38.108L153.372 38.1392L156.318 35.4336ZM155.654 31.3516L151.715 30.6528L151.71 30.6837L151.705 30.7146L155.654 31.3516ZM156.005 29.6719L159.845 30.7919L160.957 26.9812L157.155 25.8406L156.005 29.6719ZM155.42 29.4961L156.569 25.6648L152.684 24.4993L151.573 28.4L155.42 29.4961ZM144.56 34.6719L141.569 37.3272L141.584 37.345L141.6 37.3626L144.56 34.6719ZM155.166 24.3789L158.83 25.9822L159.029 25.5268L159.111 25.0365L155.166 24.3789ZM155.224 21.5859L151.234 21.8709L151.239 21.9416L151.247 22.0121L155.224 21.5859ZM155.127 20.8047L159.007 19.8345L158.654 18.4213L157.474 17.5662L155.127 20.8047ZM153.349 20.0039L152.416 23.8935L152.424 23.8955L152.433 23.8976L153.349 20.0039ZM150.459 19.8672L149.801 15.9216L148.537 16.1323L147.63 17.0388L150.459 19.8672ZM149.834 21.5664L153.769 22.282L153.771 22.2716L149.834 21.5664ZM149.834 27.8555L145.874 28.4212L145.878 28.4478L145.882 28.4744L149.834 27.8555ZM150.537 30.3945L146.944 32.1527L148.041 34.3945H150.537V30.3945ZM151.748 29.4375L148.833 26.6979L148.831 26.6998L151.748 29.4375ZM153.642 27.0547L156.928 29.3363L156.935 29.3257L156.942 29.315L153.642 27.0547ZM145.767 24.7305C145.767 23.1248 145.988 21.6213 146.417 20.2038L138.758 17.8899C138.093 20.0922 137.767 22.3778 137.767 24.7305H145.767ZM146.409 20.229C146.8 18.9629 147.357 18.0841 148.002 17.4534L142.408 11.7341C140.683 13.4211 139.494 15.5111 138.766 17.8647L146.409 20.229ZM147.986 17.4687C148.37 17.0967 148.847 16.8555 149.716 16.8555V8.85547C146.966 8.85547 144.435 9.77307 142.424 11.7188L147.986 17.4687ZM149.716 16.8555C150.841 16.8555 151.994 17.1956 153.249 18.0703L157.824 11.5078C155.381 9.80441 152.655 8.85547 149.716 8.85547V16.8555ZM157.657 18.1811L157.969 17.9857L153.729 11.2018L153.417 11.3971L157.657 18.1811ZM159.848 14.4912C159.802 12.704 159.579 10.9969 159.141 9.39722L151.425 11.509C151.664 12.3833 151.818 13.4367 151.851 14.6963L159.848 14.4912ZM155.538 6.4613L151.574 6.2074L151.062 14.191L155.027 14.4449L155.538 6.4613ZM154.475 7.74346C154.652 7.96996 154.736 8.15451 154.768 8.23114C154.801 8.31059 154.802 8.33317 154.788 8.27276L146.989 10.0554C147.156 10.7881 147.472 11.7703 148.161 12.655L154.475 7.74346ZM154.793 8.29634C154.754 8.12104 154.732 7.93058 154.732 7.71875H146.732C146.732 8.4965 146.814 9.26959 146.984 10.0318L154.793 8.29634ZM154.732 7.71875C154.732 7.35106 154.777 7.21526 154.771 7.23402L147.162 4.76598C146.843 5.74828 146.732 6.75831 146.732 7.71875H154.732ZM153.296 9.25127C153.542 9.075 154.023 8.8272 154.886 8.62522L153.063 0.835716C151.478 1.20666 149.953 1.80521 148.636 2.74873L153.296 9.25127ZM154.886 8.62522C155.819 8.4068 156.737 8.30078 157.646 8.30078V0.300781C156.107 0.300781 154.577 0.481221 153.063 0.835716L154.886 8.62522ZM157.646 8.30078C158.053 8.30078 158.27 8.34519 158.349 8.36723C158.417 8.38635 158.316 8.36975 158.157 8.2378L163.268 2.08252C161.573 0.675516 159.477 0.300781 157.646 0.300781V8.30078ZM158.192 8.2664C158.147 8.22965 158.112 8.19319 158.088 8.16329C158.064 8.13401 158.056 8.11854 158.06 8.12572C158.07 8.14325 158.126 8.2568 158.18 8.52033L166.018 6.91717C165.657 5.15364 164.842 3.35928 163.233 2.05391L158.192 8.2664ZM158.191 8.5722C158.349 9.29252 158.47 10.5365 158.47 12.4453H166.47C166.47 10.3176 166.345 8.41061 166.007 6.8653L158.191 8.5722ZM158.47 12.4453C158.47 14.9945 158.364 17.9189 158.147 21.2263L166.13 21.7503C166.355 18.3128 166.47 15.2087 166.47 12.4453H158.47ZM158.147 21.2263C157.93 24.5321 157.654 27.1435 157.332 29.1002L165.226 30.3998C165.607 28.0857 165.904 25.1893 166.13 21.7503L158.147 21.2263ZM157.385 28.8338L157.307 29.1659L165.094 30.9982L165.173 30.6662L157.385 28.8338ZM162.784 33.7553L165.05 32.7788L161.883 25.4322L159.617 26.4087L162.784 33.7553ZM160.545 31.8381C160.608 31.905 160.726 32.0552 160.869 32.3467L168.056 28.833C167.626 27.9526 167.08 27.1132 166.387 26.3728L160.545 31.8381ZM160.918 32.4429C160.945 32.4961 161.015 32.6557 161.05 32.9936L169.008 32.1704C168.886 30.998 168.579 29.8294 168.007 28.7368L160.918 32.4429ZM161.404 30.8905C161.453 30.786 161.491 30.7267 161.498 30.7167C161.505 30.7047 161.496 30.721 161.459 30.7671C161.383 30.8635 161.241 31.0252 161.009 31.2575L166.666 36.9144C167.344 36.2361 168.162 35.3274 168.654 34.2736L161.404 30.8905ZM161.04 31.2273C160.744 31.5163 160.322 31.8337 159.72 32.1523L163.463 39.2227C164.632 38.6038 165.707 37.8535 166.635 36.9446L161.04 31.2273ZM159.72 32.1523C159.387 32.3284 159.103 32.3906 158.818 32.3906V40.3906C160.46 40.3906 162.025 39.9841 163.463 39.2227L159.72 32.1523ZM158.818 32.3906C158.666 32.3906 158.687 32.3679 158.812 32.4157C158.876 32.44 158.955 32.4785 159.04 32.5358C159.126 32.5935 159.201 32.6596 159.264 32.728L153.372 38.1392C154.895 39.7981 156.914 40.3906 158.818 40.3906V32.3906ZM159.321 32.7911C159.347 32.8208 159.375 32.8582 159.4 32.9016C159.425 32.9449 159.442 32.9846 159.453 33.0157C159.475 33.0799 159.459 33.0727 159.459 32.9531H151.459C151.459 34.7672 152 36.5821 153.315 38.0761L159.321 32.7911ZM159.459 32.9531C159.459 33.038 159.454 33.0743 159.457 33.0333C159.46 33.0011 159.466 32.9395 159.478 32.8416C159.502 32.6447 159.542 32.3645 159.603 31.9885L151.705 30.7146C151.585 31.4575 151.459 32.3152 151.459 32.9531H159.459ZM159.592 32.0503C159.66 31.6714 159.717 31.3725 159.764 31.1456C159.788 31.0329 159.807 30.9461 159.823 30.8817C159.839 30.8148 159.847 30.7883 159.845 30.7919L152.165 28.5519C152.007 29.0969 151.857 29.8528 151.715 30.6528L159.592 32.0503ZM157.155 25.8406L156.569 25.6648L154.27 33.3274L154.856 33.5032L157.155 25.8406ZM151.573 28.4C151 30.4091 150.362 31.4404 149.905 31.913L155.66 37.4698C157.392 35.6768 158.511 33.2446 159.266 30.5921L151.573 28.4ZM149.905 31.913C149.586 32.2431 149.281 32.3906 148.72 32.3906V40.3906C151.389 40.3906 153.792 39.4053 155.66 37.4698L149.905 31.913ZM148.72 32.3906C147.967 32.3906 147.709 32.1895 147.52 31.9812L141.6 37.3626C143.494 39.4459 146.01 40.3906 148.72 40.3906V32.3906ZM147.552 32.0165C147.025 31.4229 146.571 30.593 146.283 29.3873L138.502 31.2455C139.047 33.5294 140.038 35.6032 141.569 37.3272L147.552 32.0165ZM146.283 29.3873C145.946 27.9763 145.767 26.4285 145.767 24.7305H137.767C137.767 26.9907 138.005 29.1669 138.502 31.2455L146.283 29.3873ZM159.111 25.0365C159.235 24.295 159.283 23.5192 159.283 22.7383H151.283C151.283 23.2074 151.253 23.5253 151.22 23.7213L159.111 25.0365ZM159.283 22.7383C159.283 22.2063 159.257 21.6792 159.201 21.1598L151.247 22.0121C151.269 22.2218 151.283 22.463 151.283 22.7383H159.283ZM159.214 21.3009C159.187 20.9206 159.138 20.357 159.007 19.8345L151.246 21.7748C151.235 21.7318 151.228 21.6972 151.223 21.6728C151.218 21.6482 151.214 21.6298 151.212 21.619C151.209 21.5985 151.209 21.5951 151.211 21.6133C151.213 21.6306 151.217 21.6606 151.221 21.7054C151.225 21.7498 151.23 21.8046 151.234 21.8709L159.214 21.3009ZM157.474 17.5662C156.499 16.859 155.414 16.3804 154.265 16.1102L152.433 23.8976C152.613 23.9399 152.713 23.9952 152.779 24.0431L157.474 17.5662ZM154.283 16.1144C153.391 15.9004 152.474 15.7695 151.552 15.7695V23.7695C151.724 23.7695 152.005 23.7949 152.416 23.8935L154.283 16.1144ZM151.552 15.7695C150.96 15.7695 150.373 15.8262 149.801 15.9216L151.116 23.8128C151.325 23.778 151.467 23.7695 151.552 23.7695V15.7695ZM147.63 17.0388C146.91 17.7592 146.545 18.5848 146.353 19.1065C146.14 19.6849 145.998 20.2911 145.896 20.8612L153.771 22.2716C153.825 21.9693 153.866 21.8561 153.861 21.8681C153.857 21.8792 153.826 21.9639 153.753 22.0926C153.682 22.2169 153.538 22.4448 153.287 22.6956L147.63 17.0388ZM145.898 20.8509C145.69 21.994 145.599 23.2098 145.599 24.4766H153.599C153.599 23.5819 153.664 22.8575 153.769 22.2819L145.898 20.8509ZM145.599 24.4766C145.599 25.8155 145.69 27.1312 145.874 28.4212L153.793 27.2898C153.665 26.3923 153.599 25.4553 153.599 24.4766H145.599ZM145.882 28.4744C146.08 29.7421 146.395 31.0309 146.944 32.1527L154.13 28.6363C154.08 28.5342 153.925 28.1303 153.785 27.2365L145.882 28.4744ZM150.537 34.3945C151.523 34.3945 152.262 34.0469 152.579 33.8817C152.958 33.6842 153.264 33.4611 153.476 33.2935C153.903 32.9559 154.309 32.5535 154.664 32.1752L148.831 26.6998C148.588 26.9595 148.492 27.0356 148.515 27.017C148.526 27.0089 148.655 26.9055 148.881 26.7877C148.999 26.726 149.189 26.6367 149.439 26.5591C149.685 26.4829 150.063 26.3945 150.537 26.3945V34.3945ZM154.662 32.1771C155.44 31.3498 156.194 30.3934 156.928 29.3363L150.357 24.7731C149.789 25.5909 149.279 26.2231 148.833 26.6979L154.662 32.1771ZM156.942 29.315C157.7 28.2093 158.343 27.0968 158.83 25.9822L151.501 22.7756C151.259 23.3277 150.887 23.999 150.342 24.7943L156.942 29.315Z" fill="#D91965" mask="url(#path-1-outside-1_0_1)"/>
</g>
<defs>
<filter id="filter0_d_0_1" x="0.308594" y="0.105469" width="168.72" height="40.2852" filterUnits="userSpaceOnUse" color-interpolation-filters="sRGB">
<feFlood flood-opacity="0" result="BackgroundImageFix"/>
<feColorMatrix in="SourceAlpha" type="matrix" values="0 0 0 0 0 0 0 0 0 0 0 0 0 0 0 0 0 0 127 0" result="hardAlpha"/>
<feOffset/>
<feGaussianBlur stdDeviation="2"/>
<feComposite in2="hardAlpha" operator="out"/>
<feColorMatrix type="matrix" values="0 0 0 0 0 0 0 0 0 0 0 0 0 0 0 0 0 0 0.25 0"/>
<feBlend mode="normal" in2="BackgroundImageFix" result="effect1_dropShadow_0_1"/>
<feBlend mode="normal" in="SourceGraphic" in2="effect1_dropShadow_0_1" result="shape"/>
</filter>
</defs>
</svg>
