<svg width="256" height="68" viewBox="0 0 256 68" fill="none" xmlns="http://www.w3.org/2000/svg">
<g filter="url(#filter0_i_0_1)">
<path d="M49.1836 38.9863C49.1836 41.0143 48.7962 42.9284 48.0215 44.7285C47.2695 46.5059 46.2214 48.0667 44.877 49.4111C43.5553 50.7327 41.9945 51.7809 40.1943 52.5557C38.417 53.3076 36.5143 53.6836 34.4863 53.6836C32.6634 53.6836 30.9089 53.3646 29.2227 52.7266C27.5592 52.0885 26.0553 51.1543 24.7109 49.9238C23.3665 51.1543 21.8512 52.0885 20.165 52.7266C18.4788 53.3646 16.7243 53.6836 14.9014 53.6836C12.8734 53.6836 10.9593 53.3076 9.15918 52.5557C7.38184 51.7809 5.82096 50.7327 4.47656 49.4111C3.15495 48.0667 2.10677 46.5059 1.33203 44.7285C0.580078 42.9284 0.204102 41.0143 0.204102 38.9863V3.98633H10.0137V38.9863C10.0137 39.6699 10.139 40.3193 10.3896 40.9346C10.6403 41.527 10.9821 42.0511 11.415 42.5068C11.8708 42.9398 12.3949 43.2816 12.9873 43.5322C13.5798 43.7829 14.2178 43.9082 14.9014 43.9082C15.585 43.9082 16.223 43.7829 16.8154 43.5322C17.4079 43.2816 17.9206 42.9398 18.3535 42.5068C18.8092 42.0511 19.1624 41.527 19.4131 40.9346C19.6637 40.3193 19.7891 39.6699 19.7891 38.9863V3.98633H29.5986V38.9863C29.5986 39.6699 29.724 40.3193 29.9746 40.9346C30.2253 41.527 30.5671 42.0511 31 42.5068C31.4557 42.9398 31.9798 43.2816 32.5723 43.5322C33.1647 43.7829 33.8027 43.9082 34.4863 43.9082C35.1699 43.9082 35.8079 43.7829 36.4004 43.5322C36.9928 43.2816 37.5055 42.9398 37.9385 42.5068C38.3942 42.0511 38.7474 41.527 38.998 40.9346C39.2715 40.3193 39.4082 39.6699 39.4082 38.9863V3.98633H49.1836V38.9863ZM65.248 66.9453V57.5459L70.4434 57.6143C71.3548 57.6143 72.2321 57.4661 73.0752 57.1699C73.9183 56.8737 74.693 56.4635 75.3994 55.9395C76.1286 55.4154 76.7666 54.7887 77.3135 54.0596C77.8604 53.3532 78.3047 52.5785 78.6465 51.7354C77.6211 52.1683 76.5729 52.6012 75.502 53.0342C74.4538 53.4671 73.3942 53.6836 72.3232 53.6836C70.0674 53.6836 67.9482 53.2848 65.9658 52.4873C63.9834 51.6898 62.2402 50.5618 60.7363 49.1035C59.2552 47.6224 58.0817 45.8337 57.2158 43.7373C56.3727 41.6182 55.9512 39.2484 55.9512 36.6279V16.3936H65.248V36.6279C65.248 37.9268 65.4303 39.0661 65.7949 40.0459C66.1823 41.0029 66.695 41.8118 67.333 42.4727C67.971 43.1107 68.7116 43.5892 69.5547 43.9082C70.4206 44.2272 71.3434 44.3867 72.3232 44.3867C73.2803 44.3867 74.1803 44.1702 75.0234 43.7373C75.8893 43.2816 76.6413 42.6891 77.2793 41.96C77.9173 41.2308 78.4186 40.4105 78.7832 39.499C79.1478 38.5648 79.3301 37.6077 79.3301 36.6279V16.3936H88.7295V48.3857C88.7067 50.9606 88.2054 53.376 87.2256 55.6318C86.2458 57.8877 84.9014 59.8587 83.1924 61.5449C81.5062 63.2311 79.5352 64.5641 77.2793 65.5439C75.0234 66.5238 72.6081 67.0137 70.0332 67.0137L65.248 66.9453ZM105.204 53H95.873V16.3936H98.1289L101.205 19.9482C102.709 18.5811 104.407 17.5329 106.298 16.8037C108.212 16.0518 110.206 15.6758 112.279 15.6758C114.512 15.6758 116.62 16.1087 118.603 16.9746C120.585 17.8177 122.317 18.9912 123.798 20.4951C125.279 21.9762 126.441 23.7194 127.284 25.7246C128.15 27.707 128.583 29.8262 128.583 32.082V53H119.252V32.082C119.252 31.125 119.07 30.2249 118.705 29.3818C118.34 28.516 117.839 27.764 117.201 27.126C116.563 26.488 115.823 25.9867 114.979 25.6221C114.136 25.2575 113.236 25.0752 112.279 25.0752C111.299 25.0752 110.377 25.2575 109.511 25.6221C108.645 25.9867 107.893 26.488 107.255 27.126C106.617 27.764 106.116 28.516 105.751 29.3818C105.386 30.2249 105.204 31.125 105.204 32.082V53ZM170.624 34.3721C170.624 37.1064 170.134 39.6585 169.154 42.0283C168.174 44.3753 166.841 46.4147 165.155 48.1465C163.469 49.8555 161.487 51.2113 159.208 52.2139C156.952 53.1937 154.525 53.6836 151.928 53.6836C149.353 53.6836 146.926 53.1937 144.647 52.2139C142.392 51.2113 140.409 49.8555 138.7 48.1465C137.014 46.4147 135.681 44.3753 134.701 42.0283C133.721 39.6585 133.231 37.1064 133.231 34.3721C133.231 31.5921 133.721 29.0173 134.701 26.6475C135.681 24.2777 137.014 22.2383 138.7 20.5293C140.409 18.7975 142.392 17.4417 144.647 16.4619C146.926 15.4821 149.353 14.9922 151.928 14.9922C154.525 14.9922 156.952 15.4593 159.208 16.3936C161.487 17.305 163.469 18.6152 165.155 20.3242C166.841 22.0104 168.174 24.0498 169.154 26.4424C170.134 28.8122 170.624 31.4554 170.624 34.3721ZM161.225 34.3721C161.225 32.8682 160.974 31.5124 160.473 30.3047C159.994 29.0742 159.333 28.026 158.49 27.1602C157.647 26.2715 156.656 25.5993 155.517 25.1436C154.4 24.665 153.204 24.4258 151.928 24.4258C150.652 24.4258 149.444 24.665 148.305 25.1436C147.188 25.5993 146.208 26.2715 145.365 27.1602C144.545 28.026 143.896 29.0742 143.417 30.3047C142.938 31.5124 142.699 32.8682 142.699 34.3721C142.699 35.7848 142.938 37.0951 143.417 38.3027C143.896 39.5104 144.545 40.5586 145.365 41.4473C146.208 42.3359 147.188 43.0423 148.305 43.5664C149.444 44.0677 150.652 44.3184 151.928 44.3184C153.204 44.3184 154.4 44.0791 155.517 43.6006C156.656 43.1221 157.647 42.4499 158.49 41.584C159.333 40.7181 159.994 39.6699 160.473 38.4395C160.974 37.209 161.225 35.8532 161.225 34.3721ZM185.116 53H175.785V16.3936H178.041L181.117 20.7344C182.621 19.3672 184.33 18.319 186.244 17.5898C188.158 16.8379 190.141 16.4619 192.191 16.4619H200.429V25.7588H192.191C191.212 25.7588 190.289 25.9411 189.423 26.3057C188.557 26.6702 187.805 27.1715 187.167 27.8096C186.529 28.4476 186.028 29.1995 185.663 30.0654C185.299 30.9313 185.116 31.8542 185.116 32.834V53ZM215.775 6.44727C215.775 7.31315 215.604 8.12207 215.263 8.87402C214.944 9.62598 214.499 10.2868 213.93 10.8564C213.36 11.4033 212.688 11.8477 211.913 12.1895C211.161 12.5085 210.352 12.668 209.486 12.668C208.62 12.668 207.8 12.5085 207.025 12.1895C206.273 11.8477 205.613 11.4033 205.043 10.8564C204.496 10.2868 204.052 9.62598 203.71 8.87402C203.391 8.12207 203.231 7.31315 203.231 6.44727C203.231 5.60417 203.391 4.80664 203.71 4.05469C204.052 3.27995 204.496 2.61914 205.043 2.07227C205.613 1.5026 206.273 1.05827 207.025 0.739258C207.8 0.397461 208.62 0.226562 209.486 0.226562C210.352 0.226562 211.161 0.397461 211.913 0.739258C212.688 1.05827 213.36 1.5026 213.93 2.07227C214.499 2.61914 214.944 3.27995 215.263 4.05469C215.604 4.80664 215.775 5.60417 215.775 6.44727ZM214.169 53H204.77V16.3936H214.169V53ZM255.014 53H243.598L236.317 41.7891L228.969 53H217.553L230.917 34.2354L217.553 16.1885H228.969L236.317 26.6816L243.598 16.1885H255.014L241.615 34.2354L255.014 53Z" fill="white" fill-opacity="0.83"/>
</g>
<path d="M47.7656 36.7725C47.7656 38.6865 47.401 40.498 46.6719 42.207C45.9427 43.8932 44.9401 45.363 43.6641 46.6162C42.4108 47.8695 40.9297 48.8607 39.2207 49.5898C37.5345 50.319 35.723 50.6836 33.7861 50.6836C32.0544 50.6836 30.391 50.3874 28.7959 49.7949C27.2008 49.1797 25.7539 48.291 24.4551 47.1289C23.179 48.291 21.7435 49.1797 20.1484 49.7949C18.5762 50.3874 16.9128 50.6836 15.1582 50.6836C13.2214 50.6836 11.4098 50.319 9.72363 49.5898C8.03743 48.8607 6.55632 47.8695 5.28027 46.6162C4.02702 45.363 3.03581 43.8932 2.30664 42.207C1.57747 40.498 1.21289 38.6865 1.21289 36.7725V13.4619H10.5439V36.7725C10.5439 37.4105 10.6579 38.0143 10.8857 38.584C11.1364 39.1309 11.4668 39.6208 11.877 40.0537C12.3099 40.4639 12.7998 40.7943 13.3467 41.0449C13.9163 41.2728 14.5202 41.3867 15.1582 41.3867C15.7962 41.3867 16.4001 41.2728 16.9697 41.0449C17.5394 40.7943 18.0407 40.4639 18.4736 40.0537C18.9066 39.6208 19.237 39.1309 19.4648 38.584C19.7155 38.0143 19.8408 37.4105 19.8408 36.7725V13.4619H29.1377V36.7725C29.1377 37.4105 29.263 38.0143 29.5137 38.584C29.7643 39.1309 30.0947 39.6208 30.5049 40.0537C30.9378 40.4639 31.4277 40.7943 31.9746 41.0449C32.5443 41.2728 33.1481 41.3867 33.7861 41.3867C34.4242 41.3867 35.028 41.2728 35.5977 41.0449C36.1673 40.7943 36.6572 40.4639 37.0674 40.0537C37.5003 39.6208 37.8421 39.1309 38.0928 38.584C38.3434 38.0143 38.4688 37.4105 38.4688 36.7725V13.4619H47.7656V36.7725Z" fill="#25A386"/>
<path d="M47.7656 28.7725C47.7656 30.6865 47.401 32.498 46.6719 34.207C45.9427 35.8932 44.9401 37.363 43.6641 38.6162C42.4108 39.8695 40.9297 40.8607 39.2207 41.5898C37.5345 42.319 35.723 42.6836 33.7861 42.6836C32.0544 42.6836 30.391 42.3874 28.7959 41.7949C27.2008 41.1797 25.7539 40.291 24.4551 39.1289C23.179 40.291 21.7435 41.1797 20.1484 41.7949C18.5762 42.3874 16.9128 42.6836 15.1582 42.6836C13.2214 42.6836 11.4098 42.319 9.72363 41.5898C8.03743 40.8607 6.55632 39.8695 5.28027 38.6162C4.02702 37.363 3.03581 35.8932 2.30664 34.207C1.57747 32.498 1.21289 30.6865 1.21289 28.7725V5.46191H10.5439V28.7725C10.5439 29.4105 10.6579 30.0143 10.8857 30.584C11.1364 31.1309 11.4668 31.6208 11.877 32.0537C12.3099 32.4639 12.7998 32.7943 13.3467 33.0449C13.9163 33.2728 14.5202 33.3867 15.1582 33.3867C15.7962 33.3867 16.4001 33.2728 16.9697 33.0449C17.5394 32.7943 18.0407 32.4639 18.4736 32.0537C18.9066 31.6208 19.237 31.1309 19.4648 30.584C19.7155 30.0143 19.8408 29.4105 19.8408 28.7725V5.46191H29.1377V28.7725C29.1377 29.4105 29.263 30.0143 29.5137 30.584C29.7643 31.1309 30.0947 31.6208 30.5049 32.0537C30.9378 32.4639 31.4277 32.7943 31.9746 33.0449C32.5443 33.2728 33.1481 33.3867 33.7861 33.3867C34.4242 33.3867 35.028 33.2728 35.5977 33.0449C36.1673 32.7943 36.6572 32.4639 37.0674 32.0537C37.5003 31.6208 37.8421 31.1309 38.0928 30.584C38.3434 30.0143 38.4688 29.4105 38.4688 28.7725V5.46191H47.7656V28.7725Z" fill="#25A386"/>
<defs>
<filter id="filter0_i_0_1" x="0.204102" y="0.226562" width="254.81" height="70.7871" filterUnits="userSpaceOnUse" color-interpolation-filters="sRGB">
<feFlood flood-opacity="0" result="BackgroundImageFix"/>
<feBlend mode="normal" in="SourceGraphic" in2="BackgroundImageFix" result="shape"/>
<feColorMatrix in="SourceAlpha" type="matrix" values="0 0 0 0 0 0 0 0 0 0 0 0 0 0 0 0 0 0 127 0" result="hardAlpha"/>
<feOffset dy="4"/>
<feGaussianBlur stdDeviation="2"/>
<feComposite in2="hardAlpha" operator="arithmetic" k2="-1" k3="1"/>
<feColorMatrix type="matrix" values="0 0 0 0 0 0 0 0 0 0 0 0 0 0 0 0 0 0 0.25 0"/>
<feBlend mode="normal" in2="shape" result="effect1_innerShadow_0_1"/>
</filter>
</defs>
</svg>
