<svg width="431" height="65" viewBox="0 0 431 65" fill="none" xmlns="http://www.w3.org/2000/svg">
<g filter="url(#filter0_i_0_1)">
<path d="M103.48 62.272C103.48 62.8 101.992 63.232 99.016 63.568C96.088 63.856 93.136 64 90.16 64C87.232 64 85.36 63.88 84.544 63.64C83.776 63.352 83.392 62.896 83.392 62.272V31.312H73.384C72.856 31.312 72.4 30.64 72.016 29.296C71.632 27.952 71.44 25.96 71.44 23.32C71.44 20.632 71.728 18.232 72.304 16.12C72.88 13.96 73.648 12.88 74.608 12.88H113.56C114.28 12.88 114.76 13.552 115 14.896C115.288 16.24 115.432 18.184 115.432 20.728C115.432 23.272 115.168 25.672 114.64 27.928C114.112 30.184 113.392 31.312 112.48 31.312H103.48V62.272ZM143.538 62.272V42.256C143.538 38.656 143.394 36.04 143.106 34.408C142.818 32.776 142.122 31.96 141.018 31.96C140.058 31.96 139.578 32.608 139.578 33.904V62.272C139.578 62.8 138.186 63.232 135.402 63.568C132.618 63.856 129.762 64 126.834 64C123.906 64 122.058 63.88 121.29 63.64C120.522 63.352 120.138 62.896 120.138 62.272V12.376C120.138 11.368 121.53 10.36 124.314 9.352C127.098 8.344 130.026 7.84 133.098 7.84C136.314 7.84 138.354 8.44 139.218 9.64C139.506 10.024 139.65 10.432 139.65 10.864V21.448L138.858 26.416H139.362C140.034 25.408 141.09 24.52 142.53 23.752C145.218 22.312 148.146 21.592 151.314 21.592C155.874 21.592 158.946 23.056 160.53 25.984C162.162 28.864 162.978 33.568 162.978 40.096V62.272C162.978 62.8 161.562 63.232 158.73 63.568C155.946 63.856 153.09 64 150.162 64C147.282 64 145.458 63.88 144.69 63.64C143.922 63.352 143.538 62.896 143.538 62.272ZM183.213 64.648C177.837 64.648 174.069 63.256 171.909 60.472C169.797 57.688 168.741 52.84 168.741 45.928V26.344C168.741 25.384 170.157 24.472 172.989 23.608C175.821 22.696 178.797 22.24 181.917 22.24C186.093 22.24 188.181 23.32 188.181 25.48V43.768C188.181 47.416 188.325 50.08 188.613 51.76C188.901 53.392 189.621 54.208 190.773 54.208C192.309 54.208 193.077 53.56 193.077 52.264V26.344C193.077 25.336 194.565 24.4 197.541 23.536C200.517 22.672 203.757 22.24 207.261 22.24C210.765 22.24 212.517 23.176 212.517 25.048V62.128C212.517 62.8 211.005 63.28 207.981 63.568C204.957 63.856 201.981 64 199.053 64C196.125 64 194.637 63.616 194.589 62.848L193.869 58.168H193.293C192.861 59.896 191.997 61.312 190.701 62.416C190.029 62.992 189.021 63.52 187.677 64C186.381 64.432 184.893 64.648 183.213 64.648ZM261.674 40.096V62.272C261.674 62.8 260.306 63.232 257.57 63.568C254.834 63.856 252.002 64 249.074 64C246.194 64 244.322 63.88 243.458 63.64C242.642 63.352 242.234 62.896 242.234 62.272V39.376C242.234 37.216 242.138 35.8 241.946 35.128C241.802 34.456 241.658 33.856 241.514 33.328C241.178 32.416 240.578 31.96 239.714 31.96C238.37 31.96 237.698 32.608 237.698 33.904V62.272C237.698 62.8 236.33 63.232 233.594 63.568C230.906 63.856 228.098 64 225.17 64C222.29 64 220.418 63.88 219.554 63.64C218.69 63.352 218.258 62.896 218.258 62.272V26.776C218.258 25.768 219.626 24.76 222.362 23.752C225.146 22.744 228.074 22.24 231.146 22.24C234.218 22.24 235.946 23.128 236.33 24.904L236.978 28.072H237.482C238.874 25.288 241.274 23.344 244.682 22.24C246.074 21.808 247.61 21.592 249.29 21.592C254.138 21.592 257.402 23.056 259.082 25.984C260.81 28.864 261.674 33.568 261.674 40.096ZM280.959 64.648C279.183 64.648 277.527 64.384 275.991 63.856C274.455 63.328 273.183 62.68 272.175 61.912C271.215 61.144 270.375 60.112 269.655 58.816C268.935 57.52 268.383 56.296 267.999 55.144C267.615 53.944 267.327 52.48 267.135 50.752C266.847 48.208 266.703 45.304 266.703 42.04C266.703 35.368 267.927 30.304 270.375 26.848C272.823 23.344 276.183 21.592 280.455 21.592C284.823 21.592 287.991 22.624 289.959 24.688C290.391 25.168 290.727 25.744 290.967 26.416H291.543L290.679 21.448V12.448C290.679 11.392 292.023 10.36 294.711 9.352C297.399 8.344 300.303 7.84 303.423 7.84C306.687 7.84 308.775 8.464 309.687 9.712C310.023 10.192 310.191 10.672 310.191 11.152V62.272C310.191 62.8 308.847 63.232 306.159 63.568C303.519 63.856 300.951 64 298.455 64C296.007 64 294.423 63.928 293.703 63.784C293.031 63.592 292.599 63.4 292.407 63.208C292.263 63.016 292.167 62.704 292.119 62.272L291.543 58.168H290.967C290.535 59.848 289.671 61.264 288.375 62.416C286.743 63.904 284.271 64.648 280.959 64.648ZM289.023 54.136C289.791 54.136 290.367 53.656 290.751 52.696V33.472C290.751 32.992 290.487 32.632 289.959 32.392C289.479 32.104 289.047 31.96 288.663 31.96C287.031 31.96 286.215 35.704 286.215 43.192C286.215 47.176 286.431 50.008 286.863 51.688C287.343 53.32 288.063 54.136 289.023 54.136ZM335.396 41.248V62.272C335.396 62.8 334.028 63.232 331.292 63.568C328.604 63.856 325.796 64 322.868 64C319.988 64 318.116 63.88 317.252 63.64C316.388 63.352 315.956 62.896 315.956 62.272V26.776C315.956 25.864 317.276 24.88 319.916 23.824C322.604 22.768 325.508 22.24 328.628 22.24C331.796 22.24 333.572 23.104 333.956 24.832L334.676 28.144H335.18C335.852 26.32 337.46 24.784 340.004 23.536C342.548 22.24 345.092 21.592 347.636 21.592C350.18 21.592 351.956 22 352.964 22.816C354.02 23.632 354.548 24.688 354.548 25.984C354.548 27.232 354.452 28.84 354.26 30.808C354.068 32.776 353.588 34.912 352.82 37.216C352.1 39.52 351.14 40.672 349.94 40.672C349.46 40.672 347.948 40.312 345.404 39.592C342.86 38.872 340.748 38.512 339.068 38.512C337.436 38.512 336.404 38.752 335.972 39.232C335.588 39.712 335.396 40.384 335.396 41.248ZM378.663 26.776V62.272C378.663 62.8 377.271 63.232 374.487 63.568C371.751 63.856 368.919 64 365.991 64C363.111 64 361.239 63.88 360.375 63.64C359.559 63.352 359.151 62.896 359.151 62.272V28.072C359.151 27.016 360.495 25.984 363.183 24.976C365.919 23.92 368.895 23.392 372.111 23.392C376.479 23.392 378.663 24.52 378.663 26.776ZM368.871 7.84C372.039 7.84 374.511 8.32 376.287 9.28C378.111 10.192 379.023 11.872 379.023 14.32C379.023 18.64 375.663 20.8 368.943 20.8C362.223 20.8 358.863 18.64 358.863 14.32C358.863 10 362.199 7.84 368.871 7.84ZM404.267 61.264C403.883 63.088 401.747 64 397.859 64C393.971 64 390.443 63.784 387.275 63.352C384.155 62.872 382.595 62.152 382.595 61.192C382.595 60.616 383.603 58.816 385.619 55.792C387.635 52.768 390.683 48.52 394.763 43.048C387.083 32.584 383.243 27.112 383.243 26.632C383.243 25.72 384.923 24.76 388.283 23.752C391.643 22.744 394.475 22.24 396.779 22.24C399.083 22.24 400.859 22.528 402.107 23.104C403.403 23.632 404.123 24.232 404.267 24.904L407.435 35.92H408.083L409.235 25.552C409.283 25.264 409.835 24.88 410.891 24.4C411.995 23.872 413.459 23.392 415.283 22.96C417.107 22.48 418.859 22.24 420.539 22.24C426.875 22.24 430.043 23.32 430.043 25.48C430.043 26.152 429.107 28.048 427.235 31.168C425.363 34.24 422.555 38.536 418.811 44.056C426.779 54.856 430.763 60.568 430.763 61.192C430.763 63.064 428.051 64 422.627 64C414.227 64 409.835 63.088 409.451 61.264L406.643 51.832H406.139L404.267 61.264Z" fill="#FF730A"/>
</g>
<rect width="26" height="28" fill="#512E15"/>
<rect x="35" width="26" height="28" fill="#4B2101"/>
<rect x="35" y="36" width="26" height="28" fill="#BE8356"/>
<rect y="36" width="26" height="28" fill="#D27C3B"/>
<defs>
<filter id="filter0_i_0_1" x="71.44" y="7.84003" width="359.323" height="61.508" filterUnits="userSpaceOnUse" color-interpolation-filters="sRGB">
<feFlood flood-opacity="0" result="BackgroundImageFix"/>
<feBlend mode="normal" in="SourceGraphic" in2="BackgroundImageFix" result="shape"/>
<feColorMatrix in="SourceAlpha" type="matrix" values="0 0 0 0 0 0 0 0 0 0 0 0 0 0 0 0 0 0 127 0" result="hardAlpha"/>
<feOffset dy="7"/>
<feGaussianBlur stdDeviation="2.35"/>
<feComposite in2="hardAlpha" operator="arithmetic" k2="-1" k3="1"/>
<feColorMatrix type="matrix" values="0 0 0 0 0 0 0 0 0 0 0 0 0 0 0 0 0 0 0.25 0"/>
<feBlend mode="normal" in2="shape" result="effect1_innerShadow_0_1"/>
</filter>
</defs>
</svg>
