<svg width="259" height="68" viewBox="0 0 259 68" fill="none" xmlns="http://www.w3.org/2000/svg">
<mask id="path-1-outside-1_0_1" maskUnits="userSpaceOnUse" x="13" y="-1" width="246" height="62" fill="black">
<rect fill="white" x="13" y="-1" width="246" height="62"/>
<path d="M37.32 55.112C37.32 56.12 36.912 57.008 36.096 57.776C35.328 58.496 34.416 58.856 33.36 58.856C32.304 58.856 31.2 58.16 30.048 56.768C28.944 55.328 28.392 54.104 28.392 53.096C28.392 51.896 28.704 50.672 29.328 49.424C29.376 49.088 29.544 47.408 29.832 44.384C30.12 41.36 30.864 36.272 32.064 29.12C33.312 21.92 34.104 17.024 34.44 14.432V13.712C34.44 12.56 34.008 11.984 33.144 11.984C32.328 11.984 31.488 12.416 30.624 13.28C30.72 13.472 30.768 13.856 30.768 14.432C30.768 15.008 30.12 16.856 28.824 19.976C27.528 23.048 25.68 27.728 23.28 34.016C22.56 35.744 21.6 36.608 20.4 36.608C19.2 36.608 18.12 35.888 17.16 34.448C16.2 33.008 15.72 31.784 15.72 30.776C15.72 29.72 15.888 28.736 16.224 27.824C17.424 24.944 18.792 22.088 20.328 19.256C21.864 16.376 23.064 14.096 23.928 12.416C24.84 10.736 25.512 9.512 25.944 8.744C26.424 7.976 26.904 7.592 27.384 7.592C27.864 7.592 28.296 7.64 28.68 7.736C29.592 6.632 30.816 6.08 32.352 6.08C33.888 6.08 35.424 6.56 36.96 7.52C38.544 8.48 39.336 10.88 39.336 14.72C39.336 16.064 39.216 18.008 38.976 20.552C38.736 23.048 38.592 24.632 38.544 25.304C42.432 14.216 45.888 7.28 48.912 4.496C49.44 3.968 50.184 3.704 51.144 3.704C53.304 3.704 54.648 4.136 55.176 5C55.752 5.816 56.04 7.352 56.04 9.608C56.04 11.816 55.824 14.216 55.392 16.808C54.96 19.4 54.288 22.688 53.376 26.672C52.464 30.608 51.864 33.224 51.576 34.52C51.336 35.768 51.216 36.992 51.216 38.192C51.216 39.392 51.288 39.992 51.432 39.992C51.816 39.992 52.776 38.72 54.312 36.176C55.896 33.584 56.832 32.288 57.12 32.288C57.408 32.288 57.552 32.744 57.552 33.656C57.552 36.872 57.168 40.28 56.4 43.88C55.68 47.48 54.624 50.216 53.232 52.088C51.888 53.96 50.664 54.896 49.56 54.896C49.08 54.896 48.48 54.632 47.76 54.104C47.04 53.528 46.608 53.168 46.464 53.024C44.88 51.296 44.088 48.776 44.088 45.464C44.088 42.536 45.576 33.848 48.552 19.4C49.464 14.792 50.088 11.6 50.424 9.824C46.824 15.872 44.016 22.28 42 29.048C40.032 35.768 38.496 43.424 37.392 52.016L37.176 53.816L37.32 55.112ZM77.4662 38.408C77.4662 44.216 75.7862 49.376 72.4262 53.888C71.2262 55.424 69.8822 56.192 68.3942 56.192C66.9542 56.192 65.8022 55.832 64.9382 55.112C61.8182 52.52 60.2582 48.08 60.2582 41.792C60.2582 37.424 61.4342 31.856 63.7862 25.088C63.9782 24.608 64.1462 24.32 64.2902 24.224C64.4342 24.08 64.6742 24.008 65.0102 24.008C65.3942 24.008 65.8502 23.768 66.3782 23.288C66.9062 22.76 67.7702 22.496 68.9702 22.496C70.2182 22.496 71.4662 22.952 72.7142 23.864C73.9622 24.776 74.8742 26 75.4502 27.536C76.7942 31.136 77.4662 34.76 77.4662 38.408ZM71.4902 33.728C71.4902 29.312 70.9382 27.104 69.8342 27.104C69.3062 27.104 68.8262 27.512 68.3942 28.328C66.4742 32.888 65.5142 38.336 65.5142 44.672C65.5142 46.256 65.5382 47.456 65.5862 48.272C69.5222 45.248 71.4902 40.4 71.4902 33.728ZM84.5503 22.064C86.1823 22.064 87.8623 22.88 89.5903 24.512C90.5023 25.376 90.9583 26.216 90.9583 27.032C90.9583 28.52 89.6863 34.52 87.1423 45.032C87.0463 45.512 86.9983 45.944 86.9983 46.328C86.9983 46.712 87.0943 46.904 87.2863 46.904C87.4783 46.904 87.7903 46.688 88.2223 46.256C89.7583 44.336 90.8383 42.44 91.4623 40.568C92.0863 38.696 92.5423 37.328 92.8303 36.464C93.1183 35.552 93.3823 34.28 93.6223 32.648C93.8623 31.016 94.0303 29.864 94.1263 29.192C94.2703 28.28 94.5343 25.832 94.9183 21.848C95.0623 20.936 95.3263 20.48 95.7103 20.48C96.1423 20.48 96.4303 20.84 96.5743 21.56C97.5823 27.032 98.0863 32.6 98.0863 38.264C98.0863 43.928 96.7663 48.728 94.1263 52.664C92.7823 54.776 91.2463 55.832 89.5183 55.832C88.7983 55.832 88.1023 55.64 87.4303 55.256C85.5583 54.392 84.0703 52.832 82.9663 50.576C81.8623 48.32 81.3103 46.064 81.3103 43.808C81.3103 42.224 81.4783 40.808 81.8143 39.56C82.1983 38.264 82.5583 37.064 82.8943 35.96C83.4223 34.232 83.6863 33.152 83.6863 32.72C83.6863 32.24 83.2303 31.808 82.3183 31.424C81.4543 31.04 80.8783 30.536 80.5903 29.912C80.3503 29.24 79.9903 27.968 79.5103 26.096C79.0303 24.176 78.7903 23.048 78.7903 22.712C78.7903 22.376 78.9583 22.208 79.2943 22.208L81.0943 22.352L84.5503 22.064ZM117.333 45.896C113.397 52.952 110.397 56.48 108.333 56.48C106.845 56.48 105.501 55.568 104.301 53.744C103.965 53.264 103.605 52.52 103.221 51.512C102.837 50.456 102.357 49.496 101.781 48.632C101.253 47.768 100.989 46.616 100.989 45.176C100.989 43.688 101.277 42.368 101.853 41.216C105.789 33.44 109.941 28.112 114.309 25.232C114.885 24.8 115.557 24.584 116.325 24.584C117.093 24.584 118.053 25.016 119.205 25.88C119.877 26.552 120.285 27.128 120.429 27.608C120.669 28.664 120.789 29.312 120.789 29.552C122.469 30.128 123.309 31.184 123.309 32.72C123.309 33.776 123.021 36.176 122.445 39.92C121.869 43.616 121.533 46.376 121.437 48.2C121.437 49.208 121.773 49.712 122.445 49.712C123.213 49.712 124.581 48.368 126.549 45.68C128.565 42.992 129.717 41.648 130.005 41.648C130.485 41.648 130.725 42.44 130.725 44.024L130.581 47.552C130.581 48.896 129.981 50.744 128.781 53.096C127.581 55.4 126.045 56.552 124.173 56.552C123.021 56.552 122.109 56.168 121.437 55.4C121.197 55.16 120.837 54.68 120.357 53.96C118.869 51.8 117.861 49.112 117.333 45.896ZM117.981 29.264C111.933 34.784 108.093 41.096 106.461 48.2C111.309 44.024 115.149 37.712 117.981 29.264ZM156.931 39.272C156.931 45.512 154.531 51.152 149.731 56.192C148.723 57.248 147.331 57.776 145.555 57.776C142.675 57.776 140.299 57.056 138.427 55.616C134.971 52.976 133.243 47.696 133.243 39.776C133.243 34.544 134.299 29.024 136.411 23.216C138.523 17.408 141.211 12.104 144.475 7.304C144.955 6.728 145.315 6.44 145.555 6.44C145.795 6.44 146.059 6.512 146.347 6.656C146.683 6.8 147.019 6.968 147.355 7.16C147.739 7.352 148.003 7.472 148.147 7.52V5.36C147.859 4.784 147.715 4.28 147.715 3.848C147.715 3.416 147.907 3.2 148.291 3.2C148.675 3.2 149.083 3.272 149.515 3.416C153.739 4.856 155.851 8.312 155.851 13.784C155.851 16.904 155.059 20.096 153.475 23.36C153.043 24.224 152.659 24.656 152.323 24.656C152.083 24.656 151.723 24.272 151.243 23.504C149.707 20.336 148.723 16.232 148.291 11.192C147.571 11.192 147.043 11.456 146.707 11.984C146.371 12.512 145.795 13.904 144.979 16.16C141.955 24.32 140.443 32.696 140.443 41.288C140.443 46.04 140.971 50.096 142.027 53.456C145.147 50.528 147.835 46.904 150.091 42.584C152.395 38.216 154.099 33.752 155.203 29.192C156.355 32.984 156.931 36.344 156.931 39.272ZM165.7 2.48C165.7 1.904 166.012 1.616 166.636 1.616C166.876 1.616 167.188 1.664 167.572 1.76C170.452 2.336 171.892 3.992 171.892 6.728C171.892 7.4 171.82 8.144 171.676 8.96C171.532 9.728 171.244 11.36 170.812 13.856C170.428 16.352 170.14 18.152 169.948 19.256L169.228 24.224C168.076 31.808 167.5 38.792 167.5 45.176C167.5 46.568 167.836 47.264 168.508 47.264C168.748 47.264 169.012 47.12 169.3 46.832C172.66 42.608 174.604 40.04 175.132 39.128C175.708 38.168 176.116 37.688 176.356 37.688C176.644 37.688 176.788 38.024 176.788 38.696C176.788 39.32 176.644 40.544 176.356 42.368C176.116 44.144 175.972 45.296 175.924 45.824C175.876 46.304 175.756 46.856 175.564 47.48C175.42 48.104 175.276 48.608 175.132 48.992C175.036 49.328 174.796 49.832 174.412 50.504C174.028 51.128 173.764 51.536 173.62 51.728C172.612 53.072 171.796 54.128 171.172 54.896C170.596 55.616 169.9 55.976 169.084 55.976C168.316 55.976 167.572 55.616 166.852 54.896C166.132 54.176 165.604 53.528 165.268 52.952C164.98 52.376 164.548 51.488 163.972 50.288C162.292 47.024 161.452 43.592 161.452 39.992C161.452 36.92 161.788 33.152 162.46 28.688C163.18 24.224 163.612 21.44 163.756 20.336C162.652 20.336 162.1 19.856 162.1 18.896C162.1 18.512 162.148 18.152 162.244 17.816C162.388 17.432 162.844 16.088 163.612 13.784C165.244 9.128 166.06 6.08 166.06 4.64L165.7 2.48ZM194.587 45.896C190.651 52.952 187.651 56.48 185.587 56.48C184.099 56.48 182.755 55.568 181.555 53.744C181.219 53.264 180.859 52.52 180.475 51.512C180.091 50.456 179.611 49.496 179.035 48.632C178.507 47.768 178.243 46.616 178.243 45.176C178.243 43.688 178.531 42.368 179.107 41.216C183.043 33.44 187.195 28.112 191.563 25.232C192.139 24.8 192.811 24.584 193.579 24.584C194.347 24.584 195.307 25.016 196.459 25.88C197.131 26.552 197.539 27.128 197.683 27.608C197.923 28.664 198.043 29.312 198.043 29.552C199.723 30.128 200.563 31.184 200.563 32.72C200.563 33.776 200.275 36.176 199.699 39.92C199.123 43.616 198.787 46.376 198.691 48.2C198.691 49.208 199.027 49.712 199.699 49.712C200.467 49.712 201.835 48.368 203.803 45.68C205.819 42.992 206.971 41.648 207.259 41.648C207.739 41.648 207.979 42.44 207.979 44.024L207.835 47.552C207.835 48.896 207.235 50.744 206.035 53.096C204.835 55.4 203.299 56.552 201.427 56.552C200.275 56.552 199.363 56.168 198.691 55.4C198.451 55.16 198.091 54.68 197.611 53.96C196.123 51.8 195.115 49.112 194.587 45.896ZM195.235 29.264C189.187 34.784 185.347 41.096 183.715 48.2C188.563 44.024 192.403 37.712 195.235 29.264ZM221.513 23.504C222.233 23.168 223.217 23 224.465 23C225.713 23 227.201 23.504 228.929 24.512C230.657 25.472 231.521 26.624 231.521 27.968C231.521 29.264 230.993 30.44 229.937 31.496C228.929 32.552 227.777 33.08 226.481 33.08C224.513 33.08 223.145 32.168 222.377 30.344C222.281 30.056 222.113 29.912 221.873 29.912C221.681 29.912 220.889 30.2 219.497 30.776C218.153 31.352 217.241 31.76 216.761 32C216.281 32.24 216.041 32.48 216.041 32.72C216.041 32.912 216.377 33.176 217.049 33.512C225.593 35.816 229.865 39.344 229.865 44.096C229.865 45.776 229.193 47.528 227.849 49.352C226.553 51.128 224.705 52.592 222.305 53.744C219.905 54.896 217.601 55.472 215.393 55.472C213.185 55.472 211.625 54.872 210.713 53.672C209.849 52.472 209.417 50.744 209.417 48.488C209.417 46.232 210.209 44.552 211.793 43.448C213.905 42.056 215.633 41.36 216.977 41.36C217.313 41.36 217.481 41.456 217.481 41.648C217.481 41.792 217.097 42.08 216.329 42.512C215.609 42.944 214.817 43.568 213.953 44.384C213.137 45.2 212.729 45.872 212.729 46.4C212.729 46.88 213.305 47.12 214.457 47.12C217.529 47.12 220.553 46.256 223.529 44.528C224.201 44.192 224.537 43.808 224.537 43.376C224.537 42.896 224.033 42.416 223.025 41.936C222.017 41.456 220.313 40.76 217.913 39.848C215.561 38.936 213.689 38.168 212.297 37.544C210.953 36.872 210.281 35.792 210.281 34.304C210.281 33.872 210.377 33.272 210.569 32.504C210.809 31.688 210.953 31.136 211.001 30.848C211.241 29.168 211.985 28.016 213.233 27.392C214.529 26.768 217.289 25.472 221.513 23.504ZM256.74 45.32C256.74 49.112 256.044 52.016 254.652 54.032C253.596 55.376 252.684 56.048 251.916 56.048C251.148 56.048 250.38 55.664 249.612 54.896C246.924 51.776 245.58 48.032 245.58 43.664C245.58 42.224 245.748 40.736 246.084 39.2C246.66 36.56 246.948 34.856 246.948 34.088C246.948 33.32 246.9 32.936 246.804 32.936C246.516 32.936 244.62 39.536 241.116 52.736C240.684 54.08 240.228 54.752 239.748 54.752C238.452 54.752 236.916 52.52 235.14 48.056C234.18 45.944 233.7 43.4 233.7 40.424C233.7 37.064 233.892 34.232 234.276 31.928C234.708 29.624 234.972 28.208 235.068 27.68C235.164 27.104 235.332 26.216 235.572 25.016C235.86 23.768 236.052 22.952 236.148 22.568C236.724 20.168 237.108 18.464 237.3 17.456C236.1 17.456 235.5 17.096 235.5 16.376C235.5 16.04 235.644 15.68 235.932 15.296C238.572 11.12 240.444 7.424 241.548 4.208C241.74 3.392 242.124 2.984 242.7 2.984C243.468 2.984 244.044 3.728 244.428 5.216C244.812 6.704 245.004 8 245.004 9.104C245.004 11.888 244.092 14.12 242.268 15.8C240.108 29.192 239.028 36.224 239.028 36.896C239.028 37.568 239.124 37.904 239.316 37.904C239.508 37.904 239.844 37.472 240.324 36.608C240.852 35.696 241.668 33.992 242.772 31.496C243.876 28.952 244.788 27.08 245.508 25.88C246.564 24.104 247.908 23.216 249.54 23.216C252.132 23.216 253.428 25.64 253.428 30.488C253.428 34.424 252.516 39.392 250.692 45.392C250.644 45.584 250.62 45.776 250.62 45.968C250.62 46.496 250.86 46.76 251.34 46.76C251.868 46.76 252.756 46.064 254.004 44.672C255.3 43.28 256.068 42.584 256.308 42.584C256.596 42.584 256.74 43.496 256.74 45.32Z"/>
</mask>
<path d="M37.32 55.112C37.32 56.12 36.912 57.008 36.096 57.776C35.328 58.496 34.416 58.856 33.36 58.856C32.304 58.856 31.2 58.16 30.048 56.768C28.944 55.328 28.392 54.104 28.392 53.096C28.392 51.896 28.704 50.672 29.328 49.424C29.376 49.088 29.544 47.408 29.832 44.384C30.12 41.36 30.864 36.272 32.064 29.12C33.312 21.92 34.104 17.024 34.44 14.432V13.712C34.44 12.56 34.008 11.984 33.144 11.984C32.328 11.984 31.488 12.416 30.624 13.28C30.72 13.472 30.768 13.856 30.768 14.432C30.768 15.008 30.12 16.856 28.824 19.976C27.528 23.048 25.68 27.728 23.28 34.016C22.56 35.744 21.6 36.608 20.4 36.608C19.2 36.608 18.12 35.888 17.16 34.448C16.2 33.008 15.72 31.784 15.72 30.776C15.72 29.72 15.888 28.736 16.224 27.824C17.424 24.944 18.792 22.088 20.328 19.256C21.864 16.376 23.064 14.096 23.928 12.416C24.84 10.736 25.512 9.512 25.944 8.744C26.424 7.976 26.904 7.592 27.384 7.592C27.864 7.592 28.296 7.64 28.68 7.736C29.592 6.632 30.816 6.08 32.352 6.08C33.888 6.08 35.424 6.56 36.96 7.52C38.544 8.48 39.336 10.88 39.336 14.72C39.336 16.064 39.216 18.008 38.976 20.552C38.736 23.048 38.592 24.632 38.544 25.304C42.432 14.216 45.888 7.28 48.912 4.496C49.44 3.968 50.184 3.704 51.144 3.704C53.304 3.704 54.648 4.136 55.176 5C55.752 5.816 56.04 7.352 56.04 9.608C56.04 11.816 55.824 14.216 55.392 16.808C54.96 19.4 54.288 22.688 53.376 26.672C52.464 30.608 51.864 33.224 51.576 34.52C51.336 35.768 51.216 36.992 51.216 38.192C51.216 39.392 51.288 39.992 51.432 39.992C51.816 39.992 52.776 38.72 54.312 36.176C55.896 33.584 56.832 32.288 57.12 32.288C57.408 32.288 57.552 32.744 57.552 33.656C57.552 36.872 57.168 40.28 56.4 43.88C55.68 47.48 54.624 50.216 53.232 52.088C51.888 53.96 50.664 54.896 49.56 54.896C49.08 54.896 48.48 54.632 47.76 54.104C47.04 53.528 46.608 53.168 46.464 53.024C44.88 51.296 44.088 48.776 44.088 45.464C44.088 42.536 45.576 33.848 48.552 19.4C49.464 14.792 50.088 11.6 50.424 9.824C46.824 15.872 44.016 22.28 42 29.048C40.032 35.768 38.496 43.424 37.392 52.016L37.176 53.816L37.32 55.112ZM77.4662 38.408C77.4662 44.216 75.7862 49.376 72.4262 53.888C71.2262 55.424 69.8822 56.192 68.3942 56.192C66.9542 56.192 65.8022 55.832 64.9382 55.112C61.8182 52.52 60.2582 48.08 60.2582 41.792C60.2582 37.424 61.4342 31.856 63.7862 25.088C63.9782 24.608 64.1462 24.32 64.2902 24.224C64.4342 24.08 64.6742 24.008 65.0102 24.008C65.3942 24.008 65.8502 23.768 66.3782 23.288C66.9062 22.76 67.7702 22.496 68.9702 22.496C70.2182 22.496 71.4662 22.952 72.7142 23.864C73.9622 24.776 74.8742 26 75.4502 27.536C76.7942 31.136 77.4662 34.76 77.4662 38.408ZM71.4902 33.728C71.4902 29.312 70.9382 27.104 69.8342 27.104C69.3062 27.104 68.8262 27.512 68.3942 28.328C66.4742 32.888 65.5142 38.336 65.5142 44.672C65.5142 46.256 65.5382 47.456 65.5862 48.272C69.5222 45.248 71.4902 40.4 71.4902 33.728ZM84.5503 22.064C86.1823 22.064 87.8623 22.88 89.5903 24.512C90.5023 25.376 90.9583 26.216 90.9583 27.032C90.9583 28.52 89.6863 34.52 87.1423 45.032C87.0463 45.512 86.9983 45.944 86.9983 46.328C86.9983 46.712 87.0943 46.904 87.2863 46.904C87.4783 46.904 87.7903 46.688 88.2223 46.256C89.7583 44.336 90.8383 42.44 91.4623 40.568C92.0863 38.696 92.5423 37.328 92.8303 36.464C93.1183 35.552 93.3823 34.28 93.6223 32.648C93.8623 31.016 94.0303 29.864 94.1263 29.192C94.2703 28.28 94.5343 25.832 94.9183 21.848C95.0623 20.936 95.3263 20.48 95.7103 20.48C96.1423 20.48 96.4303 20.84 96.5743 21.56C97.5823 27.032 98.0863 32.6 98.0863 38.264C98.0863 43.928 96.7663 48.728 94.1263 52.664C92.7823 54.776 91.2463 55.832 89.5183 55.832C88.7983 55.832 88.1023 55.64 87.4303 55.256C85.5583 54.392 84.0703 52.832 82.9663 50.576C81.8623 48.32 81.3103 46.064 81.3103 43.808C81.3103 42.224 81.4783 40.808 81.8143 39.56C82.1983 38.264 82.5583 37.064 82.8943 35.96C83.4223 34.232 83.6863 33.152 83.6863 32.72C83.6863 32.24 83.2303 31.808 82.3183 31.424C81.4543 31.04 80.8783 30.536 80.5903 29.912C80.3503 29.24 79.9903 27.968 79.5103 26.096C79.0303 24.176 78.7903 23.048 78.7903 22.712C78.7903 22.376 78.9583 22.208 79.2943 22.208L81.0943 22.352L84.5503 22.064ZM117.333 45.896C113.397 52.952 110.397 56.48 108.333 56.48C106.845 56.48 105.501 55.568 104.301 53.744C103.965 53.264 103.605 52.52 103.221 51.512C102.837 50.456 102.357 49.496 101.781 48.632C101.253 47.768 100.989 46.616 100.989 45.176C100.989 43.688 101.277 42.368 101.853 41.216C105.789 33.44 109.941 28.112 114.309 25.232C114.885 24.8 115.557 24.584 116.325 24.584C117.093 24.584 118.053 25.016 119.205 25.88C119.877 26.552 120.285 27.128 120.429 27.608C120.669 28.664 120.789 29.312 120.789 29.552C122.469 30.128 123.309 31.184 123.309 32.72C123.309 33.776 123.021 36.176 122.445 39.92C121.869 43.616 121.533 46.376 121.437 48.2C121.437 49.208 121.773 49.712 122.445 49.712C123.213 49.712 124.581 48.368 126.549 45.68C128.565 42.992 129.717 41.648 130.005 41.648C130.485 41.648 130.725 42.44 130.725 44.024L130.581 47.552C130.581 48.896 129.981 50.744 128.781 53.096C127.581 55.4 126.045 56.552 124.173 56.552C123.021 56.552 122.109 56.168 121.437 55.4C121.197 55.16 120.837 54.68 120.357 53.96C118.869 51.8 117.861 49.112 117.333 45.896ZM117.981 29.264C111.933 34.784 108.093 41.096 106.461 48.2C111.309 44.024 115.149 37.712 117.981 29.264ZM156.931 39.272C156.931 45.512 154.531 51.152 149.731 56.192C148.723 57.248 147.331 57.776 145.555 57.776C142.675 57.776 140.299 57.056 138.427 55.616C134.971 52.976 133.243 47.696 133.243 39.776C133.243 34.544 134.299 29.024 136.411 23.216C138.523 17.408 141.211 12.104 144.475 7.304C144.955 6.728 145.315 6.44 145.555 6.44C145.795 6.44 146.059 6.512 146.347 6.656C146.683 6.8 147.019 6.968 147.355 7.16C147.739 7.352 148.003 7.472 148.147 7.52V5.36C147.859 4.784 147.715 4.28 147.715 3.848C147.715 3.416 147.907 3.2 148.291 3.2C148.675 3.2 149.083 3.272 149.515 3.416C153.739 4.856 155.851 8.312 155.851 13.784C155.851 16.904 155.059 20.096 153.475 23.36C153.043 24.224 152.659 24.656 152.323 24.656C152.083 24.656 151.723 24.272 151.243 23.504C149.707 20.336 148.723 16.232 148.291 11.192C147.571 11.192 147.043 11.456 146.707 11.984C146.371 12.512 145.795 13.904 144.979 16.16C141.955 24.32 140.443 32.696 140.443 41.288C140.443 46.04 140.971 50.096 142.027 53.456C145.147 50.528 147.835 46.904 150.091 42.584C152.395 38.216 154.099 33.752 155.203 29.192C156.355 32.984 156.931 36.344 156.931 39.272ZM165.7 2.48C165.7 1.904 166.012 1.616 166.636 1.616C166.876 1.616 167.188 1.664 167.572 1.76C170.452 2.336 171.892 3.992 171.892 6.728C171.892 7.4 171.82 8.144 171.676 8.96C171.532 9.728 171.244 11.36 170.812 13.856C170.428 16.352 170.14 18.152 169.948 19.256L169.228 24.224C168.076 31.808 167.5 38.792 167.5 45.176C167.5 46.568 167.836 47.264 168.508 47.264C168.748 47.264 169.012 47.12 169.3 46.832C172.66 42.608 174.604 40.04 175.132 39.128C175.708 38.168 176.116 37.688 176.356 37.688C176.644 37.688 176.788 38.024 176.788 38.696C176.788 39.32 176.644 40.544 176.356 42.368C176.116 44.144 175.972 45.296 175.924 45.824C175.876 46.304 175.756 46.856 175.564 47.48C175.42 48.104 175.276 48.608 175.132 48.992C175.036 49.328 174.796 49.832 174.412 50.504C174.028 51.128 173.764 51.536 173.62 51.728C172.612 53.072 171.796 54.128 171.172 54.896C170.596 55.616 169.9 55.976 169.084 55.976C168.316 55.976 167.572 55.616 166.852 54.896C166.132 54.176 165.604 53.528 165.268 52.952C164.98 52.376 164.548 51.488 163.972 50.288C162.292 47.024 161.452 43.592 161.452 39.992C161.452 36.92 161.788 33.152 162.46 28.688C163.18 24.224 163.612 21.44 163.756 20.336C162.652 20.336 162.1 19.856 162.1 18.896C162.1 18.512 162.148 18.152 162.244 17.816C162.388 17.432 162.844 16.088 163.612 13.784C165.244 9.128 166.06 6.08 166.06 4.64L165.7 2.48ZM194.587 45.896C190.651 52.952 187.651 56.48 185.587 56.48C184.099 56.48 182.755 55.568 181.555 53.744C181.219 53.264 180.859 52.52 180.475 51.512C180.091 50.456 179.611 49.496 179.035 48.632C178.507 47.768 178.243 46.616 178.243 45.176C178.243 43.688 178.531 42.368 179.107 41.216C183.043 33.44 187.195 28.112 191.563 25.232C192.139 24.8 192.811 24.584 193.579 24.584C194.347 24.584 195.307 25.016 196.459 25.88C197.131 26.552 197.539 27.128 197.683 27.608C197.923 28.664 198.043 29.312 198.043 29.552C199.723 30.128 200.563 31.184 200.563 32.72C200.563 33.776 200.275 36.176 199.699 39.92C199.123 43.616 198.787 46.376 198.691 48.2C198.691 49.208 199.027 49.712 199.699 49.712C200.467 49.712 201.835 48.368 203.803 45.68C205.819 42.992 206.971 41.648 207.259 41.648C207.739 41.648 207.979 42.44 207.979 44.024L207.835 47.552C207.835 48.896 207.235 50.744 206.035 53.096C204.835 55.4 203.299 56.552 201.427 56.552C200.275 56.552 199.363 56.168 198.691 55.4C198.451 55.16 198.091 54.68 197.611 53.96C196.123 51.8 195.115 49.112 194.587 45.896ZM195.235 29.264C189.187 34.784 185.347 41.096 183.715 48.2C188.563 44.024 192.403 37.712 195.235 29.264ZM221.513 23.504C222.233 23.168 223.217 23 224.465 23C225.713 23 227.201 23.504 228.929 24.512C230.657 25.472 231.521 26.624 231.521 27.968C231.521 29.264 230.993 30.44 229.937 31.496C228.929 32.552 227.777 33.08 226.481 33.08C224.513 33.08 223.145 32.168 222.377 30.344C222.281 30.056 222.113 29.912 221.873 29.912C221.681 29.912 220.889 30.2 219.497 30.776C218.153 31.352 217.241 31.76 216.761 32C216.281 32.24 216.041 32.48 216.041 32.72C216.041 32.912 216.377 33.176 217.049 33.512C225.593 35.816 229.865 39.344 229.865 44.096C229.865 45.776 229.193 47.528 227.849 49.352C226.553 51.128 224.705 52.592 222.305 53.744C219.905 54.896 217.601 55.472 215.393 55.472C213.185 55.472 211.625 54.872 210.713 53.672C209.849 52.472 209.417 50.744 209.417 48.488C209.417 46.232 210.209 44.552 211.793 43.448C213.905 42.056 215.633 41.36 216.977 41.36C217.313 41.36 217.481 41.456 217.481 41.648C217.481 41.792 217.097 42.08 216.329 42.512C215.609 42.944 214.817 43.568 213.953 44.384C213.137 45.2 212.729 45.872 212.729 46.4C212.729 46.88 213.305 47.12 214.457 47.12C217.529 47.12 220.553 46.256 223.529 44.528C224.201 44.192 224.537 43.808 224.537 43.376C224.537 42.896 224.033 42.416 223.025 41.936C222.017 41.456 220.313 40.76 217.913 39.848C215.561 38.936 213.689 38.168 212.297 37.544C210.953 36.872 210.281 35.792 210.281 34.304C210.281 33.872 210.377 33.272 210.569 32.504C210.809 31.688 210.953 31.136 211.001 30.848C211.241 29.168 211.985 28.016 213.233 27.392C214.529 26.768 217.289 25.472 221.513 23.504ZM256.74 45.32C256.74 49.112 256.044 52.016 254.652 54.032C253.596 55.376 252.684 56.048 251.916 56.048C251.148 56.048 250.38 55.664 249.612 54.896C246.924 51.776 245.58 48.032 245.58 43.664C245.58 42.224 245.748 40.736 246.084 39.2C246.66 36.56 246.948 34.856 246.948 34.088C246.948 33.32 246.9 32.936 246.804 32.936C246.516 32.936 244.62 39.536 241.116 52.736C240.684 54.08 240.228 54.752 239.748 54.752C238.452 54.752 236.916 52.52 235.14 48.056C234.18 45.944 233.7 43.4 233.7 40.424C233.7 37.064 233.892 34.232 234.276 31.928C234.708 29.624 234.972 28.208 235.068 27.68C235.164 27.104 235.332 26.216 235.572 25.016C235.86 23.768 236.052 22.952 236.148 22.568C236.724 20.168 237.108 18.464 237.3 17.456C236.1 17.456 235.5 17.096 235.5 16.376C235.5 16.04 235.644 15.68 235.932 15.296C238.572 11.12 240.444 7.424 241.548 4.208C241.74 3.392 242.124 2.984 242.7 2.984C243.468 2.984 244.044 3.728 244.428 5.216C244.812 6.704 245.004 8 245.004 9.104C245.004 11.888 244.092 14.12 242.268 15.8C240.108 29.192 239.028 36.224 239.028 36.896C239.028 37.568 239.124 37.904 239.316 37.904C239.508 37.904 239.844 37.472 240.324 36.608C240.852 35.696 241.668 33.992 242.772 31.496C243.876 28.952 244.788 27.08 245.508 25.88C246.564 24.104 247.908 23.216 249.54 23.216C252.132 23.216 253.428 25.64 253.428 30.488C253.428 34.424 252.516 39.392 250.692 45.392C250.644 45.584 250.62 45.776 250.62 45.968C250.62 46.496 250.86 46.76 251.34 46.76C251.868 46.76 252.756 46.064 254.004 44.672C255.3 43.28 256.068 42.584 256.308 42.584C256.596 42.584 256.74 43.496 256.74 45.32Z" fill="url(#paint0_linear_0_1)"/>
<path d="M37.32 55.112H39.32V55.0012L39.3078 54.8911L37.32 55.112ZM36.096 57.776L37.4639 59.2351L37.4667 59.2324L36.096 57.776ZM30.048 56.768L28.4608 57.9849L28.4835 58.0144L28.5072 58.0431L30.048 56.768ZM29.328 49.424L31.1169 50.3184L31.262 50.0281L31.3079 49.7068L29.328 49.424ZM29.832 44.384L31.823 44.5736L31.823 44.5736L29.832 44.384ZM32.064 29.12L30.0934 28.7784L30.0916 28.7891L32.064 29.12ZM34.44 14.432L36.4234 14.6891L36.44 14.5611V14.432H34.44ZM30.624 13.28L29.2098 11.8658L28.1905 12.8851L28.8351 14.1744L30.624 13.28ZM28.824 19.976L30.6668 20.7534L30.671 20.7432L28.824 19.976ZM23.28 34.016L25.1262 34.7852L25.1378 34.7574L25.1485 34.7292L23.28 34.016ZM17.16 34.448L18.8241 33.3386L17.16 34.448ZM16.224 27.824L14.3778 27.0548L14.3618 27.0934L14.3473 27.1326L16.224 27.824ZM20.328 19.256L22.0861 20.2095L22.0927 20.1972L20.328 19.256ZM23.928 12.416L22.1703 11.4618L22.1596 11.4814L22.1494 11.5013L23.928 12.416ZM25.944 8.744L24.248 7.684L24.2235 7.72319L24.2009 7.76347L25.944 8.744ZM28.68 7.736L28.1949 9.67628L29.4186 9.98221L30.2219 9.00976L28.68 7.736ZM36.96 7.52L35.9 9.21599L35.9117 9.22327L35.9234 9.23039L36.96 7.52ZM38.976 20.552L40.9668 20.7434L40.9672 20.7398L38.976 20.552ZM38.544 25.304L36.5491 25.1615L40.4313 25.9658L38.544 25.304ZM48.912 4.496L50.2666 5.96739L50.297 5.93942L50.3262 5.91021L48.912 4.496ZM55.176 5L53.4694 6.0429L53.5039 6.09933L53.5421 6.15336L55.176 5ZM53.376 26.672L55.3244 27.1235L55.3256 27.1183L53.376 26.672ZM51.576 34.52L49.6236 34.0861L49.6174 34.1141L49.612 34.1423L51.576 34.52ZM54.312 36.176L52.6054 35.1331L52.5999 35.1423L54.312 36.176ZM56.4 43.88L54.444 43.4627L54.4413 43.4752L54.4388 43.4878L56.4 43.88ZM53.232 52.088L51.6271 50.8946L51.6171 50.908L51.6074 50.9216L53.232 52.088ZM47.76 54.104L46.5106 55.6657L46.5434 55.692L46.5773 55.7168L47.76 54.104ZM46.464 53.024L44.9897 54.3754L45.0191 54.4075L45.0498 54.4382L46.464 53.024ZM48.552 19.4L50.5109 19.8035L50.5124 19.7959L50.5139 19.7883L48.552 19.4ZM50.424 9.824L52.3891 10.1958L48.7054 8.80103L50.424 9.824ZM42 29.048L40.0832 28.477L40.0806 28.4859L42 29.048ZM37.392 52.016L35.4083 51.7611L35.4072 51.7694L35.4062 51.7777L37.392 52.016ZM37.176 53.816L35.1902 53.5777L35.1627 53.8072L35.1882 54.0369L37.176 53.816ZM35.32 55.112C35.32 55.5039 35.1893 55.8829 34.7253 56.3196L37.4667 59.2324C38.6347 58.1331 39.32 56.7361 39.32 55.112H35.32ZM34.7281 56.3169C34.3321 56.6882 33.9096 56.856 33.36 56.856V60.856C34.9224 60.856 36.3239 60.3038 37.4639 59.2351L34.7281 56.3169ZM33.36 56.856C33.2137 56.856 32.621 56.7401 31.5888 55.4929L28.5072 58.0431C29.779 59.5799 31.3943 60.856 33.36 60.856V56.856ZM31.6352 55.5511C30.6101 54.214 30.392 53.4311 30.392 53.096H26.392C26.392 54.7769 27.2779 56.442 28.4608 57.9849L31.6352 55.5511ZM30.392 53.096C30.392 52.2533 30.6091 51.3339 31.1169 50.3184L27.5391 48.5296C26.7989 50.0101 26.392 51.5387 26.392 53.096H30.392ZM31.3079 49.7068C31.3646 49.3101 31.5387 47.5591 31.823 44.5736L27.841 44.1944C27.5493 47.2569 27.3874 48.8659 27.3481 49.1412L31.3079 49.7068ZM31.823 44.5736C32.1035 41.6278 32.8365 36.6024 34.0364 29.4509L30.0916 28.7891C28.8915 35.9416 28.1365 41.0922 27.841 44.1944L31.823 44.5736ZM34.0346 29.4616C35.2818 22.2664 36.0811 17.3298 36.4234 14.6891L32.4566 14.1749C32.1269 16.7182 31.3422 21.5736 30.0934 28.7784L34.0346 29.4616ZM36.44 14.432V13.712H32.44V14.432H36.44ZM36.44 13.712C36.44 12.9437 36.3061 12.0028 35.716 11.216C35.0448 10.321 34.064 9.984 33.144 9.984V13.984C33.1399 13.984 33.0419 13.9833 32.8987 13.9196C32.7439 13.8508 32.6094 13.7406 32.516 13.616C32.431 13.5027 32.4145 13.4242 32.4187 13.4411C32.4234 13.46 32.44 13.5425 32.44 13.712H36.44ZM33.144 9.984C31.5838 9.984 30.2644 10.8112 29.2098 11.8658L32.0382 14.6942C32.7116 14.0208 33.0722 13.984 33.144 13.984V9.984ZM28.8351 14.1744C28.7744 14.053 28.7517 13.965 28.7467 13.9451C28.7404 13.9198 28.7426 13.9214 28.7474 13.9601C28.7575 14.0406 28.768 14.1911 28.768 14.432H32.768C32.768 14.0969 32.7545 13.7674 32.7166 13.4639C32.6832 13.1973 32.6131 12.786 32.4129 12.3856L28.8351 14.1744ZM28.768 14.432C28.768 14.295 28.7903 14.3017 28.7143 14.586C28.6516 14.8209 28.5481 15.1508 28.3947 15.5882C28.0889 16.4603 27.6193 17.6626 26.977 19.2088L30.671 20.7432C31.3247 19.1694 31.8271 17.8877 32.1693 16.9118C32.3399 16.4252 32.4794 15.9901 32.5787 15.619C32.6647 15.2973 32.768 14.857 32.768 14.432H28.768ZM26.9813 19.1986C25.6713 22.3038 23.8132 27.0103 21.4115 33.3028L25.1485 34.7292C27.5468 28.4457 29.3847 23.7922 30.6667 20.7534L26.9813 19.1986ZM21.4338 33.2468C21.1405 33.9507 20.8653 34.3085 20.6821 34.4734C20.5388 34.6023 20.4664 34.608 20.4 34.608V38.608C22.8196 38.608 24.2929 36.7852 25.1262 34.7852L21.4338 33.2468ZM20.4 34.608C20.1341 34.608 19.5896 34.4869 18.8241 33.3386L15.4959 35.5574C16.6504 37.2891 18.2659 38.608 20.4 38.608V34.608ZM18.8241 33.3386C17.9438 32.0182 17.72 31.1965 17.72 30.776H13.72C13.72 32.3715 14.4562 33.9978 15.4959 35.5574L18.8241 33.3386ZM17.72 30.776C17.72 29.9355 17.853 29.1876 18.1007 28.5154L14.3473 27.1326C13.923 28.2844 13.72 29.5045 13.72 30.776H17.72ZM18.0702 28.5932C19.2431 25.7781 20.5815 22.9836 22.0861 20.2095L18.5699 18.3025C17.0025 21.1924 15.6049 24.1099 14.3778 27.0548L18.0702 28.5932ZM22.0927 20.1972C23.6306 17.3137 24.8359 15.0237 25.7066 13.3307L22.1494 11.5013C21.2921 13.1683 20.0974 15.4383 18.5633 18.3148L22.0927 20.1972ZM25.6857 13.3702C26.5971 11.6913 27.263 10.4785 27.6872 9.72452L24.2009 7.76347C23.761 8.54548 23.0829 9.7807 22.1703 11.4618L25.6857 13.3702ZM27.64 9.80399C27.7214 9.67375 27.789 9.58205 27.8404 9.52036C27.8925 9.45795 27.9182 9.43791 27.9134 9.44173C27.908 9.44601 27.8599 9.48371 27.7668 9.52095C27.6689 9.56011 27.5375 9.592 27.384 9.592V5.592C25.7807 5.592 24.7809 6.83137 24.248 7.684L27.64 9.80399ZM27.384 9.592C27.7338 9.592 27.9989 9.62728 28.1949 9.67628L29.1651 5.79572C28.5931 5.65271 27.9942 5.592 27.384 5.592V9.592ZM30.2219 9.00976C30.7235 8.40254 31.3631 8.08 32.352 8.08V4.08C30.2689 4.08 28.4605 4.86146 27.1381 6.46224L30.2219 9.00976ZM32.352 8.08C33.4504 8.08 34.6241 8.41856 35.9 9.21599L38.02 5.824C36.2239 4.70144 34.3256 4.08 32.352 4.08V8.08ZM35.9234 9.23039C36.1805 9.38621 36.5415 9.75404 36.8427 10.6668C37.1469 11.5883 37.336 12.9143 37.336 14.72H41.336C41.336 12.6857 41.1291 10.8917 40.6413 9.41324C40.1505 7.92596 39.3235 6.61378 37.9966 5.8096L35.9234 9.23039ZM37.336 14.72C37.336 15.9683 37.2232 17.8377 36.9848 20.3642L40.9672 20.7398C41.2088 18.1783 41.336 16.1597 41.336 14.72H37.336ZM36.9852 20.3606C36.7459 22.8487 36.5992 24.4598 36.5491 25.1615L40.5389 25.4465C40.5848 24.8042 40.7261 23.2473 40.9668 20.7434L36.9852 20.3606ZM40.4313 25.9658C42.3603 20.4648 44.165 16.0438 45.8421 12.6779C47.5402 9.27001 49.0292 7.1066 50.2666 5.96739L47.5574 3.0246C45.7708 4.66939 44.0198 7.36598 42.2619 10.894C40.483 14.4642 38.6157 19.0552 36.6567 24.6422L40.4313 25.9658ZM50.3262 5.91021C50.3802 5.85621 50.5559 5.704 51.144 5.704V1.704C49.8121 1.704 48.4998 2.07979 47.4978 3.08178L50.3262 5.91021ZM51.144 5.704C52.1141 5.704 52.7613 5.8039 53.16 5.93206C53.5547 6.05891 53.5384 6.15579 53.4694 6.0429L56.8826 3.9571C56.2856 2.9802 55.3334 2.42908 54.384 2.12394C53.4387 1.82009 52.3339 1.704 51.144 1.704V5.704ZM53.5421 6.15336C53.5972 6.2315 53.7404 6.50421 53.8583 7.13257C53.9719 7.73866 54.04 8.55437 54.04 9.608H58.04C58.04 8.40562 57.9641 7.32533 57.7897 6.39542C57.6196 5.48778 57.3308 4.5845 56.8099 3.84663L53.5421 6.15336ZM54.04 9.608C54.04 11.6874 53.8364 13.9761 53.4192 16.4792L57.3648 17.1368C57.8116 14.4559 58.04 11.9445 58.04 9.608H54.04ZM53.4192 16.4792C52.9963 19.0165 52.3338 22.2619 51.4264 26.2257L55.3256 27.1183C56.2422 23.1141 56.9237 19.7835 57.3648 17.1368L53.4192 16.4792ZM51.4276 26.2205C50.516 30.155 49.9139 32.7798 49.6236 34.0861L53.5284 34.9539C53.8141 33.6682 54.412 31.061 55.3244 27.1235L51.4276 26.2205ZM49.612 34.1423C49.3495 35.5075 49.216 36.858 49.216 38.192H53.216C53.216 37.126 53.3225 36.0285 53.54 34.8977L49.612 34.1423ZM49.216 38.192C49.216 38.8102 49.2335 39.3575 49.2842 39.7803C49.3073 39.9722 49.3506 40.265 49.4557 40.5569C49.5054 40.695 49.6171 40.973 49.85 41.2503C50.1012 41.5493 50.6303 41.992 51.432 41.992V37.992C52.1977 37.992 52.6931 38.4159 52.9128 38.6775C53.1142 38.9172 53.1966 39.139 53.2193 39.2021C53.2704 39.344 53.2687 39.4118 53.2558 39.3037C53.2345 39.1265 53.216 38.7738 53.216 38.192H49.216ZM51.432 41.992C52.0012 41.992 52.4278 41.7703 52.6349 41.6456C52.8691 41.5046 53.0607 41.3406 53.2028 41.2061C53.4887 40.9355 53.7699 40.5959 54.0364 40.2428C54.5792 39.5236 55.2453 38.4997 56.0241 37.2097L52.5999 35.1423C51.8427 36.3963 51.2608 37.2804 50.8436 37.8332C50.6301 38.1161 50.5033 38.2535 50.4532 38.3009C50.4273 38.3254 50.4689 38.2807 50.5711 38.2191C50.6462 38.1739 50.9588 37.992 51.432 37.992V41.992ZM56.0186 37.2189C56.803 35.9353 57.4012 35.0156 57.8234 34.431C58.0395 34.1318 58.1731 33.9714 58.2365 33.9042C58.2716 33.8671 58.2394 33.9076 58.1502 33.9718C58.1333 33.984 57.743 34.288 57.12 34.288V30.288C56.425 30.288 55.9424 30.6325 55.813 30.7257C55.6113 30.8709 55.4464 31.0329 55.3285 31.1578C55.0859 31.4146 54.8326 31.7402 54.5806 32.089C54.0668 32.8004 53.405 33.8247 52.6054 35.1331L56.0186 37.2189ZM57.12 34.288C56.5899 34.288 56.1428 34.0506 55.8571 33.749C55.6224 33.5012 55.5488 33.27 55.5368 33.2323C55.5144 33.1611 55.552 33.2545 55.552 33.656H59.552C59.552 33.1455 59.5176 32.5549 59.3512 32.0277C59.2166 31.6015 58.6555 30.288 57.12 30.288V34.288ZM55.552 33.656C55.552 36.7133 55.1869 39.9806 54.444 43.4627L58.356 44.2973C59.1491 40.5794 59.552 37.0307 59.552 33.656H55.552ZM54.4388 43.4878C53.7471 46.9466 52.77 49.3575 51.6271 50.8946L54.8369 53.2814C56.478 51.0745 57.6129 48.0134 58.3612 44.2722L54.4388 43.4878ZM51.6074 50.9216C50.9993 51.7685 50.4895 52.3006 50.0911 52.6053C49.6928 52.9099 49.5287 52.896 49.56 52.896V56.896C50.6953 56.896 51.6952 56.4141 52.5209 55.7827C53.3465 55.1514 54.1207 54.2795 54.8566 53.2544L51.6074 50.9216ZM49.56 52.896C49.679 52.896 49.6889 52.9261 49.5555 52.8674C49.4269 52.8108 49.2244 52.6977 48.9427 52.4912L46.5773 55.7168C47.3854 56.3094 48.4209 56.896 49.56 56.896V52.896ZM49.0094 52.5423C48.6541 52.2581 48.3778 52.0334 48.1764 51.8656C47.9531 51.6795 47.8768 51.6083 47.8782 51.6098L45.0498 54.4382C45.2914 54.6798 45.8302 55.1214 46.5106 55.6657L49.0094 52.5423ZM47.9383 51.6726C46.8099 50.4415 46.088 48.4819 46.088 45.464H42.088C42.088 49.0701 42.9501 52.1505 44.9897 54.3754L47.9383 51.6726ZM46.088 45.464C46.088 44.1986 46.4263 41.4626 47.1753 37.0896C47.9139 32.7773 49.0248 27.018 50.5109 19.8035L46.5931 18.9965C45.1032 26.23 43.9821 32.0387 43.2327 36.4144C42.4937 40.7294 42.088 43.8014 42.088 45.464H46.088ZM50.5139 19.7883C51.4259 15.1808 52.0514 11.9811 52.3891 10.1958L48.4589 9.45221C48.1246 11.2189 47.5022 14.4032 46.5901 19.0117L50.5139 19.7883ZM48.7054 8.80103C45.0207 14.9914 42.1462 21.5513 40.0832 28.477L43.9168 29.619C45.8858 23.0087 48.6273 16.7526 52.1426 10.847L48.7054 8.80103ZM40.0806 28.4859C38.0772 35.3267 36.5227 43.0885 35.4083 51.7611L39.3757 52.2709C40.4693 43.7595 41.9868 36.2093 43.9194 29.6101L40.0806 28.4859ZM35.4062 51.7777L35.1902 53.5777L39.1618 54.0543L39.3778 52.2543L35.4062 51.7777ZM35.1882 54.0369L35.3322 55.3329L39.3078 54.8911L39.1638 53.5951L35.1882 54.0369ZM72.4262 53.888L74.0022 55.1193L74.0165 55.1011L74.0303 55.0825L72.4262 53.888ZM64.9382 55.112L66.2186 53.5756L66.2162 53.5736L64.9382 55.112ZM63.7862 25.088L61.9292 24.3452L61.9121 24.388L61.897 24.4315L63.7862 25.088ZM64.2902 24.224L65.3996 25.8881L65.5644 25.7783L65.7044 25.6382L64.2902 24.224ZM66.3782 23.288L67.7235 24.7679L67.7588 24.7359L67.7924 24.7022L66.3782 23.288ZM72.7142 23.864L73.8942 22.2492L73.8942 22.2492L72.7142 23.864ZM75.4502 27.536L77.3239 26.8365L77.3228 26.8338L75.4502 27.536ZM68.3942 28.328L66.6266 27.3922L66.5852 27.4704L66.5509 27.5519L68.3942 28.328ZM65.5862 48.272L63.5896 48.3894L63.8113 52.1578L66.8047 49.858L65.5862 48.272ZM75.4662 38.408C75.4662 43.8006 73.9162 48.5385 70.8221 52.6935L74.0303 55.0825C77.6561 50.2135 79.4662 44.6314 79.4662 38.408H75.4662ZM70.8501 52.6567C69.9019 53.8705 69.0858 54.192 68.3942 54.192V58.192C70.6786 58.192 72.5505 56.9775 74.0022 55.1193L70.8501 52.6567ZM68.3942 54.192C67.2882 54.192 66.6322 53.9203 66.2186 53.5756L63.6578 56.6484C64.9722 57.7437 66.6202 58.192 68.3942 58.192V54.192ZM66.2162 53.5736C63.7573 51.5308 62.2582 47.8141 62.2582 41.792H58.2582C58.2582 48.3459 59.8791 53.5092 63.6601 56.6504L66.2162 53.5736ZM62.2582 41.792C62.2582 37.7447 63.356 32.4186 65.6754 25.7445L61.897 24.4315C59.5124 31.2934 58.2582 37.1033 58.2582 41.792H62.2582ZM65.6431 25.8308C65.6798 25.7392 65.711 25.6674 65.7366 25.6129C65.7627 25.5573 65.7787 25.5284 65.7837 25.5197C65.7905 25.5082 65.7737 25.5393 65.7299 25.5932C65.7069 25.6215 65.6707 25.6633 65.6201 25.7118C65.5701 25.7598 65.4971 25.8231 65.3996 25.8881L63.1808 22.5599C62.7154 22.8702 62.4494 23.2973 62.3286 23.5043C62.1759 23.7661 62.0442 24.0577 61.9292 24.3452L65.6431 25.8308ZM65.7044 25.6382C65.4944 25.8483 65.2778 25.9402 65.1529 25.9776C65.0353 26.0129 64.975 26.008 65.0102 26.008V22.008C64.4712 22.008 63.5761 22.1097 62.876 22.8098L65.7044 25.6382ZM65.0102 26.008C66.1721 26.008 67.1078 25.3276 67.7235 24.7679L65.0328 21.8081C64.9446 21.8883 64.8719 21.947 64.8147 21.9889C64.757 22.0311 64.7218 22.0513 64.7087 22.0582C64.6954 22.0652 64.7139 22.0538 64.7622 22.0399C64.8119 22.0258 64.8969 22.008 65.0102 22.008V26.008ZM67.7924 24.7022C67.7721 24.7225 67.9913 24.496 68.9702 24.496V20.496C67.5491 20.496 66.0402 20.7975 64.964 21.8738L67.7924 24.7022ZM68.9702 24.496C69.7016 24.496 70.5458 24.7565 71.5342 25.4788L73.8942 22.2492C72.3866 21.1475 70.7348 20.496 68.9702 20.496V24.496ZM71.5342 25.4788C72.4476 26.1463 73.1297 27.044 73.5775 28.2382L77.3228 26.8338C76.6187 24.956 75.4768 23.4057 73.8942 22.2492L71.5342 25.4788ZM73.5765 28.2355C74.8415 31.6238 75.4662 35.0114 75.4662 38.408H79.4662C79.4662 34.5086 78.7469 30.6482 77.3239 26.8365L73.5765 28.2355ZM73.4902 33.728C73.4902 31.4791 73.3537 29.6237 73.0165 28.2749C72.8504 27.6108 72.5964 26.9017 72.1587 26.318C71.6787 25.678 70.8959 25.104 69.8342 25.104V29.104C69.3245 29.104 69.0247 28.806 68.9587 28.718C68.9349 28.6863 69.0259 28.8052 69.1359 29.2451C69.3507 30.1043 69.4902 31.5609 69.4902 33.728H73.4902ZM69.8342 25.104C68.1298 25.104 67.1377 26.4269 66.6266 27.3922L70.1618 29.2638C70.2314 29.1322 70.2892 29.0435 70.331 28.9875C70.3731 28.9309 70.3895 28.9203 70.3735 28.9339C70.3559 28.9488 70.2983 28.9936 70.1976 29.0344C70.0924 29.077 69.9671 29.104 69.8342 29.104V25.104ZM66.5509 27.5519C64.5029 32.416 63.5142 38.1412 63.5142 44.672H67.5142C67.5142 38.5308 68.4455 33.36 70.2375 29.1041L66.5509 27.5519ZM63.5142 44.672C63.5142 46.2662 63.5381 47.5133 63.5896 48.3894L67.5827 48.1546C67.5383 47.3987 67.5142 46.2458 67.5142 44.672H63.5142ZM66.8047 49.858C71.391 46.3343 73.4902 40.7911 73.4902 33.728H69.4902C69.4902 40.0089 67.6533 44.1617 64.3677 46.686L66.8047 49.858ZM84.5503 22.064V20.064H84.4671L84.3842 20.0709L84.5503 22.064ZM89.5903 24.512L90.9658 23.0601L90.9636 23.058L89.5903 24.512ZM87.1423 45.032L85.1984 44.5616L85.189 44.6005L85.1812 44.6398L87.1423 45.032ZM88.2223 46.256L89.6365 47.6702L89.7149 47.5919L89.7841 47.5054L88.2223 46.256ZM92.8303 36.464L94.7277 37.0965L94.7327 37.0814L94.7375 37.0663L92.8303 36.464ZM93.6223 32.648L91.6436 32.357L91.6436 32.357L93.6223 32.648ZM94.1263 29.192L92.1508 28.8801L92.1485 28.8946L92.1464 28.9092L94.1263 29.192ZM94.9183 21.848L92.9428 21.5361L92.9333 21.5959L92.9275 21.6561L94.9183 21.848ZM96.5743 21.56L98.5412 21.1977L98.5385 21.1827L98.5355 21.1678L96.5743 21.56ZM94.1263 52.664L92.4653 51.5499L92.4519 51.5699L92.439 51.5902L94.1263 52.664ZM87.4303 55.256L88.4226 53.5195L88.3472 53.4765L88.2684 53.4401L87.4303 55.256ZM82.9663 50.576L84.7627 49.6969L84.7627 49.6969L82.9663 50.576ZM81.8143 39.56L79.8967 38.9918L79.8896 39.0159L79.8831 39.0401L81.8143 39.56ZM82.8943 35.96L80.9816 35.3756L80.981 35.3777L82.8943 35.96ZM82.3183 31.424L81.506 33.2516L81.524 33.2596L81.5422 33.2673L82.3183 31.424ZM80.5903 29.912L78.7068 30.5847L78.7369 30.6689L78.7744 30.7501L80.5903 29.912ZM79.5103 26.096L77.57 26.5811L77.573 26.5927L79.5103 26.096ZM79.2943 22.208L79.4538 20.2144L79.3742 20.208H79.2943V22.208ZM81.0943 22.352L80.9348 24.3456L81.0976 24.3587L81.2604 24.3451L81.0943 22.352ZM84.5503 24.064C85.4799 24.064 86.6924 24.526 88.2171 25.966L90.9636 23.058C89.0323 21.234 86.8848 20.064 84.5503 20.064V24.064ZM88.2148 25.9639C88.9403 26.6512 88.9583 27.0014 88.9583 27.032H92.9583C92.9583 25.4306 92.0644 24.1008 90.9658 23.0601L88.2148 25.9639ZM88.9583 27.032C88.9583 27.2147 88.9084 27.7153 88.7481 28.6591C88.5955 29.5572 88.3631 30.7458 88.0478 32.2332C87.4176 35.2057 86.4688 39.3124 85.1984 44.5616L89.0862 45.5024C90.3599 40.2396 91.319 36.0903 91.9608 33.0628C92.2815 31.5502 92.5261 30.3027 92.6916 29.3289C92.8493 28.4007 92.9583 27.5933 92.9583 27.032H88.9583ZM85.1812 44.6398C85.066 45.2156 84.9983 45.7822 84.9983 46.328H88.9983C88.9983 46.1058 89.0266 45.8084 89.1035 45.4242L85.1812 44.6398ZM84.9983 46.328C84.9983 46.6221 85.0245 47.1405 85.2815 47.6544C85.4241 47.9397 85.6634 48.2738 86.0509 48.5321C86.4509 48.7988 86.8883 48.904 87.2863 48.904V44.904C87.5883 44.904 87.9417 44.9852 88.2697 45.2039C88.5852 45.4142 88.7645 45.6763 88.8592 45.8656C89.0201 46.1875 88.9983 46.4179 88.9983 46.328H84.9983ZM87.2863 48.904C88.0273 48.904 88.5847 48.5373 88.8027 48.3864C89.0983 48.1817 89.3802 47.9265 89.6365 47.6702L86.8081 44.8418C86.7253 44.9246 86.6586 44.9866 86.6073 45.0313C86.5819 45.0534 86.5621 45.0697 86.5477 45.0811C86.5405 45.0867 86.5351 45.0909 86.5313 45.0937C86.5275 45.0965 86.5257 45.0977 86.5259 45.0976C86.526 45.0975 86.5286 45.0957 86.5335 45.0926C86.5383 45.0896 86.5461 45.0847 86.5567 45.0787C86.5768 45.0671 86.6134 45.0473 86.665 45.0252C86.7525 44.9877 86.9737 44.904 87.2863 44.904V48.904ZM89.7841 47.5054C91.4326 45.4447 92.6453 43.3437 93.3597 41.2005L89.5649 39.9355C89.0314 41.5363 88.0841 43.2273 86.6606 45.0066L89.7841 47.5054ZM93.3597 41.2005C93.9837 39.3285 94.4397 37.9605 94.7277 37.0965L90.9329 35.8315C90.6449 36.6955 90.1889 38.0635 89.5649 39.9355L93.3597 41.2005ZM94.7375 37.0663C95.0725 36.0055 95.3549 34.6126 95.601 32.939L91.6436 32.357C91.4097 33.9474 91.1642 35.0985 90.9232 35.8617L94.7375 37.0663ZM95.601 32.939C95.841 31.307 96.0096 30.1513 96.1062 29.4748L92.1464 28.9092C92.0511 29.5766 91.8836 30.725 91.6436 32.357L95.601 32.939ZM96.1018 29.5039C96.2575 28.5178 96.5276 25.9981 96.9091 22.0399L92.9275 21.6561C92.5411 25.6659 92.2831 28.0422 92.1508 28.8801L96.1018 29.5039ZM96.8938 22.1599C96.9198 21.9957 96.9459 21.8865 96.9654 21.8211C96.9862 21.7512 96.9898 21.7642 96.9552 21.8241C96.9216 21.882 96.8163 22.046 96.5958 22.2011C96.3512 22.3732 96.0401 22.48 95.7103 22.48V18.48C94.5491 18.48 93.8332 19.2331 93.4935 19.8199C93.1785 20.364 93.0287 20.9917 92.9428 21.5361L96.8938 22.1599ZM95.7103 22.48C95.5311 22.48 95.3207 22.4403 95.1129 22.3364C94.9089 22.2344 94.7711 22.1026 94.6886 21.9994C94.5485 21.8243 94.5706 21.7393 94.6132 21.9522L98.5355 21.1678C98.4341 20.6607 98.2401 20.0357 97.8121 19.5006C97.3178 18.8828 96.5793 18.48 95.7103 18.48V22.48ZM94.6074 21.9223C95.593 27.2727 96.0863 32.7193 96.0863 38.264H100.086C100.086 32.4807 99.5716 26.7913 98.5412 21.1977L94.6074 21.9223ZM96.0863 38.264C96.0863 43.6099 94.8442 48.0032 92.4653 51.5499L95.7873 53.7781C98.6884 49.4528 100.086 44.2461 100.086 38.264H96.0863ZM92.439 51.5902C91.2837 53.4057 90.2859 53.832 89.5183 53.832V57.832C92.2068 57.832 94.2809 56.1463 95.8136 53.7378L92.439 51.5902ZM89.5183 53.832C89.1724 53.832 88.8158 53.7442 88.4226 53.5195L86.438 56.9925C87.3888 57.5358 88.4243 57.832 89.5183 57.832V53.832ZM88.2684 53.4401C86.8995 52.8083 85.7102 51.6329 84.7627 49.6969L81.1699 51.4551C82.4305 54.0311 84.2171 55.9757 86.5922 57.0719L88.2684 53.4401ZM84.7627 49.6969C83.7773 47.6833 83.3103 45.7262 83.3103 43.808H79.3103C79.3103 46.4018 79.9473 48.9567 81.1699 51.4551L84.7627 49.6969ZM83.3103 43.808C83.3103 42.3617 83.4641 41.1253 83.7455 40.0799L79.8831 39.0401C79.4925 40.4907 79.3103 42.0863 79.3103 43.808H83.3103ZM83.7319 40.1282C84.1147 38.8361 84.4733 37.6409 84.8077 36.5423L80.981 35.3777C80.6433 36.4871 80.2819 37.6919 79.8967 38.9918L83.7319 40.1282ZM84.807 36.5444C85.0762 35.6635 85.2863 34.9211 85.4311 34.3289C85.5599 33.8021 85.6863 33.207 85.6863 32.72H81.6863C81.6863 32.665 81.6807 32.8259 81.5455 33.3791C81.4263 33.8669 81.2404 34.5285 80.9816 35.3756L84.807 36.5444ZM85.6863 32.72C85.6863 31.7753 85.2174 31.0555 84.7198 30.5841C84.2462 30.1354 83.6594 29.8186 83.0944 29.5807L81.5422 33.2673C81.7042 33.3355 81.8174 33.394 81.8923 33.4386C81.9688 33.4843 81.9856 33.5038 81.9688 33.4879C81.9515 33.4715 81.8802 33.4 81.812 33.2634C81.739 33.1174 81.6863 32.9297 81.6863 32.72H85.6863ZM83.1306 29.5964C82.5431 29.3353 82.4255 29.1156 82.4062 29.0739L78.7744 30.7501C79.3312 31.9564 80.3655 32.7447 81.506 33.2516L83.1306 29.5964ZM82.4738 29.2393C82.2691 28.6661 81.9297 27.4793 81.4476 25.5992L77.573 26.5927C78.0509 28.4567 78.4315 29.8139 78.7068 30.5847L82.4738 29.2393ZM81.4506 25.6109C81.2129 24.6601 81.0394 23.9242 80.9265 23.3938C80.8699 23.1277 80.8319 22.9289 80.809 22.7889C80.7807 22.6168 80.7903 22.6211 80.7903 22.712H76.7903C76.7903 23.1321 76.906 23.718 77.0141 24.2262C77.1413 24.8238 77.3277 25.6119 77.57 26.5811L81.4506 25.6109ZM80.7903 22.712C80.7903 22.8523 80.7539 23.3248 80.3305 23.7482C79.9072 24.1716 79.4346 24.208 79.2943 24.208V20.208C78.818 20.208 78.0935 20.3284 77.5021 20.9198C76.9107 21.5111 76.7903 22.2357 76.7903 22.712H80.7903ZM79.1348 24.2016L80.9348 24.3456L81.2538 20.3584L79.4538 20.2144L79.1348 24.2016ZM81.2604 24.3451L84.7164 24.0571L84.3842 20.0709L80.9282 20.3589L81.2604 24.3451ZM117.333 45.896L119.307 45.572L118.379 39.9169L115.587 44.9217L117.333 45.896ZM104.301 53.744L105.972 52.6448L105.956 52.6207L105.94 52.5971L104.301 53.744ZM103.221 51.512L101.342 52.1955L101.347 52.2098L101.352 52.224L103.221 51.512ZM101.781 48.632L100.075 49.6749L100.095 49.7086L100.117 49.7414L101.781 48.632ZM101.853 41.216L100.069 40.3128L100.065 40.3216L101.853 41.216ZM114.309 25.232L115.41 26.9017L115.461 26.8684L115.509 26.832L114.309 25.232ZM119.205 25.88L120.62 24.4658L120.519 24.3653L120.405 24.28L119.205 25.88ZM120.429 27.608L122.38 27.1648L122.365 27.0984L122.345 27.0333L120.429 27.608ZM120.789 29.552H118.789V30.9806L120.141 31.4439L120.789 29.552ZM122.445 39.92L124.422 40.228L124.422 40.2241L122.445 39.92ZM121.437 48.2L119.44 48.0949L119.437 48.1474V48.2H121.437ZM126.549 45.68L124.949 44.48L124.942 44.4892L124.936 44.4985L126.549 45.68ZM130.725 44.024L132.724 44.1056L132.725 44.0648V44.024H130.725ZM130.581 47.552L128.583 47.4704L128.581 47.5112V47.552H130.581ZM128.781 53.096L130.555 54.0199L130.559 54.0124L130.563 54.0049L128.781 53.096ZM121.437 55.4L122.943 54.083L122.899 54.0329L122.852 53.9858L121.437 55.4ZM120.357 53.96L122.021 52.8506L122.013 52.8379L122.004 52.8254L120.357 53.96ZM117.981 29.264L119.878 29.8997L122.329 22.5886L116.633 27.7868L117.981 29.264ZM106.461 48.2L104.512 47.7522L103.147 53.6946L107.767 49.7153L106.461 48.2ZM115.587 44.9217C113.643 48.4064 111.983 50.921 110.608 52.5384C109.919 53.3478 109.354 53.8707 108.914 54.1775C108.459 54.494 108.284 54.48 108.333 54.48V58.48C109.415 58.48 110.388 58.025 111.2 57.4595C112.026 56.8843 112.843 56.0842 113.655 55.1296C115.28 53.219 117.088 50.4416 119.08 46.8703L115.587 44.9217ZM108.333 54.48C107.797 54.48 106.987 54.1879 105.972 52.6448L102.631 54.8432C104.015 56.9481 105.894 58.48 108.333 58.48V54.48ZM105.94 52.5971C105.746 52.3208 105.456 51.7598 105.09 50.8L101.352 52.224C101.755 53.2802 102.184 54.2072 102.663 54.8909L105.94 52.5971ZM105.101 50.8285C104.667 49.6346 104.117 48.5298 103.445 47.5226L100.117 49.7414C100.598 50.4622 101.008 51.2774 101.342 52.1955L105.101 50.8285ZM103.488 47.5891C103.216 47.1448 102.989 46.3955 102.989 45.176H98.9894C98.9894 46.8365 99.2903 48.3912 100.075 49.6749L103.488 47.5891ZM102.989 45.176C102.989 43.9502 103.225 42.9445 103.642 42.1104L100.065 40.3216C99.3296 41.7915 98.9894 43.4258 98.9894 45.176H102.989ZM103.638 42.1192C107.509 34.4706 111.466 29.5021 115.41 26.9017L113.208 23.5623C108.416 26.7219 104.069 32.4094 100.069 40.3128L103.638 42.1192ZM115.509 26.832C115.715 26.6775 115.959 26.584 116.325 26.584V22.584C115.155 22.584 114.055 22.9225 113.109 23.632L115.509 26.832ZM116.325 26.584C116.42 26.584 116.938 26.6796 118.005 27.48L120.405 24.28C119.169 23.3524 117.767 22.584 116.325 22.584V26.584ZM117.791 27.2942C118.073 27.5759 118.262 27.8014 118.383 27.972C118.509 28.1494 118.524 28.2164 118.514 28.1827L122.345 27.0333C122.054 26.063 121.351 25.1972 120.62 24.4658L117.791 27.2942ZM118.479 28.0512C118.596 28.5673 118.68 28.964 118.733 29.2502C118.759 29.3936 118.776 29.4957 118.785 29.5633C118.796 29.6476 118.789 29.6277 118.789 29.552H122.789C122.789 29.222 122.722 28.8271 122.666 28.5218C122.599 28.16 122.502 27.7047 122.38 27.1648L118.479 28.0512ZM120.141 31.4439C120.732 31.6465 120.996 31.8724 121.114 32.021C121.214 32.1468 121.309 32.3384 121.309 32.72H125.309C125.309 31.5656 124.985 30.4612 124.245 29.531C123.523 28.6236 122.527 28.0335 121.438 27.6601L120.141 31.4439ZM121.309 32.72C121.309 33.5914 121.052 35.8265 120.469 39.6159L124.422 40.2241C124.991 36.5255 125.309 33.9606 125.309 32.72H121.309ZM120.469 39.612C119.891 43.321 119.542 46.1642 119.44 48.0949L123.435 48.3051C123.525 46.5878 123.848 43.911 124.422 40.228L120.469 39.612ZM119.437 48.2C119.437 48.8631 119.536 49.7101 120.025 50.4434C120.61 51.3198 121.527 51.712 122.445 51.712V47.712C122.529 47.712 122.699 47.7285 122.899 47.8286C123.107 47.9329 123.259 48.0834 123.353 48.2246C123.439 48.3524 123.455 48.4397 123.453 48.4276C123.45 48.4163 123.437 48.3472 123.437 48.2H119.437ZM122.445 51.712C123.185 51.712 123.797 51.4055 124.199 51.1528C124.633 50.8799 125.052 50.5211 125.449 50.1307C126.246 49.3473 127.154 48.2392 128.163 46.8615L124.936 44.4985C123.976 45.8088 123.216 46.7167 122.646 47.2773C122.359 47.5589 122.169 47.7041 122.069 47.7672C121.936 47.8505 122.09 47.712 122.445 47.712V51.712ZM128.149 46.88C129.15 45.5459 129.911 44.5793 130.444 43.9576C130.715 43.6411 130.893 43.4547 130.992 43.3621C131.045 43.3125 131.032 43.3314 130.966 43.3751C130.932 43.3976 130.848 43.4516 130.722 43.5049C130.611 43.5523 130.354 43.648 130.005 43.648V39.648C129.329 39.648 128.847 39.9806 128.747 40.0469C128.556 40.1746 128.39 40.3195 128.263 40.4379C128.002 40.6813 127.712 40.9989 127.407 41.3544C126.788 42.0767 125.965 43.1261 124.949 44.48L128.149 46.88ZM130.005 43.648C129.781 43.648 129.545 43.5995 129.321 43.4942C129.103 43.3912 128.945 43.2572 128.84 43.1418C128.651 42.9339 128.615 42.7682 128.631 42.822C128.641 42.8554 128.668 42.9658 128.691 43.1855C128.712 43.3982 128.725 43.6749 128.725 44.024H132.725C132.725 43.1803 132.667 42.3471 132.459 41.662C132.295 41.1184 131.684 39.648 130.005 39.648V43.648ZM128.727 43.9424L128.583 47.4704L132.58 47.6336L132.724 44.1056L128.727 43.9424ZM128.581 47.552C128.581 48.4009 128.169 49.8951 127 52.1871L130.563 54.0049C131.794 51.5929 132.581 49.3911 132.581 47.552H128.581ZM127.008 52.1721C125.999 54.108 125.019 54.552 124.173 54.552V58.552C127.072 58.552 129.163 56.692 130.555 54.0199L127.008 52.1721ZM124.173 54.552C123.515 54.552 123.183 54.3583 122.943 54.083L119.932 56.717C121.035 57.9777 122.527 58.552 124.173 58.552V54.552ZM122.852 53.9858C122.769 53.9029 122.507 53.5783 122.021 52.8506L118.693 55.0694C119.168 55.7817 119.626 56.4171 120.023 56.8142L122.852 53.9858ZM122.004 52.8254C120.719 50.9597 119.798 48.5658 119.307 45.572L115.36 46.22C115.924 49.6582 117.02 52.6403 118.71 55.0946L122.004 52.8254ZM116.633 27.7868C110.323 33.5457 106.246 40.204 104.512 47.7522L108.411 48.6478C109.941 41.988 113.543 36.0223 119.33 30.7412L116.633 27.7868ZM107.767 49.7153C112.974 45.23 116.974 38.561 119.878 29.8997L116.085 28.6283C113.325 36.863 109.645 42.818 105.156 46.6847L107.767 49.7153ZM149.731 56.192L151.178 57.573L151.179 57.5713L149.731 56.192ZM138.427 55.616L139.647 54.0307L139.641 54.0267L138.427 55.616ZM136.411 23.216L138.291 23.8995L138.291 23.8995L136.411 23.216ZM144.475 7.304L142.939 6.02362L142.876 6.09863L142.821 6.17938L144.475 7.304ZM146.347 6.656L145.453 8.44485L145.505 8.47114L145.559 8.49428L146.347 6.656ZM147.355 7.16L146.363 8.89648L146.411 8.92403L146.461 8.94885L147.355 7.16ZM148.147 7.52L147.515 9.41737L150.147 10.2948V7.52H148.147ZM148.147 5.36H150.147V4.88786L149.936 4.46556L148.147 5.36ZM149.515 3.416L150.16 1.52293L150.148 1.51863L149.515 3.416ZM153.475 23.36L155.264 24.2544L155.269 24.2438L155.274 24.2332L153.475 23.36ZM151.243 23.504L149.443 24.3765L149.49 24.473L149.547 24.564L151.243 23.504ZM148.291 11.192L150.284 11.0212L150.127 9.192H148.291V11.192ZM146.707 11.984L145.02 10.9102L145.02 10.9102L146.707 11.984ZM144.979 16.16L146.854 16.855L146.857 16.8476L146.86 16.8403L144.979 16.16ZM142.027 53.456L140.119 54.0557L141.074 57.0934L143.396 54.9144L142.027 53.456ZM150.091 42.584L148.322 41.6509L148.318 41.6582L150.091 42.584ZM155.203 29.192L157.117 28.6106L154.985 21.5935L153.259 28.7214L155.203 29.192ZM154.931 39.272C154.931 44.9375 152.773 50.098 148.283 54.8127L151.179 57.5713C156.289 52.206 158.931 46.0865 158.931 39.272H154.931ZM148.284 54.811C147.733 55.3883 146.912 55.776 145.555 55.776V59.776C147.751 59.776 149.713 59.1077 151.178 57.573L148.284 54.811ZM145.555 55.776C143.017 55.776 141.098 55.147 139.647 54.0308L137.208 57.2012C139.501 58.965 142.333 59.776 145.555 59.776V55.776ZM139.641 54.0267C136.969 51.985 135.243 47.5579 135.243 39.776H131.243C131.243 47.8341 132.974 53.967 137.213 57.2053L139.641 54.0267ZM135.243 39.776C135.243 34.8151 136.244 29.5272 138.291 23.8995L134.532 22.5325C132.354 28.5208 131.243 34.2729 131.243 39.776H135.243ZM138.291 23.8995C140.35 18.2373 142.964 13.0829 146.129 8.42862L142.821 6.17938C139.458 11.1251 136.697 16.5787 134.532 22.5325L138.291 23.8995ZM146.012 8.58437C146.106 8.47057 146.185 8.384 146.247 8.32016C146.31 8.25483 146.346 8.22483 146.355 8.21774C146.368 8.20707 146.321 8.24775 146.218 8.29705C146.121 8.34357 145.887 8.44 145.555 8.44V4.44C144.719 4.44 144.11 4.89112 143.856 5.09426C143.526 5.35768 143.218 5.68793 142.939 6.02362L146.012 8.58437ZM145.555 8.44C145.475 8.44 145.423 8.42789 145.407 8.42353C145.392 8.41944 145.406 8.42173 145.453 8.44485L147.242 4.86714C146.766 4.62954 146.193 4.44 145.555 4.44V8.44ZM145.559 8.49428C145.821 8.60658 146.089 8.74009 146.363 8.89648L148.347 5.42351C147.949 5.1959 147.545 4.99341 147.135 4.81771L145.559 8.49428ZM146.461 8.94885C146.829 9.13294 147.215 9.31761 147.515 9.41737L148.78 5.62263C148.809 5.63244 148.783 5.6253 148.669 5.57326C148.567 5.52705 148.429 5.4608 148.25 5.37114L146.461 8.94885ZM150.147 7.52V5.36H146.147V7.52H150.147ZM149.936 4.46556C149.835 4.26416 149.778 4.11037 149.746 4.00055C149.715 3.8906 149.715 3.84357 149.715 3.848H145.715C145.715 4.70525 145.994 5.52578 146.358 6.25443L149.936 4.46556ZM149.715 3.848C149.715 3.88606 149.712 4.28816 149.354 4.69073C148.956 5.13818 148.472 5.2 148.291 5.2V1.2C147.726 1.2 146.954 1.36982 146.364 2.03327C145.814 2.65183 145.715 3.37794 145.715 3.848H149.715ZM148.291 5.2C148.424 5.2 148.618 5.22505 148.883 5.31336L150.148 1.51863C149.549 1.31894 148.926 1.2 148.291 1.2V5.2ZM148.87 5.30902C150.588 5.89469 151.773 6.84285 152.561 8.1309C153.369 9.45307 153.851 11.2911 153.851 13.784H157.851C157.851 10.8049 157.278 8.17893 155.974 6.0451C154.649 3.87714 152.667 2.37731 150.16 1.52298L148.87 5.30902ZM153.851 13.784C153.851 16.5559 153.149 19.4508 151.676 22.4868L155.274 24.2332C156.969 20.7412 157.851 17.2521 157.851 13.784H153.851ZM151.686 22.4656C151.6 22.6373 151.527 22.7669 151.468 22.8614C151.438 22.9079 151.415 22.9425 151.397 22.967C151.388 22.9791 151.381 22.988 151.376 22.9942C151.373 22.9972 151.372 22.9995 151.37 23.001C151.369 23.0026 151.368 23.0033 151.368 23.0033C151.368 23.0033 151.369 23.0024 151.371 23.0008C151.372 22.9993 151.374 22.9969 151.377 22.9937C151.384 22.9875 151.394 22.9779 151.408 22.9656C151.435 22.9419 151.484 22.9029 151.555 22.86C151.699 22.7737 151.964 22.656 152.323 22.656V26.656C153.362 26.656 154.046 26.0117 154.358 25.6607C154.718 25.2551 155.014 24.7535 155.264 24.2544L151.686 22.4656ZM152.323 22.656C152.788 22.656 153.098 22.835 153.199 22.8995C153.313 22.9723 153.357 23.0269 153.332 23.0001C153.314 22.9807 153.269 22.9288 153.197 22.8297C153.126 22.7328 153.04 22.6058 152.939 22.444L149.547 24.564C149.814 24.9916 150.104 25.4054 150.414 25.7359C150.569 25.9011 150.779 26.0997 151.043 26.2685C151.293 26.429 151.738 26.656 152.323 26.656V22.656ZM153.043 22.6315C151.649 19.7572 150.703 15.915 150.284 11.0212L146.298 11.3628C146.743 16.549 147.765 20.9148 149.443 24.3765L153.043 22.6315ZM148.291 9.192C147.008 9.192 145.783 9.7103 145.02 10.9102L148.394 13.0577C148.391 13.0634 148.376 13.0848 148.347 13.1118C148.317 13.1393 148.283 13.1624 148.25 13.1789C148.181 13.2129 148.174 13.192 148.291 13.192V9.192ZM145.02 10.9102C144.748 11.3371 144.463 11.9635 144.175 12.6593C143.871 13.3945 143.511 14.3378 143.098 15.4797L146.86 16.8403C147.263 15.7262 147.599 14.8455 147.871 14.1887C148.159 13.4925 148.33 13.1589 148.394 13.0577L145.02 10.9102ZM143.104 15.465C139.998 23.8445 138.443 32.4557 138.443 41.288H142.443C142.443 32.9363 143.912 24.7955 146.854 16.855L143.104 15.465ZM138.443 41.288C138.443 46.1773 138.985 50.4473 140.119 54.0557L143.935 52.8563C142.957 49.7447 142.443 45.9027 142.443 41.288H138.443ZM143.396 54.9144C146.7 51.8131 149.518 48.0015 151.864 43.5098L148.318 41.6582C146.152 45.8065 143.594 49.2429 140.658 51.9976L143.396 54.9144ZM151.86 43.5171C154.237 39.0104 156.002 34.3916 157.147 29.6626L153.259 28.7214C152.196 33.1124 150.553 37.4216 148.322 41.6509L151.86 43.5171ZM153.289 29.7734C154.403 33.4387 154.931 36.5966 154.931 39.272H158.931C158.931 36.0914 158.307 32.5293 157.117 28.6106L153.289 29.7734ZM165.7 2.48H163.7V2.64552L163.727 2.8088L165.7 2.48ZM167.572 1.76L167.087 3.70028L167.133 3.71183L167.18 3.72116L167.572 1.76ZM171.676 8.96L173.642 9.32857L173.644 9.31808L173.646 9.30757L171.676 8.96ZM170.812 13.856L168.841 13.5149L168.838 13.5334L168.835 13.5519L170.812 13.856ZM169.948 19.256L167.978 18.9133L167.973 18.9412L167.969 18.9691L169.948 19.256ZM169.228 24.224L171.205 24.5244L171.207 24.5109L169.228 24.224ZM169.3 46.832L170.714 48.2462L170.794 48.1659L170.865 48.077L169.3 46.832ZM175.132 39.128L173.417 38.099L173.409 38.1124L173.401 38.1259L175.132 39.128ZM176.356 42.368L174.38 42.0561L174.377 42.0781L174.374 42.1002L176.356 42.368ZM175.924 45.824L177.914 46.023L177.915 46.014L177.916 46.0051L175.924 45.824ZM175.564 47.48L173.652 46.8918L173.631 46.9604L173.615 47.0303L175.564 47.48ZM175.132 48.992L173.259 48.2897L173.231 48.3651L173.209 48.4426L175.132 48.992ZM174.412 50.504L176.115 51.5522L176.132 51.5245L176.148 51.4963L174.412 50.504ZM173.62 51.728L175.22 52.928L175.22 52.928L173.62 51.728ZM171.172 54.896L169.62 53.6348L169.615 53.6407L169.61 53.6466L171.172 54.896ZM165.268 52.952L163.479 53.8464L163.508 53.9041L163.54 53.9597L165.268 52.952ZM163.972 50.288L165.775 49.4225L165.763 49.3975L165.75 49.3727L163.972 50.288ZM162.46 28.688L160.485 28.3695L160.484 28.3799L160.482 28.3903L162.46 28.688ZM163.756 20.336L165.739 20.5947L166.034 18.336H163.756V20.336ZM162.244 17.816L160.371 17.1138L160.343 17.1891L160.321 17.2666L162.244 17.816ZM163.612 13.784L161.725 13.1224L161.719 13.1369L161.715 13.1515L163.612 13.784ZM166.06 4.64H168.06V4.47447L168.033 4.3112L166.06 4.64ZM167.7 2.48C167.7 2.54323 167.675 2.94633 167.291 3.3016C166.936 3.62895 166.594 3.616 166.636 3.616V-0.384004C166.054 -0.384004 165.244 -0.252955 164.577 0.362391C163.881 1.00566 163.7 1.84077 163.7 2.48H167.7ZM166.636 3.616C166.628 3.616 166.661 3.6157 166.746 3.62874C166.828 3.64139 166.94 3.66365 167.087 3.70028L168.057 -0.180284C167.603 -0.293889 167.111 -0.384004 166.636 -0.384004V3.616ZM167.18 3.72116C168.332 3.95161 168.958 4.34948 169.303 4.74636C169.634 5.12707 169.892 5.71908 169.892 6.728H173.892C173.892 5.00092 173.43 3.39692 172.321 2.12164C171.226 0.862511 169.692 0.144385 167.964 -0.201163L167.18 3.72116ZM169.892 6.728C169.892 7.26029 169.835 7.88583 169.706 8.61242L173.646 9.30757C173.805 8.40217 173.892 7.53971 173.892 6.728H169.892ZM169.71 8.59142C169.563 9.37569 169.273 11.022 168.841 13.5149L172.783 14.1971C173.215 11.698 173.501 10.0803 173.642 9.32857L169.71 8.59142ZM168.835 13.5519C168.451 16.0468 168.166 17.8301 167.978 18.9133L171.918 19.5987C172.114 18.4739 172.405 16.6572 172.789 14.1601L168.835 13.5519ZM167.969 18.9691L167.249 23.9371L171.207 24.5109L171.927 19.5429L167.969 18.9691ZM167.251 23.9236C166.086 31.5879 165.5 38.6738 165.5 45.176H169.5C169.5 38.9102 170.065 32.0281 171.205 24.5244L167.251 23.9236ZM165.5 45.176C165.5 45.969 165.585 46.8545 165.951 47.6115C166.147 48.0171 166.454 48.4503 166.931 48.7793C167.423 49.1194 167.975 49.264 168.508 49.264V45.264C168.705 45.264 168.963 45.3216 169.203 45.4877C169.428 45.6427 169.525 45.8149 169.553 45.8725C169.578 45.9239 169.559 45.9065 169.538 45.7717C169.517 45.6427 169.5 45.4488 169.5 45.176H165.5ZM168.508 49.264C169.546 49.264 170.296 48.664 170.714 48.2462L167.886 45.4178C167.832 45.4711 167.845 45.4455 167.928 45.4002C168.017 45.3518 168.219 45.264 168.508 45.264V49.264ZM170.865 48.077C174.176 43.9149 176.242 41.2031 176.863 40.1301L173.401 38.1259C172.966 38.8769 171.144 41.3011 167.735 45.587L170.865 48.077ZM176.847 40.157C177.115 39.7107 177.295 39.4596 177.394 39.3433C177.446 39.2824 177.425 39.3184 177.335 39.3851C177.286 39.4211 177.187 39.4886 177.041 39.5508C176.895 39.6132 176.658 39.688 176.356 39.688V35.688C175.663 35.688 175.167 36.0129 174.954 36.1709C174.702 36.3576 174.498 36.5736 174.346 36.7527C174.037 37.1164 173.725 37.5853 173.417 38.099L176.847 40.157ZM176.356 39.688C176.008 39.688 175.633 39.5757 175.317 39.3297C175.029 39.1058 174.896 38.8543 174.842 38.7278C174.752 38.5178 174.788 38.4418 174.788 38.696H178.788C178.788 38.2782 178.752 37.6982 178.518 37.1522C178.392 36.8577 178.169 36.4802 177.773 36.1723C177.348 35.8423 176.848 35.688 176.356 35.688V39.688ZM174.788 38.696C174.788 39.1374 174.672 40.2074 174.38 42.0561L178.331 42.6799C178.616 40.8806 178.788 39.5026 178.788 38.696H174.788ZM174.374 42.1002C174.135 43.8651 173.985 45.063 173.932 45.6429L177.916 46.0051C177.959 45.529 178.096 44.4229 178.338 42.6358L174.374 42.1002ZM173.934 45.625C173.903 45.936 173.818 46.3534 173.652 46.8918L177.476 48.0682C177.694 47.3586 177.849 46.6719 177.914 46.023L173.934 45.625ZM173.615 47.0303C173.481 47.6104 173.36 48.0204 173.259 48.2897L177.005 49.6942C177.192 49.1956 177.359 48.5976 177.513 47.9297L173.615 47.0303ZM173.209 48.4426C173.209 48.4425 173.208 48.4444 173.207 48.4486C173.206 48.4527 173.204 48.4587 173.201 48.4665C173.195 48.4824 173.187 48.5043 173.176 48.5327C173.153 48.5903 173.12 48.6661 173.074 48.7621C172.982 48.9557 172.851 49.2038 172.675 49.5117L176.148 51.4963C176.54 50.8114 176.887 50.1277 177.055 49.5414L173.209 48.4426ZM172.709 49.4558C172.316 50.094 172.099 50.4221 172.02 50.528L175.22 52.928C175.429 52.6499 175.74 52.162 176.115 51.5522L172.709 49.4558ZM172.02 50.528C171.018 51.8634 170.22 52.8959 169.62 53.6348L172.724 56.1572C173.372 55.3601 174.205 54.2806 175.22 52.928L172.02 50.528ZM169.61 53.6466C169.358 53.962 169.208 53.976 169.084 53.976V57.976C170.592 57.976 171.834 57.27 172.734 56.1454L169.61 53.6466ZM169.084 53.976C169.002 53.976 168.738 53.9532 168.266 53.4818L165.438 56.3102C166.406 57.2788 167.63 57.976 169.084 57.976V53.976ZM168.266 53.4818C167.611 52.8266 167.212 52.3158 166.996 51.9443L163.54 53.9597C163.996 54.7402 164.653 55.5254 165.438 56.3102L168.266 53.4818ZM167.057 52.0576C166.776 51.4967 166.35 50.6208 165.775 49.4225L162.169 51.1535C162.746 52.3552 163.184 53.2553 163.479 53.8464L167.057 52.0576ZM165.75 49.3727C164.213 46.386 163.452 43.2671 163.452 39.992H159.452C159.452 43.9169 160.371 47.662 162.194 51.2033L165.75 49.3727ZM163.452 39.992C163.452 37.0541 163.774 33.3924 164.438 28.9857L160.482 28.3903C159.802 32.9116 159.452 36.7859 159.452 39.992H163.452ZM164.434 29.0065C165.153 24.5539 165.59 21.7355 165.739 20.5947L161.773 20.0773C161.634 21.1445 161.207 23.8941 160.485 28.3695L164.434 29.0065ZM163.756 18.336C163.449 18.336 163.592 18.2632 163.826 18.4668C163.949 18.5735 164.029 18.7013 164.071 18.8101C164.108 18.907 164.1 18.949 164.1 18.896H160.1C160.1 19.7627 160.362 20.7552 161.202 21.4852C161.988 22.1687 162.959 22.336 163.756 22.336V18.336ZM164.1 18.896C164.1 18.6796 164.127 18.5061 164.167 18.3654L160.321 17.2666C160.169 17.7979 160.1 18.3444 160.1 18.896H164.1ZM164.117 18.5182C164.277 18.09 164.749 16.6987 165.509 14.4165L161.715 13.1515C160.939 15.4773 160.499 16.774 160.371 17.1138L164.117 18.5182ZM165.499 14.4456C166.324 12.0933 166.954 10.1149 167.38 8.52322C167.793 6.98171 168.06 5.64194 168.06 4.64H164.06C164.06 5.07806 163.919 5.98229 163.516 7.48878C163.126 8.94506 162.532 10.8187 161.725 13.1224L165.499 14.4456ZM168.033 4.3112L167.673 2.1512L163.727 2.8088L164.087 4.96879L168.033 4.3112ZM194.587 45.896L196.561 45.572L195.632 39.9169L192.841 44.9217L194.587 45.896ZM181.555 53.744L183.226 52.6448L183.21 52.6207L183.194 52.5971L181.555 53.744ZM180.475 51.512L178.596 52.1955L178.601 52.2098L178.606 52.224L180.475 51.512ZM179.035 48.632L177.329 49.6749L177.349 49.7086L177.371 49.7414L179.035 48.632ZM179.107 41.216L177.323 40.3128L177.318 40.3216L179.107 41.216ZM191.563 25.232L192.664 26.9017L192.715 26.8684L192.763 26.832L191.563 25.232ZM196.459 25.88L197.873 24.4658L197.773 24.3653L197.659 24.28L196.459 25.88ZM197.683 27.608L199.633 27.1648L199.618 27.0984L199.599 27.0333L197.683 27.608ZM198.043 29.552H196.043V30.9806L197.394 31.4439L198.043 29.552ZM199.699 39.92L201.675 40.228L201.676 40.2241L199.699 39.92ZM198.691 48.2L196.694 48.0949L196.691 48.1474V48.2H198.691ZM203.803 45.68L202.203 44.48L202.196 44.4892L202.189 44.4985L203.803 45.68ZM207.979 44.024L209.977 44.1056L209.979 44.0648V44.024H207.979ZM207.835 47.552L205.837 47.4704L205.835 47.5112V47.552H207.835ZM206.035 53.096L207.809 54.0199L207.813 54.0124L207.817 54.0049L206.035 53.096ZM198.691 55.4L200.196 54.083L200.152 54.0329L200.105 53.9858L198.691 55.4ZM197.611 53.96L199.275 52.8506L199.267 52.8379L199.258 52.8254L197.611 53.96ZM195.235 29.264L197.131 29.8997L199.582 22.5886L193.887 27.7868L195.235 29.264ZM183.715 48.2L181.766 47.7522L180.401 53.6946L185.02 49.7153L183.715 48.2ZM192.841 44.9217C190.897 48.4064 189.237 50.921 187.862 52.5384C187.173 53.3478 186.608 53.8707 186.167 54.1775C185.713 54.494 185.538 54.48 185.587 54.48V58.48C186.669 58.48 187.642 58.025 188.454 57.4595C189.279 56.8843 190.097 56.0842 190.909 55.1296C192.533 53.219 194.342 50.4416 196.334 46.8703L192.841 44.9217ZM185.587 54.48C185.051 54.48 184.241 54.1879 183.226 52.6448L179.884 54.8432C181.269 56.9481 183.147 58.48 185.587 58.48V54.48ZM183.194 52.5971C183 52.3208 182.71 51.7598 182.344 50.8L178.606 52.224C179.009 53.2802 179.438 54.2072 179.917 54.8909L183.194 52.5971ZM182.355 50.8285C181.921 49.6346 181.371 48.5298 180.699 47.5226L177.371 49.7414C177.852 50.4622 178.262 51.2774 178.596 52.1955L182.355 50.8285ZM180.742 47.5891C180.47 47.1448 180.243 46.3955 180.243 45.176H176.243C176.243 46.8365 176.544 48.3912 177.329 49.6749L180.742 47.5891ZM180.243 45.176C180.243 43.9502 180.479 42.9445 180.896 42.1104L177.318 40.3216C176.583 41.7915 176.243 43.4258 176.243 45.176H180.243ZM180.892 42.1192C184.763 34.4706 188.72 29.5021 192.664 26.9017L190.462 23.5623C185.67 26.7219 181.323 32.4094 177.323 40.3128L180.892 42.1192ZM192.763 26.832C192.969 26.6775 193.213 26.584 193.579 26.584V22.584C192.409 22.584 191.309 22.9225 190.363 23.632L192.763 26.832ZM193.579 26.584C193.674 26.584 194.192 26.6796 195.259 27.48L197.659 24.28C196.422 23.3524 195.021 22.584 193.579 22.584V26.584ZM195.045 27.2942C195.327 27.5759 195.516 27.8014 195.637 27.972C195.763 28.1494 195.778 28.2164 195.767 28.1827L199.599 27.0333C199.308 26.063 198.605 25.1972 197.873 24.4658L195.045 27.2942ZM195.733 28.0512C195.85 28.5673 195.934 28.964 195.987 29.2502C196.013 29.3936 196.03 29.4957 196.039 29.5633C196.05 29.6476 196.043 29.6277 196.043 29.552H200.043C200.043 29.222 199.976 28.8271 199.92 28.5218C199.853 28.16 199.756 27.7047 199.633 27.1648L195.733 28.0512ZM197.394 31.4439C197.985 31.6465 198.25 31.8724 198.368 32.021C198.468 32.1468 198.563 32.3384 198.563 32.72H202.563C202.563 31.5656 202.238 30.4612 201.498 29.531C200.777 28.6236 199.781 28.0335 198.692 27.6601L197.394 31.4439ZM198.563 32.72C198.563 33.5914 198.305 35.8265 197.722 39.6159L201.676 40.2241C202.245 36.5255 202.563 33.9606 202.563 32.72H198.563ZM197.723 39.612C197.145 43.321 196.796 46.1642 196.694 48.0949L200.688 48.3051C200.779 46.5878 201.101 43.911 201.675 40.228L197.723 39.612ZM196.691 48.2C196.691 48.8631 196.79 49.7101 197.279 50.4434C197.863 51.3198 198.781 51.712 199.699 51.712V47.712C199.782 47.712 199.952 47.7285 200.153 47.8286C200.361 47.9329 200.513 48.0834 200.607 48.2246C200.692 48.3524 200.709 48.4397 200.707 48.4276C200.704 48.4163 200.691 48.3472 200.691 48.2H196.691ZM199.699 51.712C200.439 51.712 201.051 51.4055 201.453 51.1528C201.886 50.8799 202.305 50.5211 202.703 50.1307C203.5 49.3473 204.408 48.2392 205.417 46.8615L202.189 44.4985C201.23 45.8088 200.47 46.7167 199.899 47.2773C199.613 47.5589 199.423 47.7041 199.323 47.7672C199.19 47.8505 199.344 47.712 199.699 47.712V51.712ZM205.403 46.88C206.404 45.5459 207.165 44.5793 207.698 43.9576C207.969 43.6411 208.147 43.4547 208.246 43.3621C208.299 43.3125 208.286 43.3314 208.22 43.3751C208.186 43.3976 208.102 43.4516 207.976 43.5049C207.865 43.5523 207.608 43.648 207.259 43.648V39.648C206.583 39.648 206.101 39.9806 206.001 40.0469C205.81 40.1746 205.643 40.3195 205.516 40.4379C205.256 40.6813 204.965 40.9989 204.661 41.3544C204.042 42.0767 203.219 43.1261 202.203 44.48L205.403 46.88ZM207.259 43.648C207.034 43.648 206.798 43.5995 206.575 43.4942C206.357 43.3912 206.199 43.2572 206.094 43.1418C205.905 42.9339 205.869 42.7682 205.885 42.822C205.895 42.8554 205.922 42.9658 205.944 43.1855C205.966 43.3982 205.979 43.6749 205.979 44.024H209.979C209.979 43.1803 209.921 42.3471 209.713 41.662C209.548 41.1184 208.938 39.648 207.259 39.648V43.648ZM205.981 43.9424L205.837 47.4704L209.833 47.6336L209.977 44.1056L205.981 43.9424ZM205.835 47.552C205.835 48.4009 205.423 49.8951 204.254 52.1871L207.817 54.0049C209.047 51.5929 209.835 49.3911 209.835 47.552H205.835ZM204.261 52.1721C203.253 54.108 202.272 54.552 201.427 54.552V58.552C204.326 58.552 206.417 56.692 207.809 54.0199L204.261 52.1721ZM201.427 54.552C200.769 54.552 200.437 54.3583 200.196 54.083L197.186 56.717C198.289 57.9777 199.781 58.552 201.427 58.552V54.552ZM200.105 53.9858C200.022 53.9029 199.76 53.5783 199.275 52.8506L195.947 55.0694C196.422 55.7817 196.88 56.4171 197.277 56.8142L200.105 53.9858ZM199.258 52.8254C197.973 50.9597 197.052 48.5658 196.561 45.572L192.614 46.22C193.178 49.6582 194.273 52.6403 195.964 55.0946L199.258 52.8254ZM193.887 27.7868C187.577 33.5457 183.5 40.204 181.766 47.7522L185.664 48.6478C187.194 41.988 190.797 36.0223 196.583 30.7412L193.887 27.7868ZM185.02 49.7153C190.228 45.23 194.228 38.561 197.131 29.8997L193.339 28.6283C190.578 36.863 186.899 42.818 182.41 46.6847L185.02 49.7153ZM221.513 23.504L222.358 25.3169L222.359 25.3164L221.513 23.504ZM228.929 24.512L227.921 26.2396L227.939 26.2501L227.958 26.2603L228.929 24.512ZM229.937 31.496L228.523 30.0818L228.506 30.0982L228.49 30.115L229.937 31.496ZM222.377 30.344L220.48 30.9765L220.504 31.0493L220.534 31.1201L222.377 30.344ZM219.497 30.776L218.732 28.928L218.721 28.9328L218.709 28.9377L219.497 30.776ZM216.761 32L215.866 30.2111L215.866 30.2111L216.761 32ZM217.049 33.512L216.154 35.3009L216.334 35.3907L216.528 35.443L217.049 33.512ZM227.849 49.352L226.239 48.1656L226.233 48.1731L227.849 49.352ZM222.305 53.744L221.439 51.941L221.439 51.941L222.305 53.744ZM210.713 53.672L209.09 54.8406L209.105 54.8616L209.121 54.8822L210.713 53.672ZM211.793 43.448L210.692 41.7781L210.671 41.7924L210.649 41.8072L211.793 43.448ZM216.329 42.512L215.348 40.7688L215.324 40.7826L215.3 40.797L216.329 42.512ZM213.953 44.384L212.58 42.93L212.559 42.9496L212.539 42.9698L213.953 44.384ZM223.529 44.528L222.634 42.7391L222.579 42.7671L222.525 42.7984L223.529 44.528ZM223.025 41.936L223.885 40.1303L223.885 40.1303L223.025 41.936ZM217.913 39.848L217.19 41.7128L217.202 41.7176L217.913 39.848ZM212.297 37.544L211.402 39.3329L211.44 39.3517L211.479 39.369L212.297 37.544ZM210.569 32.504L208.65 31.9397L208.639 31.9791L208.629 32.0189L210.569 32.504ZM211.001 30.848L212.974 31.1768L212.977 31.1539L212.981 31.1308L211.001 30.848ZM213.233 27.392L212.365 25.59L212.352 25.5965L212.338 25.6031L213.233 27.392ZM222.359 25.3164C222.706 25.1545 223.36 25 224.465 25V21C223.074 21 221.76 21.1815 220.667 21.6916L222.359 25.3164ZM224.465 25C225.206 25 226.333 25.3129 227.921 26.2396L229.937 22.7844C228.069 21.6951 226.22 21 224.465 21V25ZM227.958 26.2603C229.381 27.0509 229.521 27.6623 229.521 27.968H233.521C233.521 25.5857 231.933 23.8931 229.9 22.7637L227.958 26.2603ZM229.521 27.968C229.521 28.652 229.266 29.3389 228.523 30.0818L231.351 32.9102C232.72 31.5411 233.521 29.876 233.521 27.968H229.521ZM228.49 30.115C227.807 30.8306 227.159 31.08 226.481 31.08V35.08C228.395 35.08 230.051 34.2734 231.384 32.8769L228.49 30.115ZM226.481 31.08C225.813 31.08 225.384 30.9288 225.088 30.7319C224.792 30.5345 224.483 30.1929 224.22 29.5679L220.534 31.1201C221.038 32.3191 221.798 33.3455 222.869 34.0601C223.942 34.7752 225.181 35.08 226.481 35.08V31.08ZM224.274 29.7115C224.153 29.3465 223.924 28.8814 223.48 28.5015C223.002 28.0916 222.427 27.912 221.873 27.912V31.912C221.559 31.912 221.188 31.8044 220.877 31.5385C220.602 31.3026 220.505 31.0535 220.48 30.9765L224.274 29.7115ZM221.873 27.912C221.499 27.912 221.154 28.0176 221.055 28.0465C220.873 28.0997 220.668 28.1698 220.451 28.2484C220.015 28.4072 219.438 28.636 218.732 28.928L220.262 32.624C220.948 32.34 221.463 32.1368 221.818 32.0076C221.998 31.9422 222.114 31.9043 222.178 31.8855C222.211 31.8759 222.21 31.8774 222.185 31.8826C222.183 31.883 222.057 31.912 221.873 31.912V27.912ZM218.709 28.9377C217.37 29.5115 216.406 29.9411 215.866 30.2111L217.655 33.7889C218.075 33.5788 218.936 33.1925 220.285 32.6143L218.709 28.9377ZM215.866 30.2111C215.532 30.3782 215.141 30.6119 214.807 30.9458C214.469 31.2838 214.041 31.8825 214.041 32.72H218.041C218.041 33.3175 217.733 33.6762 217.635 33.7742C217.541 33.8681 217.509 33.8618 217.655 33.7889L215.866 30.2111ZM214.041 32.72C214.041 33.3547 214.313 33.8191 214.494 34.0639C214.682 34.3195 214.896 34.5077 215.057 34.6346C215.382 34.8899 215.774 35.1105 216.154 35.3009L217.943 31.7231C217.808 31.6553 217.705 31.5991 217.631 31.5549C217.554 31.509 217.525 31.4867 217.529 31.4894C217.531 31.4916 217.551 31.5068 217.58 31.5352C217.608 31.5628 217.657 31.6144 217.714 31.6911C217.81 31.8219 218.041 32.1813 218.041 32.72H214.041ZM216.528 35.443C220.671 36.5601 223.564 37.9226 225.387 39.4281C227.148 40.8825 227.865 42.4189 227.865 44.096H231.865C231.865 41.0211 230.445 38.4175 227.934 36.3439C225.485 34.3214 221.971 32.7679 217.57 31.581L216.528 35.443ZM227.865 44.096C227.865 45.2224 227.417 46.567 226.239 48.1656L229.459 50.5384C230.969 48.489 231.865 46.3296 231.865 44.096H227.865ZM226.233 48.1731C225.169 49.6316 223.604 50.902 221.439 51.941L223.17 55.547C225.806 54.282 227.937 52.6244 229.464 50.5309L226.233 48.1731ZM221.439 51.941C219.255 52.9896 217.246 53.472 215.393 53.472V57.472C217.956 57.472 220.555 56.8024 223.17 55.547L221.439 51.941ZM215.393 53.472C213.507 53.472 212.687 52.9642 212.305 52.4618L209.121 54.8822C210.563 56.7798 212.863 57.472 215.393 57.472V53.472ZM212.336 52.5034C211.815 51.7802 211.417 50.5318 211.417 48.488H207.417C207.417 50.9562 207.882 53.1638 209.09 54.8406L212.336 52.5034ZM211.417 48.488C211.417 46.7595 211.985 45.7518 212.936 45.0888L210.649 41.8072C208.433 43.3522 207.417 45.7045 207.417 48.488H211.417ZM212.893 45.1179C214.924 43.7798 216.24 43.36 216.977 43.36V39.36C215.026 39.36 212.886 40.3322 210.692 41.7781L212.893 45.1179ZM216.977 43.36C216.971 43.36 216.915 43.3601 216.823 43.3427C216.735 43.326 216.564 43.2834 216.363 43.1685C216.149 43.0466 215.904 42.8427 215.722 42.5297C215.539 42.216 215.481 41.8996 215.481 41.648H219.481C219.481 40.8274 219.048 40.0962 218.347 39.6955C217.813 39.3904 217.27 39.36 216.977 39.36V43.36ZM215.481 41.648C215.481 41.2295 215.616 40.9213 215.698 40.7676C215.784 40.6063 215.873 40.5007 215.914 40.4543C215.994 40.3644 216.042 40.3351 215.993 40.372C215.906 40.4371 215.708 40.5666 215.348 40.7688L217.309 44.2552C217.718 44.0254 218.096 43.7949 218.393 43.572C218.536 43.4649 218.728 43.3096 218.904 43.1117C218.998 43.0058 219.481 42.4741 219.481 41.648H215.481ZM215.3 40.797C214.417 41.3269 213.509 42.0522 212.58 42.93L215.326 45.838C216.125 45.0838 216.801 44.5611 217.358 44.227L215.3 40.797ZM212.539 42.9698C212.065 43.4435 211.641 43.9418 211.325 44.462C211.018 44.9683 210.729 45.6329 210.729 46.4H214.729C214.729 46.6391 214.644 46.7037 214.744 46.538C214.837 46.3862 215.025 46.1405 215.367 45.7982L212.539 42.9698ZM210.729 46.4C210.729 46.954 210.907 47.5043 211.275 47.9644C211.618 48.3931 212.043 48.6407 212.392 48.7862C213.05 49.0606 213.802 49.12 214.457 49.12V45.12C214.234 45.12 214.077 45.1081 213.976 45.094C213.868 45.079 213.867 45.0676 213.93 45.0938C213.991 45.1193 214.2 45.2169 214.399 45.4656C214.623 45.7457 214.729 46.086 214.729 46.4H210.729ZM214.457 49.12C217.923 49.12 221.29 48.1409 224.533 46.2576L222.525 42.7984C219.816 44.3711 217.135 45.12 214.457 45.12V49.12ZM224.423 46.3169C225.25 45.9036 226.537 45.0121 226.537 43.376H222.537C222.537 43.2171 222.569 43.0638 222.625 42.9295C222.678 42.7998 222.741 42.7147 222.78 42.671C222.844 42.5981 222.838 42.6373 222.634 42.7391L224.423 46.3169ZM226.537 43.376C226.537 42.3818 226.007 41.6538 225.538 41.2077C225.069 40.7609 224.479 40.4133 223.885 40.1303L222.165 43.7417C222.361 43.835 222.508 43.9168 222.614 43.9844C222.723 44.0533 222.77 44.0954 222.78 44.1043C222.79 44.1144 222.734 44.0646 222.672 43.9457C222.604 43.8165 222.537 43.6198 222.537 43.376H226.537ZM223.885 40.1303C222.797 39.6122 221.026 38.8915 218.623 37.9784L217.202 41.7176C219.6 42.6285 221.237 43.2998 222.165 43.7417L223.885 40.1303ZM218.636 37.9833C216.298 37.0768 214.462 36.3229 213.115 35.719L211.479 39.369C212.916 40.0131 214.824 40.7952 217.19 41.7127L218.636 37.9833ZM213.191 35.7551C212.789 35.554 212.591 35.3469 212.483 35.1734C212.376 35.0011 212.281 34.7389 212.281 34.304H208.281C208.281 35.3571 208.522 36.3789 209.087 37.2866C209.651 38.1931 210.461 38.862 211.402 39.3329L213.191 35.7551ZM212.281 34.304C212.281 34.1184 212.33 33.7065 212.509 32.9891L208.629 32.0189C208.424 32.8375 208.281 33.6256 208.281 34.304H212.281ZM212.488 33.0683C212.723 32.2693 212.903 31.6032 212.974 31.1768L209.028 30.5192C209.003 30.6688 208.895 31.1067 208.65 31.9397L212.488 33.0683ZM212.981 31.1308C213.151 29.9409 213.597 29.446 214.127 29.1809L212.338 25.6031C210.373 26.586 209.331 28.3951 209.021 30.5652L212.981 31.1308ZM214.101 29.194C215.383 28.5765 218.131 27.2861 222.358 25.3169L220.668 21.6911C216.447 23.6579 213.675 24.9595 212.365 25.59L214.101 29.194ZM254.652 54.032L256.225 55.2676L256.263 55.2191L256.298 55.1684L254.652 54.032ZM249.612 54.896L248.097 56.2014L248.145 56.2577L248.198 56.3102L249.612 54.896ZM246.084 39.2L248.038 39.6274L248.038 39.6263L246.084 39.2ZM241.116 52.736L243.02 53.348L243.036 53.299L243.049 53.2491L241.116 52.736ZM235.14 48.056L236.998 47.3167L236.981 47.2721L236.961 47.2284L235.14 48.056ZM234.276 31.928L232.31 31.5594L232.307 31.5793L232.303 31.5992L234.276 31.928ZM235.068 27.68L237.036 28.0378L237.038 28.0233L237.041 28.0088L235.068 27.68ZM235.572 25.016L233.623 24.5663L233.617 24.5949L233.611 24.6238L235.572 25.016ZM236.148 22.568L238.088 23.0531L238.091 23.0439L238.093 23.0347L236.148 22.568ZM237.3 17.456L239.265 17.8302L239.717 15.456H237.3V17.456ZM235.932 15.296L237.532 16.496L237.58 16.4322L237.623 16.3647L235.932 15.296ZM241.548 4.208L243.44 4.85737L243.472 4.7631L243.495 4.66607L241.548 4.208ZM244.428 5.216L246.365 4.71624L246.365 4.71624L244.428 5.216ZM242.268 15.8L240.913 14.3289L240.404 14.798L240.294 15.4815L242.268 15.8ZM240.324 36.608L238.593 35.6059L238.584 35.6212L238.576 35.6367L240.324 36.608ZM242.772 31.496L244.601 32.305L244.607 32.2922L242.772 31.496ZM245.508 25.88L247.223 26.909L247.227 26.9022L245.508 25.88ZM250.692 45.392L248.778 44.8103L248.764 44.8583L248.752 44.9069L250.692 45.392ZM254.004 44.672L252.54 43.3092L252.527 43.3229L252.515 43.3369L254.004 44.672ZM254.74 45.32C254.74 48.9129 254.073 51.3509 253.006 52.8956L256.298 55.1684C258.015 52.6811 258.74 49.3111 258.74 45.32H254.74ZM253.079 52.7964C252.612 53.3908 252.247 53.7442 251.99 53.9339C251.721 54.1315 251.713 54.048 251.916 54.048V58.048C252.887 58.048 253.719 57.6285 254.362 57.1541C255.017 56.6718 255.636 56.0172 256.225 55.2676L253.079 52.7964ZM251.916 54.048C251.866 54.048 251.576 54.0318 251.026 53.4818L248.198 56.3102C249.184 57.2962 250.43 58.048 251.916 58.048V54.048ZM251.127 53.5906C248.772 50.8568 247.58 47.5844 247.58 43.664H243.58C243.58 48.4796 245.076 52.6952 248.097 56.2014L251.127 53.5906ZM247.58 43.664C247.58 42.3802 247.73 41.0357 248.038 39.6274L244.13 38.7726C243.766 40.4363 243.58 42.0678 243.58 43.664H247.58ZM248.038 39.6263C248.601 37.0472 248.948 35.1154 248.948 34.088H244.948C244.948 34.5966 244.719 36.0728 244.13 38.7737L248.038 39.6263ZM248.948 34.088C248.948 33.685 248.937 33.2957 248.897 32.9759C248.879 32.8358 248.841 32.5772 248.74 32.3058C248.691 32.1764 248.579 31.9065 248.343 31.637C248.085 31.3418 247.567 30.936 246.804 30.936V34.936C246.065 34.936 245.57 34.5422 245.333 34.271C245.118 34.0255 245.025 33.7916 244.994 33.7102C244.929 33.5348 244.921 33.4202 244.927 33.4721C244.935 33.5363 244.948 33.723 244.948 34.088H248.948ZM246.804 30.936C245.904 30.936 245.384 31.5126 245.316 31.5841C245.158 31.7525 245.057 31.9154 245.011 31.9936C244.909 32.1659 244.829 32.3447 244.775 32.4738C244.659 32.7524 244.528 33.1203 244.388 33.5452C244.102 34.4092 243.719 35.6777 243.244 37.3338C242.29 40.6539 240.936 45.6199 239.183 52.2229L243.049 53.2491C244.8 46.6521 246.146 41.718 247.088 38.4382C247.561 36.7942 247.925 35.5878 248.185 34.8018C248.318 34.4017 248.41 34.1508 248.466 34.017C248.498 33.9397 248.493 33.9639 248.452 34.0331C248.436 34.0598 248.363 34.184 248.228 34.3266C248.185 34.3723 247.686 34.936 246.804 34.936V30.936ZM239.212 52.124C239.12 52.4113 239.034 52.6379 238.957 52.8118C238.879 52.9893 238.822 53.0852 238.795 53.125C238.763 53.1718 238.802 53.0982 238.937 53.0014C239.09 52.8913 239.371 52.752 239.748 52.752V56.752C241.006 56.752 241.763 55.8754 242.105 55.371C242.491 54.8028 242.782 54.0888 243.02 53.348L239.212 52.124ZM239.748 52.752C240.02 52.752 240.106 52.8707 239.969 52.7627C239.831 52.6537 239.593 52.4111 239.272 51.9442C238.629 51.011 237.866 49.4988 236.998 47.3167L233.282 48.7953C234.19 51.0772 235.083 52.913 235.976 54.2118C236.423 54.8609 236.923 55.4553 237.493 55.9043C238.064 56.3543 238.828 56.752 239.748 56.752V52.752ZM236.961 47.2284C236.147 45.4388 235.7 43.1922 235.7 40.424H231.7C231.7 43.6078 232.213 46.4492 233.319 48.8836L236.961 47.2284ZM235.7 40.424C235.7 37.1308 235.889 34.4164 236.249 32.2568L232.303 31.5992C231.895 34.0476 231.7 36.9972 231.7 40.424H235.7ZM236.242 32.2966C236.673 29.9949 236.939 28.5725 237.036 28.0378L233.1 27.3222C233.005 27.8435 232.743 29.2531 232.31 31.5594L236.242 32.2966ZM237.041 28.0088C237.131 27.4664 237.294 26.6047 237.533 25.4082L233.611 24.6238C233.37 25.8273 233.197 26.7416 233.095 27.3512L237.041 28.0088ZM237.521 25.4657C237.81 24.2138 237.998 23.4162 238.088 23.0531L234.208 22.0829C234.106 22.4878 233.91 23.3222 233.623 24.5663L237.521 25.4657ZM238.093 23.0347C238.669 20.6346 239.063 18.8895 239.265 17.8302L235.335 17.0818C235.153 18.0385 234.779 19.7014 234.203 22.1013L238.093 23.0347ZM237.3 15.456C237.094 15.456 236.968 15.44 236.905 15.4273C236.838 15.4141 236.882 15.4127 236.979 15.471C237.089 15.5371 237.244 15.6666 237.361 15.8772C237.476 16.0852 237.5 16.2728 237.5 16.376H233.5C233.5 17.4136 233.997 18.3469 234.921 18.901C235.682 19.3574 236.565 19.456 237.3 19.456V15.456ZM237.5 16.376C237.5 16.4985 237.473 16.5765 237.465 16.5968C237.458 16.6131 237.469 16.5794 237.532 16.496L234.332 14.096C233.892 14.6825 233.5 15.4567 233.5 16.376H237.5ZM237.623 16.3647C240.312 12.1108 242.268 8.27032 243.44 4.85737L239.656 3.55863C238.62 6.57768 236.832 10.1292 234.241 14.2273L237.623 16.3647ZM243.495 4.66607C243.547 4.44283 243.576 4.51248 243.436 4.66072C243.357 4.74516 243.24 4.836 243.086 4.90116C242.934 4.96579 242.797 4.984 242.7 4.984V0.983996C241.878 0.983996 241.105 1.30114 240.524 1.91927C240 2.47551 239.741 3.15717 239.601 3.74992L243.495 4.66607ZM242.7 4.984C242.553 4.984 242.4 4.94438 242.271 4.87328C242.154 4.80853 242.113 4.74821 242.127 4.76634C242.142 4.78688 242.195 4.86326 242.267 5.02972C242.337 5.19376 242.415 5.41829 242.491 5.71575L246.365 4.71624C246.142 3.85518 245.816 2.99825 245.289 2.31765C244.717 1.57868 243.843 0.983996 242.7 0.983996V4.984ZM242.491 5.71575C242.848 7.09908 243.004 8.21992 243.004 9.104H247.004C247.004 7.78007 246.776 6.30892 246.365 4.71624L242.491 5.71575ZM243.004 9.104C243.004 11.4049 242.273 13.0761 240.913 14.3289L243.623 17.2711C245.911 15.1639 247.004 12.3711 247.004 9.104H243.004ZM240.294 15.4815C239.213 22.1789 238.402 27.2908 237.861 30.8144C237.591 32.5752 237.387 33.9459 237.25 34.9218C237.127 35.8009 237.028 36.55 237.028 36.896H241.028C241.028 36.906 241.064 36.5241 241.211 35.4772C241.344 34.5271 241.545 33.1768 241.815 31.4216C242.354 27.9132 243.163 22.8131 244.242 16.1185L240.294 15.4815ZM237.028 36.896C237.028 37.2801 237.05 37.7584 237.177 38.2014C237.239 38.4192 237.371 38.7917 237.671 39.1426C238.023 39.5528 238.592 39.904 239.316 39.904V35.904C239.944 35.904 240.429 36.2132 240.709 36.5394C240.937 36.8063 241.009 37.0527 241.023 37.1026C241.054 37.2096 241.028 37.1839 241.028 36.896H237.028ZM239.316 39.904C240.068 39.904 240.578 39.5143 240.753 39.3709C240.983 39.183 241.163 38.9722 241.291 38.8079C241.553 38.4708 241.815 38.0418 242.072 37.5793L238.576 35.6367C238.353 36.0382 238.207 36.2572 238.133 36.3521C238.093 36.4038 238.123 36.355 238.221 36.2751C238.272 36.2327 238.379 36.1518 238.539 36.0763C238.697 36.0011 238.966 35.904 239.316 35.904V39.904ZM242.055 37.6101C242.644 36.5923 243.5 34.7955 244.601 32.305L240.943 30.687C239.836 33.1885 239.06 34.7997 238.593 35.6059L242.055 37.6101ZM244.607 32.2922C245.703 29.7667 246.573 27.9928 247.223 26.909L243.793 24.851C243.003 26.1672 242.049 28.1373 240.937 30.6998L244.607 32.2922ZM247.227 26.9022C248.033 25.5464 248.806 25.216 249.54 25.216V21.216C247.01 21.216 245.095 22.6616 243.789 24.8578L247.227 26.9022ZM249.54 25.216C249.864 25.216 250.055 25.2877 250.183 25.3677C250.317 25.4516 250.5 25.6181 250.692 25.977C251.108 26.7545 251.428 28.1769 251.428 30.488H255.428C255.428 27.9511 255.1 25.7375 254.22 24.091C253.764 23.2379 253.137 22.4954 252.299 21.9733C251.455 21.4473 250.512 21.216 249.54 21.216V25.216ZM251.428 30.488C251.428 34.1457 250.575 38.9012 248.778 44.8103L252.606 45.9737C254.457 39.8828 255.428 34.7023 255.428 30.488H251.428ZM248.752 44.9069C248.665 45.2527 248.62 45.6075 248.62 45.968H252.62C252.62 45.9445 252.623 45.9153 252.632 45.8771L248.752 44.9069ZM248.62 45.968C248.62 46.4956 248.736 47.2646 249.32 47.9073C249.937 48.5862 250.74 48.76 251.34 48.76V44.76C251.46 44.76 251.903 44.8018 252.28 45.2167C252.449 45.4029 252.537 45.5946 252.579 45.7345C252.619 45.8671 252.62 45.9549 252.62 45.968H248.62ZM251.34 48.76C251.891 48.76 252.358 48.5853 252.686 48.4244C253.028 48.2563 253.347 48.0385 253.636 47.8121C254.212 47.3606 254.835 46.7415 255.493 46.0071L252.515 43.3369C251.925 43.9945 251.48 44.4194 251.168 44.6639C251.013 44.7855 250.933 44.8287 250.921 44.8346C250.895 44.8477 251.053 44.76 251.34 44.76V48.76ZM255.468 46.0348C256.103 45.3522 256.574 44.8789 256.895 44.588C257.06 44.4387 257.144 44.3748 257.165 44.3603C257.177 44.3525 257.131 44.386 257.041 44.4282C256.985 44.4544 256.709 44.584 256.308 44.584V40.584C255.847 40.584 255.495 40.7354 255.346 40.805C255.163 40.8907 255.007 40.9895 254.893 41.0687C254.662 41.2282 254.428 41.4253 254.209 41.624C253.762 42.0291 253.201 42.5998 252.54 43.3092L255.468 46.0348ZM256.308 44.584C255.761 44.584 255.333 44.3506 255.067 44.1098C254.833 43.8981 254.725 43.687 254.69 43.6112C254.62 43.4651 254.63 43.4118 254.656 43.5799C254.703 43.8759 254.74 44.4324 254.74 45.32H258.74C258.74 44.3836 258.705 43.5721 258.608 42.9561C258.562 42.6682 258.482 42.2729 258.304 41.8988C258.181 41.6382 257.618 40.584 256.308 40.584V44.584Z" fill="#2318C6" mask="url(#path-1-outside-1_0_1)"/>
<path d="M132.5 14L133.51 18.4914H136.78L134.135 21.2672L135.145 25.7586L132.5 22.9828L129.855 25.7586L130.865 21.2672L128.22 18.4914H131.49L132.5 14Z" fill="white"/>
<path d="M177 46L179.021 52.2188H185.56L180.269 56.0623L182.29 62.2812L177 58.4377L171.71 62.2812L173.731 56.0623L168.44 52.2188H174.979L177 46Z" fill="white"/>
<path d="M253.857 13.8617L254.736 18.3831L258.051 18.49L255.28 21.1774L256.159 25.6988L253.567 22.8384L250.796 25.5259L251.965 21.0706L249.373 18.2101L252.688 18.317L253.857 13.8617Z" fill="white"/>
<path d="M95.5 23L96.5103 26.1094H99.7798L97.1347 28.0312L98.145 31.1406L95.5 29.2188L92.855 31.1406L93.8653 28.0312L91.2202 26.1094H94.4897L95.5 23Z" fill="white"/>
<path d="M106.5 59L107.959 59.3455H112.682L108.861 59.559L110.321 59.9045L106.5 59.691L102.679 59.9045L104.139 59.559L100.318 59.3455H105.041L106.5 59Z" fill="white"/>
<path d="M27.5 0L28.7348 3.10942H32.7308L29.498 5.03115L30.7328 8.14058L27.5 6.21885L24.2672 8.14058L25.502 5.03115L22.2692 3.10942H26.2652L27.5 0Z" fill="white"/>
<path d="M201 14L203.021 20.2188H209.56L204.269 24.0623L206.29 30.2812L201 26.4377L195.71 30.2812L197.731 24.0623L192.44 20.2188H198.979L201 14Z" fill="white"/>
<path d="M232.5 14L233.286 16.4184H235.829L233.771 17.9131L234.557 20.3316L232.5 18.8369L230.443 20.3316L231.229 17.9131L229.171 16.4184H231.714L232.5 14Z" fill="white"/>
<path d="M229 46L231.021 52.2188H237.56L232.269 56.0623L234.29 62.2812L229 58.4377L223.71 62.2812L225.731 56.0623L220.44 52.2188H226.979L229 46Z" fill="white"/>
<path d="M72 59L73.1226 62.1094H76.7553L73.8164 64.0312L74.9389 67.1406L72 65.2188L69.0611 67.1406L70.1836 64.0312L67.2447 62.1094H70.8774L72 59Z" fill="white"/>
<path d="M16.5 32L20.2045 44.0922L32.1924 44.0922L22.494 51.5656L26.1985 63.6578L16.5 56.1844L6.80154 63.6578L10.506 51.5656L0.807568 44.0922L12.7955 44.0922L16.5 32Z" fill="white"/>
<path d="M152.5 0L153.51 3.10942H156.78L154.135 5.03115L155.145 8.14058L152.5 6.21885L149.855 8.14058L150.865 5.03115L148.22 3.10942H151.49L152.5 0Z" fill="white"/>
<defs>
<linearGradient id="paint0_linear_0_1" x1="136.5" y1="-13" x2="136.5" y2="77" gradientUnits="userSpaceOnUse">
<stop stop-color="#6863F1"/>
<stop offset="1" stop-color="#312E81"/>
</linearGradient>
</defs>
</svg>
